<svg width="512" height="512" viewBox="0 0 512 512" fill="none" xmlns="http://www.w3.org/2000/svg">
<rect width="512" height="512" fill="#E5E5E5"/>
<g clip-path="url(#clip0)">
<g clip-path="url(#clip1)">
<path d="M294.439 191.177C279.155 184.166 274.193 169.672 272.587 161.532C271.918 158.139 268.733 155.656 264.975 155.656C261.217 155.656 258.032 158.139 257.362 161.532C255.757 169.671 250.794 184.166 235.511 191.177C213.585 201.237 213.585 225.127 232.77 232.672C251.496 240.035 264.975 220.412 264.975 220.412C264.975 220.412 278.454 240.034 297.179 232.672C316.366 225.127 316.366 201.237 294.439 191.177Z" fill="#F4DBCE"/>
<path d="M277.69 195.144C277.69 200.829 271.171 206.761 264.975 206.761C258.779 206.761 252.259 200.829 252.259 195.144C252.259 189.458 258.779 191.75 264.975 191.75C271.171 191.749 277.69 189.458 277.69 195.144Z" fill="#7D3D1A"/>
<path d="M288.832 236.906C278.502 236.906 269.897 230.469 264.975 224.868C258.612 232.106 246.091 240.746 231.651 235.067C222.067 231.299 216.17 223.566 215.875 214.38C215.542 203.979 222.579 194.194 234.24 188.845C248.446 182.328 253.072 168.644 254.566 161.068C255.482 156.42 259.861 153.048 264.975 153.048C270.09 153.048 274.468 156.421 275.384 161.068C276.877 168.644 281.504 182.328 295.709 188.845C307.37 194.194 314.407 203.979 314.074 214.38C313.78 223.566 307.883 231.299 298.299 235.067C295.03 236.353 291.857 236.905 288.832 236.906V236.906ZM264.975 217.804C265.95 217.804 266.858 218.263 267.379 219.021C267.409 219.064 270.624 223.668 275.896 227.311C282.562 231.918 289.346 232.916 296.061 230.275C303.556 227.328 308.166 221.328 308.394 214.228C308.661 205.88 302.828 197.941 293.169 193.51C276.75 185.978 271.475 170.533 269.792 161.997C269.366 159.834 267.34 158.264 264.976 158.264C262.612 158.264 260.586 159.834 260.16 161.998C258.477 170.534 253.202 185.978 236.783 193.51C227.124 197.942 221.291 205.88 221.558 214.229C221.785 221.329 226.396 227.329 233.891 230.276C250.199 236.689 262.451 219.2 262.573 219.022C263.091 218.264 264 217.804 264.975 217.804V217.804Z" fill="black"/>
<path d="M264.975 209.369C257.124 209.369 249.417 202.322 249.417 195.144C249.417 193.055 250.1 191.424 251.447 190.298C253.833 188.303 257.279 188.597 260.926 188.908C262.269 189.022 263.657 189.141 264.974 189.141C266.29 189.141 267.678 189.022 269.022 188.908C272.668 188.596 276.114 188.302 278.501 190.298C279.848 191.424 280.531 193.055 280.531 195.144C280.532 202.322 272.826 209.369 264.975 209.369V209.369ZM256.95 193.901C256.14 193.901 255.486 193.965 255.275 194.153C255.274 194.154 255.101 194.37 255.101 195.144C255.101 199.354 260.361 204.154 264.976 204.154C269.591 204.154 274.85 199.354 274.85 195.144C274.85 194.371 274.677 194.155 274.674 194.153C274.175 193.706 271.168 193.963 269.55 194.102C268.079 194.228 266.556 194.357 264.976 194.357C263.396 194.357 261.874 194.227 260.402 194.102C259.464 194.021 258.062 193.901 256.95 193.901V193.901Z" fill="black"/>
<path d="M264.728 223.699C263.158 223.699 261.886 222.532 261.886 221.092V208.809C261.886 207.368 263.158 206.201 264.728 206.201C266.298 206.201 267.57 207.368 267.57 208.809V221.092C267.57 222.532 266.298 223.699 264.728 223.699Z" fill="black"/>
<path d="M311.951 116.378C310.129 116.335 308.511 116.355 307.078 116.426C301.716 116.693 299.699 123.095 304.121 125.89C308.504 128.662 313.204 133.857 313.402 143.427C313.778 161.519 323.258 211.85 337.294 207.766C348.143 204.609 327.356 188.579 350.844 167.25C374.331 145.922 331.768 116.847 311.951 116.378V116.378Z" fill="#EAA250"/>
<path d="M218.068 116.378C219.89 116.335 221.508 116.355 222.941 116.426C228.303 116.693 230.32 123.095 225.898 125.89C221.515 128.662 216.815 133.857 216.617 143.427C216.241 161.519 206.761 211.85 192.725 207.766C181.876 204.609 202.663 188.579 179.175 167.25C155.69 145.922 198.252 116.847 218.068 116.378V116.378Z" fill="#EAA250"/>
<path d="M313.402 143.427C313.204 133.857 308.504 128.662 304.121 125.89C301.66 124.335 301.199 121.664 302.193 119.553C292.847 114.428 284.014 113.359 277.299 113.655C269.084 114.017 260.867 114.017 252.652 113.655C245.952 113.36 237.14 114.425 227.816 119.523C228.828 121.638 228.371 124.328 225.899 125.891C221.516 128.663 216.817 133.858 216.618 143.428C216.273 160.044 208.248 203.843 196.069 207.721C198.403 218.966 212.067 226.098 227.956 230.19C213.774 220.838 215.607 200.31 235.511 191.179C250.794 184.168 255.757 169.674 257.362 161.534C258.032 158.141 261.217 155.658 264.975 155.658C268.733 155.658 271.918 158.141 272.587 161.534C274.192 169.673 279.155 184.168 294.439 191.179C314.343 200.31 316.176 220.838 301.993 230.19C317.894 226.095 331.565 218.956 333.885 207.698C321.743 203.681 313.747 160.012 313.402 143.427V143.427Z" fill="#EAA250"/>
<path d="M335.682 210.606C334.165 210.606 332.375 210.206 330.483 208.96C324.916 205.296 320.023 195.175 315.94 178.881C312.461 164.998 310.713 150.797 310.562 143.476C310.417 136.518 307.708 131.324 302.509 128.037C299.491 126.129 298.186 122.791 299.188 119.531C300.196 116.247 303.233 114.005 306.925 113.821C308.479 113.743 310.195 113.726 312.026 113.77C326.858 114.122 351.777 128.698 358.635 144.582C362.543 153.633 360.541 162.114 352.843 169.103C339.619 181.111 341.482 190.946 342.841 198.126C343.746 202.906 344.772 208.325 338.153 210.25C337.461 210.452 336.623 210.606 335.682 210.606V210.606ZM310.096 118.962C309.083 118.962 308.126 118.984 307.231 119.029C305.36 119.122 304.787 120.519 304.657 120.945C304.529 121.361 304.229 122.792 305.733 123.742C310.403 126.695 316.017 132.498 316.244 143.376C316.602 160.657 324.262 198.446 333.796 204.722C335.033 205.537 335.856 205.447 336.435 205.279C337.962 204.835 338.282 204.52 337.241 199.019C335.845 191.653 333.51 179.322 348.844 165.397C354.881 159.916 356.397 153.558 353.35 146.503C346.96 131.703 323.684 119.263 311.879 118.983C311.268 118.969 310.673 118.962 310.096 118.962V118.962Z" fill="black"/>
<path d="M194.337 210.606C193.395 210.606 192.558 210.452 191.867 210.25C185.248 208.325 186.274 202.906 187.179 198.126C188.538 190.946 190.402 181.113 177.177 169.103C169.48 162.113 167.477 153.633 171.385 144.582C178.244 128.699 203.163 114.123 217.995 113.771C219.824 113.727 221.542 113.744 223.096 113.821C226.788 114.005 229.825 116.247 230.833 119.531C231.834 122.791 230.53 126.129 227.512 128.037C222.313 131.324 219.603 136.518 219.459 143.477C219.308 150.798 217.56 164.999 214.082 178.882C209.999 195.177 205.105 205.297 199.538 208.961C197.645 210.206 195.854 210.606 194.337 210.606V210.606ZM219.924 118.962C219.347 118.962 218.752 118.969 218.143 118.984C206.337 119.263 183.062 131.704 176.67 146.504C173.624 153.559 175.139 159.916 181.176 165.398C196.51 179.323 194.174 191.654 192.78 199.02C191.737 204.522 192.058 204.836 193.585 205.28C194.164 205.45 194.986 205.539 196.224 204.724C200.447 201.945 204.936 192.1 208.54 177.713C211.928 164.193 213.629 150.438 213.775 143.379C214.001 132.501 219.615 126.698 224.286 123.744C225.79 122.794 225.49 121.363 225.362 120.947C225.232 120.521 224.659 119.123 222.788 119.03C221.895 118.984 220.936 118.962 219.924 118.962V118.962ZM218.068 116.378H218.079H218.068Z" fill="black"/>
<path d="M301.993 232.798C300.925 232.798 299.915 232.241 299.433 231.32C298.835 230.18 299.216 228.81 300.336 228.072C305.975 224.354 308.891 218.564 308.336 212.189C307.67 204.544 302 197.562 293.169 193.51C276.751 185.978 271.476 170.533 269.792 161.998C269.366 159.835 267.34 158.264 264.976 158.264C262.612 158.264 260.586 159.834 260.16 161.998C258.477 170.533 253.202 185.978 236.783 193.51C227.952 197.562 222.282 204.545 221.616 212.189C221.06 218.564 223.977 224.354 229.616 228.072C230.736 228.81 231.117 230.18 230.519 231.32C229.921 232.46 228.517 233.042 227.189 232.7C207.265 227.568 195.538 219.098 193.277 208.208C193.014 206.936 193.806 205.68 195.138 205.256C196.709 204.755 202.284 201.437 208.021 179.736C211.584 166.254 213.614 151.241 213.777 143.378C214.003 132.5 219.617 126.696 224.288 123.743C225.674 122.867 225.653 121.487 225.215 120.57C224.638 119.365 225.129 117.955 226.362 117.282C234.67 112.739 243.567 110.639 252.788 111.049C260.876 111.405 269.076 111.405 277.163 111.049C286.416 110.643 295.328 112.749 303.652 117.314C304.876 117.986 305.368 119.385 304.802 120.587C304.372 121.499 304.359 122.873 305.734 123.742C310.405 126.695 316.019 132.498 316.245 143.376C316.639 162.333 325.305 202.085 334.85 205.241C336.163 205.676 336.938 206.921 336.679 208.178C334.432 219.083 322.705 227.561 302.764 232.696C302.506 232.766 302.248 232.798 301.993 232.798V232.798ZM199.361 209.04C201.896 216.308 210.096 221.271 218.866 224.593C216.598 220.753 215.553 216.334 215.949 211.773C216.776 202.293 223.613 193.722 234.24 188.847C248.446 182.329 253.072 168.646 254.566 161.07C255.482 156.422 259.86 153.05 264.975 153.05C270.09 153.05 274.468 156.423 275.384 161.07C276.877 168.646 281.506 182.33 295.709 188.847C306.337 193.722 313.174 202.293 314 211.773C314.398 216.333 313.351 220.753 311.084 224.593C319.868 221.265 328.08 216.292 330.6 209.002C317.388 200.258 310.844 157.091 310.562 143.477C310.417 136.519 307.708 131.324 302.509 128.037C299.883 126.376 298.575 123.624 298.91 120.84C292.096 117.471 284.875 115.929 277.436 116.258C269.168 116.623 260.784 116.623 252.515 116.258C245.099 115.933 237.905 117.461 231.111 120.806C231.462 123.601 230.155 126.367 227.512 128.037C222.314 131.324 219.604 136.518 219.459 143.477C219.175 157.141 212.611 200.373 199.361 209.04V209.04Z" fill="black"/>
<path d="M278.721 232.009C270.224 228.052 264.975 220.413 264.975 220.413C264.975 220.413 259.503 228.364 250.695 232.242L248.798 243.342C247.264 252.318 254.826 260.43 264.729 260.43C274.632 260.43 282.195 252.318 280.66 243.342L278.721 232.009Z" fill="#FD605B"/>
<path d="M277.927 231.609C278.191 231.742 278.45 231.882 278.721 232.008L280.658 243.341C281.095 245.894 280.774 248.369 279.894 250.616C286.47 246.926 291.8 240.866 294.952 233.415C288.448 235.291 282.651 233.988 277.927 231.609V231.609Z" fill="#52565B"/>
<path d="M248.797 243.342L250.694 232.242C250.799 232.196 250.897 232.143 251.001 232.095C246.572 234.107 241.281 235.109 235.399 233.525C238.381 240.516 243.276 246.291 249.326 250.004C248.622 247.924 248.4 245.664 248.797 243.342V243.342Z" fill="#52565B"/>
<path d="M249.326 250.005C243.276 246.292 238.381 240.517 235.399 233.526C234.534 233.293 233.659 233.022 232.769 232.672C230.999 231.976 229.397 231.14 227.955 230.189C220.903 228.373 214.297 225.954 208.918 222.847C213.09 238.276 229.93 250.555 251.58 254.187C250.6 252.919 249.835 251.511 249.326 250.005V250.005Z" fill="#039BE6"/>
<path d="M301.993 230.188C300.552 231.139 298.949 231.975 297.179 232.671C296.427 232.967 295.687 233.204 294.952 233.415C291.8 240.865 286.471 246.926 279.895 250.616C279.386 251.916 278.693 253.138 277.824 254.247C299.604 250.706 316.59 238.426 320.84 222.962C315.496 226.015 308.959 228.394 301.993 230.188V230.188Z" fill="#039BE6"/>
<path d="M264.728 263.038C259.176 263.038 253.923 260.818 250.315 256.947C246.705 253.076 245.13 247.97 245.99 242.938L247.888 231.838C248.032 230.99 248.622 230.262 249.465 229.891C257.444 226.377 262.522 219.092 262.572 219.019C263.092 218.263 264 217.804 264.975 217.804C265.951 217.804 266.858 218.264 267.378 219.021C267.424 219.088 272.346 226.117 280.007 229.684C280.821 230.063 281.387 230.778 281.528 231.605L283.465 242.938C284.325 247.97 282.75 253.075 279.141 256.947C275.534 260.818 270.28 263.038 264.728 263.038V263.038ZM253.279 233.957L251.606 243.746C251.003 247.27 252.107 250.846 254.634 253.557C257.162 256.268 260.841 257.823 264.729 257.823C268.618 257.823 272.296 256.268 274.823 253.557C277.35 250.846 278.454 247.27 277.852 243.746L276.133 233.69C271.092 231.054 267.259 227.363 264.974 224.793C262.607 227.451 258.584 231.31 253.279 233.957V233.957Z" fill="black"/>
<path d="M279.895 253.224C279.257 253.224 278.62 253.027 278.101 252.638C277.166 251.939 276.813 250.776 277.221 249.735C277.986 247.782 278.197 245.767 277.852 243.746L276.121 233.623C275.085 232.842 274.767 231.472 275.435 230.354C276.189 229.092 277.915 228.629 279.293 229.322L279.294 229.323C284.216 231.802 289.196 232.342 294.101 230.928C295.142 230.629 296.28 230.902 297.027 231.634C297.774 232.366 297.997 233.426 297.601 234.359C294.244 242.29 288.483 248.853 281.377 252.841C280.92 253.098 280.407 253.224 279.895 253.224V253.224ZM282.295 236.087L283.466 242.939C283.562 243.505 283.63 244.072 283.665 244.638C286.133 242.443 288.296 239.824 290.059 236.888C287.463 237.029 284.873 236.762 282.295 236.087V236.087Z" fill="black"/>
<path d="M249.326 252.612C248.775 252.612 248.225 252.466 247.746 252.172C241.242 248.181 235.918 241.896 232.752 234.476C232.357 233.55 232.57 232.499 233.304 231.764C234.036 231.03 235.159 230.744 236.199 231.024C240.677 232.231 245.236 231.805 249.741 229.759C251.147 229.119 252.851 229.647 253.547 230.936C254.021 231.813 253.908 232.818 253.345 233.572L251.606 243.746C251.29 245.597 251.437 247.443 252.041 249.232C252.398 250.286 251.992 251.434 251.026 252.094C250.523 252.439 249.925 252.612 249.326 252.612V252.612ZM240.252 236.899C241.824 239.516 243.716 241.888 245.853 243.927C245.888 243.598 245.935 243.268 245.992 242.938L247.142 236.207C244.853 236.759 242.558 236.99 240.252 236.899V236.899Z" fill="black"/>
<path d="M288.644 171.939C287.078 171.939 285.806 170.777 285.802 169.34C285.793 166.751 286.883 164.314 288.871 162.478C290.86 160.642 293.509 159.626 296.33 159.618H296.365C299.173 159.618 301.815 160.617 303.807 162.434C305.809 164.258 306.915 166.688 306.925 169.277C306.93 170.717 305.663 171.889 304.093 171.893C304.089 171.893 304.086 171.893 304.084 171.893C302.518 171.893 301.246 170.731 301.242 169.294C301.237 168.098 300.726 166.975 299.802 166.133C298.877 165.291 297.662 164.823 296.348 164.833C295.046 164.836 293.821 165.305 292.903 166.154C291.984 167.002 291.481 168.128 291.485 169.323C291.49 170.763 290.222 171.934 288.653 171.939C288.65 171.939 288.647 171.939 288.644 171.939V171.939Z" fill="black"/>
<path d="M241.502 171.916C239.932 171.916 238.66 170.749 238.66 169.308C238.66 166.841 236.472 164.833 233.781 164.833C231.09 164.833 228.903 166.841 228.903 169.308C228.903 170.749 227.631 171.916 226.062 171.916C224.492 171.916 223.22 170.749 223.22 169.308C223.22 163.965 227.958 159.618 233.781 159.618C239.606 159.618 244.343 163.965 244.343 169.308C244.343 170.749 243.071 171.916 241.502 171.916V171.916Z" fill="black"/>
<path d="M251.581 256.793C251.411 256.793 251.24 256.78 251.069 256.751C228.218 252.918 210.591 239.857 206.16 223.474C205.88 222.441 206.313 221.357 207.252 220.733C208.192 220.108 209.451 220.073 210.432 220.639C215.257 223.426 221.411 225.794 228.724 227.678C229.043 227.76 229.344 227.893 229.614 228.07C230.916 228.93 232.356 229.671 233.889 230.274C234.582 230.547 235.316 230.785 236.199 231.023C237.042 231.25 237.723 231.823 238.045 232.574C240.791 239.011 245.36 244.431 250.906 247.835C251.447 248.167 251.847 248.66 252.04 249.23C252.456 250.46 253.081 251.618 253.897 252.674C254.566 253.538 254.598 254.689 253.977 255.584C253.45 256.346 252.54 256.793 251.581 256.793V256.793ZM214.156 228.382C219.437 238.149 230.479 246.003 244.531 249.938C239.812 246.256 235.907 241.311 233.272 235.641C232.703 235.462 232.171 235.273 231.65 235.067C229.899 234.379 228.241 233.543 226.716 232.577C222.1 231.367 217.9 229.964 214.156 228.382V228.382Z" fill="black"/>
<path d="M277.823 256.855C276.858 256.855 275.944 256.403 275.419 255.637C274.803 254.739 274.842 253.588 275.516 252.727C276.224 251.823 276.797 250.816 277.221 249.735C277.44 249.176 277.86 248.702 278.412 248.392C284.462 244.997 289.396 239.344 292.303 232.472C292.615 231.734 293.276 231.167 294.1 230.929C294.859 230.71 295.481 230.502 296.06 230.275C297.595 229.671 299.034 228.93 300.336 228.072C300.605 227.894 300.907 227.761 301.226 227.679C308.458 225.816 314.552 223.485 319.338 220.75C320.323 220.188 321.58 220.229 322.516 220.857C323.452 221.484 323.88 222.569 323.597 223.601C319.077 240.041 301.306 253.078 278.32 256.815C278.154 256.841 277.988 256.855 277.823 256.855V256.855ZM297.096 235.504C294.503 241.14 290.679 246.03 286.026 249.719C299.669 245.731 310.382 238.029 315.586 228.473C311.897 230.016 307.767 231.389 303.233 232.577C301.709 233.542 300.052 234.379 298.299 235.068C297.912 235.22 297.517 235.364 297.096 235.504Z" fill="black"/>
<path d="M384.877 268.131L381.273 266.008C380.905 265.792 380.837 265.331 381.117 265.025C398.237 246.242 390.619 224.962 389.065 221.191C388.927 220.857 388.532 220.689 388.162 220.801L384.973 221.764C384.56 221.889 384.128 221.646 384.043 221.255C380.428 204.72 366.643 199.986 362.351 198.898C361.791 198.756 361.303 199.245 361.482 199.75C373.45 233.432 348.729 258.562 333.817 270.068C333.982 271.435 334.128 272.818 334.254 274.217C344.23 274.129 354.069 276.296 359.657 283.556C375.855 278.49 383.203 271.199 385.056 269.105C385.326 268.795 385.241 268.344 384.877 268.131V268.131Z" fill="#EAA250"/>
<path d="M359.656 286.162C358.751 286.162 357.878 285.765 357.334 285.059C353.053 279.497 345.317 276.718 334.282 276.824C334.273 276.824 334.264 276.824 334.254 276.824C332.779 276.824 331.546 275.785 331.423 274.433C331.298 273.058 331.155 271.697 330.992 270.354C330.887 269.488 331.261 268.632 331.988 268.072C346.872 256.588 370.145 232.545 358.78 200.558C358.371 199.404 358.683 198.145 359.593 197.272C360.497 196.405 361.844 196.065 363.108 196.385C367.491 197.495 381.677 202.308 386.298 218.619L387.276 218.324C389.092 217.772 391.047 218.628 391.724 220.268C393.435 224.423 400.912 245.614 384.793 264.983L386.413 265.937C387.269 266.441 387.852 267.257 388.012 268.175C388.172 269.09 387.898 270.028 387.262 270.748C385.274 272.996 377.474 280.74 360.573 286.025C360.271 286.117 359.961 286.162 359.656 286.162V286.162ZM336.852 271.637C347.51 271.963 355.493 274.928 360.638 280.469C371.933 276.648 378.291 271.834 381.243 269.089L379.738 268.202C378.879 267.697 378.298 266.876 378.144 265.95C377.99 265.019 378.28 264.072 378.938 263.35C393.241 247.657 389.211 230.162 387.065 223.875L385.86 224.239C384.896 224.531 383.84 224.429 382.963 223.96C382.08 223.488 381.457 222.689 381.255 221.767C378.715 210.143 370.674 204.919 365.383 202.694C369.409 216.852 367.693 230.863 360.267 244.396C353.791 256.194 344.15 265.333 336.8 271.159C336.817 271.319 336.834 271.477 336.852 271.637Z" fill="black"/>
<path d="M282.979 368.926C283.344 366.973 283.914 364.87 284.806 363.072C286.227 360.207 287.047 357.146 287.047 354.025V294.45C287.047 287.287 282.586 281.048 275.958 277.671C272.641 276.27 268.932 275.461 265.01 275.407C261.088 275.461 257.379 276.27 254.062 277.671C247.435 281.047 242.974 287.287 242.974 294.45V354.025C242.974 357.146 243.793 360.207 245.214 363.072C246.105 364.87 246.676 366.973 247.041 368.926C247.118 369.338 247.139 369.744 247.114 370.141C252.681 371.975 258.704 373.002 265.01 373.002C271.317 373.002 277.34 371.976 282.907 370.141C282.882 369.744 282.902 369.337 282.979 368.926Z" fill="#F4DBCE"/>
<path d="M343.606 358.997L357.746 328.26C375.13 283.497 354.956 274.032 334.249 274.216C336.327 297.177 333.027 324.447 316.236 351.58C314.232 354.818 315.194 358.82 318.457 361.159C320.504 362.627 322.726 364.478 324.538 366.621C327.262 369.842 325.136 374.238 321.005 375.194L321.217 375.39H363.637C368.351 356.949 343.606 358.997 343.606 358.997Z" fill="#EAA250"/>
<path d="M205.481 366.621C207.294 364.478 209.515 362.627 211.562 361.159C214.825 358.82 215.787 354.818 213.783 351.58C196.991 324.448 193.692 297.177 195.77 274.216C175.064 274.032 154.89 283.497 172.273 328.26L186.413 358.997C186.413 358.997 161.668 356.948 166.382 375.39H208.802L209.014 375.194C204.883 374.238 202.757 369.842 205.481 366.621V366.621Z" fill="#EAA250"/>
<path d="M320.547 223.935C315.863 238.939 299.145 250.781 277.824 254.248V254.247C274.919 257.96 270.184 260.429 264.728 260.429C259.241 260.429 254.481 257.932 251.58 254.185C230.583 250.664 214.113 239.008 209.331 224.235C199.6 245.158 181.019 298.638 213.783 351.578C215.787 354.817 214.825 358.819 211.562 361.158C209.515 362.626 207.293 364.477 205.481 366.62C202.409 370.253 205.499 375.389 210.686 375.389H240.741C244.688 375.389 247.673 372.312 247.041 368.925C246.676 366.972 246.106 364.869 245.214 363.071C243.793 360.206 242.974 357.145 242.974 354.024V294.449C242.974 283.801 252.81 275.162 265.01 274.997C277.21 275.163 287.047 283.801 287.047 294.449V354.024C287.047 357.145 286.227 360.206 284.806 363.071C283.915 364.869 283.344 366.972 282.979 368.925C282.347 372.313 285.332 375.389 289.279 375.389H319.334C324.52 375.389 327.611 370.253 324.539 366.62C322.726 364.477 320.505 362.626 318.459 361.158C315.195 358.819 314.233 354.817 316.237 351.578C349.161 298.378 330.237 244.637 320.547 223.935V223.935Z" fill="#EAA250"/>
<path d="M363.637 377.999H321.217C320.459 377.999 319.734 377.721 319.2 377.228L318.987 377.032C318.269 376.368 317.994 375.4 318.266 374.498C318.539 373.596 319.319 372.897 320.309 372.668C321.453 372.403 322.392 371.633 322.757 370.659C322.98 370.062 323.082 369.155 322.293 368.222C320.864 366.534 318.985 364.849 316.707 363.216C312.317 360.068 311.079 354.634 313.764 350.295C327.957 327.362 333.896 301.838 331.416 274.435C331.35 273.714 331.615 272.999 332.148 272.463C332.681 271.927 333.43 271.619 334.22 271.612C347.187 271.495 356.506 274.979 361.929 281.962C369.365 291.539 368.858 307.411 360.422 329.138C360.404 329.185 360.384 329.231 360.363 329.277L347.894 356.381C352.502 356.623 359.518 357.765 363.69 362.17C366.953 365.617 367.866 370.266 366.404 375.989C366.103 377.166 364.957 377.999 363.637 377.999V377.999ZM327.956 372.784H361.273C361.695 369.729 361.078 367.366 359.408 365.596C355.632 361.595 346.898 361.352 343.856 361.595C342.876 361.678 341.897 361.271 341.31 360.532C340.724 359.793 340.6 358.826 340.987 357.984L355.096 327.316C362.849 307.325 363.59 293.084 357.301 284.986C353.425 279.994 346.707 277.272 337.312 276.873C339.232 304.256 332.979 329.809 318.708 352.868C317.405 354.973 318.021 357.539 320.207 359.105C322.854 361.003 325.066 362.994 326.783 365.022C328.588 367.156 329.08 369.829 328.132 372.355C328.078 372.5 328.02 372.642 327.956 372.784Z" fill="black"/>
<path d="M208.803 377.999H166.382C165.062 377.999 163.916 377.166 163.615 375.987C162.152 370.264 163.066 365.616 166.329 362.168C170.5 357.762 177.517 356.621 182.125 356.379L169.656 329.275C169.635 329.229 169.615 329.183 169.597 329.136C161.161 307.409 160.652 291.536 168.09 281.96C173.513 274.978 182.8 271.499 195.799 271.61C196.589 271.617 197.339 271.925 197.871 272.461C198.403 272.997 198.668 273.711 198.603 274.433C196.123 301.836 202.062 327.36 216.255 350.292C218.941 354.632 217.703 360.067 213.312 363.215C211.035 364.847 209.155 366.533 207.726 368.221C206.937 369.155 207.039 370.062 207.262 370.657C207.629 371.633 208.566 372.402 209.71 372.667C210.7 372.897 211.48 373.596 211.753 374.497C212.025 375.399 211.751 376.367 211.032 377.031L210.819 377.227C210.286 377.72 209.56 377.999 208.803 377.999V377.999ZM168.747 372.784H202.064C202.002 372.643 201.944 372.5 201.889 372.355C200.941 369.829 201.432 367.156 203.238 365.022C204.954 362.995 207.167 361.003 209.813 359.106C211.999 357.538 212.616 354.973 211.314 352.868C197.042 329.809 190.789 304.256 192.709 276.873C183.312 277.271 176.596 279.994 172.72 284.986C166.432 293.084 167.173 307.324 174.925 327.316L189.034 357.984C189.422 358.828 189.299 359.796 188.711 360.535C188.124 361.275 187.154 361.681 186.16 361.595C183.117 361.352 174.39 361.596 170.614 365.597C168.943 367.366 168.325 369.728 168.747 372.784V372.784Z" fill="black"/>
<path d="M265.01 375.61C258.568 375.61 252.224 374.596 246.153 372.595C244.966 372.204 244.202 371.142 244.276 369.988C244.29 369.778 244.277 369.569 244.239 369.364C243.849 367.276 243.307 365.521 242.627 364.15C240.971 360.812 240.132 357.405 240.132 354.024V294.448C240.132 286.636 244.941 279.333 252.682 275.39C252.745 275.357 252.809 275.328 252.873 275.301C256.668 273.698 260.736 272.856 264.967 272.799C269.282 272.856 273.35 273.698 277.145 275.301C277.209 275.328 277.273 275.358 277.336 275.39C285.077 279.334 289.886 286.637 289.886 294.448V354.024C289.886 357.405 289.046 360.812 287.391 364.15C286.711 365.52 286.169 367.275 285.779 369.364C285.74 369.569 285.729 369.778 285.742 369.988C285.815 371.142 285.052 372.204 283.865 372.595C277.796 374.596 271.452 375.61 265.01 375.61ZM249.792 368.222C259.647 371.108 270.373 371.108 280.228 368.222C280.699 365.804 281.367 363.708 282.219 361.991C283.536 359.336 284.204 356.656 284.204 354.025V294.449C284.204 288.561 280.554 283.032 274.67 279.997C271.627 278.727 268.363 278.06 264.967 278.014C261.653 278.06 258.39 278.728 255.348 279.997C249.465 283.034 245.814 288.561 245.814 294.449V354.025C245.814 356.656 246.482 359.336 247.799 361.991C248.652 363.707 249.321 365.802 249.792 368.222V368.222Z" fill="black"/>
<path d="M319.334 377.999H289.279C286.491 377.999 283.883 376.902 282.126 374.989C280.456 373.172 279.746 370.802 280.178 368.486C280.651 365.955 281.338 363.77 282.22 361.991C283.537 359.336 284.205 356.656 284.205 354.025V294.449C284.205 285.304 275.576 277.748 264.969 277.605C254.445 277.749 245.817 285.305 245.817 294.449V354.025C245.817 356.656 246.484 359.336 247.801 361.991C248.683 363.77 249.37 365.955 249.843 368.486C250.275 370.802 249.565 373.172 247.896 374.989C246.137 376.902 243.531 377.999 240.742 377.999H210.687C207.069 377.999 203.858 376.195 202.308 373.29C200.839 370.538 201.187 367.447 203.237 365.022C204.954 362.995 207.166 361.003 209.812 359.106C211.998 357.538 212.615 354.973 211.313 352.868C177.87 298.829 196.959 244.194 206.718 223.213C207.189 222.202 208.308 221.578 209.494 221.633C210.69 221.697 211.715 222.44 212.055 223.494C216.507 237.248 232.223 248.288 252.091 251.62C252.82 251.743 253.468 252.121 253.897 252.676C256.428 255.947 260.376 257.823 264.728 257.823C269.049 257.823 272.981 255.965 275.516 252.727C275.948 252.174 276.599 251.799 277.329 251.681C297.552 248.393 313.443 237.22 317.814 223.217C318.145 222.158 319.167 221.402 320.366 221.333C321.561 221.265 322.683 221.893 323.157 222.905C332.995 243.922 352.257 298.657 318.707 352.867C317.405 354.972 318.021 357.538 320.207 359.103C322.854 361.002 325.066 362.993 326.783 365.021C328.835 367.446 329.181 370.537 327.713 373.289C326.163 376.195 322.952 377.999 319.334 377.999V377.999ZM264.968 272.391C278.746 272.576 289.887 282.471 289.887 294.449V354.025C289.887 357.406 289.047 360.813 287.392 364.151C286.712 365.522 286.17 367.276 285.78 369.366C285.629 370.176 285.875 370.979 286.469 371.627C287.144 372.363 288.168 372.784 289.278 372.784H319.333C321.043 372.784 322.146 371.861 322.608 370.996C322.901 370.446 323.251 369.353 322.293 368.22C320.864 366.532 318.985 364.847 316.707 363.214C312.317 360.066 311.079 354.632 313.764 350.292C343.261 302.632 330.279 254.409 320.567 230.947C313.56 243.582 298.222 253.303 279.411 256.63C275.821 260.661 270.415 263.038 264.727 263.038C258.996 263.038 253.566 260.635 249.976 256.56C231.514 253.195 216.373 243.596 209.351 231.187C199.719 254.593 186.833 302.755 216.253 350.292C218.939 354.632 217.701 360.067 213.31 363.215C211.033 364.847 209.153 366.533 207.724 368.221C206.766 369.354 207.116 370.447 207.409 370.997C207.871 371.862 208.972 372.785 210.684 372.785H240.739C241.848 372.785 242.872 372.364 243.548 371.628C244.143 370.98 244.389 370.177 244.237 369.367C243.847 367.278 243.304 365.523 242.625 364.152C240.968 360.814 240.13 357.407 240.13 354.026V294.45C240.132 282.471 251.273 272.576 264.968 272.391V272.391Z" fill="black"/>
</g>
<path d="M503.22 429.535V462.535C503.22 489.145 481.65 510.715 455.03 510.715H96.97C70.35 510.715 48.78 489.145 48.78 462.535V429.535L104.16 424.345L176.59 417.565L276 408.255L375.41 417.565L503.22 429.535Z" fill="#1D4781"/>
<path d="M503.22 429.535V447.495H104.16V417.564H375.41L503.22 429.535Z" fill="#61A2F9"/>
<path d="M182.765 510.715H96.965C70.355 510.715 48.785 489.145 48.785 462.535V429.535L276.005 408.255L318.905 412.275L134.585 429.535V462.535C134.585 489.144 156.155 510.715 182.765 510.715Z" fill="#1D4781"/>
<path d="M450.512 88.341H101.488C69.235 88.341 42.996 114.581 42.996 146.834V396.975C42.996 405.259 49.712 411.975 57.996 411.975C66.28 411.975 72.996 405.259 72.996 396.975V270.158H128.554V413.602H158.554V270.158H216.851V413.602H246.851V270.158H305.149V413.602H335.149V270.158H393.446V413.602H423.446V270.158H479.004V396.974C479.004 405.258 485.72 411.974 494.004 411.974C502.288 411.974 509.004 405.258 509.004 396.974V146.833C509.004 114.58 482.765 88.341 450.512 88.341ZM72.996 240.158V146.833C72.996 131.122 85.778 118.34 101.488 118.34H128.554V240.157L72.996 240.158ZM158.554 240.158V118.341H216.851V240.158H158.554ZM246.851 240.158V118.341H305.149V240.158H246.851ZM335.149 240.158V118.341H393.446V240.158H335.149ZM423.446 240.158V118.341H450.512C466.222 118.341 479.004 131.123 479.004 146.834V240.159H423.446V240.158Z" fill="#7DF7FF"/>
<path d="M204.248 88.341H101.488C69.238 88.341 42.998 114.581 42.998 146.831V396.971C42.998 405.251 49.708 411.971 57.998 411.971C66.278 411.971 72.998 405.251 72.998 396.971V270.151H128.558V413.601H158.558V411.811C151.308 410.751 145.748 404.501 145.748 396.971V146.831C145.748 114.581 171.988 88.341 204.248 88.341ZM128.558 240.151H72.998V146.831C72.998 131.121 85.778 118.341 101.488 118.341H128.558V240.151Z" fill="#7DF7FF"/>
<path d="M503.217 386.974H48.783C37.029 386.974 27.5 396.503 27.5 408.257C27.5 420.011 37.029 429.54 48.783 429.54H503.218C514.972 429.54 524.501 420.011 524.501 408.257C524.5 396.503 514.971 386.974 503.217 386.974Z" fill="#1D4781"/>
<path d="M105.45 423.307C109.3 427.157 114.62 429.537 120.5 429.537H48.78C42.9 429.537 37.58 427.157 33.73 423.307C29.88 419.457 27.5 414.137 27.5 408.257C27.5 396.507 37.03 386.977 48.78 386.977H120.5C108.74 386.977 99.22 396.507 99.22 408.257C99.22 414.137 101.6 419.457 105.45 423.307Z" fill="#1D4781"/>
<path d="M423.45 247.657H479C483.142 247.657 486.5 244.299 486.5 240.157V146.837C486.5 126.986 470.355 110.837 450.51 110.837H423.45C419.308 110.837 415.95 114.195 415.95 118.337V146.587C415.95 150.729 419.308 154.087 423.45 154.087C427.592 154.087 430.95 150.729 430.95 146.587V125.837H450.51C462.084 125.837 471.5 135.257 471.5 146.837V232.657H430.95V176.587C430.95 172.445 427.592 169.087 423.45 169.087C419.308 169.087 415.95 172.445 415.95 176.587V240.157C415.95 244.299 419.308 247.657 423.45 247.657Z" fill="black"/>
<path d="M335.149 247.658H393.446C397.588 247.658 400.946 244.3 400.946 240.158V118.34C400.946 114.198 397.588 110.84 393.446 110.84H335.149C331.007 110.84 327.649 114.198 327.649 118.34V240.157C327.649 244.3 331.007 247.658 335.149 247.658ZM342.649 125.84H385.946V232.657H342.649V125.84Z" fill="black"/>
<path d="M246.851 247.658H305.149C309.291 247.658 312.649 244.3 312.649 240.158V118.34C312.649 114.198 309.291 110.84 305.149 110.84H246.851C242.709 110.84 239.351 114.198 239.351 118.34V240.157C239.351 244.3 242.709 247.658 246.851 247.658ZM254.351 125.84H297.649V232.657H254.351V125.84Z" fill="black"/>
<path d="M72.996 247.658H128.554C132.696 247.658 136.054 244.3 136.054 240.158V118.34C136.054 114.198 132.696 110.84 128.554 110.84H101.488C81.642 110.84 65.496 126.986 65.496 146.833V240.158C65.496 244.3 68.854 247.658 72.996 247.658ZM80.496 146.833C80.496 135.258 89.913 125.84 101.488 125.84H121.054V232.657H80.496V146.833Z" fill="black"/>
<path d="M158.554 247.658H216.851C220.993 247.658 224.351 244.3 224.351 240.158V118.34C224.351 114.198 220.993 110.84 216.851 110.84H158.554C154.412 110.84 151.054 114.198 151.054 118.34V240.157C151.054 244.3 154.412 247.658 158.554 247.658ZM166.054 125.84H209.351V232.657H166.054V125.84Z" fill="black"/>
<path d="M532 408.257C532 400.58 529.01 393.354 523.573 387.904C521.461 385.792 519.075 384.054 516.5 382.712V146.835C516.5 110.448 486.897 80.845 450.51 80.845H356.659V58.551C356.659 36.742 338.916 19 317.108 19H234.892C213.083 19 195.341 36.743 195.341 58.551V80.844H101.49C65.103 80.844 35.5 110.447 35.5 146.834V382.737C26.299 387.545 20 397.176 20 408.257C20 415.934 22.99 423.159 28.427 428.611C32.047 432.23 36.465 434.759 41.283 436.049V462.531C41.283 493.235 66.262 518.214 96.966 518.214H455.035C485.739 518.214 510.718 493.235 510.718 462.531V436.04C522.962 432.733 532 421.533 532 408.257ZM210.341 58.551C210.341 45.013 221.355 34 234.892 34H317.108C330.646 34 341.659 45.014 341.659 58.551V80.844H210.341V58.551ZM101.49 95.844H450.51C478.626 95.844 501.5 118.718 501.5 146.834V379.477H486.5V270.154C486.5 266.012 483.142 262.654 479 262.654H423.45C419.308 262.654 415.95 266.012 415.95 270.154V379.477H400.95V270.154C400.95 266.012 397.592 262.654 393.45 262.654H335.15C331.008 262.654 327.65 266.012 327.65 270.154V379.477H312.65V270.154C312.65 266.012 309.292 262.654 305.15 262.654H246.85C242.708 262.654 239.35 266.012 239.35 270.154V379.477H224.35V270.154C224.35 266.012 220.992 262.654 216.85 262.654H158.55C154.408 262.654 151.05 266.012 151.05 270.154V379.477H136.05V270.154C136.05 266.012 132.692 262.654 128.55 262.654H73C68.858 262.654 65.5 266.012 65.5 270.154V379.477H50.5V146.835C50.5 118.718 73.374 95.844 101.49 95.844V95.844ZM471.5 379.477H430.95V277.654H471.5V379.477ZM385.95 379.477H342.65V277.654H385.95V379.477ZM297.65 379.477H254.35V277.654H297.65V379.477ZM209.35 379.477H166.05V277.654H209.35V379.477ZM121.05 379.477H80.5V277.654H121.05V379.477ZM503.22 422.037H172.02C167.878 422.037 164.52 425.395 164.52 429.537C164.52 433.679 167.878 437.037 172.02 437.037H495.717V462.532C495.717 484.965 477.467 503.215 455.034 503.215H96.965C74.532 503.215 56.282 484.965 56.282 462.532V437.037H142.059C146.201 437.037 149.559 433.679 149.559 429.537C149.559 425.395 146.201 422.037 142.059 422.037H48.78C45.096 422.037 41.634 420.604 39.041 418.011C36.435 415.399 35 411.935 35 408.257C35 400.659 41.182 394.477 48.78 394.477H503.22C506.904 394.477 510.366 395.909 512.96 398.503C515.565 401.115 517 404.579 517 408.256C517 415.856 510.818 422.037 503.22 422.037V422.037Z" fill="black"/>
</g>
<defs>
<clipPath id="clip0">
<rect width="512" height="512" fill="white"/>
</clipPath>
<clipPath id="clip1">
<rect width="291" height="267" fill="white" transform="translate(120 111)"/>
</clipPath>
</defs>
</svg>
