<svg id="Capa_1" enable-background="new 0 0 512 512" height="512" viewBox="0 0 512 512" width="512" xmlns="http://www.w3.org/2000/svg"><g><g><path d="m483.22 416.928v33c0 26.61-21.57 48.18-48.19 48.18h-358.06c-26.62 0-48.19-21.57-48.19-48.18v-33l55.38-5.19 72.43-6.78 99.41-9.31 99.41 9.31z" fill="#80b4fb"/><path d="m483.22 416.928v17.96h-399.06v-29.931h271.25z" fill="#61a2f9"/><path d="m162.765 498.108h-85.8c-26.61 0-48.18-21.57-48.18-48.18v-33l227.22-21.28 42.9 4.02-184.32 17.26v33c0 26.609 21.57 48.18 48.18 48.18z" fill="#61a2f9"/><path d="m430.512 75.734h-349.024c-32.253 0-58.492 26.24-58.492 58.493v250.141c0 8.284 6.716 15 15 15s15-6.716 15-15v-126.817h55.558v143.444h30v-143.444h58.297v143.444h30v-143.444h58.298v143.444h30v-143.444h58.297v143.444h30v-143.444h55.558v126.816c0 8.284 6.716 15 15 15s15-6.716 15-15v-250.141c0-32.253-26.239-58.492-58.492-58.492zm-377.516 151.817v-93.325c0-15.711 12.782-28.493 28.492-28.493h27.066v121.817h-55.558zm85.558 0v-121.817h58.297v121.817zm88.297 0v-121.817h58.298v121.817zm88.298 0v-121.817h58.297v121.817zm88.297 0v-121.817h27.066c15.71 0 28.492 12.782 28.492 28.493v93.325h-55.558z" fill="#ffe07d"/><path d="m184.248 75.734h-102.76c-32.25 0-58.49 26.24-58.49 58.49v250.14c0 8.28 6.71 15 15 15 8.28 0 15-6.72 15-15v-126.82h55.56v143.45h30v-1.79c-7.25-1.06-12.81-7.31-12.81-14.84v-250.14c0-32.25 26.24-58.49 58.5-58.49zm-75.69 151.81h-55.56v-93.32c0-15.71 12.78-28.49 28.49-28.49h27.07z" fill="#ffd064"/><path d="m483.217 374.367h-454.434c-11.754 0-21.283 9.529-21.283 21.283 0 11.754 9.529 21.283 21.283 21.283h454.435c11.754 0 21.283-9.529 21.283-21.283-.001-11.754-9.53-21.283-21.284-21.283z" fill="#80b4fb"/><path d="m85.45 410.7c3.85 3.85 9.17 6.23 15.05 6.23h-71.72c-5.88 0-11.2-2.38-15.05-6.23s-6.23-9.17-6.23-15.05c0-11.75 9.53-21.28 21.28-21.28h71.72c-11.76 0-21.28 9.53-21.28 21.28 0 5.88 2.38 11.2 6.23 15.05z" fill="#61a2f9"/></g><g><path d="m403.45 235.05h55.55c4.142 0 7.5-3.358 7.5-7.5v-93.32c0-19.851-16.145-36-35.99-36h-27.06c-4.142 0-7.5 3.358-7.5 7.5v28.25c0 4.142 3.358 7.5 7.5 7.5s7.5-3.358 7.5-7.5v-20.75h19.56c11.574 0 20.99 9.42 20.99 21v85.82h-40.55v-56.07c0-4.142-3.358-7.5-7.5-7.5s-7.5 3.358-7.5 7.5v63.57c0 4.142 3.358 7.5 7.5 7.5z"/><path d="m315.149 235.051h58.297c4.142 0 7.5-3.358 7.5-7.5v-121.818c0-4.142-3.358-7.5-7.5-7.5h-58.297c-4.142 0-7.5 3.358-7.5 7.5v121.817c0 4.143 3.358 7.501 7.5 7.501zm7.5-121.818h43.297v106.817h-43.297z"/><path d="m226.851 235.051h58.298c4.142 0 7.5-3.358 7.5-7.5v-121.818c0-4.142-3.358-7.5-7.5-7.5h-58.298c-4.142 0-7.5 3.358-7.5 7.5v121.817c0 4.143 3.358 7.501 7.5 7.501zm7.5-121.818h43.298v106.817h-43.298z"/><path d="m52.996 235.051h55.558c4.142 0 7.5-3.358 7.5-7.5v-121.818c0-4.142-3.358-7.5-7.5-7.5h-27.066c-19.846 0-35.992 16.146-35.992 35.993v93.325c0 4.142 3.358 7.5 7.5 7.5zm7.5-100.825c0-11.575 9.417-20.993 20.992-20.993h19.566v106.817h-40.558z"/><path d="m138.554 235.051h58.297c4.142 0 7.5-3.358 7.5-7.5v-121.818c0-4.142-3.358-7.5-7.5-7.5h-58.297c-4.142 0-7.5 3.358-7.5 7.5v121.817c0 4.143 3.358 7.501 7.5 7.501zm7.5-121.818h43.297v106.817h-43.297z"/><path d="m512 395.65c0-7.677-2.99-14.903-8.427-20.353-2.112-2.112-4.498-3.85-7.073-5.192v-235.877c0-36.387-29.603-65.99-65.99-65.99h-93.851v-22.294c0-21.809-17.743-39.551-39.551-39.551h-82.216c-21.809 0-39.551 17.743-39.551 39.551v22.293h-93.851c-36.387 0-65.99 29.603-65.99 65.99v235.903c-9.201 4.808-15.5 14.439-15.5 25.52 0 7.677 2.99 14.902 8.427 20.354 3.62 3.619 8.038 6.148 12.856 7.438v26.482c0 30.704 24.979 55.683 55.683 55.683h358.069c30.704 0 55.683-24.979 55.683-55.683v-26.491c12.244-3.307 21.282-14.507 21.282-27.783zm-321.659-349.706c0-13.538 11.014-24.551 24.551-24.551h82.216c13.538 0 24.551 11.014 24.551 24.551v22.293h-131.318zm-108.851 37.293h349.02c28.116 0 50.99 22.874 50.99 50.99v232.643h-15v-109.323c0-4.142-3.358-7.5-7.5-7.5h-55.55c-4.142 0-7.5 3.358-7.5 7.5v109.323h-15v-109.323c0-4.142-3.358-7.5-7.5-7.5h-58.3c-4.142 0-7.5 3.358-7.5 7.5v109.323h-15v-109.323c0-4.142-3.358-7.5-7.5-7.5h-58.3c-4.142 0-7.5 3.358-7.5 7.5v109.323h-15v-109.323c0-4.142-3.358-7.5-7.5-7.5h-58.3c-4.142 0-7.5 3.358-7.5 7.5v109.323h-15v-109.323c0-4.142-3.358-7.5-7.5-7.5h-55.55c-4.142 0-7.5 3.358-7.5 7.5v109.323h-15v-232.642c0-28.117 22.874-50.991 50.99-50.991zm370.01 283.633h-40.55v-101.823h40.55zm-85.55 0h-43.3v-101.823h43.3zm-88.3 0h-43.3v-101.823h43.3zm-88.3 0h-43.3v-101.823h43.3zm-88.3 0h-40.55v-101.823h40.55zm382.17 42.56h-331.2c-4.142 0-7.5 3.358-7.5 7.5s3.358 7.5 7.5 7.5h323.697v25.495c0 22.433-18.25 40.683-40.683 40.683h-358.069c-22.433 0-40.683-18.25-40.683-40.683v-25.495h85.777c4.142 0 7.5-3.358 7.5-7.5s-3.358-7.5-7.5-7.5h-93.279c-3.684 0-7.146-1.433-9.739-4.026-2.606-2.612-4.041-6.076-4.041-9.754 0-7.598 6.182-13.78 13.78-13.78h454.44c3.684 0 7.146 1.432 9.74 4.026 2.605 2.612 4.04 6.076 4.04 9.753 0 7.6-6.182 13.781-13.78 13.781z"/></g></g></svg>