<svg id="Capa_1" enable-background="new 0 0 512 512" height="512" viewBox="0 0 512 512" width="512" xmlns="http://www.w3.org/2000/svg"><g><path d="m481 120.5c0-24.813-20.187-45-45-45h-77.026c-10.99-40.038-60.532-60-102.974-60-42.422 0-91.981 19.949-102.974 60h-77.026c-24.813 0-45 20.187-45 45v286h-31v45c0 24.813 20.187 45 45 45h421c24.859 0 46-20.092 46-45v-45h-31zm-60-15h15c8.271 0 15 6.729 15 15v45h-30zm0 90h30v121h-30zm0 151h30v60h-30zm-60-241h30v60h-30zm0 90h30v121h-30zm0 151h30v60h-30zm-30-241v60h-30v-60zm-30 211v-121h30v121zm30 30v60h-30v-60zm-75-301c31.937 0 59.971 12.72 70.529 30h-141.058c10.558-17.28 38.592-30 70.529-30zm-15 271v-121h30v121zm30 30v60h-30v-60zm-30-181v-60h30v60zm-60-60h30v60h-30zm0 90h30v121h-30zm0 151h30v60h-30zm-60-241h30v60h-30zm0 90h30v121h-30zm0 151h30v60h-30zm-60-226c0-8.271 6.729-15 15-15h15v60h-30zm0 75h30v121h-30zm0 151h30v60h-30zm421 90v15c0 7.991-7.477 15-16 15h-421c-8.271 0-15-6.729-15-15v-15z"/></g></svg>