<svg width="90" height="90" viewBox="0 0 900 900" fill="none" xmlns="http://www.w3.org/2000/svg">
<!-- <rect width="555" height="837" fill="#E5E5E5"/> -->
<g clip-path="url(#clip0)">
<path d="M234.19 582.853C232.541 581.494 231.087 580.23 229.823 579.082C227.685 577.142 226.543 574.605 226.429 572.002C226.402 571.351 226.437 570.696 226.538 570.045C226.69 569.069 226.988 568.102 227.435 567.172C227.881 566.242 228.477 565.351 229.222 564.523C229.986 563.676 230.844 562.763 231.755 561.819C230.115 559.281 228.529 556.2 227.128 552.439C220.813 535.479 200.268 525.971 184.949 524.348C183.323 524.175 181.774 523.705 180.394 522.967C172.565 518.779 162.412 519.112 154.948 523.855C153.799 524.585 152.478 525.117 151.069 525.386C134.45 528.56 116.078 537.917 105.932 564.399C105.468 565.609 106.598 566.839 108.114 566.735C111.076 566.531 117.043 566.754 119.453 567.663C119.453 567.663 130.533 589.934 153.452 594.348C176.371 598.762 195.765 590.989 216.795 602.231C216.795 602.231 228.316 597.606 237.866 585.771C236.549 584.761 235.32 583.784 234.19 582.853V582.853Z" fill="#7CCC4E"/>
<path d="M237.868 585.774C228.317 597.609 216.796 602.234 216.796 602.234C216.796 602.234 222.182 606.836 233.285 613.457C238.464 604.902 244.703 598.03 249.156 593.683L237.868 585.774Z" fill="#F9BD55"/>
<path d="M440.252 636.757C441.36 640.539 442.76 644.202 444.355 647.762C458.944 643.035 468.238 637.721 471.78 635.489L440.252 636.757Z" fill="#F9BD55"/>
<path d="M387.564 635.023L387.543 634.945C354.278 632.131 321.612 625.876 292.122 614.822C286.434 620.046 281.631 626.901 277.582 634.406C294.84 640.899 315.885 647.207 340.961 652.036C360.8 655.857 378.564 656.923 394.175 656.338C390.076 647.366 388.302 639.581 387.564 635.023V635.023Z" fill="#F9BD55"/>
<path d="M233.277 613.451C222.18 606.834 216.796 602.234 216.796 602.234C214.458 600.985 212.143 599.981 209.838 599.158C194.465 613.891 181.043 636.477 195.657 664.923C200.239 673.842 215.385 674.037 220.369 665.271C221.931 662.522 223.655 659.603 225.526 656.596C220.983 640.412 226.1 625.305 233.277 613.451Z" fill="#7CCC4E"/>
<path d="M410.61 680.659C402.869 672.52 397.658 663.996 394.159 656.34C382.687 656.77 370.042 656.295 356.278 654.503C361.193 673.369 374.559 694.467 405.887 711.527C413.706 715.785 423.272 708.181 419.526 701.047C416.441 695.171 413.276 688.267 410.61 680.659V680.659Z" fill="#7CCC4E"/>
<path d="M487.094 699.074C470.215 685.75 448.252 664.046 440.252 636.758C421.229 637.041 403.695 636.395 387.564 635.025C390.04 650.308 403.94 701.812 479.426 713.16C488.616 714.54 493.876 704.428 487.094 699.074V699.074Z" fill="#7CCC4E"/>
<path d="M292.141 614.803C273.864 607.977 259.733 600.471 249.156 593.682C235.703 606.821 205.862 642.902 238.617 679.345C245.595 687.108 260.367 684.313 262.726 674.812C267.415 655.933 276.454 629.195 292.141 614.803V614.803Z" fill="#7CCC4E"/>
<path d="M270.973 647.908C259.446 645.688 248.959 648.015 247.55 653.107C246.175 658.075 253.964 663.83 265.055 666.167C266.741 660.339 268.794 654.132 271.272 647.973C271.171 647.952 271.074 647.927 270.973 647.908V647.908Z" fill="#3AA03A"/>
<path d="M262.535 624.663C260.507 629.062 266.121 635.036 275.341 638.765C278.29 632.707 281.709 626.964 285.627 621.957C274.932 618.783 264.715 619.929 262.535 624.663Z" fill="#3AA03A"/>
<path d="M253.113 635.904C253.948 632.889 250.962 629.738 246.443 628.867C241.924 627.997 237.584 629.735 236.749 632.751C235.913 635.767 238.9 638.918 243.418 639.788C247.937 640.659 252.278 638.92 253.113 635.904Z" fill="#3AA03A"/>
<path d="M389.855 644.882C390.69 647.682 391.777 650.783 393.173 654.079C398.424 655.778 403.431 653.722 404.302 650.571C405.834 645.044 395.429 640.899 389.855 644.882V644.882Z" fill="#3AA03A"/>
<path d="M455.374 666.653C451.489 661.266 447.987 655.491 445.104 649.365C432.073 649.7 421.681 653.945 421.82 658.925C422.016 665.94 440.792 669.32 455.374 666.653V666.653Z" fill="#3AA03A"/>
<path d="M461.312 674.294C453.331 675.957 447.911 679.126 448.01 682.669C448.151 687.7 459.343 691.561 473.01 691.294C474.568 691.263 476.087 691.174 477.564 691.044C472.118 686.15 466.537 680.536 461.312 674.294V674.294Z" fill="#3AA03A"/>
<path d="M229.823 579.083C250.05 597.446 318.488 645.554 472.411 635.454C479.743 634.972 485.223 628.823 484.013 622.337C479.329 597.238 459.545 540.628 376.069 524.551C290.647 508.1 244.784 547.256 229.224 564.525C225.249 568.936 225.549 575.203 229.823 579.083V579.083Z" fill="#7CCC4E"/>
<path d="M482.992 617.487C481.219 618.567 479.124 619.263 476.85 619.413C322.929 629.513 254.491 581.405 234.263 563.042C233.58 562.423 233.012 561.738 232.533 561.014C231.308 562.258 230.204 563.436 229.222 564.524C225.249 568.935 225.549 575.203 229.823 579.082C250.05 597.445 318.488 645.552 472.411 635.452C479.742 634.972 485.223 628.823 484.013 622.335C483.731 620.831 483.393 619.205 482.992 617.487V617.487Z" fill="#7CCC4E"/>
<path d="M396.853 569.292L428.141 546.13C428.813 545.633 429.332 545.062 429.727 544.452C415.674 535.882 398.11 528.796 376.069 524.551C353.323 520.17 333.407 519.758 316.095 521.801C315.989 522.735 316.151 523.704 316.622 524.653L332.571 556.912C333.758 559.314 336.655 561.209 340.171 561.886L387.408 570.984C390.924 571.661 394.524 571.016 396.853 569.292V569.292Z" fill="#3AA03A"/>
<path d="M482.986 617.489C479.038 600.537 468.768 574.054 442.054 552.983C441.415 553.259 440.818 553.585 440.293 553.973L409.005 577.135C406.676 578.86 405.973 581.4 407.16 583.802L423.109 616.061C424.16 618.188 426.555 619.914 429.53 620.751C444.322 620.92 460.078 620.511 476.85 619.41C479.122 619.263 481.212 618.568 482.986 617.489V617.489Z" fill="#3AA03A"/>
<path d="M407.837 620.063C407.801 619.984 407.781 619.905 407.743 619.827L391.794 587.567C390.607 585.166 387.71 583.27 384.194 582.593L336.957 573.496C333.441 572.819 329.841 573.464 327.512 575.187L296.224 598.349C296.141 598.411 296.075 598.481 295.997 598.544C323.284 608.806 359.896 617.557 407.837 620.063V620.063Z" fill="#3AA03A"/>
<path d="M317.525 559.519L301.576 527.259C301.099 526.297 300.34 525.422 299.386 524.668C265.496 532.418 243.806 549.573 232.533 561.015C233.011 561.738 233.58 562.423 234.262 563.042C241.765 569.854 255.911 580.759 278.585 591.267C280.81 591.127 282.873 590.472 284.392 589.348L315.68 566.186C318.009 564.461 318.713 561.921 317.525 559.519V559.519Z" fill="#3AA03A"/>
<path d="M155.2 579.843C150.685 579.843 145.68 579.17 140.885 577.129C130.161 572.565 118.885 570.824 118.773 570.807C116.694 570.493 115.311 568.833 115.688 567.098C116.063 565.362 118.047 564.214 120.132 564.523C120.634 564.598 132.599 566.432 144.365 571.441C154.902 575.928 167.689 571.501 167.818 571.456C169.764 570.766 172.009 571.524 172.837 573.141C173.666 574.761 172.77 576.632 170.831 577.327C170.409 577.478 163.663 579.843 155.2 579.843Z" fill="black"/>
<path d="M126.889 556.467C125.613 556.467 124.367 555.934 123.64 554.964C122.52 553.469 123.064 551.499 124.857 550.564L128.887 548.463C130.677 547.529 133.042 547.981 134.162 549.478C135.282 550.974 134.738 552.944 132.945 553.879L128.915 555.98C128.284 556.31 127.583 556.467 126.889 556.467V556.467Z" fill="black"/>
<path d="M176.679 549.718C176.397 549.718 176.113 549.692 175.826 549.638C173.764 549.247 172.474 547.535 172.943 545.816C173.289 544.548 173.021 543.244 172.191 542.142C171.36 541.041 170.064 540.276 168.544 539.988C167.029 539.698 165.46 539.921 164.14 540.615C162.82 541.308 161.903 542.388 161.555 543.656C161.085 545.375 159.035 546.451 156.973 546.061C154.912 545.671 153.622 543.959 154.09 542.24C154.888 539.308 157.009 536.811 160.06 535.209C163.108 533.607 166.724 533.09 170.24 533.761C173.754 534.426 176.748 536.195 178.668 538.74C180.588 541.285 181.205 544.301 180.406 547.233C180.003 548.714 178.426 549.718 176.679 549.718V549.718Z" fill="black"/>
<path d="M216.797 605.427C216.076 605.427 215.359 605.257 214.732 604.923C202.91 598.602 191.89 598.786 179.128 598.996C170.725 599.135 162.026 599.279 152.593 597.462C131.231 593.347 119.647 575.503 116.678 570.291C114.595 569.944 110.876 569.755 108.432 569.921C106.446 570.052 104.537 569.364 103.301 568.067C102.054 566.759 101.675 565.025 102.287 563.429C111.064 540.519 127.19 526.673 150.217 522.275C151.062 522.114 151.897 521.782 152.627 521.317C161.314 515.797 173.3 515.381 182.46 520.279C183.368 520.765 184.368 521.068 185.431 521.181C202.511 522.991 223.989 533.248 230.784 551.493C232.001 554.766 233.462 557.731 235.125 560.305C235.855 561.435 235.702 562.821 234.736 563.822C233.854 564.736 233.021 565.623 232.28 566.444C231.753 567.029 231.318 567.675 230.987 568.361C230.666 569.031 230.445 569.736 230.335 570.453C230.26 570.929 230.234 571.409 230.254 571.885C230.338 573.812 231.183 575.599 232.641 576.921C233.956 578.116 235.382 579.346 236.88 580.579C237.98 581.485 239.176 582.438 240.46 583.424C241.85 584.491 242.098 586.248 241.043 587.556C231.027 599.965 218.964 604.906 218.456 605.109C217.93 605.321 217.364 605.427 216.797 605.427V605.427ZM185.482 592.539C195.66 592.539 206.114 593.317 216.875 598.532C219.955 596.963 226.622 593.075 232.816 586.192C232.364 585.83 231.927 585.474 231.503 585.125C231.503 585.125 231.503 585.125 231.502 585.125C229.918 583.821 228.406 582.514 227.005 581.242C224.317 578.802 222.755 575.562 222.607 572.118C222.572 571.29 222.617 570.453 222.745 569.633C222.937 568.387 223.322 567.158 223.882 565.988C224.464 564.778 225.231 563.643 226.162 562.607C226.502 562.23 226.859 561.842 227.231 561.443C225.812 558.988 224.553 556.286 223.473 553.387C217.941 538.53 199.664 529.126 184.468 527.517C182.267 527.284 180.203 526.658 178.329 525.657C171.869 522.201 163.406 522.498 157.267 526.397C155.676 527.408 153.828 528.136 151.926 528.5C132.065 532.293 118.442 543.743 110.332 563.477C113.596 563.492 118.332 563.736 121.031 564.754C121.916 565.087 122.616 565.69 122.988 566.439C123.091 566.643 133.633 587.253 154.315 591.237C162.822 592.876 171.036 592.741 178.975 592.609C181.133 592.573 183.301 592.539 185.482 592.539Z" fill="black"/>
<path d="M254.327 616.25C254.067 616.25 253.822 616.225 253.578 616.186C253.333 616.148 253.088 616.084 252.857 616.007C252.629 615.931 252.398 615.829 252.199 615.714C251.984 615.599 251.784 615.458 251.617 615.318C251.433 615.164 251.28 615.011 251.141 614.832C251.003 614.653 250.88 614.475 250.79 614.283C250.697 614.091 250.622 613.887 250.576 613.683C250.514 613.478 250.498 613.261 250.498 613.057C250.498 612.214 250.897 611.396 251.615 610.796C251.782 610.655 251.983 610.515 252.197 610.4C252.396 610.285 252.626 610.183 252.856 610.106C253.085 610.029 253.332 609.966 253.577 609.927C254.817 609.723 256.149 610.055 257.022 610.796C257.742 611.396 258.154 612.214 258.154 613.057C258.154 613.9 257.74 614.717 257.022 615.318C256.319 615.905 255.339 616.25 254.327 616.25V616.25Z" fill="black"/>
<path d="M431.003 681.918C429.994 681.918 428.997 681.573 428.293 680.986C427.573 680.386 427.175 679.568 427.175 678.725C427.175 678.521 427.192 678.303 427.236 678.099C427.297 677.895 427.358 677.703 427.466 677.512C427.558 677.307 427.68 677.128 427.818 676.949C427.956 676.783 428.107 676.617 428.293 676.464C429.181 675.723 430.498 675.391 431.738 675.596C431.983 675.634 432.228 675.698 432.458 675.774C432.687 675.864 432.917 675.953 433.118 676.068C433.332 676.183 433.531 676.324 433.699 676.464C433.883 676.617 434.036 676.783 434.174 676.949C434.312 677.128 434.434 677.307 434.526 677.512C434.632 677.703 434.693 677.895 434.754 678.099C434.8 678.303 434.831 678.521 434.831 678.725C434.831 679.568 434.418 680.398 433.699 680.986C433.531 681.126 433.332 681.267 433.118 681.382C432.917 681.497 432.689 681.599 432.458 681.676C432.229 681.752 431.983 681.816 431.738 681.854C431.494 681.906 431.249 681.918 431.003 681.918V681.918Z" fill="black"/>
<path d="M233.285 616.65C232.493 616.65 231.715 616.446 231.058 616.055C219.808 609.347 214.287 604.661 214.055 604.465C213.195 603.73 212.812 602.692 213.025 601.681C213.239 600.668 214.023 599.803 215.135 599.357C215.23 599.318 225.898 594.887 234.69 583.992C235.297 583.241 236.257 582.739 237.333 582.613C238.408 582.485 239.497 582.747 240.329 583.329L251.617 591.237C252.399 591.785 252.886 592.571 252.97 593.419C253.056 594.268 252.73 595.109 252.067 595.756C247.85 599.875 241.762 606.537 236.703 614.896C236.199 615.728 235.285 616.334 234.2 616.558C233.899 616.619 233.591 616.65 233.285 616.65V616.65ZM223.137 602.766C225.197 604.264 228.14 606.301 231.976 608.701C235.925 602.773 240.217 597.8 243.783 594.089L238.568 590.436C232.968 596.557 227.085 600.52 223.137 602.766Z" fill="black"/>
<path d="M444.355 650.957C443.821 650.957 443.288 650.864 442.79 650.677C441.856 650.328 441.129 649.681 440.771 648.881C439.011 644.953 437.624 641.236 436.532 637.517C436.261 636.591 436.5 635.611 437.184 634.847C437.867 634.083 438.925 633.613 440.068 633.568L471.598 632.303C473.268 632.244 474.81 633.088 475.381 634.405C475.953 635.722 475.429 637.197 474.088 638.04C470.632 640.217 460.951 645.812 445.743 650.741C445.295 650.884 444.825 650.957 444.355 650.957V650.957ZM445.179 639.756C445.619 641.008 446.098 642.271 446.618 643.553C450.722 642.109 454.319 640.644 457.4 639.265L445.179 639.756Z" fill="black"/>
<path d="M386.192 659.681C371.212 659.681 355.747 658.162 340.099 655.149C317.396 650.777 295.833 644.778 276.008 637.32C274.083 636.596 273.226 634.706 274.091 633.098C278.676 624.599 283.788 617.728 289.287 612.677C290.402 611.654 292.18 611.346 293.69 611.911C320.865 622.096 352.571 628.778 387.929 631.77C389.549 631.906 390.886 632.882 391.265 634.202C391.298 634.307 391.342 634.492 391.36 634.598C391.979 638.421 393.631 646.181 397.753 655.203C398.191 656.161 398.05 657.235 397.377 658.092C396.703 658.949 395.576 659.484 394.348 659.53C391.645 659.63 388.926 659.681 386.192 659.681ZM282.703 632.808C301.089 639.489 320.956 644.907 341.821 648.925C357.814 652.006 373.572 653.457 388.802 653.278C386.387 647.23 385 641.909 384.205 637.864C350.327 634.786 319.73 628.345 293.167 618.7C289.488 622.445 285.981 627.173 282.703 632.808V632.808Z" fill="black"/>
<path d="M208.102 674.924C207.987 674.924 207.871 674.924 207.753 674.921C200.835 674.813 194.852 671.462 192.139 666.181C176.511 635.762 191.567 611.804 206.95 597.061C208.041 596.016 209.817 595.676 211.344 596.221C213.985 597.164 216.443 598.251 218.862 599.545C219.105 599.675 219.332 599.829 219.534 600.002C219.583 600.044 224.872 604.515 235.502 610.853C237.038 611.769 237.545 613.485 236.692 614.891C228.105 629.077 225.601 642.864 229.253 655.868C229.461 656.61 229.345 657.39 228.922 658.067C227.201 660.835 225.486 663.72 223.826 666.639C220.911 671.769 214.907 674.924 208.102 674.924V674.924ZM210.875 603.082C197.625 616.552 185.738 637.506 199.176 663.666C200.711 666.654 203.972 668.474 207.898 668.537C211.823 668.564 215.225 666.867 216.91 663.904C218.403 661.278 219.94 658.68 221.487 656.162C218.072 642.769 220.404 628.76 228.429 614.462C220.231 609.407 215.623 605.755 214.389 604.742C213.238 604.137 212.072 603.587 210.875 603.082V603.082Z" fill="black"/>
<path d="M410.697 715.943C408.317 715.943 405.938 715.367 403.796 714.201C376.051 699.091 358.804 679.233 352.537 655.18C352.269 654.151 352.627 653.077 353.493 652.311C354.358 651.544 355.618 651.183 356.869 651.346C369.505 652.992 381.989 653.6 393.988 653.149C395.637 653.082 397.148 653.914 397.736 655.201C401.693 663.861 407.031 671.757 413.608 678.673C413.914 678.996 414.144 679.365 414.282 679.761C416.617 686.427 419.561 693.156 423.031 699.763C425.496 704.458 423.93 709.891 419.131 713.28C416.634 715.046 413.666 715.943 410.697 715.943V715.943ZM361.349 658.328C368.082 678.674 383.749 695.655 407.979 708.852C410.823 710.399 413.265 709.055 414.187 708.405C416.01 707.116 417.286 704.736 416.02 702.325C412.522 695.666 409.539 688.881 407.146 682.15C400.837 675.419 395.616 667.85 391.593 659.613C381.749 659.855 371.604 659.424 361.349 658.328V658.328Z" fill="black"/>
<path d="M481.078 716.477C480.311 716.477 479.533 716.419 478.749 716.302C400.88 704.596 386.367 651.459 383.773 635.452C383.615 634.483 384 633.507 384.816 632.803C385.63 632.101 386.782 631.747 387.956 631.847C404.541 633.257 422.117 633.834 440.184 633.565H440.253C442.014 633.565 443.551 634.569 443.973 635.999C451.742 662.498 473.143 683.664 489.729 696.755C494.191 700.278 495.285 705.789 492.447 710.47C490.152 714.253 485.845 716.477 481.078 716.477ZM392.131 638.595C396.196 656.876 412.891 699.912 480.105 710.016C483.447 710.517 485.068 708.486 485.613 707.588C486.691 705.807 486.754 703.201 484.463 701.393C467.646 688.116 446.067 666.829 437.299 639.987C421.751 640.136 406.608 639.673 392.131 638.595V638.595Z" fill="black"/>
<path d="M249.306 687.037C243.933 687.037 238.886 684.969 235.554 681.259C220.67 664.701 216.403 646.418 222.869 626.922C228.198 610.853 239.803 597.899 246.245 591.608C247.57 590.315 249.877 590.114 251.491 591.15C263.783 599.039 277.988 606.016 293.706 611.887C294.826 612.306 295.639 613.146 295.89 614.149C296.141 615.152 295.8 616.193 294.974 616.95C280.02 630.668 271.223 656.338 266.476 675.459C265.07 681.115 259.985 685.412 253.202 686.675C251.897 686.918 250.591 687.037 249.306 687.037V687.037ZM249.77 598.067C235.802 612.562 212.451 644.909 241.679 677.429C244.016 680.029 247.701 681.155 251.534 680.442C255.398 679.723 258.181 677.376 258.978 674.164C263.57 655.669 271.904 631.193 285.998 615.959C272.754 610.742 260.601 604.739 249.77 598.067V598.067Z" fill="black"/>
<path d="M265.054 669.361C264.74 669.361 264.426 669.329 264.117 669.264C250.666 666.428 241.941 659.174 243.82 652.389C244.835 648.718 248.622 645.98 254.482 644.68C259.495 643.566 265.658 643.608 271.834 644.797L272.13 644.86C273.148 645.09 274.077 645.675 274.576 646.452C275.073 647.227 275.236 648.156 274.901 648.99C272.685 654.5 270.623 660.533 268.776 666.919C268.536 667.748 267.908 668.462 267.032 668.902C266.432 669.204 265.746 669.361 265.054 669.361V669.361ZM262.409 650.264C260.247 650.264 258.218 650.46 256.45 650.852C253.548 651.496 251.617 652.607 251.279 653.824C250.694 655.936 254.615 659.764 262.313 662.127C263.556 658.073 264.882 654.171 266.279 650.462C264.962 650.33 263.662 650.264 262.409 650.264V650.264Z" fill="black"/>
<path d="M275.341 641.958C274.768 641.958 274.197 641.851 273.67 641.639C262.225 637.01 256.177 629.559 258.961 623.518C261.933 617.066 273.949 615.103 286.911 618.949C288.016 619.277 288.88 620.011 289.255 620.937C289.629 621.864 289.475 622.883 288.834 623.703C285.277 628.248 281.931 633.72 278.888 639.967C278.489 640.785 277.703 641.429 276.714 641.746C276.272 641.888 275.806 641.958 275.341 641.958ZM274.085 623.353C269.706 623.353 266.746 624.424 266.109 625.807C266.109 625.807 266.109 625.807 266.107 625.808C265.217 627.741 267.961 631.279 273.475 634.24C275.451 630.489 277.539 627.022 279.726 623.872C277.67 623.512 275.771 623.353 274.085 623.353V623.353ZM262.535 624.663H262.55H262.535Z" fill="black"/>
<path d="M245.827 643.156C244.768 643.156 243.693 643.055 242.629 642.85C236.059 641.584 231.778 636.708 233.087 631.981C233.747 629.592 235.765 627.565 238.626 626.419C241.24 625.372 244.35 625.119 247.375 625.701C253.944 626.967 258.226 631.843 256.917 636.57C256.257 638.959 254.238 640.986 251.378 642.132C249.683 642.811 247.781 643.156 245.827 643.156V643.156ZM244.181 631.783C243.367 631.783 242.592 631.915 241.941 632.176C241.498 632.354 240.731 632.75 240.546 633.416C240.24 634.529 241.727 636.12 244.351 636.626C245.673 636.88 247.026 636.789 248.063 636.375C248.505 636.197 249.273 635.801 249.458 635.134C249.764 634.022 248.277 632.43 245.653 631.924C245.16 631.83 244.664 631.783 244.181 631.783V631.783Z" fill="black"/>
<path d="M396.989 657.884C395.265 657.884 393.499 657.608 391.789 657.055C390.748 656.718 389.936 656.02 389.564 655.143C388.23 651.995 387.079 648.803 386.14 645.652C385.79 644.479 386.264 643.242 387.364 642.456C391.388 639.582 397.675 639.329 402.658 641.846C406.981 644.03 409.04 647.648 408.033 651.289C407.408 653.549 405.518 655.521 402.852 656.698C401.07 657.487 399.059 657.884 396.989 657.884V657.884ZM396.139 651.449C397.282 651.584 398.373 651.451 399.271 651.055C399.974 650.745 400.45 650.307 400.575 649.853C400.932 648.557 399.225 647.578 398.693 647.31C397.458 646.685 395.816 646.343 394.343 646.554C394.884 648.184 395.484 649.82 396.139 651.449V651.449Z" fill="black"/>
<path d="M444.829 670.767C435.888 670.767 427.326 668.993 422.511 665.838C418.868 663.452 418.044 660.803 417.993 659C417.797 651.975 429.149 646.581 444.986 646.173C446.611 646.155 448.076 646.942 448.667 648.198C451.324 653.845 454.685 659.5 458.654 665.006C459.29 665.888 459.377 666.971 458.888 667.916C458.402 668.86 457.397 669.551 456.192 669.772C452.509 670.445 448.634 670.767 444.829 670.767V670.767ZM442.584 652.681C431.51 653.445 425.595 657.027 425.645 658.851C425.663 659.473 426.198 660.133 427.238 660.814C430.968 663.259 440.042 664.912 449.268 664.208C446.755 660.405 444.518 656.548 442.584 652.681V652.681Z" fill="black"/>
<path d="M471.682 694.5C465.073 694.5 458.832 693.595 453.976 691.919C447.767 689.777 444.29 686.518 444.184 682.744C444.041 677.656 450.098 673.34 460.386 671.196C461.926 670.876 463.543 671.38 464.451 672.467C469.152 678.086 474.507 683.606 480.369 688.872C481.356 689.759 481.657 691.032 481.148 692.165C480.64 693.297 479.407 694.093 477.968 694.22C476.311 694.366 474.673 694.457 473.098 694.487C472.624 694.495 472.151 694.5 471.682 694.5V694.5ZM459.761 677.987C454.325 679.48 451.808 681.528 451.837 682.594C451.862 683.409 453.456 684.827 456.901 686.016C460.224 687.162 464.592 687.877 469.26 688.064C465.888 684.769 462.71 681.4 459.761 677.987V677.987Z" fill="black"/>
<path d="M431.353 640.03C381.629 640.03 337.433 633.628 299.553 620.903C259.693 607.514 236.99 590.307 227.005 581.243C221.474 576.223 221.111 568.211 226.163 562.607C242.368 544.619 289.505 504.606 376.93 521.439C463.18 538.05 483.194 597.19 487.795 621.846C488.561 625.948 487.232 630.168 484.148 633.421C481.24 636.492 477.176 638.344 472.711 638.637C458.536 639.567 444.744 640.03 431.353 640.03V640.03ZM336.492 523.801C277.98 523.801 245.014 552.315 232.282 566.444C229.46 569.576 229.619 574.178 232.642 576.923C242.189 585.591 263.948 602.061 302.411 614.98C349.387 630.761 406.484 636.577 472.109 632.271C474.427 632.119 476.568 631.121 478.141 629.462C479.905 627.598 480.666 625.18 480.226 622.83C475.865 599.457 456.902 543.397 375.204 527.664C361.227 524.97 348.335 523.801 336.492 523.801V523.801Z" fill="black"/>
<path d="M431.353 640.03C381.629 640.03 337.433 633.628 299.553 620.903C259.693 607.514 236.99 590.307 227.005 581.243C221.474 576.223 221.111 568.21 226.163 562.607C227.239 561.409 228.389 560.191 229.576 558.987C230.381 558.169 231.625 557.731 232.885 557.835C234.15 557.932 235.274 558.546 235.886 559.472C236.24 560.01 236.643 560.484 237.081 560.88C246.63 569.549 268.389 586.019 306.851 598.938C353.825 614.719 410.922 620.536 476.55 616.228C478.029 616.131 479.473 615.674 480.73 614.908C481.785 614.263 483.169 614.113 484.387 614.512C485.607 614.91 486.497 615.802 486.748 616.875C487.143 618.565 487.494 620.237 487.795 621.844C488.561 625.946 487.232 630.165 484.148 633.419C481.24 636.49 477.176 638.342 472.711 638.634C458.536 639.567 444.744 640.03 431.353 640.03V640.03ZM232.527 566.173C232.444 566.264 232.364 566.353 232.283 566.443C229.46 569.575 229.619 574.177 232.642 576.922C242.189 585.59 263.948 602.06 302.411 614.979C349.387 630.759 406.484 636.575 472.109 632.269C474.427 632.117 476.568 631.12 478.141 629.46C479.905 627.597 480.666 625.179 480.226 622.828C480.186 622.606 480.142 622.383 480.099 622.159C479.134 622.384 478.148 622.532 477.148 622.597C410.319 626.984 352.067 621.016 303.989 604.865C265.511 591.937 243.022 575.454 232.527 566.173V566.173Z" fill="black"/>
<path d="M390.204 574.446C389.001 574.446 387.773 574.332 386.546 574.095L339.309 564.998C334.546 564.081 330.703 561.512 329.029 558.13L313.08 525.87C312.383 524.46 312.115 522.991 312.282 521.503C312.446 520.03 313.803 518.845 315.559 518.638C334.828 516.368 355.475 517.308 376.93 521.439C397.825 525.463 416.349 532.339 431.986 541.874C433.529 542.816 434.003 544.563 433.096 545.968C432.467 546.941 431.655 547.801 430.68 548.522L399.393 571.682C396.957 573.485 393.68 574.446 390.204 574.446V574.446ZM320.702 524.533L336.11 555.694C336.817 557.126 338.75 558.334 341.033 558.775L388.27 567.872C390.555 568.313 392.924 567.931 394.313 566.904L423.951 544.962C409.911 537.005 393.536 531.192 375.207 527.662C356.184 523.998 337.872 522.947 320.702 524.533V524.533Z" fill="black"/>
<path d="M435.884 623.982C433.736 623.982 431.6 623.97 429.476 623.946C429.076 623.941 428.681 623.885 428.303 623.779C424.225 622.629 421.042 620.261 419.567 617.28L403.619 585.02C401.823 581.389 402.94 577.356 406.461 574.748L437.751 551.585C438.483 551.043 439.337 550.559 440.293 550.148C441.737 549.522 443.499 549.731 444.683 550.664C471.653 571.938 482.441 598.415 486.742 616.881C487.025 618.097 486.44 619.339 485.241 620.069C482.839 621.533 480.041 622.407 477.152 622.597C463.099 623.518 449.248 623.982 435.884 623.982V623.982ZM430.239 617.567C445.133 617.716 460.706 617.268 476.55 616.228C477.273 616.181 477.986 616.047 478.675 615.834C474.391 598.993 464.505 576.092 441.735 557.174L411.544 579.524C410.43 580.348 410.13 581.435 410.697 582.583L426.646 614.844C427.211 615.988 428.534 616.983 430.239 617.567V617.567Z" fill="black"/>
<path d="M407.853 623.256C407.768 623.256 407.684 623.254 407.598 623.25C365.038 621.025 326.961 613.693 294.425 601.456C293.268 601.022 292.446 600.138 292.226 599.095C292.007 598.054 292.42 596.99 293.33 596.253C293.406 596.182 293.541 596.067 293.69 595.957L324.971 572.799C328.253 570.369 333.055 569.467 337.819 570.383L385.056 579.48C389.818 580.398 393.66 582.965 395.334 586.347L411.283 618.608C411.354 618.75 411.411 618.892 411.463 619.035C411.905 620.046 411.692 621.144 410.919 622.007C410.196 622.814 409.051 623.256 407.853 623.256V623.256ZM302.995 597.607C331.888 607.784 365.129 614.135 401.967 616.518L388.257 588.785C387.549 587.353 385.617 586.144 383.334 585.705L336.096 576.608C333.814 576.166 331.441 576.548 330.054 577.576L302.995 597.607Z" fill="black"/>
<path d="M278.585 594.46C277.936 594.46 277.296 594.322 276.726 594.059C253.931 583.494 239.519 572.536 231.444 565.204C230.591 564.431 229.83 563.541 229.181 562.558C228.423 561.414 228.579 559.998 229.575 558.988C242.143 546.23 264.28 529.386 298.374 521.589C299.669 521.295 301.047 521.582 302.02 522.35C303.401 523.442 304.442 524.684 305.114 526.039L321.064 558.302C322.858 561.934 321.744 565.965 318.223 568.575L286.932 591.737C284.828 593.294 281.966 594.258 278.87 594.451C278.775 594.457 278.682 594.46 278.585 594.46V594.46ZM237.389 561.16C245.008 568.024 258.364 578.106 279.339 587.958C280.337 587.778 281.21 587.434 281.853 586.958L313.143 563.796C314.256 562.971 314.556 561.885 313.989 560.737C313.988 560.737 313.988 560.737 313.988 560.737L298.04 528.476C298.015 528.426 297.989 528.377 297.96 528.327C268.807 535.51 249.202 549.707 237.389 561.16V561.16Z" fill="black"/>
</g>
<path d="M531.22 754.928V787.928C531.22 814.538 509.65 836.108 483.03 836.108H124.97C98.35 836.108 76.78 814.538 76.78 787.928V754.928L132.16 749.738L204.59 742.958L304 733.648L403.41 742.958L531.22 754.928Z" fill="#1D4781"/>
<path d="M531.22 754.928V772.888H132.16V742.957H403.41L531.22 754.928Z" fill="#61A2F9"/>
<path d="M210.765 836.108H124.965C98.355 836.108 76.785 814.538 76.785 787.928V754.928L304.005 733.648L346.905 737.668L162.585 754.928V787.928C162.585 814.537 184.155 836.108 210.765 836.108Z" fill="#1D4781"/>
<path d="M478.512 413.734H129.488C97.235 413.734 70.996 439.974 70.996 472.227V722.368C70.996 730.652 77.712 737.368 85.996 737.368C94.28 737.368 100.996 730.652 100.996 722.368V595.551H156.554V738.995H186.554V595.551H244.851V738.995H274.851V595.551H333.149V738.995H363.149V595.551H421.446V738.995H451.446V595.551H507.004V722.367C507.004 730.651 513.72 737.367 522.004 737.367C530.288 737.367 537.004 730.651 537.004 722.367V472.226C537.004 439.973 510.765 413.734 478.512 413.734V413.734ZM100.996 565.551V472.226C100.996 456.515 113.778 443.733 129.488 443.733H156.554V565.55H100.996V565.551ZM186.554 565.551V443.734H244.851V565.551H186.554ZM274.851 565.551V443.734H333.149V565.551H274.851ZM363.149 565.551V443.734H421.446V565.551H363.149ZM451.446 565.551V443.734H478.512C494.222 443.734 507.004 456.516 507.004 472.227V565.552H451.446V565.551Z" fill="#7DF7FF"/>
<path d="M232.248 413.734H129.488C97.238 413.734 70.998 439.974 70.998 472.224V722.364C70.998 730.644 77.708 737.364 85.998 737.364C94.278 737.364 100.998 730.644 100.998 722.364V595.544H156.558V738.994H186.558V737.204C179.308 736.144 173.748 729.894 173.748 722.364V472.224C173.748 439.974 199.988 413.734 232.248 413.734V413.734ZM156.558 565.544H100.998V472.224C100.998 456.514 113.778 443.734 129.488 443.734H156.558V565.544Z" fill="#7DF7FF"/>
<path d="M531.217 712.367H76.783C65.029 712.367 55.5 721.896 55.5 733.65C55.5 745.404 65.029 754.933 76.783 754.933H531.218C542.972 754.933 552.501 745.404 552.501 733.65C552.5 721.896 542.971 712.367 531.217 712.367Z" fill="#1D4781"/>
<path d="M133.45 748.7C137.3 752.55 142.62 754.93 148.5 754.93H76.78C70.9 754.93 65.58 752.55 61.73 748.7C57.88 744.85 55.5 739.53 55.5 733.65C55.5 721.9 65.03 712.37 76.78 712.37H148.5C136.74 712.37 127.22 721.9 127.22 733.65C127.22 739.53 129.6 744.85 133.45 748.7Z" fill="#1D4781"/>
<path d="M451.45 573.05H507C511.142 573.05 514.5 569.692 514.5 565.55V472.23C514.5 452.379 498.355 436.23 478.51 436.23H451.45C447.308 436.23 443.95 439.588 443.95 443.73V471.98C443.95 476.122 447.308 479.48 451.45 479.48C455.592 479.48 458.95 476.122 458.95 471.98V451.23H478.51C490.084 451.23 499.5 460.65 499.5 472.23V558.05H458.95V501.98C458.95 497.838 455.592 494.48 451.45 494.48C447.308 494.48 443.95 497.838 443.95 501.98V565.55C443.95 569.692 447.308 573.05 451.45 573.05Z" fill="black"/>
<path d="M363.149 573.051H421.446C425.588 573.051 428.946 569.693 428.946 565.551V443.733C428.946 439.591 425.588 436.233 421.446 436.233H363.149C359.007 436.233 355.649 439.591 355.649 443.733V565.55C355.649 569.693 359.007 573.051 363.149 573.051ZM370.649 451.233H413.946V558.05H370.649V451.233Z" fill="black"/>
<path d="M274.851 573.051H333.149C337.291 573.051 340.649 569.693 340.649 565.551V443.733C340.649 439.591 337.291 436.233 333.149 436.233H274.851C270.709 436.233 267.351 439.591 267.351 443.733V565.55C267.351 569.693 270.709 573.051 274.851 573.051ZM282.351 451.233H325.649V558.05H282.351V451.233Z" fill="black"/>
<path d="M100.996 573.051H156.554C160.696 573.051 164.054 569.693 164.054 565.551V443.733C164.054 439.591 160.696 436.233 156.554 436.233H129.488C109.642 436.233 93.496 452.379 93.496 472.226V565.551C93.496 569.693 96.854 573.051 100.996 573.051ZM108.496 472.226C108.496 460.651 117.913 451.233 129.488 451.233H149.054V558.05H108.496V472.226Z" fill="black"/>
<path d="M186.554 573.051H244.851C248.993 573.051 252.351 569.693 252.351 565.551V443.733C252.351 439.591 248.993 436.233 244.851 436.233H186.554C182.412 436.233 179.054 439.591 179.054 443.733V565.55C179.054 569.693 182.412 573.051 186.554 573.051ZM194.054 451.233H237.351V558.05H194.054V451.233Z" fill="black"/>
<path d="M555 726.257C555 718.58 552.01 711.354 546.573 705.904C544.461 703.792 542.075 702.054 539.5 700.712V464.835C539.5 428.448 509.897 398.845 473.51 398.845H379.659V376.551C379.659 354.742 361.916 337 340.108 337H257.892C236.083 337 218.341 354.743 218.341 376.551V398.844H124.49C88.103 398.844 58.5 428.447 58.5 464.834V700.737C49.299 705.545 43 715.176 43 726.257C43 733.934 45.99 741.159 51.427 746.611C55.047 750.23 59.465 752.759 64.283 754.049V780.531C64.283 811.235 89.262 836.214 119.966 836.214H478.035C508.739 836.214 533.718 811.235 533.718 780.531V754.04C545.962 750.733 555 739.533 555 726.257ZM233.341 376.551C233.341 363.013 244.355 352 257.892 352H340.108C353.646 352 364.659 363.014 364.659 376.551V398.844H233.341V376.551ZM124.49 413.844H473.51C501.626 413.844 524.5 436.718 524.5 464.834V697.477H509.5V588.154C509.5 584.012 506.142 580.654 502 580.654H446.45C442.308 580.654 438.95 584.012 438.95 588.154V697.477H423.95V588.154C423.95 584.012 420.592 580.654 416.45 580.654H358.15C354.008 580.654 350.65 584.012 350.65 588.154V697.477H335.65V588.154C335.65 584.012 332.292 580.654 328.15 580.654H269.85C265.708 580.654 262.35 584.012 262.35 588.154V697.477H247.35V588.154C247.35 584.012 243.992 580.654 239.85 580.654H181.55C177.408 580.654 174.05 584.012 174.05 588.154V697.477H159.05V588.154C159.05 584.012 155.692 580.654 151.55 580.654H96C91.858 580.654 88.5 584.012 88.5 588.154V697.477H73.5V464.835C73.5 436.718 96.374 413.844 124.49 413.844V413.844ZM494.5 697.477H453.95V595.654H494.5V697.477ZM408.95 697.477H365.65V595.654H408.95V697.477ZM320.65 697.477H277.35V595.654H320.65V697.477ZM232.35 697.477H189.05V595.654H232.35V697.477ZM144.05 697.477H103.5V595.654H144.05V697.477ZM526.22 740.037H195.02C190.878 740.037 187.52 743.395 187.52 747.537C187.52 751.679 190.878 755.037 195.02 755.037H518.717V780.532C518.717 802.965 500.467 821.215 478.034 821.215H119.965C97.532 821.215 79.282 802.965 79.282 780.532V755.037H165.059C169.201 755.037 172.559 751.679 172.559 747.537C172.559 743.395 169.201 740.037 165.059 740.037H71.78C68.096 740.037 64.634 738.604 62.041 736.011C59.435 733.399 58 729.935 58 726.257C58 718.659 64.182 712.477 71.78 712.477H526.22C529.904 712.477 533.366 713.909 535.96 716.503C538.565 719.115 540 722.579 540 726.256C540 733.856 533.818 740.037 526.22 740.037V740.037Z" fill="black"/>
<defs>
<clipPath id="clip0">
<rect width="392" height="327" fill="white" transform="translate(102 458)"/>
</clipPath>
</defs>
</svg>
