<svg width="60" height="60" viewBox="0 0 512 500" fill="none" xmlns="http://www.w3.org/2000/svg">
<!-- <rect width="512" height="500" fill="#E5E5E5"/> -->
<g clip-path="url(#clip0)">
<path d="M285.989 250.556C275.101 254.339 261.066 257.141 243.305 257.141C225.592 257.141 211.585 254.355 200.709 250.588C160.96 299.336 201.562 347.248 214.31 360.237C215.772 361.727 215.329 364.249 213.471 365.151C208.837 367.403 207.223 370.984 206.791 374.084C206.344 377.303 208.84 380.158 211.988 380.158H230.679C238.552 380.158 242.102 374.813 243.054 366.912H243.465C244.417 374.813 247.967 380.158 255.84 380.158H274.734C277.882 380.158 280.378 377.302 279.93 374.084C279.5 370.984 277.886 367.403 273.252 365.151C271.392 364.249 270.95 361.727 272.413 360.237C285.164 347.245 325.782 299.316 285.989 250.556V250.556Z" fill="#F9BD55"/>
<path d="M244.326 284.674H242.195C234.017 284.674 227.388 291.953 227.388 300.933V301.19C227.388 301.19 242.132 335.88 243.26 359.274C244.388 335.878 259.132 301.19 259.132 301.19C259.263 292.111 252.596 284.674 244.326 284.674V284.674Z" fill="#F4DBCE"/>
<path d="M243.26 359.274C243.171 361.117 243.166 362.89 243.26 364.57C243.354 362.891 243.349 361.118 243.26 359.274Z" fill="#F4DBCE"/>
<path d="M315.045 198.561C322.131 198.561 330.101 191.366 330.101 191.366C319.515 189.427 317.338 178.129 311.668 163.619C334.979 150.831 329.069 111.521 325.862 96.6242C325.447 94.694 323.181 94.203 322.098 95.7887C319.304 99.874 313.357 105.485 300.95 108.629C288.967 111.665 282.229 118.44 278.641 123.724C261.783 116.271 243.306 117.369 243.306 117.369C243.306 117.369 224.827 116.271 207.971 123.724C204.381 118.44 197.642 111.665 185.659 108.629C173.252 105.485 167.305 99.874 164.512 95.7887C163.427 94.203 161.162 94.6952 160.747 96.6242C157.54 111.52 151.63 150.831 174.941 163.619C169.271 178.128 167.094 189.426 156.508 191.366C156.508 191.366 164.478 198.561 171.564 198.561C171.564 198.561 168.022 207.81 158.279 209.865C158.279 209.865 163.593 220.142 180.421 220.142C180.421 220.142 175.106 228.364 168.907 230.419C168.907 230.419 188.392 257.14 243.305 257.14C298.218 257.14 317.702 230.419 317.702 230.419C311.503 228.364 306.188 220.142 306.188 220.142C323.016 220.142 328.33 209.865 328.33 209.865C318.587 207.81 315.045 198.561 315.045 198.561Z" fill="#F9BD55"/>
<path d="M243.839 207.395C243.839 207.395 243.807 219.018 231.569 219.996C232.657 231.388 237.732 240.012 243.839 240.012C249.945 240.012 255.02 231.388 256.108 219.996C243.871 219.018 243.839 207.395 243.839 207.395V207.395Z" fill="#52565B"/>
<path d="M235.667 233.998C237.857 237.739 240.71 240.013 243.839 240.013C246.968 240.013 249.821 237.739 252.01 233.998C249.822 230.251 246.969 227.974 243.839 227.974C240.708 227.973 237.855 230.251 235.667 233.998V233.998Z" fill="#FF0000"/>
<path d="M296.642 363.731C306.409 358.098 338.135 336.072 302.38 304.467C298.672 330.993 280.264 352.237 272.413 360.236C270.95 361.726 271.392 364.248 273.252 365.15C277.886 367.402 279.5 370.983 279.93 374.082C280.378 377.302 277.882 380.157 274.734 380.157H295.486C298.675 380.157 301.147 377.232 300.667 373.974C300.304 371.518 299.192 368.774 296.423 366.636C295.453 365.888 295.584 364.342 296.642 363.731V363.731Z" fill="#F9BD55"/>
<path d="M336.691 254.406C329.437 253.273 322.811 259.214 322.473 267.251C321.618 287.603 316.229 301.889 309.685 311.839C314.038 316.953 316.645 321.774 317.94 326.268C334.882 309.919 343.152 286.719 346.961 271.629C348.973 263.66 344.146 255.572 336.691 254.406V254.406Z" fill="#F9BD55"/>
<path d="M325.862 96.6253C325.835 96.5003 325.782 96.3991 325.74 96.2877C323.487 101.302 315.068 118.118 301.556 123.064C285.613 128.9 294.47 141.543 294.47 141.543L290.042 144.461C290.042 144.461 292.699 158.076 303.327 158.076L312.363 163.197C334.839 150.004 329.036 111.367 325.862 96.6253V96.6253Z" fill="#F98080"/>
<path d="M185.053 123.063C171.541 118.117 163.122 101.301 160.869 96.2866C160.827 96.3991 160.774 96.5003 160.747 96.6242C157.573 111.366 151.77 150.003 174.246 163.197L183.282 158.076C193.91 158.076 196.567 144.461 196.567 144.461L192.139 141.543C192.139 141.543 200.996 128.899 185.053 123.063V123.063Z" fill="#F98080"/>
<path d="M252.688 195.427C252.688 200.162 248.151 206.859 243.839 206.859C239.526 206.859 234.989 200.162 234.989 195.427C234.989 190.691 239.526 194.283 243.839 194.283C248.151 194.283 252.688 190.691 252.688 195.427Z" fill="#52565B"/>
<path d="M243.318 291.458C249.643 291.458 254.77 285.828 254.77 278.882C254.77 271.937 249.643 266.307 243.318 266.307C236.993 266.307 231.866 271.937 231.866 278.882C231.866 285.828 236.993 291.458 243.318 291.458Z" fill="#F9E63A"/>
<path d="M243.305 257.141C227.827 257.141 215.178 255.013 204.977 251.964C207.867 260.728 220.195 267.648 235.875 269.337C237.877 267.453 240.474 266.307 243.318 266.307C246.162 266.307 248.759 267.453 250.761 269.337C266.448 267.647 278.778 260.722 281.662 251.953C271.456 255.009 258.799 257.141 243.305 257.141V257.141Z" fill="#039BE6"/>
<path d="M190.081 363.731C180.314 358.098 148.588 336.072 184.343 304.467C188.051 330.993 206.459 352.237 214.31 360.236C215.773 361.726 215.331 364.248 213.471 365.15C208.837 367.402 207.223 370.983 206.793 374.082C206.345 377.302 208.841 380.157 211.989 380.157H191.237C188.048 380.157 185.576 377.232 186.056 373.974C186.419 371.518 187.531 368.774 190.3 366.636C191.27 365.888 191.139 364.342 190.081 363.731V363.731Z" fill="#F9BD55"/>
<path d="M295.487 383H274.735C273.305 383 272.147 381.728 272.147 380.158C272.147 378.588 273.305 377.316 274.735 377.316C275.583 377.316 276.364 376.938 276.88 376.279C277.166 375.913 277.483 375.309 277.374 374.511C276.947 371.443 275.257 369.231 272.205 367.749C270.51 366.926 269.322 365.271 269.025 363.321C268.735 361.419 269.344 359.486 270.653 358.152C278.228 350.434 296.232 329.712 299.822 304.036C299.963 303.031 300.581 302.186 301.443 301.818C302.305 301.45 303.281 301.615 304.002 302.253C316.56 313.353 322.429 324.606 321.446 335.697C320.109 350.785 306.379 361.059 299.205 365.439C301.375 367.578 302.754 370.34 303.222 373.52C303.561 375.814 302.954 378.161 301.559 379.963C300.062 381.893 297.849 383 295.487 383V383ZM282.192 377.316H295.486C296.328 377.316 297.105 376.939 297.616 376.28C297.857 375.969 298.242 375.313 298.112 374.429C297.774 372.141 296.735 370.353 294.933 368.96C293.747 368.043 293.093 366.557 293.186 364.984C293.28 363.382 294.121 361.974 295.437 361.215C301.314 357.825 315.11 348.498 316.293 335.146C317.012 327.04 312.908 318.524 304.086 309.79C298.859 334.92 281.664 354.684 274.173 362.319C274.126 362.395 274.15 362.48 274.298 362.552C280.19 365.414 282.005 370.169 282.488 373.654C282.661 374.892 282.554 376.146 282.192 377.316V377.316ZM297.845 366.248C297.846 366.247 297.846 366.247 297.845 366.248V366.248Z" fill="black"/>
<path d="M211.989 383H191.237C188.874 383 186.662 381.893 185.166 379.965C183.771 378.164 183.164 375.816 183.503 373.522C183.971 370.343 185.349 367.58 187.52 365.441C180.345 361.061 166.615 350.788 165.278 335.699C164.294 324.607 170.164 313.354 182.722 302.254C183.441 301.617 184.418 301.45 185.281 301.819C186.143 302.187 186.762 303.032 186.902 304.037C190.492 329.713 208.496 350.435 216.072 358.154C217.381 359.488 217.99 361.421 217.7 363.322C217.403 365.272 216.213 366.927 214.52 367.75C211.469 369.232 209.779 371.444 209.352 374.512C209.242 375.31 209.559 375.913 209.845 376.279C210.361 376.939 211.143 377.316 211.991 377.316C213.421 377.316 214.579 378.588 214.579 380.158C214.579 381.728 213.419 383 211.989 383ZM182.636 309.791C173.813 318.526 169.709 327.042 170.429 335.149C171.613 348.501 185.408 357.826 191.285 361.216C192.601 361.974 193.441 363.384 193.536 364.984C193.628 366.557 192.976 368.044 191.789 368.962C189.987 370.353 188.947 372.141 188.61 374.43C188.48 375.315 188.866 375.969 189.106 376.281C189.616 376.94 190.393 377.318 191.236 377.318H204.53C204.168 376.146 204.062 374.893 204.234 373.655C204.717 370.171 206.532 365.415 212.424 362.553C212.572 362.481 212.596 362.397 212.594 362.378C205.061 354.69 187.864 334.922 182.636 309.791V309.791Z" fill="black"/>
<path d="M255.84 383C250.327 383 246.216 380.73 243.62 376.254C238.899 368.112 239.739 352.691 246.118 330.414C250.741 314.268 256.726 300.129 256.786 299.988C257.391 298.567 258.93 297.952 260.225 298.615C261.52 299.277 262.08 300.969 261.476 302.391C255.059 317.492 240.126 359.65 247.986 373.2C249.592 375.969 252.16 377.315 255.839 377.315C257.269 377.315 258.427 378.587 258.427 380.157C258.427 381.727 257.27 383 255.84 383Z" fill="black"/>
<path d="M230.68 383C229.25 383 228.092 381.728 228.092 380.158C228.092 378.588 229.25 377.316 230.68 377.316C234.359 377.316 236.928 375.971 238.533 373.201C246.392 359.651 231.46 317.492 225.043 302.392C224.44 300.97 224.999 299.278 226.294 298.616C227.59 297.953 229.129 298.567 229.733 299.989C229.793 300.13 235.778 314.269 240.401 330.415C246.78 352.691 247.62 368.114 242.899 376.255C240.304 380.73 236.192 383 230.68 383Z" fill="black"/>
<path d="M317.94 329.109C317.709 329.109 317.475 329.075 317.246 329.005C316.404 328.747 315.737 328.04 315.474 327.125C314.223 322.786 311.639 318.296 307.796 313.78C306.951 312.787 306.864 311.276 307.588 310.175C315.025 298.868 319.164 284.382 319.889 267.119C320.082 262.519 322.053 258.188 325.296 255.24C328.566 252.265 332.855 250.939 337.057 251.593C341.349 252.264 345.172 254.933 347.546 258.915C349.917 262.894 350.614 267.805 349.457 272.389C345.307 288.825 336.767 311.886 319.651 328.403C319.171 328.864 318.562 329.109 317.94 329.109V329.109ZM312.982 311.614C315.536 314.855 317.532 318.121 318.948 321.375C333.314 306.027 340.735 285.658 344.468 270.87C345.228 267.862 344.771 264.638 343.215 262.027C341.657 259.413 339.146 257.661 336.328 257.22C333.566 256.792 330.748 257.663 328.597 259.617C326.444 261.576 325.188 264.333 325.06 267.382C324.325 284.833 320.264 299.699 312.982 311.614V311.614Z" fill="black"/>
<path d="M243.305 259.985C187.787 259.985 167.714 233.332 166.887 232.198C166.35 231.461 166.181 230.48 166.436 229.579C166.692 228.679 167.336 227.974 168.159 227.702C170.722 226.852 173.187 224.663 175.045 222.632C161.081 220.719 156.249 211.698 156.028 211.271C155.616 210.474 155.579 209.509 155.929 208.677C156.279 207.845 156.971 207.249 157.79 207.076C162.52 206.078 165.544 203.131 167.28 200.755C160.867 198.924 155.156 193.825 154.865 193.563C154.081 192.855 153.746 191.71 154.008 190.633C154.27 189.556 155.081 188.747 156.081 188.564C163.164 187.266 165.716 181.108 169.975 169.424C170.513 167.947 171.064 166.437 171.65 164.879C162.064 158.574 156.574 147.244 155.32 131.156C154.242 117.305 156.679 103.168 158.228 95.9725C158.653 94.0048 160.033 92.5248 161.833 92.1122C163.641 91.6961 165.465 92.4509 166.581 94.0844C169.146 97.8333 174.638 102.921 186.241 105.861C197.776 108.784 204.769 115.028 208.814 120.32C224.882 113.794 241.483 114.432 243.305 114.525C245.129 114.431 261.729 113.795 277.795 120.32C281.84 115.028 288.833 108.784 300.369 105.861C311.971 102.921 317.464 97.8333 320.028 94.0832C321.145 92.4509 322.97 91.6984 324.776 92.1122C326.576 92.5248 327.956 94.0048 328.381 95.9725C329.929 103.168 332.367 117.305 331.289 131.156C330.035 147.244 324.545 158.574 314.959 164.879C315.545 166.437 316.096 167.947 316.634 169.424C320.893 181.108 323.445 187.267 330.528 188.564C331.529 188.747 332.339 189.556 332.601 190.633C332.863 191.709 332.529 192.855 331.744 193.563C331.453 193.825 325.742 198.924 319.329 200.755C321.065 203.131 324.088 206.078 328.818 207.076C329.638 207.249 330.33 207.845 330.679 208.677C331.028 209.509 330.992 210.474 330.58 211.271C330.359 211.698 325.527 220.719 311.563 222.632C313.421 224.663 315.886 226.852 318.449 227.702C319.272 227.975 319.916 228.679 320.172 229.579C320.427 230.48 320.258 231.461 319.721 232.198C318.894 233.334 298.821 259.985 243.305 259.985V259.985ZM173.352 231.307C179.988 237.872 200.844 254.301 243.305 254.301C285.955 254.301 306.685 237.888 313.272 231.317C308.086 227.926 304.272 222.09 304.077 221.789C303.516 220.923 303.444 219.785 303.888 218.84C304.332 217.896 305.219 217.302 306.187 217.302C315.627 217.302 321.006 213.907 323.737 211.316C315.837 207.736 312.803 200.039 312.658 199.664C312.323 198.786 312.408 197.783 312.888 196.989C313.367 196.196 314.176 195.72 315.044 195.72C318.222 195.72 321.737 193.935 324.372 192.23C318 188.474 315.094 180.497 311.827 171.536C311.031 169.351 310.207 167.091 309.288 164.742C308.748 163.358 309.283 161.752 310.51 161.079C331.477 149.577 326.853 114.174 323.565 98.3357C320.276 102.733 313.856 108.277 301.53 111.4C290.256 114.257 283.987 120.603 280.713 125.424C280.01 126.458 278.764 126.842 277.672 126.362C261.573 119.245 243.621 120.198 243.441 120.208C243.35 120.213 243.255 120.213 243.164 120.208C242.987 120.198 225.03 119.245 208.933 126.362C207.842 126.842 206.594 126.458 205.892 125.424C202.618 120.603 196.349 114.257 185.075 111.4C172.748 108.276 166.328 102.733 163.04 98.3357C159.752 114.175 155.128 149.578 176.095 161.079C177.322 161.752 177.858 163.358 177.316 164.742C176.398 167.091 175.574 169.351 174.778 171.536C171.512 180.497 168.606 188.474 162.233 192.23C164.868 193.935 168.383 195.72 171.562 195.72C172.428 195.72 173.238 196.196 173.718 196.989C174.197 197.783 174.283 198.786 173.948 199.664C173.804 200.04 170.769 207.738 162.867 211.318C165.592 213.902 170.974 217.302 180.42 217.302C181.388 217.302 182.275 217.896 182.719 218.84C183.163 219.785 183.091 220.923 182.529 221.789C182.337 222.089 178.531 227.915 173.352 231.307V231.307Z" fill="black"/>
<path d="M312.365 166.04C311.441 166.04 310.547 165.496 310.08 164.537C309.406 163.153 309.883 161.432 311.142 160.692C320.005 155.489 325.055 145.252 326.152 130.264C326.84 120.873 325.819 111.313 324.651 104.189C320.392 111.594 312.85 121.926 302.375 125.759C298.11 127.321 295.575 129.453 294.839 132.095C293.809 135.793 296.494 139.771 296.521 139.81C296.971 140.453 297.149 141.277 297.013 142.072C296.876 142.868 296.434 143.563 295.801 143.98L293.091 145.766C294.148 149.01 297.002 155.236 303.327 155.236C304.757 155.236 305.915 156.508 305.915 158.077C305.915 159.647 304.757 160.919 303.327 160.919C293.265 160.919 288.582 150.543 287.512 145.056C287.28 143.868 287.761 142.649 288.711 142.024L290.94 140.555C289.872 138.129 288.794 134.368 289.89 130.435C291.143 125.931 294.793 122.545 300.738 120.369C313.282 115.778 321.27 99.8138 323.42 95.0305C323.872 94.0268 324.82 93.4198 325.835 93.4482C326.854 93.4891 327.756 94.1825 328.14 95.2192C328.19 95.3385 328.305 95.6125 328.382 95.9717C329.908 103.057 332.317 116.992 331.312 130.72C330.066 147.761 324.102 159.531 313.584 165.704C313.194 165.932 312.777 166.04 312.365 166.04V166.04Z" fill="black"/>
<path d="M274.734 383H255.84C251.474 383 246.316 381.533 243.26 375.624C240.203 381.534 235.046 383 230.68 383H211.989C209.631 383 207.418 381.9 205.918 379.982C204.535 378.214 203.921 375.908 204.235 373.655C204.719 370.17 206.533 365.415 212.426 362.553C212.573 362.481 212.597 362.397 212.595 362.378C205.345 354.979 192.238 339.697 185.402 319.827C176.617 294.288 181.118 270.356 198.781 248.693C199.458 247.861 200.518 247.542 201.487 247.878C213.789 252.14 227.859 254.3 243.305 254.3C258.787 254.3 272.885 252.128 285.208 247.848C286.179 247.51 287.238 247.828 287.916 248.66C305.598 270.327 310.109 294.267 301.325 319.813C294.49 339.69 281.379 354.976 274.172 362.32C274.126 362.396 274.15 362.481 274.298 362.553C280.19 365.415 282.004 370.17 282.488 373.655C282.802 375.908 282.188 378.214 280.805 379.982C279.305 381.9 277.093 383 274.734 383ZM243.054 364.07H243.465C244.763 364.07 245.86 365.126 246.031 366.539C246.93 373.993 249.955 377.316 255.841 377.316H274.735C275.583 377.316 276.364 376.938 276.88 376.279C277.166 375.913 277.483 375.309 277.374 374.511C276.947 371.443 275.257 369.231 272.205 367.749C270.511 366.926 269.322 365.271 269.025 363.321C268.735 361.419 269.344 359.487 270.652 358.152C283.295 345.271 321.37 299.974 285.151 253.812C272.715 257.908 258.648 259.982 243.305 259.982C227.999 259.982 213.962 257.918 201.549 253.843C165.371 299.995 203.432 345.276 216.071 358.152C217.38 359.487 217.989 361.419 217.699 363.321C217.402 365.271 216.213 366.925 214.52 367.749C211.468 369.231 209.778 371.443 209.351 374.511C209.241 375.309 209.558 375.913 209.845 376.279C210.361 376.938 211.142 377.316 211.99 377.316H230.681C236.567 377.316 239.592 373.993 240.49 366.539C240.659 365.126 241.756 364.07 243.054 364.07V364.07Z" fill="black"/>
<path d="M243.318 294.3C235.576 294.3 229.278 287.384 229.278 278.882C229.278 270.381 235.576 263.465 243.318 263.465C251.06 263.465 257.358 270.381 257.358 278.882C257.358 287.384 251.06 294.3 243.318 294.3V294.3ZM243.318 269.149C238.43 269.149 234.454 273.515 234.454 278.882C234.454 284.25 238.43 288.616 243.318 288.616C248.206 288.616 252.182 284.25 252.182 278.882C252.182 273.515 248.206 269.149 243.318 269.149V269.149Z" fill="black"/>
<path d="M250.762 272.179C250.147 272.179 249.549 271.938 249.078 271.495C247.47 269.982 245.426 269.15 243.319 269.15C241.213 269.15 239.167 269.983 237.559 271.496C237.024 271.999 236.327 272.238 235.623 272.167C218.784 270.352 205.799 262.802 202.543 252.932C202.214 251.934 202.418 250.819 203.073 250.038C203.727 249.257 204.725 248.944 205.656 249.222C216.927 252.591 229.593 254.301 243.305 254.301C257.027 254.301 269.703 252.589 280.982 249.212C281.914 248.933 282.91 249.247 283.565 250.027C284.22 250.806 284.425 251.922 284.097 252.92C280.848 262.795 267.862 270.35 251.014 272.167C250.93 272.174 250.846 272.179 250.762 272.179ZM211.016 256.489C215.927 261.35 224.797 265.105 235.104 266.39C237.49 264.496 240.366 263.465 243.319 263.465C246.273 263.465 249.148 264.496 251.534 266.39C261.848 265.104 270.724 261.345 275.632 256.48C265.68 258.807 254.838 259.984 243.305 259.984C231.785 259.983 220.957 258.81 211.016 256.489V256.489Z" fill="black"/>
<path d="M243.318 294.3C235.576 294.3 229.278 287.384 229.278 278.882C229.278 277.312 230.436 276.04 231.866 276.04H254.77C256.199 276.04 257.358 277.312 257.358 278.882C257.358 287.384 251.06 294.3 243.318 294.3V294.3ZM234.839 281.724C235.949 285.709 239.331 288.616 243.318 288.616C247.305 288.616 250.687 285.709 251.797 281.724H234.839Z" fill="black"/>
<path d="M243.187 285.154C241.757 285.154 240.599 283.882 240.599 282.312V278.882C240.599 277.312 241.757 276.04 243.187 276.04C244.616 276.04 245.774 277.312 245.774 278.882V282.312C245.774 283.882 244.616 285.154 243.187 285.154Z" fill="black"/>
<path d="M243.839 209.7C237.948 209.7 232.401 201.659 232.401 195.427C232.401 193.498 232.954 192.045 234.043 191.109C235.836 189.567 238.085 190.181 240.261 190.773C241.47 191.103 242.721 191.442 243.839 191.442C244.957 191.442 246.207 191.103 247.416 190.773C249.591 190.181 251.84 189.568 253.634 191.109C254.724 192.045 255.276 193.499 255.276 195.427C255.276 201.659 249.73 209.7 243.839 209.7V209.7ZM237.601 195.929C237.919 199.419 241.384 204.018 243.839 204.018C246.293 204.018 249.76 199.42 250.077 195.929C249.62 196.028 249.08 196.176 248.66 196.289C247.292 196.662 245.588 197.126 243.839 197.126C242.089 197.126 240.385 196.662 239.017 196.289C238.598 196.176 238.057 196.028 237.601 195.929Z" fill="black"/>
<path d="M257.226 222.885C256.81 222.885 256.386 222.868 255.952 222.834C241.458 221.697 241.252 207.546 241.251 207.403C241.247 205.833 242.402 204.558 243.831 204.553H243.839C245.259 204.553 246.413 205.811 246.427 207.369C246.442 208.308 246.858 216.422 256.321 217.165C258.845 217.361 260.778 216.758 262.202 215.314C264.957 212.521 265.026 207.435 265.026 207.384C265.038 205.82 266.228 204.59 267.625 204.56C269.049 204.566 270.202 205.831 270.202 207.396C270.202 207.703 270.151 214.952 265.749 219.455C263.519 221.733 260.656 222.885 257.226 222.885Z" fill="black"/>
<path d="M230.452 222.885C227.022 222.885 224.159 221.734 221.93 219.453C217.527 214.952 217.476 207.701 217.476 207.395C217.476 205.825 218.635 204.553 220.064 204.553C221.494 204.553 222.652 205.825 222.652 207.395C222.652 207.435 222.721 212.521 225.476 215.314C226.9 216.758 228.825 217.368 231.358 217.165C241.115 216.4 241.251 207.754 241.252 207.387C241.256 205.821 242.414 204.553 243.84 204.553H243.847C245.277 204.558 246.432 205.833 246.428 207.403C246.428 207.545 246.222 221.696 231.726 222.834C231.293 222.867 230.868 222.885 230.452 222.885Z" fill="black"/>
<path d="M243.839 242.854C236.368 242.854 230.265 233.576 228.996 220.291C228.922 219.526 229.135 218.761 229.585 218.171C230.034 217.581 230.683 217.216 231.381 217.161C240.829 216.405 241.235 208.289 241.251 207.364C241.277 205.814 242.429 204.564 243.839 204.564H243.858C245.272 204.575 246.414 205.819 246.427 207.369C246.443 208.31 246.86 216.407 256.297 217.161C256.996 217.216 257.644 217.581 258.093 218.171C258.543 218.761 258.755 219.526 258.682 220.291C257.413 233.576 251.309 242.854 243.839 242.854V242.854ZM234.496 222.427C235.889 230.884 239.764 237.171 243.839 237.171C247.913 237.171 251.789 230.884 253.181 222.427C248.42 221.375 245.558 218.731 243.839 215.948C242.119 218.731 239.258 221.375 234.496 222.427V222.427Z" fill="black"/>
<path d="M350.031 208.558C349.829 208.558 349.624 208.532 349.419 208.477C315.841 199.538 285.957 201.668 285.66 201.691C284.226 201.793 282.999 200.617 282.9 199.052C282.802 197.486 283.879 196.129 285.304 196.021C285.609 196 316.293 193.811 350.639 202.954C352.028 203.323 352.881 204.86 352.545 206.386C352.258 207.685 351.198 208.558 350.031 208.558V208.558Z" fill="black"/>
<path d="M347.272 236.379C346.869 236.379 346.461 236.276 346.079 236.057C315.428 218.545 285.95 212.754 285.656 212.697C284.248 212.426 283.306 210.954 283.552 209.407C283.799 207.861 285.138 206.828 286.548 207.097C286.85 207.155 317.116 213.103 348.468 231.015C349.736 231.739 350.229 233.456 349.57 234.848C349.108 235.822 348.205 236.379 347.272 236.379V236.379Z" fill="black"/>
<path d="M138.688 208.558C137.521 208.558 136.462 207.685 136.174 206.385C135.838 204.859 136.691 203.323 138.08 202.953C172.426 193.81 203.108 195.997 203.415 196.02C204.84 196.128 205.917 197.485 205.818 199.051C205.721 200.616 204.485 201.792 203.06 201.691C202.76 201.668 172.836 199.548 139.299 208.477C139.094 208.532 138.888 208.558 138.688 208.558V208.558Z" fill="black"/>
<path d="M141.447 236.379C140.512 236.379 139.611 235.822 139.149 234.848C138.49 233.456 138.983 231.74 140.251 231.015C171.603 213.103 201.869 207.155 202.171 207.097C203.581 206.829 204.919 207.861 205.165 209.407C205.412 210.953 204.47 212.425 203.063 212.697C202.768 212.754 173.251 218.568 142.639 236.058C142.259 236.276 141.85 236.379 141.447 236.379V236.379Z" fill="black"/>
<path d="M259 186.753C257.574 186.753 256.416 185.487 256.412 183.921C256.394 177.908 260.835 173 266.31 172.981C268.992 172.965 271.46 174.096 273.342 176.15C275.223 178.203 276.264 180.938 276.273 183.85C276.277 185.42 275.123 186.697 273.694 186.701C273.691 186.701 273.687 186.701 273.685 186.701C272.26 186.701 271.102 185.435 271.097 183.868C271.093 182.473 270.595 181.164 269.694 180.181C268.796 179.202 267.607 178.663 266.343 178.663C266.338 178.663 266.333 178.663 266.327 178.663C263.705 178.673 261.579 181.023 261.587 183.901C261.592 185.471 260.437 186.747 259.008 186.752C259.005 186.753 259.002 186.753 259 186.753V186.753Z" fill="black"/>
<path d="M228.148 186.727C226.718 186.727 225.56 185.455 225.56 183.886C225.56 181.006 223.426 178.665 220.804 178.665C218.182 178.665 216.05 181.007 216.05 183.886C216.05 185.455 214.892 186.727 213.462 186.727C212.032 186.727 210.874 185.455 210.874 183.886C210.874 177.872 215.329 172.981 220.804 172.981C226.28 172.981 230.736 177.873 230.736 183.886C230.736 185.455 229.577 186.727 228.148 186.727Z" fill="black"/>
<path d="M174.244 166.04C173.832 166.04 173.415 165.932 173.026 165.704C162.51 159.53 156.544 147.761 155.298 130.72C154.294 116.991 156.702 103.056 158.228 95.9717C158.306 95.6125 158.421 95.3385 158.475 95.2067C158.859 94.17 159.758 93.4823 160.777 93.4414C161.79 93.4027 162.738 94.0256 163.19 95.0293C165.34 99.8127 173.331 115.777 185.872 120.368C191.817 122.544 195.467 125.931 196.72 130.434C197.816 134.367 196.738 138.129 195.669 140.554L197.898 142.022C198.848 142.648 199.329 143.867 199.097 145.055C198.027 150.542 193.343 160.918 183.282 160.918C181.853 160.918 180.694 159.646 180.694 158.076C180.694 156.507 181.853 155.235 183.282 155.235C189.564 155.235 192.441 148.995 193.51 145.76L190.808 143.98C190.175 143.563 189.734 142.869 189.597 142.072C189.459 141.276 189.638 140.453 190.088 139.81C190.109 139.781 192.814 135.78 191.764 132.069C191.019 129.439 188.486 127.316 184.236 125.759C173.763 121.926 166.22 111.592 161.959 104.188C160.791 111.312 159.771 120.873 160.458 130.265C161.555 145.253 166.605 155.489 175.468 160.692C176.727 161.432 177.204 163.154 176.53 164.537C176.062 165.495 175.167 166.04 174.244 166.04V166.04Z" fill="black"/>
<path d="M243.839 242.854C239.929 242.854 236.253 240.254 233.49 235.533C232.943 234.598 232.943 233.399 233.489 232.463C236.251 227.736 239.927 225.131 243.84 225.131C247.753 225.131 251.428 227.736 254.19 232.463C254.737 233.399 254.736 234.599 254.189 235.535C251.424 240.254 247.748 242.854 243.839 242.854V242.854ZM238.862 233.995C240.031 235.551 241.752 237.17 243.839 237.17C245.926 237.17 247.646 235.551 248.817 233.995C247.647 232.438 245.928 230.815 243.839 230.815C241.751 230.815 240.03 232.438 238.862 233.995Z" fill="black"/>
</g>
<path d="M483.22 410.535V443.535C483.22 470.145 461.65 491.715 435.03 491.715H76.97C50.35 491.715 28.78 470.145 28.78 443.535V410.535L84.16 405.345L156.59 398.565L256 389.255L355.41 398.565L483.22 410.535Z" fill="#1D4781"/>
<path d="M483.22 410.535V428.495H84.16V398.564H355.41L483.22 410.535Z" fill="#61A2F9"/>
<path d="M162.765 491.715H76.965C50.355 491.715 28.785 470.145 28.785 443.535V410.535L256.005 389.255L298.905 393.275L114.585 410.535V443.535C114.585 470.144 136.155 491.715 162.765 491.715Z" fill="#1D4781"/>
<path d="M430.512 69.341H81.488C49.235 69.341 22.996 95.581 22.996 127.834V377.975C22.996 386.259 29.712 392.975 37.996 392.975C46.28 392.975 52.996 386.259 52.996 377.975V251.158H108.554V394.602H138.554V251.158H196.851V394.602H226.851V251.158H285.149V394.602H315.149V251.158H373.446V394.602H403.446V251.158H459.004V377.974C459.004 386.258 465.72 392.974 474.004 392.974C482.288 392.974 489.004 386.258 489.004 377.974V127.833C489.004 95.58 462.765 69.341 430.512 69.341ZM52.996 221.158V127.833C52.996 112.122 65.778 99.34 81.488 99.34H108.554V221.157L52.996 221.158ZM138.554 221.158V99.341H196.851V221.158H138.554ZM226.851 221.158V99.341H285.149V221.158H226.851ZM315.149 221.158V99.341H373.446V221.158H315.149ZM403.446 221.158V99.341H430.512C446.222 99.341 459.004 112.123 459.004 127.834V221.159H403.446V221.158Z" fill="#7DF7FF"/>
<path d="M184.248 69.341H81.488C49.238 69.341 22.998 95.581 22.998 127.831V377.971C22.998 386.251 29.708 392.971 37.998 392.971C46.278 392.971 52.998 386.251 52.998 377.971V251.151H108.558V394.601H138.558V392.811C131.308 391.751 125.748 385.501 125.748 377.971V127.831C125.748 95.581 151.988 69.341 184.248 69.341V69.341ZM108.558 221.151H52.998V127.831C52.998 112.121 65.778 99.341 81.488 99.341H108.558V221.151Z" fill="#7DF7FF"/>
<path d="M483.217 367.974H28.783C17.029 367.974 7.5 377.503 7.5 389.257C7.5 401.011 17.029 410.54 28.783 410.54H483.218C494.972 410.54 504.501 401.011 504.501 389.257C504.5 377.503 494.971 367.974 483.217 367.974Z" fill="#1D4781"/>
<path d="M85.45 404.307C89.3 408.157 94.62 410.537 100.5 410.537H28.78C22.9 410.537 17.58 408.157 13.73 404.307C9.88 400.457 7.5 395.137 7.5 389.257C7.5 377.507 17.03 367.977 28.78 367.977H100.5C88.74 367.977 79.22 377.507 79.22 389.257C79.22 395.137 81.6 400.457 85.45 404.307Z" fill="#1D4781"/>
<path d="M403.45 228.657H459C463.142 228.657 466.5 225.299 466.5 221.157V127.837C466.5 107.986 450.355 91.837 430.51 91.837H403.45C399.308 91.837 395.95 95.195 395.95 99.337V127.587C395.95 131.729 399.308 135.087 403.45 135.087C407.592 135.087 410.95 131.729 410.95 127.587V106.837H430.51C442.084 106.837 451.5 116.257 451.5 127.837V213.657H410.95V157.587C410.95 153.445 407.592 150.087 403.45 150.087C399.308 150.087 395.95 153.445 395.95 157.587V221.157C395.95 225.299 399.308 228.657 403.45 228.657Z" fill="black"/>
<path d="M315.149 228.658H373.446C377.588 228.658 380.946 225.3 380.946 221.158V99.34C380.946 95.198 377.588 91.84 373.446 91.84H315.149C311.007 91.84 307.649 95.198 307.649 99.34V221.157C307.649 225.3 311.007 228.658 315.149 228.658ZM322.649 106.84H365.946V213.657H322.649V106.84Z" fill="black"/>
<path d="M226.851 228.658H285.149C289.291 228.658 292.649 225.3 292.649 221.158V99.34C292.649 95.198 289.291 91.84 285.149 91.84H226.851C222.709 91.84 219.351 95.198 219.351 99.34V221.157C219.351 225.3 222.709 228.658 226.851 228.658ZM234.351 106.84H277.649V213.657H234.351V106.84Z" fill="black"/>
<path d="M52.996 228.658H108.554C112.696 228.658 116.054 225.3 116.054 221.158V99.34C116.054 95.198 112.696 91.84 108.554 91.84H81.488C61.642 91.84 45.496 107.986 45.496 127.833V221.158C45.496 225.3 48.854 228.658 52.996 228.658ZM60.496 127.833C60.496 116.258 69.913 106.84 81.488 106.84H101.054V213.657H60.496V127.833Z" fill="black"/>
<path d="M138.554 228.658H196.851C200.993 228.658 204.351 225.3 204.351 221.158V99.34C204.351 95.198 200.993 91.84 196.851 91.84H138.554C134.412 91.84 131.054 95.198 131.054 99.34V221.157C131.054 225.3 134.412 228.658 138.554 228.658ZM146.054 106.84H189.351V213.657H146.054V106.84Z" fill="black"/>
<path d="M512 389.257C512 381.58 509.01 374.354 503.573 368.904C501.461 366.792 499.075 365.054 496.5 363.712V127.835C496.5 91.448 466.897 61.845 430.51 61.845H336.659V39.551C336.659 17.742 318.916 0 297.108 0H214.892C193.083 0 175.341 17.743 175.341 39.551V61.844H81.49C45.103 61.844 15.5 91.447 15.5 127.834V363.737C6.299 368.545 0 378.176 0 389.257C0 396.934 2.99 404.159 8.427 409.611C12.047 413.23 16.465 415.759 21.283 417.049V443.531C21.283 474.235 46.262 499.214 76.966 499.214H435.035C465.739 499.214 490.718 474.235 490.718 443.531V417.04C502.962 413.733 512 402.533 512 389.257ZM190.341 39.551C190.341 26.013 201.355 15 214.892 15H297.108C310.646 15 321.659 26.014 321.659 39.551V61.844H190.341V39.551ZM81.49 76.844H430.51C458.626 76.844 481.5 99.718 481.5 127.834V360.477H466.5V251.154C466.5 247.012 463.142 243.654 459 243.654H403.45C399.308 243.654 395.95 247.012 395.95 251.154V360.477H380.95V251.154C380.95 247.012 377.592 243.654 373.45 243.654H315.15C311.008 243.654 307.65 247.012 307.65 251.154V360.477H292.65V251.154C292.65 247.012 289.292 243.654 285.15 243.654H226.85C222.708 243.654 219.35 247.012 219.35 251.154V360.477H204.35V251.154C204.35 247.012 200.992 243.654 196.85 243.654H138.55C134.408 243.654 131.05 247.012 131.05 251.154V360.477H116.05V251.154C116.05 247.012 112.692 243.654 108.55 243.654H53C48.858 243.654 45.5 247.012 45.5 251.154V360.477H30.5V244.156V127.835C30.5 99.718 53.374 76.844 81.49 76.844ZM451.5 360.477H410.95V258.654H451.5V360.477ZM365.95 360.477H322.65V258.654H365.95V360.477ZM277.65 360.477H234.35V258.654H277.65V360.477ZM189.35 360.477H146.05V258.654H189.35V360.477ZM101.05 360.477H60.5V258.654H101.05V360.477ZM483.22 403.037H152.02C147.878 403.037 144.52 406.395 144.52 410.537C144.52 414.679 147.878 418.037 152.02 418.037H475.717V443.532C475.717 465.965 457.467 484.215 435.034 484.215H76.965C54.532 484.215 36.282 465.965 36.282 443.532V418.037H122.059C126.201 418.037 129.559 414.679 129.559 410.537C129.559 406.395 126.201 403.037 122.059 403.037H28.78C25.096 403.037 21.634 401.604 19.041 399.011C16.435 396.399 15 392.935 15 389.257C15 381.659 21.182 375.477 28.78 375.477H483.22C486.904 375.477 490.366 376.909 492.96 379.503C495.565 382.115 497 385.579 497 389.256C497 396.856 490.818 403.037 483.22 403.037Z" fill="black"/>
<defs>
<clipPath id="clip0">
<rect width="265" height="291" fill="white" transform="translate(116 92)"/>
</clipPath>
</defs>
</svg>
