<?xml version="1.0" standalone="no"?>
<!DOCTYPE svg PUBLIC "-//W3C//DTD SVG 20010904//EN"
 "http://www.w3.org/TR/2001/REC-SVG-20010904/DTD/svg10.dtd">
<svg version="1.0" xmlns="http://www.w3.org/2000/svg"
 width="1140.000000pt" height="908.000000pt" viewBox="0 0 1140.000000 908.000000"
 preserveAspectRatio="xMidYMid meet">
<metadata>
Created by potrace 1.16, written by Peter Selinger 2001-2019
</metadata>
<g transform="translate(0.000000,908.000000) scale(0.100000,-0.100000)"
fill="#000000" stroke="none">
<path d="M1307 8438 c-37 -29 -42 -93 -9 -130 19 -22 85 -24 102 -3 6 8 14 32
17 54 5 33 1 44 -20 65 -28 28 -63 33 -90 14z"/>
<path d="M2874 8366 c-17 -8 -40 -26 -52 -41 -26 -33 -39 -108 -24 -140 16
-36 81 -72 169 -95 88 -23 124 -45 138 -84 8 -22 5 -31 -18 -54 -25 -25 -33
-27 -111 -27 -79 0 -84 1 -120 33 -38 34 -56 34 -56 2 0 -24 52 -67 98 -80 48
-13 123 -13 159 1 39 15 81 56 93 94 23 69 -21 108 -188 166 -127 44 -154 78
-112 146 36 59 158 68 225 17 38 -29 45 -30 45 -6 0 20 -31 52 -67 71 -30 15
-141 13 -179 -3z"/>
<path d="M3364 8369 c-3 -6 5 -37 19 -68 13 -31 46 -108 73 -171 92 -221 118
-262 148 -229 7 8 38 68 68 134 31 66 77 165 102 220 44 92 46 101 30 112 -22
16 -34 17 -34 2 0 -7 -29 -73 -63 -148 -35 -75 -71 -153 -80 -173 -13 -29 -23
-38 -40 -38 -20 0 -31 15 -69 93 -25 51 -49 109 -53 128 -4 19 -20 60 -36 92
-28 54 -50 70 -65 46z"/>
<path d="M4162 8365 c-92 -40 -131 -102 -139 -225 -5 -70 -3 -80 26 -137 38
-76 78 -107 156 -123 107 -22 219 10 251 72 18 35 19 183 2 195 -7 4 -59 8
-115 9 -75 1 -105 -2 -114 -12 -20 -25 2 -34 82 -34 90 0 119 -17 119 -69 0
-77 -40 -109 -149 -118 -131 -11 -198 47 -209 183 -8 100 25 167 101 205 60
31 168 24 227 -15 37 -24 44 -26 57 -13 12 12 10 18 -21 45 -20 17 -52 36 -73
41 -54 15 -162 13 -201 -4z"/>
<path d="M5172 8368 c-13 -13 -18 -441 -6 -472 5 -13 26 -16 124 -16 130 0
168 10 211 57 44 47 60 89 65 176 6 78 4 85 -28 147 -37 71 -65 97 -124 110
-59 14 -228 12 -242 -2z m275 -64 c74 -54 96 -187 47 -290 -35 -75 -59 -85
-182 -82 l-97 3 -3 185 c-1 101 0 191 3 198 4 11 27 13 104 10 81 -2 105 -7
128 -24z"/>
<path d="M5797 8373 c-14 -14 -5 -35 53 -124 33 -50 63 -102 66 -115 8 -32 -9
-73 -67 -163 -49 -75 -52 -91 -20 -91 11 0 33 28 62 78 36 62 50 77 69 77 19
0 33 -15 69 -77 43 -74 69 -95 86 -69 6 10 -45 94 -102 169 -18 24 -33 47 -33
52 0 5 36 63 81 131 59 89 77 124 68 130 -21 12 -36 -2 -98 -92 -35 -51 -65
-85 -78 -87 -15 -2 -32 17 -77 93 -57 92 -65 102 -79 88z"/>
<path d="M6352 8367 c-8 -10 -18 -348 -13 -469 1 -25 38 -23 46 3 4 11 4 63 0
115 -10 123 -9 124 111 124 94 0 109 5 98 34 -5 13 -23 16 -100 16 -91 0 -95
1 -104 25 -9 23 -6 88 6 106 3 5 67 9 142 9 141 0 169 6 159 34 -6 14 -29 16
-170 16 -121 0 -167 -3 -175 -13z"/>
<path d="M7380 8371 c-12 -8 -16 -47 -19 -216 -4 -235 1 -275 29 -275 19 0 20
8 20 113 0 75 4 117 12 125 7 7 43 12 93 12 99 0 147 13 188 50 27 24 32 35
31 70 -2 48 -27 88 -70 110 -35 18 -261 26 -284 11z m263 -52 c55 -25 60 -97
9 -122 -15 -8 -67 -17 -116 -21 -109 -9 -126 1 -126 75 0 79 -1 79 111 79 54
0 109 -5 122 -11z"/>
<path d="M8270 8355 c-5 -14 -7 -86 -3 -170 5 -131 4 -145 -11 -151 -23 -9
-66 33 -130 127 -28 42 -80 107 -114 145 -90 98 -92 94 -92 -197 0 -183 3
-228 14 -232 30 -12 36 16 36 169 0 165 3 184 29 184 22 0 48 -28 95 -103 20
-32 58 -86 84 -120 26 -34 56 -75 66 -90 13 -22 24 -27 44 -25 l27 3 3 210 c2
116 0 225 -3 243 -7 39 -31 43 -45 7z"/>
<path d="M8672 8354 c-59 -29 -82 -58 -106 -127 -25 -73 -21 -160 9 -222 36
-72 70 -101 140 -119 111 -29 188 -16 247 44 l38 38 0 85 c0 57 -4 88 -12 93
-23 14 -204 14 -223 0 -33 -24 -7 -36 74 -36 89 0 121 -19 121 -70 0 -74 -41
-107 -145 -117 -78 -7 -145 14 -174 55 -44 63 -56 184 -23 248 41 79 97 108
200 102 55 -3 78 -9 112 -32 37 -24 44 -26 57 -13 12 12 10 18 -21 45 -68 59
-203 71 -294 26z"/>
<path d="M9702 8368 c-9 -9 -12 -77 -12 -245 l0 -233 26 -10 c27 -11 302 -14
328 -4 9 3 16 14 16 24 0 14 -13 18 -74 23 -40 4 -103 4 -139 0 -53 -5 -71 -2
-92 11 -25 16 -25 19 -19 99 4 45 11 88 17 95 6 8 41 12 108 12 102 0 129 11
93 37 -15 11 -37 13 -99 9 -106 -9 -117 -1 -113 79 l3 60 147 5 c80 3 150 8
153 12 4 4 5 14 2 23 -5 13 -32 15 -170 15 -113 0 -167 -4 -175 -12z"/>
<path d="M10263 8372 c-8 -5 -13 -71 -16 -220 -4 -248 -2 -272 24 -272 18 0
19 9 19 114 0 79 4 117 13 124 6 5 57 12 112 14 82 3 108 8 142 27 53 30 68
64 54 118 -13 49 -48 82 -98 94 -46 10 -233 12 -250 1z m267 -57 c51 -26 52
-93 2 -119 -15 -7 -68 -17 -118 -20 -88 -7 -93 -6 -108 16 -16 22 -22 92 -10
122 9 22 192 23 234 1z"/>
<path d="M10895 8366 c-16 -7 -41 -26 -55 -40 -21 -23 -25 -37 -25 -89 0 -60
1 -61 42 -93 28 -21 71 -39 130 -55 62 -16 96 -31 116 -50 33 -33 34 -50 4
-85 -21 -24 -32 -27 -98 -31 -77 -4 -79 -4 -156 53 -21 15 -23 15 -29 -1 -19
-48 53 -96 153 -103 78 -5 124 10 163 55 27 30 31 41 28 81 -3 46 -4 48 -63
79 -33 18 -95 44 -138 59 -95 32 -121 55 -113 103 7 44 30 69 80 82 53 14 112
4 159 -28 20 -14 41 -23 44 -19 13 13 -22 61 -57 78 -42 21 -141 23 -185 4z"/>
<path d="M813 8003 c-18 -20 -33 -40 -33 -44 0 -16 29 3 35 22 8 25 47 47 53
30 3 -9 8 -9 20 1 13 11 14 11 8 0 -4 -7 -9 -65 -9 -128 -1 -62 -5 -114 -9
-114 -4 0 -7 -15 -6 -32 0 -18 -2 -60 -6 -93 -9 -73 3 -109 42 -129 70 -36
162 60 232 242 34 90 0 55 -46 -47 -63 -140 -127 -201 -164 -156 -16 19 -14
139 4 255 23 152 4 223 -61 228 -21 1 -36 -7 -60 -35z"/>
<path d="M1232 8031 c-7 -4 -21 -32 -31 -62 -11 -30 -29 -75 -40 -101 -14 -33
-17 -48 -8 -48 7 0 20 27 30 60 9 33 21 60 25 60 6 0 12 -118 12 -233 0 -16 4
-26 9 -23 5 3 7 -3 4 -14 -8 -31 5 -70 25 -70 13 0 14 -2 3 -9 -11 -7 -11 -13
2 -32 21 -30 57 -36 57 -10 0 10 -7 21 -15 25 -8 3 -15 14 -15 25 0 31 -11 51
-24 44 -8 -5 -8 -3 0 8 6 8 10 23 7 34 -5 26 -3 237 3 292 4 34 1 44 -14 52
-10 5 -24 6 -30 2z"/>
<path d="M1549 8038 c0 -2 -2 -10 -4 -18 -5 -23 -74 -203 -85 -222 -7 -13 -7
-18 1 -18 8 0 9 -4 0 -13 -6 -8 -25 -40 -42 -73 -17 -32 -44 -77 -60 -98 -31
-42 -35 -56 -19 -56 6 0 10 9 10 19 0 11 5 23 12 27 8 5 9 2 4 -11 -5 -15 -4
-16 8 -6 8 7 12 20 9 28 -5 12 -3 14 7 8 9 -6 11 -4 5 4 -4 8 2 21 15 33 19
18 38 54 44 83 1 6 8 20 14 33 7 12 10 27 7 32 -3 6 -1 10 5 10 7 0 10 7 7 15
-4 8 -2 17 3 20 4 3 16 30 25 60 20 63 35 71 35 19 0 -25 4 -33 13 -28 10 6
10 4 0 -7 -20 -21 -15 -34 5 -16 25 23 36 21 13 -2 -12 -12 -17 -28 -14 -47 2
-16 5 -35 5 -41 1 -7 6 -13 11 -13 6 0 7 -3 4 -6 -10 -11 12 -44 30 -44 9 0
13 3 10 7 -4 3 -2 12 4 20 8 9 8 13 1 13 -6 0 -15 -7 -20 -16 -8 -15 -10 -15
-15 0 -4 11 1 18 18 22 20 5 29 19 24 37 0 1 4 14 10 30 6 15 7 27 2 27 -5 0
-12 -17 -16 -37 -6 -35 -19 -52 -37 -53 -5 0 -8 5 -8 10 0 6 7 10 15 10 8 0
15 4 15 10 0 5 -6 7 -14 4 -8 -3 -17 -1 -21 5 -4 7 0 8 10 5 13 -6 15 3 14 55
-1 33 -5 61 -8 61 -4 0 -5 16 -3 35 6 52 -5 85 -28 85 -11 0 -20 -1 -21 -2z"/>
<path d="M6125 7421 c-33 -10 -104 -36 -157 -59 -108 -47 -324 -102 -397 -102
-108 0 -250 -58 -470 -194 -75 -45 -179 -108 -231 -139 -179 -104 -235 -173
-235 -288 0 -58 5 -77 43 -151 24 -47 84 -136 138 -203 122 -152 155 -211 204
-350 46 -135 83 -211 109 -225 95 -50 151 71 195 423 25 188 97 440 120 416 2
-2 -9 -65 -25 -139 -36 -170 -37 -270 -5 -451 37 -209 40 -269 21 -414 -20
-145 -16 -243 10 -298 27 -56 99 -132 166 -174 70 -43 69 -29 9 -213 -43 -133
-102 -274 -172 -413 -79 -159 -99 -216 -138 -406 -24 -111 -50 -315 -50 -386
0 -76 -8 -94 -54 -117 -94 -48 -129 -92 -150 -190 l-6 -27 -168 83 c-92 46
-193 95 -225 110 -102 49 -206 208 -228 351 -10 60 -8 78 12 154 18 69 33 99
73 151 125 164 158 347 92 511 l-26 65 95 288 c52 159 95 301 95 317 0 70 -42
106 -111 94 -53 -9 -274 -121 -348 -177 -60 -45 -41 -44 -238 -9 -244 44 -438
50 -569 15 l-53 -14 -83 56 c-210 141 -431 212 -453 145 -9 -29 27 -188 91
-401 52 -175 56 -196 45 -224 -7 -17 -46 -123 -88 -236 -106 -291 -108 -352
-16 -473 48 -63 180 -182 262 -238 58 -39 69 -64 77 -174 5 -63 2 -82 -35
-193 -70 -210 -88 -400 -55 -587 14 -80 111 -392 178 -570 15 -37 35 -127 46
-199 24 -157 69 -385 116 -593 36 -159 40 -205 24 -247 -8 -21 -16 -26 -45
-26 -61 0 -103 -24 -124 -71 -24 -52 -19 -64 27 -81 46 -16 365 -17 403 -1 24
11 27 20 79 322 35 204 58 311 66 311 6 0 33 -10 60 -22 27 -12 85 -34 129
-48 44 -15 80 -32 80 -36 -5 -186 -35 -404 -61 -434 -28 -33 -35 -72 -23 -123
l12 -49 184 5 c101 2 186 7 190 10 15 16 14 96 -2 128 -13 24 -19 64 -22 144
-3 97 -1 118 20 175 22 61 25 65 53 63 40 -2 417 -62 422 -68 2 -2 -27 -19
-65 -39 -38 -19 -91 -51 -118 -71 -26 -20 -71 -44 -99 -52 -37 -11 -64 -28
-97 -63 -51 -52 -66 -98 -54 -164 l7 -36 369 0 c344 0 374 1 446 21 99 27 189
68 266 120 l61 42 175 -26 c320 -48 362 -50 921 -51 l535 -1 110 -49 c95 -43
121 -50 190 -54 61 -3 85 0 100 12 17 13 18 18 7 35 -12 20 -10 21 36 21 64 0
134 22 177 55 39 29 48 54 13 31 -31 -20 -128 -26 -128 -8 0 5 25 19 57 32
145 60 354 244 421 371 18 34 19 39 5 21 -12 -15 -28 -23 -41 -20 -22 3 -22 4
8 48 86 130 186 537 210 860 30 407 -18 694 -154 928 -39 65 -81 118 -72 90 3
-10 8 -41 12 -70 l7 -53 -42 55 c-51 68 -109 115 -186 150 -108 50 -105 51
-105 -22 0 -110 32 -230 101 -377 21 -46 39 -85 39 -87 0 -2 -8 -4 -17 -4 -9
0 -37 21 -61 48 l-45 47 6 -100 c4 -55 16 -150 27 -211 23 -125 39 -244 32
-244 -2 0 -21 19 -42 43 -21 23 -42 38 -47 34 -4 -5 -8 -93 -8 -195 -1 -103
-4 -202 -9 -220 -8 -34 -26 -44 -26 -14 0 21 -18 42 -37 42 -7 0 -13 -11 -13
-23 0 -72 -91 -333 -130 -371 -20 -20 -20 -20 -20 19 l-1 40 -44 -50 -45 -50
0 40 c0 22 11 128 24 235 27 213 46 458 46 578 -1 165 -56 342 -147 475 -68
101 -125 139 -258 172 -6 2 -19 63 -29 136 -47 343 -161 838 -273 1174 -53
162 -97 263 -147 338 l-35 53 20 84 c39 171 85 285 164 410 49 78 114 217 129
275 8 33 23 115 32 183 9 67 22 122 27 122 22 0 0 -268 -37 -440 -59 -277 -65
-392 -21 -440 40 -44 95 -15 192 100 172 201 162 193 459 380 130 82 209 191
209 285 -1 87 -43 165 -159 301 -34 39 -100 121 -149 182 -163 208 -274 309
-384 351 -78 30 -246 147 -353 246 -52 48 -117 100 -145 116 -163 94 -521 147
-680 100z m-833 -4028 c22 -23 23 -32 22 -146 -1 -67 -11 -216 -22 -332 -43
-421 -49 -611 -22 -655 15 -24 59 5 80 53 31 69 42 135 45 272 7 314 132 524
328 551 43 6 44 6 92 -49 26 -31 61 -61 76 -66 49 -17 124 -96 154 -162 82
-184 44 -404 -94 -539 -75 -73 -144 -101 -249 -102 -85 0 -162 31 -211 87 -17
19 -32 35 -34 35 -2 0 -9 -17 -15 -39 -16 -53 -79 -145 -112 -165 -16 -9 -42
-16 -58 -16 -62 0 -126 101 -177 275 -14 50 -27 95 -29 100 -1 6 -12 -11 -24
-37 -75 -170 -195 -268 -328 -268 -161 0 -248 85 -260 257 -8 101 7 180 51
270 75 153 242 240 471 246 l84 2 10 35 c5 19 21 87 35 150 38 165 63 237 90
259 30 23 66 17 97 -16z m2060 -20 c25 -29 31 -54 37 -148 l6 -90 79 -12 c90
-14 112 -28 102 -68 -8 -30 -58 -57 -143 -76 l-52 -12 -7 -66 c-9 -82 1 -386
16 -468 14 -82 33 -138 45 -136 18 3 35 95 41 223 4 69 11 133 16 143 12 24
45 21 59 -5 17 -32 6 -308 -15 -375 -32 -100 -98 -147 -173 -122 -161 52 -226
219 -227 581 l-1 186 -37 6 c-85 14 -113 47 -86 103 10 22 27 32 77 48 73 24
70 20 96 155 18 95 33 125 70 141 35 14 81 10 97 -8z m-985 -157 l28 -24 -3
-129 -3 -128 41 65 c108 168 228 227 346 170 51 -25 104 -98 135 -185 54 -154
8 -423 -97 -560 -62 -82 -201 -121 -272 -76 -136 86 -67 287 130 379 l59 27
-5 70 c-7 90 -21 137 -52 175 -32 37 -62 38 -105 3 -123 -104 -199 -373 -179
-639 25 -338 25 -349 1 -373 -11 -11 -32 -21 -46 -21 -21 0 -30 9 -46 48 -104
237 -152 551 -129 847 14 174 35 298 57 332 31 48 96 56 140 19z m-2347 -35
c30 -15 75 -68 115 -136 10 -16 12 -16 41 1 30 17 33 17 57 1 35 -23 50 -81
38 -149 -65 -375 -92 -549 -98 -626 l-6 -94 29 4 c37 4 67 61 90 173 26 129
52 161 82 104 13 -25 10 -74 -10 -164 -28 -126 -107 -231 -192 -255 -39 -11
-49 -10 -83 6 -57 29 -77 71 -81 179 -4 80 21 310 44 405 3 14 -16 -12 -44
-57 -69 -114 -113 -171 -172 -227 -62 -58 -120 -85 -182 -86 -41 0 -52 5 -86
38 -49 46 -62 99 -62 246 0 229 125 523 260 612 82 54 183 64 260 25z m520
-1224 c37 -19 70 -74 70 -118 0 -46 -21 -56 -72 -35 -33 14 -37 14 -69 -9 -40
-30 -55 -31 -69 -6 -24 45 -7 116 36 156 29 27 66 32 104 12z m1718 -6 c18
-11 31 -73 32 -143 l0 -57 43 -3 c35 -2 43 -7 45 -26 3 -18 -4 -26 -35 -38
-21 -9 -41 -21 -45 -28 -4 -6 -8 -62 -8 -123 0 -104 1 -113 19 -113 10 0 29
-8 41 -18 46 -37 -11 -80 -86 -66 -55 10 -68 40 -74 167 l-5 109 -35 12 c-48
15 -47 45 1 70 l37 20 7 106 c3 58 9 113 11 123 6 18 30 22 52 8z m-151 -16
c33 -23 39 -74 15 -129 -24 -52 -62 -77 -87 -56 -19 16 -19 34 0 64 14 21 13
24 -10 44 -29 25 -32 48 -8 74 20 22 61 23 90 3z m857 -22 c4 -9 10 -75 13
-147 6 -123 7 -129 22 -105 32 49 59 69 95 69 69 0 101 -77 108 -265 l3 -70
-33 -3 c-50 -5 -58 8 -65 109 -4 50 -11 98 -16 107 -15 27 -47 -46 -81 -185
-10 -40 -13 -43 -44 -43 -19 0 -38 6 -44 13 -21 25 -44 512 -25 530 13 14 61
7 67 -10z m-1639 -37 c18 -13 20 -33 26 -213 4 -109 12 -215 19 -236 17 -57 6
-78 -38 -76 -20 2 -47 -3 -59 -9 -12 -7 -47 -12 -78 -12 -48 0 -59 4 -82 28
-22 23 -24 33 -20 74 3 26 15 64 26 86 20 39 105 132 120 132 5 0 11 50 14
112 6 108 12 127 43 128 5 0 19 -6 29 -14z m-296 -56 c42 -21 71 -69 71 -119
0 -39 -20 -49 -67 -32 -32 12 -38 11 -64 -8 -35 -26 -65 -27 -79 -2 -25 48 1
130 52 161 40 24 40 24 87 0z m2602 -64 c14 -7 48 -17 75 -21 63 -9 81 -19
104 -58 50 -81 -6 -198 -119 -249 l-43 -20 3 -106 4 -107 -36 -3 c-60 -5 -69
13 -71 136 -3 230 12 419 34 434 17 10 19 10 49 -6z m-179 -23 c40 -20 61 -68
62 -138 0 -112 -73 -194 -172 -195 -55 0 -76 11 -92 50 -28 67 14 224 74 285
22 22 32 25 63 19 21 -4 50 -13 65 -21z m-614 5 c23 -23 14 -48 -16 -48 -45 0
-116 -58 -154 -125 -4 -6 22 -10 69 -10 80 0 103 -13 103 -61 0 -74 -156 -148
-204 -95 -22 24 -11 55 17 47 20 -5 70 15 81 32 3 5 -28 7 -68 4 -71 -4 -75
-4 -91 22 -15 23 -16 32 -6 67 25 82 141 179 216 179 23 0 46 -5 53 -12z
m-1229 -46 c94 -50 96 -229 5 -301 -66 -52 -168 -50 -192 4 -28 62 -6 186 49
268 27 42 35 47 68 47 20 0 52 -8 70 -18z m338 -19 c24 -30 37 -76 54 -202 11
-78 10 -85 -7 -98 -24 -17 -38 -16 -63 5 -17 14 -23 36 -33 120 -8 68 -16 102
-24 102 -17 0 -42 -70 -57 -159 -13 -80 -27 -98 -69 -88 -18 5 -27 16 -32 38
-8 40 -8 193 0 241 7 41 31 56 61 40 13 -8 24 -4 47 15 39 32 91 26 123 -14z"/>
<path d="M5743 2957 c-93 -85 -143 -219 -143 -383 0 -86 3 -107 23 -145 59
-114 197 -112 304 3 55 60 66 100 61 217 -3 85 -8 106 -36 163 -22 46 -48 79
-85 109 -92 77 -81 74 -124 36z"/>
<path d="M4875 2791 c-114 -51 -197 -200 -199 -358 -1 -58 3 -77 20 -100 65
-87 183 0 289 212 62 122 88 222 65 249 -18 23 -123 21 -175 -3z"/>
<path d="M6690 2663 c-75 -50 -150 -146 -150 -193 0 -19 8 -30 25 -38 60 -27
126 45 154 169 19 82 14 92 -29 62z"/>
<path d="M3920 3008 c-51 -14 -84 -41 -124 -102 -95 -144 -185 -509 -130 -530
63 -24 250 188 383 434 43 80 46 111 15 158 -24 37 -90 55 -144 40z"/>
<path d="M395 675 c-74 -26 -110 -96 -103 -200 6 -103 68 -165 165 -165 56 0
96 18 101 44 3 16 0 18 -19 11 -53 -17 -119 -17 -145 0 -79 51 -87 195 -14
260 22 20 76 25 150 14 39 -6 31 24 -10 38 -46 16 -76 15 -125 -2z"/>
<path d="M771 663 c-124 -97 -74 -326 75 -349 90 -13 155 29 183 120 44 142
-32 256 -169 256 -44 0 -62 -5 -89 -27z m159 -25 c55 -38 75 -73 74 -131 -1
-69 -33 -131 -75 -146 -112 -39 -189 23 -189 151 0 117 103 185 190 126z"/>
<path d="M2252 682 c-9 -7 -12 -51 -10 -188 l3 -179 133 -3 c126 -2 132 -2
132 17 0 19 -8 21 -117 23 l-118 3 -3 63 c-4 83 5 94 77 92 84 -2 91 -1 91 15
0 12 -15 15 -75 15 -85 0 -101 13 -89 75 l6 35 109 0 c107 0 138 9 100 29 -23
13 -220 15 -239 3z"/>
<path d="M2667 683 c-16 -4 -17 -19 -15 -184 2 -109 7 -180 13 -182 6 -1 11
28 13 68 3 100 8 115 36 115 42 0 56 -11 105 -84 60 -89 87 -114 103 -98 9 9
5 20 -19 44 -38 41 -83 109 -83 125 0 7 21 23 48 35 37 18 48 29 50 50 4 31
-21 84 -46 96 -20 11 -179 22 -205 15z m203 -53 c24 -24 25 -39 6 -65 -12 -16
-29 -20 -96 -23 -46 -3 -86 0 -92 6 -5 5 -7 29 -3 56 l7 46 79 0 c66 0 82 -3
99 -20z"/>
<path d="M3200 680 c-66 -16 -120 -102 -120 -193 0 -51 43 -133 83 -157 40
-25 125 -27 168 -4 35 18 33 41 -2 36 -119 -16 -125 -16 -161 21 -51 51 -62
121 -29 194 31 68 92 87 189 57 38 -11 27 25 -13 42 -38 15 -62 16 -115 4z"/>
<path d="M4197 684 c-4 -4 -7 -85 -7 -179 0 -136 3 -175 14 -184 9 -8 50 -11
117 -9 85 2 104 6 104 18 0 12 -20 16 -93 22 -51 3 -96 9 -99 12 -3 3 -6 76
-7 162 -1 148 -7 180 -29 158z"/>
<path d="M4796 683 c-13 -13 -6 -263 8 -298 29 -68 125 -96 202 -59 54 26 64
55 69 214 5 133 4 140 -14 140 -18 0 -20 -10 -23 -140 -3 -136 -4 -140 -30
-166 -23 -23 -34 -27 -80 -26 -43 2 -57 7 -75 27 -27 31 -38 109 -28 219 5 69
4 84 -8 89 -8 3 -18 3 -21 0z"/>
<path d="M5298 670 c-36 -19 -58 -61 -58 -112 0 -28 55 -65 127 -83 43 -11 76
-27 91 -42 26 -28 26 -33 9 -57 -30 -41 -137 -38 -183 5 -22 21 -24 21 -30 4
-17 -42 89 -87 165 -70 50 11 91 51 91 89 0 19 -7 39 -17 48 -24 20 -99 53
-151 67 -52 15 -77 47 -63 84 13 34 40 47 99 47 34 0 57 -6 74 -20 14 -10 28
-17 31 -13 12 12 -15 45 -48 59 -47 19 -93 17 -137 -6z"/>
<path d="M5670 664 c-15 -39 -13 -316 3 -337 11 -15 28 -17 137 -15 103 3 125
6 125 18 0 12 -22 16 -115 20 l-115 5 0 75 0 75 83 3 c63 2 82 6 82 17 0 11
-19 15 -82 17 l-83 3 0 50 0 50 113 3 c86 2 112 6 112 16 0 20 -33 26 -148 26
-101 0 -103 0 -112 -26z"/>
<path d="M6422 680 c-131 -31 -164 -258 -50 -343 51 -38 186 -32 202 9 8 21
-12 27 -45 14 -17 -7 -49 -10 -77 -7 -58 6 -98 48 -108 115 -18 122 69 212
172 176 50 -17 54 -17 54 2 0 17 -58 45 -92 43 -13 -1 -38 -5 -56 -9z"/>
<path d="M6727 683 c-4 -3 -7 -68 -7 -143 0 -126 2 -140 23 -171 32 -48 62
-60 130 -56 49 3 63 8 90 35 l32 32 3 150 c3 131 1 150 -12 150 -12 0 -16 -10
-16 -37 -3 -238 -4 -243 -34 -269 -24 -21 -37 -24 -84 -22 -47 3 -58 7 -76 31
-19 25 -21 45 -24 168 -4 129 -8 150 -25 132z"/>
<path d="M7177 678 c-18 -11 -1 -20 50 -25 27 -3 54 -12 61 -21 8 -11 12 -61
12 -164 0 -125 2 -148 15 -148 13 0 15 24 15 158 0 86 4 163 9 171 6 10 21 12
52 7 50 -7 85 7 59 24 -17 11 -255 9 -273 -2z"/>
<path d="M7613 676 c-9 -13 19 -26 59 -26 63 0 68 -12 68 -181 0 -125 2 -149
15 -149 12 0 15 28 17 168 l3 167 50 1 c77 1 79 2 65 18 -9 12 -39 14 -142 13
-71 -1 -132 -6 -135 -11z"/>
<path d="M8505 669 c-4 -12 -6 -69 -4 -127 3 -77 1 -106 -8 -109 -15 -5 -54
35 -99 102 -48 72 -120 148 -133 141 -7 -5 -11 -66 -11 -182 0 -142 3 -174 14
-174 22 0 27 26 25 142 -1 60 2 112 5 116 13 12 41 -14 81 -74 68 -102 136
-185 148 -181 17 5 17 359 0 364 -6 2 -14 -6 -18 -18z"/>
<path d="M8828 681 c-75 -25 -118 -93 -118 -188 0 -61 40 -136 83 -156 77 -37
169 -30 224 17 25 22 27 29 26 86 -1 35 -6 67 -11 72 -14 14 -165 5 -170 -9
-2 -9 12 -13 50 -13 68 0 98 -19 98 -64 0 -45 -27 -66 -93 -73 -101 -10 -146
20 -167 111 -14 62 -3 102 40 147 35 37 40 39 101 39 47 0 72 -5 94 -20 35
-23 55 -26 55 -6 0 41 -143 79 -212 57z"/>
<path d="M9443 683 c-20 -7 -18 -363 1 -363 21 0 28 28 20 87 -3 29 -3 64 0
77 6 23 11 25 78 28 46 2 73 7 76 16 3 9 -15 12 -67 12 -81 0 -97 14 -85 75
l6 35 102 0 c104 0 145 11 116 30 -15 10 -224 13 -247 3z"/>
<path d="M10047 684 c-4 -4 -7 -85 -7 -180 0 -207 -8 -196 138 -192 78 2 97 6
97 18 0 12 -19 16 -88 21 -48 3 -92 10 -97 15 -5 5 -11 79 -12 163 -3 144 -9
176 -31 155z"/>
<path d="M10422 678 c-18 -18 -17 -342 2 -357 9 -8 55 -11 137 -9 102 3 124 6
124 18 0 12 -20 16 -112 18 -79 2 -114 7 -122 16 -8 10 -9 34 -4 77 l8 64 78
5 c42 3 77 10 77 15 0 6 -35 12 -77 15 l-78 5 0 50 0 50 105 3 c104 3 140 13
110 32 -23 14 -233 13 -248 -2z"/>
<path d="M10881 673 c-35 -18 -61 -63 -61 -107 0 -35 50 -70 138 -95 82 -25
112 -54 92 -90 -22 -43 -131 -46 -179 -5 -28 23 -32 24 -38 8 -16 -42 90 -85
171 -70 43 8 86 57 86 97 0 36 -46 68 -143 100 -79 26 -103 51 -88 92 13 34
40 47 99 47 35 0 57 -6 76 -21 31 -25 43 -20 26 11 -25 46 -117 63 -179 33z"/>
<path d="M1215 658 c-3 -13 -4 -93 -3 -178 3 -130 5 -155 18 -155 12 0 16 20
18 108 3 133 14 137 73 30 23 -43 47 -81 53 -85 17 -11 41 18 75 92 51 110 71
94 71 -56 0 -74 3 -94 14 -94 20 0 24 28 25 187 1 120 -2 144 -16 158 -16 16
-18 16 -30 -1 -8 -11 -38 -63 -66 -117 -31 -58 -57 -96 -66 -95 -7 2 -31 37
-52 78 -80 153 -102 178 -114 128z"/>
<path d="M1734 667 c-7 -19 -9 -73 -6 -219 2 -106 5 -128 17 -128 9 0 15 10
16 23 0 12 1 60 2 107 3 114 20 119 70 17 61 -123 73 -123 128 -2 23 50 40 74
51 75 15 0 18 -14 20 -107 2 -88 6 -108 18 -108 13 0 15 27 18 173 2 173 2
173 -19 170 -17 -2 -37 -30 -80 -108 -32 -58 -65 -106 -73 -108 -10 -2 -29 26
-57 85 -64 132 -91 166 -105 130z"/>
<path d="M3841 653 c-58 -124 -141 -326 -137 -330 12 -12 36 9 51 44 9 20 21
41 28 45 7 4 46 8 88 8 83 0 91 -5 123 -67 14 -29 46 -46 46 -26 0 6 -53 125
-127 281 -18 39 -40 72 -47 72 -7 0 -19 -12 -25 -27z"/>
</g>
</svg>
