<svg width="180" height="90" viewBox="0 0 2282 957" fill="none" xmlns="http://www.w3.org/2000/svg">
<!-- <rect width="2282" height="957" fill="#E5E5E5"/> -->
<g clip-path="url(#clip0)">
<path d="M438.057 550.989C438.057 545.215 440.269 539.919 443.948 535.732C425.066 534.447 401.726 537.014 403.228 557.946C403.495 561.686 406.518 564.596 410.171 564.596H453.935V564.32C444.581 563.596 438.057 560.924 438.057 550.989V550.989Z" fill="#52565B"/>
<path d="M558.968 535.732C562.647 539.919 564.859 545.215 564.859 550.989C564.859 560.924 558.337 563.596 548.982 564.319V564.594H592.745C596.396 564.594 599.419 561.685 599.689 557.944C601.19 537.014 577.851 534.447 558.968 535.732V535.732Z" fill="#52565B"/>
<path d="M412.712 267.205C413.252 266.552 413.782 265.916 414.334 265.242C414.706 264.79 415.074 264.337 415.451 263.876C416.799 262.22 418.17 260.525 419.586 258.745C430.8 244.658 442.876 236.159 454.22 231.122C440.903 222.795 417.294 207.099 402.527 191.867C385.22 174.015 367.189 237.188 412.712 267.205V267.205Z" fill="#A8AEB2"/>
<path d="M564.859 550.989C564.859 564.515 552.791 564.594 537.907 564.594C523.022 564.594 510.954 564.515 510.954 550.989C510.954 537.463 523.022 526.499 537.907 526.499C552.791 526.499 564.859 537.463 564.859 550.989Z" fill="#52565B"/>
<path d="M491.964 550.989C491.964 564.515 479.896 564.594 465.011 564.594C450.127 564.594 438.059 564.515 438.059 550.989C438.059 537.463 450.127 526.499 465.011 526.499C479.896 526.499 491.964 537.463 491.964 550.989Z" fill="#52565B"/>
<path d="M590.855 447.119C587.346 472.842 575.151 495.357 563.587 511.662C563.577 511.676 563.567 511.689 563.557 511.704C559.298 517.706 554.618 523.579 549.76 529.022C553.353 530.626 556.497 532.92 558.97 535.736C567.471 535.158 576.871 535.357 584.508 537.668C601.334 527.039 642.411 493.816 590.855 447.119Z" fill="#A8AEB2"/>
<path d="M453.156 529.02C447.832 523.056 442.536 516.372 437.624 509.219C437.616 509.207 437.608 509.193 437.598 509.181C426.57 493.108 415.393 471.56 412.059 447.119C360.501 493.816 401.58 527.041 418.406 537.666C426.043 535.356 435.443 535.158 443.945 535.735C446.419 532.918 449.565 530.624 453.156 529.02V529.02Z" fill="#A8AEB2"/>
<path d="M428.48 375.215C386.055 441.768 431.857 505.162 453.156 529.02C471.074 521.021 491.964 532.912 491.964 550.989C491.964 552.476 491.794 553.776 491.515 554.956C497.83 555.802 504.696 555.854 511.4 554.956C511.121 553.776 510.951 552.476 510.951 550.989C510.951 537.463 523.019 526.499 537.903 526.499C542.164 526.499 546.177 527.421 549.758 529.02C571.059 505.162 616.861 441.768 574.436 375.215C532.863 394.114 470.118 394.142 428.48 375.215V375.215Z" fill="#A8AEB2"/>
<path d="M629.922 306.949C623.889 303.086 609.484 291.598 583.331 258.746C546.942 213.039 501.458 226.01 501.458 226.01C501.458 226.01 455.975 213.039 419.588 258.745C393.433 291.596 379.029 303.086 372.996 306.949C371.018 308.216 370.366 310.657 371.415 312.676C374.925 319.429 383.402 333.412 396.844 341.453L390.021 345.806C390.021 345.806 417.311 389.336 501.457 389.336C585.602 389.336 612.892 345.806 612.892 345.806L606.069 341.453C619.513 333.412 627.989 319.429 631.498 312.676C632.551 310.657 631.898 308.215 629.922 306.949V306.949Z" fill="#E3E4E5"/>
<path d="M583.329 258.746C584.746 260.525 586.116 262.222 587.464 263.878C587.84 264.34 588.21 264.791 588.58 265.243C589.106 265.884 589.61 266.489 590.125 267.111C635.466 237.055 617.454 174.034 600.166 191.867C585.433 207.063 561.9 222.72 548.567 231.062C559.949 236.093 572.073 244.606 583.329 258.746V258.746Z" fill="#A8AEB2"/>
<path d="M685.286 408.643C666.519 373.557 677.594 346.514 686.345 333.042C689.015 328.931 685.166 323.833 679.978 324.64C632.05 332.094 612.649 378.378 620.464 419.467C625.835 447.702 614.975 459.377 606.193 464.157C614.93 476.719 617.066 488.041 615.487 497.898C670.823 519.305 709.86 454.582 685.286 408.643V408.643Z" fill="#A8AEB2"/>
<path d="M583.329 258.746C546.941 213.039 501.458 226.01 501.458 226.01C501.458 226.01 455.975 213.039 419.587 258.745C406.968 274.596 397.089 285.467 389.56 292.914C415.409 288.597 422.753 267.34 452.563 256.159C475.378 247.601 489.598 261.422 498.114 270.652C499.874 272.56 503.042 272.56 504.802 270.652C513.318 261.422 527.538 247.601 550.353 256.159C580.163 267.34 587.507 288.597 613.356 292.914C605.829 285.469 595.95 274.598 583.329 258.746V258.746Z" fill="#A8AEB2"/>
<path d="M412.71 267.208C413.25 266.554 413.782 265.917 414.334 265.243C414.706 264.791 415.074 264.339 415.451 263.878C416.799 262.222 418.17 260.527 419.586 258.746C424.861 252.12 430.327 246.761 435.817 242.384C421.448 232.723 410.23 223.009 403.581 216.263C401.273 213.921 397.254 214.295 395.889 217.218C393.494 222.35 390.565 230.43 389.603 240.566C394.061 250.326 401.442 259.781 412.71 267.208V267.208Z" fill="#E3E4E5"/>
<path d="M583.329 258.746C584.746 260.525 586.116 262.222 587.464 263.878C587.84 264.34 588.211 264.791 588.581 265.243C589.106 265.884 589.61 266.489 590.125 267.111C601.313 259.697 608.651 250.284 613.087 240.565C612.127 230.429 609.198 222.349 606.801 217.217C605.438 214.295 601.418 213.921 599.111 216.262C592.479 222.988 581.31 232.666 566.997 242.302C572.521 246.693 578.023 252.08 583.329 258.746V258.746Z" fill="#E3E4E5"/>
<path d="M511.727 329.924C511.727 334.46 506.462 340.875 501.458 340.875C496.454 340.875 491.189 334.46 491.189 329.924C491.189 325.389 496.454 325.04 501.458 325.04C506.462 325.04 511.727 325.389 511.727 329.924Z" fill="#52565B"/>
<path d="M501.458 340.923C501.458 347.988 495.825 353.161 489.215 354.337C490.373 363.465 495.408 370.341 501.458 370.341C507.508 370.341 512.543 363.465 513.701 354.337C507.092 353.161 501.458 347.986 501.458 340.923Z" fill="#FD605B"/>
<path d="M606.072 341.453C611.755 338.054 616.551 333.591 620.459 329.063C589.102 296.146 566.764 282.047 553.112 276.034C523.773 263.113 498.729 300.68 526.048 312.976C553.158 325.179 575.389 347.901 590.292 366.555C606.46 356.023 612.895 345.807 612.895 345.807L606.072 341.453Z" fill="#52565B"/>
<path d="M448.202 276.034C434.672 281.994 412.618 295.882 381.703 328.168C385.744 332.998 390.788 337.829 396.844 341.453L390.021 345.806C390.021 345.806 396.168 355.584 411.575 365.871C426.473 347.348 448.481 325.031 475.264 312.976C502.585 300.68 477.54 263.113 448.202 276.034V276.034Z" fill="#52565B"/>
<path d="M646.066 501.306C653.115 469.84 629.342 456.695 617.824 452.279C620.342 447.435 621.981 441.032 621.865 432.627C640.123 432.633 674.256 437.856 682.372 475.48C674.138 488.652 661.484 498.491 646.066 501.306Z" fill="#52565B"/>
<path d="M619.237 410.744C618.219 400.126 618.986 389.379 621.55 379.219C650.922 369.369 668.931 375.721 675.562 379.096C676.661 388.105 679.597 398.001 685.288 408.643C686.261 410.461 687.122 412.312 687.898 414.182C657.494 396.716 627.406 407.267 619.237 410.744V410.744Z" fill="#52565B"/>
<path d="M640.604 344.311C650.392 334.357 663.498 327.203 679.978 324.64C685.166 323.833 689.015 328.93 686.345 333.042C682.826 338.458 678.937 346.072 676.757 355.517C672.84 351.261 661.836 342.205 640.604 344.311Z" fill="#52565B"/>
<path d="M537.855 386.29C514.866 390.358 488.062 390.361 465.059 386.29C463.23 396.502 462.665 405.094 462.665 405.094H469.472C466.749 421.87 469.472 440.044 469.472 440.044L474.917 438.645C474.917 470.368 494.42 489.478 499.609 499.156C500.5 500.492 502.418 500.492 503.308 499.156C508.509 489.454 528.001 470.388 528.001 438.645L533.444 440.044C533.444 440.044 536.167 421.87 533.444 405.094H540.251C540.249 405.094 539.684 396.502 537.855 386.29V386.29Z" fill="#E3E4E5"/>
<path d="M537.905 568.338C523.336 568.338 506.822 568.338 506.822 550.989C506.822 535.422 520.765 522.755 537.905 522.755C555.045 522.755 568.988 535.42 568.988 550.989C568.989 568.338 552.476 568.338 537.905 568.338ZM537.905 530.242C525.32 530.242 515.082 539.549 515.082 550.989C515.082 560.042 520.998 560.851 537.905 560.851C554.812 560.851 560.728 560.042 560.728 550.989C560.729 539.549 550.492 530.242 537.905 530.242Z" fill="black"/>
<path d="M465.01 568.338C450.441 568.338 433.927 568.338 433.927 550.989C433.927 535.422 447.87 522.755 465.01 522.755C482.149 522.755 496.094 535.42 496.094 550.989C496.096 568.338 479.58 568.338 465.01 568.338ZM465.01 530.242C452.425 530.242 442.187 539.549 442.187 550.989C442.187 560.042 448.103 560.851 465.01 560.851C481.918 560.851 487.834 560.042 487.834 550.989C487.836 539.549 477.596 530.242 465.01 530.242Z" fill="black"/>
<path d="M584.507 541.408C584.067 541.408 583.626 541.346 583.2 541.217C577.154 539.388 569.105 538.798 559.277 539.468C557.906 539.553 556.589 539.035 555.737 538.066C553.654 535.696 550.956 533.728 547.933 532.379C546.806 531.876 545.995 530.936 545.726 529.824C545.456 528.713 545.759 527.551 546.548 526.666C551.338 521.3 555.891 515.584 560.082 509.678C570.306 495.261 583.208 472.664 586.755 446.661C586.948 445.242 588.019 444.045 589.511 443.581C591.002 443.114 592.654 443.461 593.775 444.472C612.768 461.676 621.56 478.981 619.906 495.91C617.739 518.13 598.275 533.534 586.866 540.738C586.167 541.179 585.341 541.408 584.507 541.408V541.408ZM566.693 531.716C573.194 531.716 578.906 532.328 583.765 533.549C594.112 526.723 609.902 513.458 611.679 495.248C612.938 482.359 606.877 468.94 593.646 455.276C589.682 474.756 580.76 494.367 567.058 513.685C563.548 518.633 559.812 523.428 555.909 528.005C557.666 529.142 559.295 530.441 560.754 531.873C562.801 531.77 564.782 531.716 566.693 531.716Z" fill="black"/>
<path d="M418.41 541.408C417.575 541.408 416.749 541.179 416.049 540.736C404.64 533.532 385.178 518.128 383.008 495.908C381.356 478.98 390.149 461.674 409.142 444.469C410.26 443.457 411.912 443.112 413.406 443.578C414.897 444.044 415.968 445.239 416.161 446.658C418.89 466.686 427.284 487.055 441.107 507.203C441.136 507.243 441.163 507.284 441.186 507.32C445.78 514.012 450.906 520.546 456.366 526.665C457.158 527.55 457.46 528.712 457.191 529.824C456.921 530.936 456.109 531.876 454.982 532.379C451.96 533.728 449.261 535.694 447.178 538.066C446.325 539.035 445.012 539.553 443.637 539.468C433.81 538.801 425.758 539.388 419.715 541.217C419.29 541.346 418.847 541.408 418.41 541.408V541.408ZM409.272 455.276C396.04 468.94 389.977 482.361 391.236 495.249C393.013 513.459 408.805 526.723 419.15 533.548C425.439 531.97 433.16 531.409 442.161 531.874C443.619 530.441 445.248 529.142 447.006 528.007C442.428 522.641 438.103 517.002 434.117 511.195C434.109 511.182 434.099 511.17 434.09 511.158C421.386 492.639 413.059 473.878 409.272 455.276Z" fill="black"/>
<path d="M453.936 568.338H410.171C404.374 568.338 399.516 563.879 399.108 558.188C398.569 550.674 400.831 544.59 405.828 540.106C413.196 533.493 426.123 530.765 444.259 531.999C445.784 532.102 447.122 532.963 447.735 534.234C448.348 535.506 448.133 536.979 447.181 538.065C443.914 541.781 442.189 546.251 442.189 550.99C442.189 557.551 445.129 559.882 454.288 560.592C456.426 560.757 458.068 562.377 458.068 564.322V564.597C458.066 566.662 456.218 568.338 453.936 568.338V568.338ZM436.174 539.198C424.625 539.198 416.217 541.317 411.638 545.426C408.369 548.358 406.968 552.375 407.349 557.703C407.473 559.439 408.739 560.852 410.169 560.852H436.688C434.981 558.456 433.925 555.262 433.925 550.99C433.925 546.852 434.892 542.864 436.759 539.201C436.565 539.198 436.37 539.198 436.174 539.198V539.198Z" fill="black"/>
<path d="M501.458 559.353C497.91 559.353 494.361 559.121 490.91 558.66C489.782 558.509 488.772 557.941 488.121 557.091C487.471 556.24 487.239 555.185 487.477 554.172C487.718 553.153 487.836 552.112 487.836 550.99C487.836 543.771 483.8 537.186 477.04 533.373C470.321 529.583 462.072 529.214 454.98 532.379C453.246 533.152 451.158 532.734 449.945 531.376C427.881 506.661 381.271 441.789 424.902 373.343C425.997 371.629 428.375 370.983 430.331 371.87C470.878 390.303 532.037 390.303 572.584 371.87C574.542 370.983 576.917 371.629 578.013 373.343C621.646 441.79 575.034 506.662 552.97 531.377C551.759 532.735 549.667 533.155 547.934 532.381C544.759 530.964 541.384 530.245 537.905 530.245C525.32 530.245 515.081 539.552 515.081 550.992C515.081 552.113 515.198 553.154 515.439 554.174C515.679 555.185 515.446 556.242 514.795 557.092C514.142 557.943 513.133 558.51 512.005 558.662C508.555 559.121 505.005 559.353 501.458 559.353ZM496.086 551.666C499.641 551.932 503.269 551.934 506.831 551.666C506.824 551.443 506.821 551.217 506.821 550.989C506.821 535.422 520.765 522.755 537.905 522.755C541.541 522.755 545.09 523.327 548.488 524.458C569.764 499.875 609.394 441.513 572.728 380.113C531.318 397.434 471.596 397.432 430.187 380.113C393.522 441.511 433.152 499.875 454.429 524.458C463.34 521.5 473.205 522.39 481.403 527.014C490.601 532.202 496.096 541.164 496.096 550.987C496.096 551.217 496.092 551.441 496.086 551.666V551.666Z" fill="black"/>
<path d="M488.065 541.275C485.975 541.275 484.183 539.844 483.963 537.92C480.621 508.816 467.455 481.009 467.323 480.732C466.416 478.835 467.377 476.63 469.47 475.808C471.563 474.986 473.992 475.855 474.902 477.753C475.464 478.927 488.701 506.862 492.179 537.145C492.417 539.201 490.768 541.043 488.498 541.256C488.351 541.268 488.207 541.275 488.065 541.275V541.275Z" fill="black"/>
<path d="M514.851 541.275C514.707 541.275 514.564 541.269 514.418 541.254C512.15 541.04 510.501 539.2 510.738 537.144C514.215 506.86 527.453 478.927 528.014 477.752C528.923 475.855 531.355 474.985 533.446 475.807C535.539 476.629 536.501 478.833 535.594 480.73C535.462 481.007 522.295 508.814 518.953 537.918C518.733 539.844 516.941 541.275 514.851 541.275Z" fill="black"/>
<path d="M501.458 393.079C415.894 393.079 387.595 349.51 386.432 347.657C385.381 345.979 385.906 343.855 387.644 342.745L389.8 341.37C378.482 332.898 371.208 321.066 367.678 314.27C365.757 310.578 366.989 306.213 370.608 303.892C375.48 300.773 389.676 289.916 416.236 256.555C435.848 231.918 458.185 223.921 473.47 221.549C487.358 219.396 497.997 221.336 501.488 222.137C509.376 220.423 552.401 213.503 586.677 256.555C613.237 289.918 627.433 300.773 632.303 303.892H632.304C635.924 306.213 637.158 310.578 635.234 314.272C631.705 321.065 624.431 332.897 613.113 341.37L615.269 342.745C617.008 343.855 617.532 345.979 616.481 347.657C615.322 349.51 587.023 393.079 501.458 393.079V393.079ZM395.734 346.74C403.472 356.066 433.359 385.592 501.458 385.592C569.827 385.592 599.517 356.086 607.197 346.749L603.693 344.514C602.576 343.801 601.922 342.634 601.94 341.396C601.962 340.158 602.656 339.009 603.796 338.328C616.643 330.641 624.837 316.711 627.765 311.079C627.965 310.694 627.864 310.212 627.537 310.004C621.066 305.859 606.284 293.976 579.98 260.934C545.736 217.919 503.125 229.458 502.697 229.579C501.891 229.809 501.025 229.809 500.219 229.579C498.48 229.093 457.027 218.109 422.936 260.934C396.631 293.977 381.849 305.861 375.378 310.004C375.054 310.212 374.952 310.693 375.15 311.076C378.077 316.711 386.271 330.64 399.121 338.326C400.261 339.008 400.954 340.156 400.976 341.394C400.996 342.633 400.34 343.799 399.223 344.512L395.734 346.74Z" fill="black"/>
<path d="M590.13 270.852C588.873 270.852 587.632 270.334 586.823 269.354L584.142 266.097C582.785 264.432 581.407 262.725 579.98 260.934C570.342 248.829 559.163 239.909 546.758 234.426C545.438 233.843 544.561 232.669 544.45 231.342C544.341 230.016 545.015 228.735 546.223 227.979C558.975 220.001 582.536 204.379 597.064 189.394C601.848 184.458 606.556 184.722 608.943 185.321C615.057 186.856 619.746 193.603 621.808 203.832C625.957 224.432 618.525 252.922 592.564 270.13C591.83 270.617 590.976 270.852 590.13 270.852V270.852ZM556.409 230.651C567.64 236.709 577.799 245.399 586.679 256.553C588.087 258.321 589.448 260.006 590.788 261.652L590.915 261.809C614.248 244.277 616.316 218.255 613.681 205.177C611.985 196.755 608.6 193.004 606.738 192.537C605.535 192.235 604.045 193.536 603.267 194.337C590.082 207.938 569.994 221.885 556.409 230.651Z" fill="black"/>
<path d="M412.709 270.945C411.864 270.945 411.015 270.712 410.282 270.228C384.248 253.063 376.751 224.554 380.869 203.916C382.919 193.644 387.611 186.867 393.742 185.323C396.124 184.726 400.839 184.452 405.63 189.394C420.181 204.402 443.788 220.048 456.566 228.04C457.772 228.794 458.448 230.073 458.339 231.398C458.23 232.724 457.353 233.898 456.036 234.483C443.677 239.971 432.538 248.87 422.935 260.935C421.509 262.726 420.131 264.431 418.773 266.1L416.014 269.452C415.205 270.429 413.966 270.945 412.709 270.945V270.945ZM396.329 192.491C396.202 192.491 396.076 192.505 395.952 192.536C394.082 193.006 390.686 196.781 388.996 205.249C386.38 218.353 388.503 244.414 411.914 261.91L412.127 261.651C413.468 260.004 414.83 258.319 416.236 256.551C425.082 245.438 435.202 236.771 446.387 230.716C432.776 221.939 412.636 207.965 399.423 194.336C398.726 193.614 397.455 192.491 396.329 192.491V192.491Z" fill="black"/>
<path d="M534.452 307.707C532.177 307.707 530.33 306.039 530.322 303.976C530.311 300.826 531.654 297.862 534.1 295.627C536.549 293.393 539.811 292.158 543.287 292.147H543.33C550.482 292.147 556.312 297.411 556.336 303.899C556.345 305.967 554.501 307.649 552.22 307.655C552.216 307.655 552.211 307.655 552.206 307.655C549.932 307.655 548.085 305.987 548.076 303.923C548.068 301.554 545.939 299.635 543.328 299.635C543.323 299.635 543.319 299.635 543.312 299.635C542.043 299.638 540.855 300.09 539.962 300.904C539.068 301.719 538.577 302.802 538.582 303.952C538.59 306.019 536.747 307.701 534.465 307.707C534.462 307.707 534.457 307.707 534.452 307.707V307.707Z" fill="black"/>
<path d="M468.464 307.682C466.183 307.682 464.334 306.006 464.334 303.938C464.334 301.566 462.204 299.635 459.588 299.635C456.969 299.635 454.84 301.565 454.84 303.938C454.84 306.006 452.991 307.682 450.71 307.682C448.428 307.682 446.58 306.006 446.58 303.938C446.58 297.438 452.415 292.147 459.588 292.147C466.759 292.147 472.594 297.436 472.594 303.938C472.594 306.006 470.745 307.682 468.464 307.682Z" fill="black"/>
<path d="M486.4 358.327C482.224 358.327 478.102 357.06 474.674 354.591C472.89 353.305 472.592 350.949 474.013 349.331C475.434 347.713 478.029 347.444 479.818 348.732C483.093 351.092 487.322 351.508 491.123 349.846C495.01 348.148 497.33 344.811 497.33 340.923C497.33 338.855 499.178 337.179 501.46 337.179C503.741 337.179 505.59 338.855 505.59 340.923V341.847C505.59 342.115 505.558 342.375 505.499 342.627C504.86 348.654 500.85 353.907 494.713 356.59C492.047 357.755 489.21 358.327 486.4 358.327V358.327Z" fill="black"/>
<path d="M516.516 358.327C513.706 358.327 510.871 357.755 508.205 356.589C502.068 353.905 498.057 348.654 497.419 342.625C497.36 342.374 497.328 342.113 497.328 341.845V340.921C497.328 338.853 499.177 337.178 501.458 337.178C503.74 337.178 505.588 338.853 505.588 340.921C505.588 344.81 507.908 348.146 511.795 349.844C515.598 351.506 519.824 351.092 523.1 348.73C524.885 347.442 527.482 347.712 528.905 349.329C530.324 350.948 530.028 353.302 528.244 354.59C524.816 357.062 520.694 358.327 516.516 358.327Z" fill="black"/>
<path d="M636.971 505.837C629.435 505.837 621.655 504.353 613.868 501.341C612.145 500.674 611.134 499.041 611.403 497.361C613.017 487.275 610.088 476.776 602.7 466.154C602.107 465.302 601.917 464.271 602.177 463.29C602.433 462.311 603.115 461.466 604.068 460.948C612.376 456.426 621.259 445.668 616.395 420.103C612.262 398.366 615.629 375.64 625.635 357.748C637.037 337.359 655.588 324.635 679.283 320.95C683.279 320.326 687.191 321.825 689.499 324.854C691.815 327.897 691.972 331.76 689.907 334.941C681.827 347.38 670.966 373.283 689.007 407.01C703.457 434.026 697.805 468.982 675.571 490.129C664.659 500.504 651.255 505.837 636.971 505.837V505.837ZM619.942 495.477C644.683 503.774 661.573 492.587 669.589 484.963C689.213 466.301 694.364 434.192 681.571 410.277C661.852 373.411 673.869 344.873 682.787 331.142C683.393 330.207 682.927 329.409 682.699 329.11C682.474 328.815 681.822 328.148 680.677 328.329C654.126 332.459 640.095 348.449 633.002 361.133C623.782 377.618 620.697 398.648 624.535 418.83C629.585 445.369 621.089 458.633 611.725 465.25C618.051 475.387 620.808 485.528 619.942 495.477Z" fill="black"/>
<path d="M613.357 296.659C613.11 296.659 612.857 296.638 612.607 296.596C597.761 294.117 588.647 286.574 578.997 278.588C570.704 271.726 562.132 264.629 548.774 259.619C530.228 252.667 518.201 261.964 507.97 273.055C506.345 274.818 503.971 275.829 501.458 275.829C498.945 275.829 496.571 274.818 494.946 273.055C484.715 261.964 472.693 252.661 454.143 259.619C440.785 264.629 432.212 271.726 423.919 278.588C414.27 286.574 405.157 294.117 390.309 296.596C388.568 296.887 386.808 296.137 385.946 294.727C385.085 293.32 385.315 291.572 386.516 290.385C395.23 281.763 405.23 270.381 416.237 256.554C450.556 213.448 493.647 220.439 501.458 222.143C509.271 220.439 552.36 213.449 586.679 256.555C597.686 270.383 607.686 281.764 616.4 290.386C617.601 291.572 617.829 293.321 616.97 294.729C616.234 295.934 614.839 296.659 613.357 296.659V296.659ZM536.497 249.732C541.202 249.732 546.343 250.605 551.934 252.701C566.632 258.215 576.161 266.101 584.568 273.06C589.567 277.197 594.194 281.026 599.413 283.988C593.352 277.278 586.853 269.569 579.98 260.937C545.886 218.111 504.435 229.097 502.686 229.584C501.889 229.809 501.019 229.809 500.219 229.581C498.48 229.094 457.027 218.111 422.936 260.935C416.064 269.568 409.565 277.277 403.503 283.987C408.722 281.025 413.349 277.196 418.348 273.058C426.756 266.1 436.283 258.213 450.982 252.7C477.694 242.679 494.222 260.6 501.281 268.252C501.394 268.375 501.521 268.376 501.633 268.252C507.215 262.202 518.722 249.732 536.497 249.732V249.732Z" fill="black"/>
<path d="M412.705 270.952C411.863 270.952 411.013 270.719 410.278 270.236C399.268 262.976 391.027 253.475 385.789 241.996C385.538 241.442 385.434 240.842 385.49 240.246C386.507 229.508 389.64 221.002 392.086 215.758C393.249 213.27 395.658 211.528 398.532 211.095C401.528 210.645 404.567 211.645 406.66 213.768C410.483 217.647 421.22 227.907 438.277 239.377C439.278 240.051 439.892 241.098 439.944 242.228C439.995 243.359 439.481 244.447 438.544 245.195C432.956 249.651 427.704 254.947 422.934 260.937C421.509 262.728 420.131 264.433 418.773 266.101L416.008 269.459C415.2 270.435 413.961 270.952 412.705 270.952V270.952ZM393.814 239.973C397.933 248.639 404.009 256.001 411.914 261.915L412.129 261.654C413.47 260.007 414.831 258.322 416.237 256.554C420.311 251.439 424.722 246.785 429.394 242.67C414.01 231.902 404.189 222.495 400.503 218.756C400.27 218.52 400.041 218.46 399.885 218.482C399.841 218.488 399.78 218.499 399.696 218.677C397.551 223.272 394.822 230.646 393.814 239.973Z" fill="black"/>
<path d="M590.13 270.854C588.873 270.854 587.632 270.336 586.823 269.357L584.142 266.098C582.785 264.433 581.408 262.726 579.98 260.935C575.184 254.91 569.898 249.586 564.273 245.117C563.336 244.369 562.819 243.279 562.869 242.15C562.918 241.021 563.531 239.972 564.534 239.298C581.523 227.86 592.22 217.635 596.03 213.77C598.124 211.645 601.167 210.648 604.161 211.097C607.034 211.53 609.442 213.273 610.604 215.76C613.049 221.001 616.181 229.502 617.2 240.246C617.256 240.843 617.154 241.444 616.901 241.998C611.689 253.418 603.502 262.885 592.562 270.135C591.83 270.621 590.976 270.854 590.13 270.854V270.854ZM573.423 242.585C578.133 246.72 582.577 251.404 586.677 256.555C588.085 258.324 589.446 260.008 590.786 261.654L590.913 261.811C598.754 255.915 604.784 248.585 608.877 239.975C607.868 230.641 605.14 223.271 602.994 218.677C602.912 218.499 602.851 218.49 602.806 218.484C602.758 218.476 602.489 218.452 602.188 218.758C598.519 222.48 588.739 231.851 573.423 242.585V242.585Z" fill="black"/>
<path d="M501.458 344.618C494.042 344.618 487.059 336.341 487.059 329.926C487.059 321.296 497.52 321.296 501.458 321.296C505.397 321.296 515.857 321.296 515.857 329.926C515.857 336.341 508.874 344.618 501.458 344.618ZM501.458 328.783C496.649 328.783 495.587 329.313 495.354 329.542C495.359 329.545 495.319 329.676 495.319 329.926C495.319 332.687 499.106 337.131 501.458 337.131C503.811 337.131 507.597 332.687 507.597 329.926C507.597 329.676 507.559 329.545 507.544 329.517C507.329 329.313 506.267 328.783 501.458 328.783V328.783Z" fill="black"/>
<path d="M501.458 374.084C493.277 374.084 486.555 366.139 485.111 354.765C484.865 352.826 486.306 351.039 488.419 350.663C492.711 349.9 497.328 346.526 497.328 340.923C497.328 338.855 499.177 337.179 501.458 337.179C503.74 337.179 505.588 338.855 505.588 340.923C505.588 346.526 510.206 349.9 514.498 350.663C516.61 351.039 518.051 352.824 517.805 354.765C516.361 366.139 509.639 374.084 501.458 374.084ZM493.884 356.947C495.389 362.981 498.746 366.597 501.458 366.597C504.171 366.597 507.528 362.98 509.033 356.947C506.006 355.798 503.422 354.009 501.458 351.77C499.494 354.009 496.91 355.798 493.884 356.947Z" fill="black"/>
<path d="M590.294 370.298C589.015 370.298 587.753 369.76 586.947 368.749C573.182 351.521 551.124 328.442 524.21 316.328C508.958 309.464 507.787 295.678 513.153 285.777C519.832 273.448 536.737 264.658 554.916 272.666C568.495 278.648 591.432 292.863 623.583 326.616C624.872 327.97 624.925 329.96 623.709 331.369C620.367 335.243 616.817 338.591 613.113 341.369L615.27 342.745C617.012 343.856 617.535 345.985 616.478 347.663C616.197 348.109 609.407 358.711 592.699 369.595C591.972 370.07 591.13 370.298 590.294 370.298V370.298ZM540.959 277.143C531.849 277.143 524.182 282.408 520.565 289.079C516.932 295.783 516.947 304.7 527.884 309.622C554.714 321.699 576.731 343.792 591.151 361.295C599.474 355.413 604.602 349.922 607.202 346.752L603.693 344.514C602.576 343.801 601.922 342.634 601.94 341.396C601.962 340.158 602.656 339.009 603.796 338.328C607.699 335.992 611.476 332.907 615.054 329.135C585.03 298.056 563.871 284.934 551.304 279.4C547.749 277.835 544.26 277.143 540.959 277.143Z" fill="black"/>
<path d="M411.575 369.615C410.7 369.615 409.839 369.362 409.127 368.885C393.198 358.249 386.704 348.086 386.436 347.66C385.382 345.983 385.908 343.855 387.646 342.745L389.803 341.369C385.807 338.371 381.991 334.708 378.413 330.43C377.233 329.02 377.304 327.052 378.584 325.715C410.303 292.585 432.969 278.581 446.396 272.668C464.575 264.661 481.477 273.449 488.159 285.779C493.525 295.68 492.354 309.465 477.102 316.329C450.455 328.322 428.576 351.09 414.912 368.077C414.263 368.882 413.29 369.42 412.203 369.571C411.995 369.6 411.785 369.615 411.575 369.615ZM395.721 346.748C398.23 349.799 403.069 355 410.757 360.582C425.072 343.329 446.894 321.566 473.428 309.622C484.365 304.7 484.38 295.783 480.747 289.078C475.824 279.991 463.378 273.512 450.009 279.4C437.586 284.872 416.688 297.791 387.077 328.285C390.89 332.45 394.933 335.821 399.122 338.328C400.262 339.009 400.956 340.158 400.978 341.396C400.997 342.634 400.342 343.801 399.225 344.514L395.721 346.748Z" fill="black"/>
<path d="M646.064 505.048C644.979 505.048 643.923 504.66 643.14 503.949C642.162 503.061 641.739 501.788 642.015 500.559C648.289 472.56 628.543 460.451 616.214 455.726C615.178 455.33 614.367 454.567 613.965 453.615C613.564 452.664 613.607 451.604 614.086 450.683C616.604 445.838 617.833 439.779 617.734 432.674C617.72 431.673 618.15 430.709 618.926 429.996C619.703 429.284 620.76 428.884 621.864 428.884H621.865C638.301 428.89 677.495 433.373 686.424 474.763C686.614 475.641 686.452 476.549 685.965 477.327C676.631 492.259 662.748 502.077 646.878 504.975C646.607 505.024 646.335 505.048 646.064 505.048V505.048ZM623.132 450.384C635.114 455.845 654.374 468.977 651.131 496.148C661.776 492.681 671.14 485.29 678.011 474.838C670.608 443.865 643.845 437.268 625.926 436.464C625.667 441.591 624.731 446.251 623.132 450.384Z" fill="black"/>
<path d="M687.896 417.926C687.13 417.926 686.363 417.734 685.686 417.345C657.157 400.957 628.956 410.744 620.991 414.133C619.772 414.652 618.348 414.6 617.174 413.988C616.004 413.377 615.237 412.286 615.122 411.068C614.053 399.927 614.861 388.93 617.52 378.384C617.831 377.153 618.806 376.146 620.114 375.708C651.25 365.266 670.672 372.316 677.581 375.832C678.741 376.423 679.517 377.485 679.663 378.684C680.803 388.028 683.945 397.558 689 407.01C689.979 408.838 690.906 410.809 691.76 412.864C692.386 414.371 691.878 416.07 690.5 417.086C689.748 417.643 688.825 417.926 687.896 417.926V417.926ZM651.02 400.644C659.71 400.644 669.379 402.007 679.345 405.869C675.49 397.757 672.934 389.589 671.728 381.509C664.801 378.506 649.33 374.427 625.098 382.042C623.385 389.584 622.681 397.369 623 405.27C629.45 403.104 639.349 400.644 651.02 400.644V400.644Z" fill="black"/>
<path d="M676.757 359.26C675.549 359.26 674.381 358.779 673.585 357.915C670.261 354.304 660.443 346.105 641.055 348.034C639.357 348.196 637.717 347.405 636.935 346.027C636.15 344.65 636.385 342.977 637.522 341.821C648.593 330.561 662.644 323.539 679.28 320.952C683.278 320.323 687.185 321.825 689.496 324.854C691.812 327.897 691.969 331.762 689.904 334.941C685.602 341.561 682.541 348.741 680.799 356.282C680.476 357.686 679.293 358.8 677.756 359.148C677.426 359.224 677.089 359.26 676.757 359.26V359.26ZM651.024 340.406C661.919 341.186 669.569 344.882 674.494 348.38C676.478 342.353 679.255 336.577 682.787 331.143C683.393 330.209 682.927 329.409 682.699 329.11C682.475 328.815 681.822 328.151 680.677 328.329C669.392 330.084 659.457 334.135 651.024 340.406V340.406Z" fill="black"/>
<path d="M592.745 568.338H548.982C546.7 568.338 544.852 566.662 544.852 564.594V564.319C544.852 562.375 546.494 560.754 548.63 560.589C557.79 559.881 560.729 557.548 560.729 550.987C560.729 546.248 559.003 541.78 555.737 538.062C554.785 536.976 554.57 535.503 555.183 534.231C555.795 532.96 557.134 532.101 558.659 531.996C576.797 530.759 589.722 533.49 597.09 540.103C602.087 544.589 604.351 550.673 603.811 558.186C603.401 563.879 598.542 568.338 592.745 568.338V568.338ZM548.982 564.319H548.998H548.982ZM566.229 560.851H592.745C594.176 560.851 595.441 559.439 595.565 557.702C595.947 552.374 594.546 548.358 591.277 545.425C586.699 541.316 578.29 539.197 566.741 539.197C566.546 539.197 566.351 539.197 566.156 539.198C568.023 542.861 568.989 546.849 568.989 550.987C568.989 555.261 567.934 558.455 566.229 560.851V560.851Z" fill="black"/>
<path d="M487.141 506.014C484.941 506.014 482.927 504.963 481.756 503.202C481.691 503.106 481.632 503.007 481.577 502.905C480.579 501.043 478.866 498.612 476.884 495.799C469.739 485.658 458.085 469.121 456.622 445.67L456.281 445.756C455.133 446.051 453.896 445.881 452.892 445.286C451.892 444.692 451.223 443.733 451.063 442.658C450.959 441.959 448.719 426.666 450.483 410.948H448.348C447.212 410.948 446.122 410.522 445.343 409.771C444.562 409.02 444.159 408.011 444.227 406.981C444.25 406.622 444.823 398.08 446.667 387.798C446.845 386.797 447.465 385.905 448.383 385.327C449.3 384.747 450.442 384.53 451.535 384.725C474.165 388.73 500.123 388.729 522.745 384.725C523.839 384.532 524.981 384.747 525.897 385.327C526.816 385.906 527.435 386.797 527.614 387.798C529.456 398.079 530.031 406.622 530.054 406.981C530.122 408.011 529.719 409.019 528.937 409.771C528.157 410.521 527.069 410.948 525.932 410.948H523.798C525.562 426.666 523.324 441.958 523.218 442.658C523.056 443.733 522.389 444.692 521.389 445.286C520.386 445.881 519.152 446.051 517.999 445.756L517.66 445.67C516.197 469.127 504.55 485.648 497.408 495.781C495.423 498.599 493.706 501.034 492.703 502.904C492.649 503.006 492.589 503.104 492.525 503.2C491.355 504.963 489.342 506.014 487.141 506.014V506.014ZM460.6 437.015C461.489 437.015 462.364 437.275 463.091 437.772C464.124 438.481 464.73 439.584 464.73 440.758C464.73 464.642 476.235 480.967 483.845 491.769C485.06 493.491 486.18 495.08 487.141 496.546C488.106 495.074 489.231 493.481 490.45 491.75C498.056 480.958 509.552 464.648 509.552 440.757C509.552 439.583 510.159 438.479 511.191 437.771C512.224 437.061 513.562 436.835 514.807 437.155L515.531 437.341C516.136 431.085 516.866 419.007 515.037 407.749C514.864 406.672 515.212 405.581 515.999 404.757C516.783 403.934 517.923 403.461 519.124 403.461H521.46C521.194 400.807 520.758 397.029 520.092 392.773C498.922 396.023 475.364 396.023 454.185 392.773C453.519 397.029 453.083 400.807 452.817 403.461H455.153C456.354 403.461 457.494 403.934 458.279 404.757C459.065 405.581 459.415 406.672 459.24 407.749C457.413 419.007 458.142 431.085 458.746 437.341L459.47 437.155C459.845 437.061 460.223 437.015 460.6 437.015V437.015Z" fill="black"/>
</g>
<path d="M962.132 654.857V706.202C962.132 747.604 919.323 781.164 866.492 781.164H155.873C103.042 781.164 60.2331 747.604 60.2331 706.202V654.857L170.142 646.782L313.89 636.234L511.182 621.748L708.475 636.234L962.132 654.857Z" fill="#1D4781"/>
<path d="M962.132 654.857V682.801H170.142V636.232H708.475L962.132 654.857Z" fill="#61A2F9"/>
<path d="M326.145 781.164H155.863C103.052 781.164 60.2431 747.604 60.2431 706.202V654.857L511.192 621.748L596.333 628.003L230.525 654.857V706.202C230.525 747.602 273.334 781.164 326.145 781.164Z" fill="#1D4781"/>
<path d="M857.525 124H164.839C100.829 124 48.754 164.826 48.754 215.008V604.198C48.754 617.087 62.0828 627.536 78.5235 627.536C94.9642 627.536 108.293 617.087 108.293 604.198V406.886H218.556V630.068H278.095V406.886H393.793V630.068H453.332V406.886H569.032V630.068H628.572V406.886H744.27V630.068H803.809V406.886H914.072V604.196C914.072 617.085 927.4 627.535 943.841 627.535C960.282 627.535 973.611 617.085 973.611 604.196V215.007C973.611 164.825 921.536 124 857.525 124V124ZM108.293 360.209V215.007C108.293 190.562 133.661 170.675 164.839 170.675H218.556V360.208H108.293V360.209ZM278.095 360.209V170.676H393.793V360.209H278.095ZM453.332 360.209V170.676H569.032V360.209H453.332ZM628.572 360.209V170.676H744.27V360.209H628.572ZM803.809 360.209V170.676H857.525C888.704 170.676 914.072 190.564 914.072 215.008V360.211H803.809V360.209Z" fill="#7DF7FF"/>
<path d="M368.781 124H164.84C100.835 124 48.7581 164.826 48.7581 215.004V604.192C48.7581 617.074 62.075 627.53 78.5277 627.53C94.9605 627.53 108.297 617.074 108.297 604.192V406.875H218.564V630.066H278.103V627.281C263.714 625.632 252.68 615.908 252.68 604.192V215.004C252.68 164.826 304.756 124 368.781 124V124ZM218.564 360.198H108.297V215.004C108.297 190.561 133.661 170.676 164.84 170.676H218.564V360.198Z" fill="#7DF7FF"/>
<path d="M962.126 588.638H60.239C36.9116 588.638 18 603.464 18 621.751C18 640.039 36.9116 654.865 60.239 654.865H962.128C985.455 654.865 1004.37 640.039 1004.37 621.751C1004.36 603.464 985.453 588.638 962.126 588.638Z" fill="#1D4781"/>
<path d="M172.702 645.167C180.343 651.158 190.902 654.861 202.571 654.861H60.2331C48.5634 654.861 38.0051 651.158 30.3643 645.167C22.7234 639.177 18 630.9 18 621.751C18 603.47 36.9136 588.642 60.2331 588.642H202.571C179.232 588.642 160.338 603.47 160.338 621.751C160.338 630.9 165.062 639.177 172.702 645.167Z" fill="#1D4781"/>
<path d="M804.885 357.725H915.707C923.97 357.725 930.67 352.471 930.67 345.991V199.996C930.67 168.94 898.46 143.675 858.869 143.675H804.885C796.621 143.675 789.922 148.929 789.922 155.409V199.605C789.922 206.085 796.621 211.338 804.885 211.338C813.148 211.338 819.847 206.085 819.847 199.605V167.142H858.869C881.96 167.142 900.745 181.879 900.745 199.996V334.258H819.847V246.538C819.847 240.058 813.148 234.805 804.885 234.805C796.621 234.805 789.922 240.058 789.922 246.538V345.991C789.922 352.471 796.621 357.725 804.885 357.725Z" fill="black"/>
<path d="M628.724 357.726H745.027C753.29 357.726 759.989 352.473 759.989 345.993V155.413C759.989 148.933 753.29 143.68 745.027 143.68H628.724C620.461 143.68 613.761 148.933 613.761 155.413V345.991C613.761 352.473 620.461 357.726 628.724 357.726ZM643.686 167.147H730.064V334.258H643.686V167.147Z" fill="black"/>
<path d="M452.569 357.726H568.874C577.137 357.726 583.836 352.473 583.836 345.993V155.413C583.836 148.933 577.137 143.68 568.874 143.68H452.569C444.306 143.68 437.606 148.933 437.606 155.413V345.991C437.606 352.473 444.306 357.726 452.569 357.726ZM467.531 167.147H553.911V334.258H467.531V167.147Z" fill="black"/>
<path d="M105.727 357.726H216.566C224.829 357.726 231.528 352.473 231.528 345.993V155.413C231.528 148.933 224.829 143.68 216.566 143.68H162.569C122.976 143.68 90.7647 168.94 90.7647 199.99V345.993C90.7647 352.473 97.4639 357.726 105.727 357.726ZM120.69 199.99C120.69 181.881 139.477 167.147 162.569 167.147H201.603V334.258H120.69V199.99Z" fill="black"/>
<path d="M276.416 357.726H392.719C400.982 357.726 407.681 352.473 407.681 345.993V155.413C407.681 148.933 400.982 143.68 392.719 143.68H276.416C268.153 143.68 261.453 148.933 261.453 155.413V345.991C261.453 352.473 268.153 357.726 276.416 357.726ZM291.379 167.147H377.756V334.258H291.379V167.147Z" fill="black"/>
<path d="M1021.44 608.977C1021.44 596.966 1015.48 585.662 1004.63 577.135C1000.42 573.831 995.657 571.112 990.52 569.013V199.993C990.52 143.067 931.462 96.754 858.87 96.754H671.636V61.8759C671.636 27.7566 636.239 0 592.732 0H428.711C385.202 0 349.806 27.7582 349.806 61.8759V96.7524H162.573C89.9807 96.7524 30.9226 143.065 30.9226 199.991V569.052C12.5665 576.574 0 591.641 0 608.977C0 620.987 5.96506 632.29 16.8119 640.82C24.0338 646.482 32.8478 650.438 42.4597 652.456V693.886C42.4597 741.921 92.2929 781 153.548 781H867.897C929.152 781 978.985 741.921 978.985 693.886V652.442C1003.41 647.269 1021.44 629.747 1021.44 608.977ZM379.731 61.8759C379.731 40.6963 401.704 23.4669 428.711 23.4669H592.732C619.74 23.4669 641.711 40.6978 641.711 61.8759V96.7524H379.731V61.8759ZM162.573 120.219H858.87C914.961 120.219 960.595 156.005 960.595 199.991V563.952H930.67V392.92C930.67 386.44 923.971 381.187 915.707 381.187H804.885C796.621 381.187 789.922 386.44 789.922 392.92V563.952H759.997V392.92C759.997 386.44 753.298 381.187 745.035 381.187H628.726C620.463 381.187 613.763 386.44 613.763 392.92V563.952H583.838V392.92C583.838 386.44 577.139 381.187 568.876 381.187H452.567C444.304 381.187 437.604 386.44 437.604 392.92V563.952H407.679V392.92C407.679 386.44 400.98 381.187 392.717 381.187H276.408C268.145 381.187 261.445 386.44 261.445 392.92V563.952H231.52V392.92C231.52 386.44 224.821 381.187 216.558 381.187H105.735C97.472 381.187 90.7727 386.44 90.7727 392.92V563.952H60.8477V199.993C60.8477 156.005 106.481 120.219 162.573 120.219ZM900.745 563.952H819.847V404.654H900.745V563.952ZM730.072 563.952H643.688V404.654H730.072V563.952ZM553.913 563.952H467.529V404.654H553.913V563.952ZM377.754 563.952H291.37V404.654H377.754V563.952ZM201.595 563.952H120.698V404.654H201.595V563.952ZM964.026 630.535H303.281C295.017 630.535 288.318 635.788 288.318 642.268C288.318 648.748 295.017 654.002 303.281 654.002H949.058V693.888C949.058 728.983 912.649 757.535 867.895 757.535H153.546C108.792 757.535 72.3828 728.983 72.3828 693.888V654.002H243.508C251.772 654.002 258.471 648.748 258.471 642.268C258.471 635.788 251.772 630.535 243.508 630.535H57.4162C50.0666 630.535 43.1599 628.293 37.9869 624.236C32.7879 620.15 29.9251 614.731 29.9251 608.977C29.9251 597.09 42.2582 587.419 57.4162 587.419H964.026C971.376 587.419 978.283 589.659 983.458 593.717C988.655 597.803 991.517 603.223 991.517 608.975C991.517 620.865 979.184 630.535 964.026 630.535Z" fill="black"/>
<defs>
<clipPath id="clip0">
<rect width="422.916" height="383.338" fill="white" transform="translate(290 185)"/>
</clipPath>
</defs>
</svg>
