<svg width="60" height="60" viewBox="0 0 450 710" xmlns="http://www.w3.org/2000/svg">
<!-- <rect width="2169" height="1108" fill="#E5E5E5"/> -->
<path d="M198.024 373.966C198.024 369.628 199.489 365.649 201.924 362.503C189.423 361.538 173.97 363.466 174.965 379.192C175.142 382.003 177.143 384.189 179.562 384.189H208.536V383.982C202.343 383.437 198.024 381.43 198.024 373.966V373.966Z" fill="#52565B"/>
<path d="M278.076 362.503C280.511 365.649 281.976 369.628 281.976 373.966C281.976 381.43 277.658 383.437 271.464 383.98V384.188H300.438C302.856 384.188 304.857 382.002 305.035 379.191C306.03 363.466 290.577 361.538 278.076 362.503V362.503Z" fill="#52565B"/>
<path d="M181.244 160.76C181.601 160.27 181.952 159.792 182.318 159.285C182.564 158.946 182.808 158.606 183.057 158.259C183.95 157.015 184.857 155.742 185.795 154.404C193.219 143.821 201.214 137.436 208.725 133.651C199.908 127.395 184.278 115.603 174.501 104.159C163.043 90.747 151.104 138.208 181.244 160.76V160.76Z" fill="#A8AEB2"/>
<path d="M281.976 373.966C281.976 384.128 273.986 384.188 264.131 384.188C254.277 384.188 246.287 384.128 246.287 373.966C246.287 363.804 254.277 355.566 264.131 355.566C273.986 355.566 281.976 363.804 281.976 373.966Z" fill="#52565B"/>
<path d="M233.714 373.966C233.714 384.128 225.724 384.188 215.87 384.188C206.015 384.188 198.025 384.128 198.025 373.966C198.025 363.804 206.015 355.566 215.87 355.566C225.724 355.566 233.714 363.804 233.714 373.966Z" fill="#52565B"/>
<path d="M299.187 295.929C296.864 315.254 288.79 332.17 281.134 344.42C281.127 344.43 281.121 344.44 281.114 344.451C278.294 348.96 275.196 353.373 271.979 357.462C274.358 358.667 276.439 360.39 278.077 362.506C283.705 362.072 289.929 362.222 294.985 363.958C306.125 355.972 333.321 331.012 299.187 295.929Z" fill="#A8AEB2"/>
<path d="M208.021 357.461C204.496 352.98 200.989 347.958 197.737 342.584C197.732 342.575 197.727 342.565 197.72 342.556C190.419 330.48 183.019 314.291 180.812 295.929C146.677 331.012 173.874 355.974 185.014 363.957C190.07 362.221 196.294 362.072 201.922 362.505C203.561 360.389 205.643 358.666 208.021 357.461V357.461Z" fill="#A8AEB2"/>
<path d="M191.684 241.908C163.595 291.908 193.919 339.536 208.021 357.461C219.884 351.451 233.714 360.385 233.714 373.966C233.714 375.083 233.602 376.059 233.417 376.946C237.598 377.581 242.144 377.621 246.582 376.946C246.397 376.059 246.285 375.083 246.285 373.966C246.285 363.804 254.275 355.566 264.129 355.566C266.95 355.566 269.607 356.259 271.978 357.461C286.081 339.536 316.405 291.908 288.316 241.908C260.792 256.106 219.25 256.128 191.684 241.908V241.908Z" fill="#A8AEB2"/>
<path d="M325.052 190.62C321.058 187.718 311.52 179.087 294.205 154.405C270.113 120.066 240 129.81 240 129.81C240 129.81 209.887 120.066 185.796 154.404C168.48 179.085 158.943 187.718 154.949 190.62C153.64 191.572 153.208 193.406 153.902 194.922C156.226 199.996 161.838 210.501 170.738 216.542L166.221 219.813C166.221 219.813 184.289 252.516 239.999 252.516C295.709 252.516 313.777 219.813 313.777 219.813L309.26 216.542C318.16 210.501 323.773 199.996 326.096 194.922C326.792 193.406 326.36 191.571 325.052 190.62V190.62Z" fill="#E3E4E5"/>
<path d="M294.204 154.405C295.142 155.742 296.049 157.016 296.942 158.26C297.191 158.608 297.436 158.947 297.681 159.286C298.029 159.768 298.362 160.222 298.704 160.689C328.723 138.108 316.798 90.7616 305.352 104.159C295.597 115.576 280.017 127.339 271.189 133.606C278.725 137.386 286.752 143.782 294.204 154.405V154.405Z" fill="#A8AEB2"/>
<path d="M361.707 267.022C349.282 240.662 356.615 220.345 362.408 210.223C364.176 207.135 361.627 203.304 358.193 203.911C326.461 209.511 313.616 244.284 318.79 275.154C322.346 296.367 315.156 305.138 309.342 308.729C315.126 318.167 316.541 326.673 315.495 334.079C352.131 350.162 377.977 301.536 361.707 267.022V267.022Z" fill="#A8AEB2"/>
<path d="M294.204 154.405C270.113 120.066 240 129.81 240 129.81C240 129.81 209.887 120.066 185.796 154.404C177.441 166.313 170.9 174.481 165.916 180.075C183.03 176.832 187.892 160.862 207.628 152.461C222.733 146.032 232.148 156.416 237.786 163.35C238.951 164.783 241.049 164.783 242.214 163.35C247.852 156.416 257.267 146.032 272.372 152.461C292.108 160.862 296.97 176.832 314.084 180.075C309.101 174.482 302.56 166.314 294.204 154.405V154.405Z" fill="#A8AEB2"/>
<path d="M181.243 160.762C181.6 160.271 181.953 159.793 182.318 159.286C182.564 158.947 182.808 158.607 183.057 158.26C183.95 157.016 184.858 155.743 185.795 154.405C189.287 149.427 192.906 145.401 196.541 142.112C187.028 134.854 179.601 127.556 175.199 122.488C173.671 120.728 171.01 121.009 170.106 123.205C168.52 127.061 166.581 133.131 165.944 140.746C168.895 148.079 173.782 155.182 181.243 160.762V160.762Z" fill="#E3E4E5"/>
<path d="M294.204 154.405C295.142 155.742 296.049 157.016 296.942 158.261C297.191 158.608 297.436 158.947 297.681 159.287C298.029 159.768 298.362 160.223 298.704 160.689C306.111 155.12 310.969 148.048 313.906 140.745C313.27 133.13 311.331 127.06 309.744 123.204C308.842 121.01 306.181 120.728 304.653 122.487C300.262 127.54 292.867 134.811 283.391 142.05C287.049 145.35 290.691 149.397 294.204 154.405V154.405Z" fill="#E3E4E5"/>
<path d="M246.799 207.881C246.799 211.289 243.313 216.108 240 216.108C236.687 216.108 233.201 211.289 233.201 207.881C233.201 204.473 236.687 204.211 240 204.211C243.313 204.211 246.799 204.473 246.799 207.881Z" fill="#52565B"/>
<path d="M240 216.144C240 221.452 236.27 225.339 231.894 226.222C232.661 233.08 235.995 238.246 240 238.246C244.005 238.246 247.339 233.08 248.106 226.222C243.73 225.339 240 221.451 240 216.144Z" fill="#FD605B"/>
<path d="M309.262 216.542C313.024 213.989 316.199 210.636 318.787 207.234C298.027 182.503 283.237 171.911 274.198 167.393C254.774 157.686 238.193 185.91 256.281 195.148C274.229 204.316 288.948 221.386 298.814 235.402C309.519 227.488 313.779 219.814 313.779 219.814L309.262 216.542Z" fill="#52565B"/>
<path d="M204.741 167.393C195.783 171.871 181.181 182.305 160.714 206.561C163.389 210.191 166.729 213.82 170.738 216.542L166.221 219.813C166.221 219.813 170.291 227.159 180.491 234.888C190.355 220.971 204.926 204.204 222.658 195.148C240.746 185.91 224.165 157.686 204.741 167.393V167.393Z" fill="#52565B"/>
<path d="M335.74 336.639C340.407 312.999 324.668 303.123 317.043 299.806C318.71 296.166 319.795 291.356 319.718 285.041C331.806 285.046 354.404 288.97 359.778 317.237C354.327 327.132 345.948 334.524 335.74 336.639Z" fill="#52565B"/>
<path d="M317.978 268.6C317.304 260.623 317.812 252.549 319.509 244.916C338.956 237.516 350.879 242.288 355.269 244.824C355.997 251.592 357.94 259.027 361.708 267.022C362.352 268.388 362.922 269.778 363.436 271.183C343.307 258.061 323.386 265.988 317.978 268.6V268.6Z" fill="#52565B"/>
<path d="M332.124 218.69C338.605 211.211 347.282 205.837 358.193 203.911C361.627 203.304 364.176 207.134 362.408 210.223C360.078 214.292 357.504 220.013 356.06 227.108C353.467 223.911 346.181 217.107 332.124 218.69Z" fill="#52565B"/>
<path d="M264.097 250.228C248.877 253.285 231.131 253.287 215.901 250.228C214.691 257.901 214.317 264.356 214.317 264.356H218.823C217.02 276.959 218.823 290.613 218.823 290.613L222.428 289.563C222.428 313.396 235.341 327.753 238.776 335.024C239.366 336.027 240.635 336.027 241.225 335.024C244.668 327.735 257.573 313.41 257.573 289.563L261.177 290.613C261.177 290.613 262.98 276.959 261.177 264.356H265.683C265.682 264.356 265.308 257.901 264.097 250.228V250.228Z" fill="#E3E4E5"/>
<path d="M264.13 387C254.485 387 243.551 387 243.551 373.966C243.551 362.27 252.783 352.754 264.13 352.754C275.478 352.754 284.709 362.269 284.709 373.966C284.71 387 273.777 387 264.13 387ZM264.13 358.379C255.798 358.379 249.02 365.371 249.02 373.966C249.02 380.767 252.937 381.375 264.13 381.375C275.324 381.375 279.24 380.767 279.24 373.966C279.242 365.371 272.464 358.379 264.13 358.379Z" fill="black"/>
<path d="M215.869 387C206.223 387 195.29 387 195.29 373.966C195.29 362.27 204.521 352.754 215.869 352.754C227.216 352.754 236.449 362.269 236.449 373.966C236.45 387 225.515 387 215.869 387ZM215.869 358.379C207.536 358.379 200.758 365.371 200.758 373.966C200.758 380.767 204.675 381.375 215.869 381.375C227.063 381.375 230.98 380.767 230.98 373.966C230.981 365.371 224.202 358.379 215.869 358.379Z" fill="black"/>
<path d="M294.984 366.768C294.693 366.768 294.401 366.721 294.119 366.624C290.116 365.25 284.787 364.807 278.28 365.31C277.372 365.374 276.501 364.985 275.936 364.257C274.557 362.476 272.771 360.998 270.769 359.984C270.024 359.606 269.487 358.9 269.308 358.065C269.13 357.23 269.33 356.357 269.853 355.692C273.024 351.66 276.038 347.366 278.813 342.929C285.582 332.098 294.124 315.12 296.473 295.585C296.601 294.518 297.309 293.619 298.297 293.271C299.285 292.92 300.378 293.181 301.12 293.94C313.695 306.865 319.516 319.867 318.421 332.585C316.986 349.279 304.099 360.852 296.546 366.264C296.083 366.596 295.536 366.768 294.984 366.768V366.768ZM283.19 359.486C287.494 359.486 291.276 359.946 294.493 360.863C301.343 355.735 311.797 345.769 312.974 332.088C313.807 322.405 309.794 312.322 301.035 302.057C298.411 316.692 292.503 331.426 283.432 345.94C281.108 349.657 278.635 353.259 276.05 356.698C277.214 357.552 278.292 358.528 279.258 359.604C280.613 359.526 281.925 359.486 283.19 359.486Z" fill="black"/>
<path d="M185.016 366.768C184.464 366.768 183.917 366.596 183.453 366.263C175.9 360.85 163.014 349.278 161.578 332.584C160.484 319.866 166.305 306.864 178.88 293.938C179.621 293.177 180.714 292.918 181.703 293.268C182.691 293.618 183.399 294.516 183.527 295.582C185.334 310.629 190.892 325.933 200.043 341.07C200.063 341.1 200.08 341.13 200.096 341.157C203.137 346.185 206.531 351.094 210.146 355.691C210.67 356.356 210.87 357.229 210.692 358.065C210.514 358.9 209.975 359.606 209.229 359.984C207.229 360.998 205.442 362.475 204.063 364.257C203.498 364.985 202.629 365.374 201.719 365.31C195.212 364.809 189.881 365.25 185.88 366.624C185.599 366.721 185.306 366.768 185.016 366.768V366.768ZM178.967 302.057C170.206 312.322 166.192 322.406 167.025 332.089C168.202 345.77 178.657 355.735 185.506 360.863C189.67 359.677 194.782 359.255 200.741 359.605C201.707 358.528 202.785 357.552 203.949 356.699C200.918 352.668 198.055 348.432 195.415 344.069C195.41 344.059 195.403 344.05 195.398 344.041C186.987 330.128 181.473 316.033 178.967 302.057Z" fill="black"/>
<path d="M208.537 387H179.562C175.724 387 172.507 383.65 172.237 379.375C171.88 373.729 173.378 369.159 176.686 365.789C181.564 360.821 190.123 358.771 202.13 359.698C203.14 359.776 204.026 360.423 204.431 361.378C204.837 362.333 204.695 363.44 204.065 364.256C201.901 367.048 200.76 370.406 200.76 373.967C200.76 378.895 202.706 380.647 208.77 381.18C210.186 381.304 211.273 382.521 211.273 383.983V384.19C211.272 385.741 210.048 387 208.537 387V387ZM196.777 365.107C189.131 365.107 183.565 366.699 180.533 369.786C178.368 371.989 177.441 375.007 177.693 379.01C177.776 380.314 178.613 381.376 179.561 381.376H197.117C195.988 379.576 195.289 377.176 195.289 373.967C195.289 370.857 195.928 367.861 197.164 365.11C197.036 365.107 196.907 365.107 196.777 365.107V365.107Z" fill="black"/>
<path d="M240 380.25C237.651 380.25 235.301 380.076 233.016 379.729C232.269 379.616 231.601 379.189 231.17 378.55C230.739 377.911 230.586 377.118 230.744 376.358C230.903 375.591 230.981 374.81 230.981 373.967C230.981 368.543 228.309 363.596 223.833 360.731C219.385 357.884 213.924 357.606 209.229 359.984C208.08 360.565 206.698 360.251 205.895 359.231C191.287 340.662 160.428 291.924 189.315 240.501C190.04 239.213 191.614 238.728 192.909 239.394C219.754 253.243 260.245 253.243 287.09 239.394C288.386 238.728 289.959 239.213 290.684 240.501C319.573 291.925 288.712 340.664 274.104 359.232C273.303 360.252 271.918 360.567 270.771 359.985C268.668 358.921 266.434 358.381 264.13 358.381C255.798 358.381 249.019 365.373 249.019 373.968C249.019 374.811 249.097 375.593 249.256 376.359C249.415 377.118 249.261 377.912 248.83 378.551C248.398 379.19 247.73 379.617 246.983 379.73C244.699 380.076 242.348 380.25 240 380.25ZM236.443 374.474C238.797 374.675 241.199 374.676 243.557 374.474C243.553 374.307 243.55 374.137 243.55 373.966C243.55 362.27 252.783 352.754 264.13 352.754C266.538 352.754 268.887 353.184 271.137 354.033C285.223 335.564 311.461 291.717 287.186 245.588C259.77 258.6 220.229 258.599 192.814 245.588C168.539 291.716 194.777 335.564 208.863 354.033C214.763 351.811 221.295 352.479 226.722 355.953C232.812 359.852 236.45 366.585 236.45 373.965C236.45 374.137 236.448 374.306 236.443 374.474V374.474Z" fill="black"/>
<path d="M231.133 366.668C229.749 366.668 228.563 365.592 228.417 364.147C226.205 342.281 217.487 321.39 217.4 321.182C216.799 319.757 217.436 318.101 218.822 317.483C220.207 316.865 221.815 317.518 222.418 318.944C222.79 319.826 231.554 340.813 233.856 363.565C234.014 365.11 232.922 366.493 231.42 366.653C231.322 366.662 231.227 366.668 231.133 366.668V366.668Z" fill="black"/>
<path d="M248.867 366.668C248.772 366.668 248.677 366.663 248.581 366.652C247.079 366.491 245.987 365.109 246.144 363.564C248.446 340.812 257.21 319.826 257.582 318.943C258.184 317.518 259.794 316.864 261.178 317.482C262.564 318.099 263.201 319.755 262.6 321.181C262.513 321.389 253.796 342.28 251.583 364.146C251.437 365.592 250.251 366.668 248.867 366.668Z" fill="black"/>
<path d="M240 255.329C183.35 255.329 164.614 222.596 163.844 221.203C163.149 219.943 163.497 218.347 164.647 217.513L166.074 216.48C158.581 210.115 153.765 201.225 151.428 196.12C150.156 193.346 150.972 190.067 153.368 188.323C156.594 185.979 165.992 177.823 183.577 152.759C196.562 134.25 211.35 128.241 221.47 126.459C230.665 124.841 237.709 126.299 240.02 126.901C245.242 125.613 273.728 120.414 296.421 152.759C314.005 177.824 323.404 185.979 326.628 188.323H326.629C329.026 190.067 329.843 193.346 328.569 196.121C326.232 201.225 321.417 210.114 313.923 216.48L315.351 217.513C316.502 218.347 316.849 219.943 316.153 221.203C315.386 222.596 296.65 255.329 240 255.329V255.329ZM170.003 220.515C175.126 227.521 194.913 249.704 240 249.704C285.265 249.704 304.922 227.536 310.007 220.521L307.687 218.842C306.947 218.306 306.514 217.43 306.526 216.5C306.54 215.569 307 214.706 307.755 214.194C316.261 208.42 321.686 197.954 323.624 193.723C323.756 193.434 323.689 193.071 323.473 192.915C319.189 189.801 309.402 180.873 291.987 156.049C269.315 123.732 241.104 132.401 240.82 132.492C240.287 132.665 239.713 132.665 239.18 132.492C238.028 132.127 210.584 123.875 188.013 156.049C170.597 180.874 160.81 189.802 156.526 192.915C156.312 193.071 156.244 193.433 156.375 193.721C158.313 197.954 163.738 208.419 172.245 214.193C173 214.705 173.459 215.568 173.474 216.498C173.487 217.429 173.053 218.305 172.313 218.841L170.003 220.515Z" fill="black"/>
<path d="M298.707 163.501C297.875 163.501 297.053 163.112 296.517 162.376L294.742 159.929C293.844 158.678 292.932 157.395 291.987 156.05C285.606 146.955 278.205 140.254 269.992 136.134C269.118 135.696 268.537 134.814 268.464 133.818C268.391 132.821 268.838 131.859 269.637 131.291C278.08 125.297 293.679 113.56 303.297 102.302C306.465 98.5939 309.582 98.7919 311.163 99.2419C315.211 100.395 318.315 105.464 319.68 113.149C322.427 128.626 317.506 150.03 300.318 162.959C299.832 163.324 299.267 163.501 298.707 163.501V163.501ZM276.381 133.298C283.817 137.85 290.543 144.378 296.422 152.758C297.354 154.087 298.255 155.352 299.142 156.589L299.226 156.707C314.675 143.535 316.044 123.985 314.299 114.159C313.176 107.832 310.935 105.014 309.702 104.663C308.906 104.436 307.92 105.414 307.404 106.016C298.675 116.234 285.375 126.712 276.381 133.298Z" fill="black"/>
<path d="M181.242 163.571C180.683 163.571 180.12 163.396 179.635 163.032C162.398 150.136 157.435 128.718 160.162 113.213C161.519 105.495 164.625 100.404 168.684 99.2437C170.261 98.7948 173.383 98.5889 176.555 102.303C186.189 113.577 201.818 125.332 210.278 131.337C211.077 131.904 211.524 132.864 211.452 133.86C211.38 134.856 210.799 135.738 209.927 136.177C201.745 140.301 194.37 146.986 188.012 156.051C187.068 157.396 186.156 158.677 185.257 159.931L183.43 162.45C182.894 163.183 182.074 163.571 181.242 163.571V163.571ZM170.397 104.629C170.313 104.629 170.23 104.639 170.148 104.663C168.91 105.016 166.661 107.852 165.542 114.214C163.81 124.059 165.216 143.638 180.715 156.783L180.857 156.588C181.745 155.351 182.646 154.085 183.577 152.757C189.434 144.408 196.134 137.896 203.539 133.347C194.527 126.753 181.193 116.255 172.446 106.015C171.984 105.473 171.143 104.629 170.397 104.629V104.629Z" fill="black"/>
<path d="M261.844 191.189C260.338 191.189 259.115 189.936 259.11 188.386C259.102 186.02 259.991 183.792 261.611 182.114C263.232 180.435 265.392 179.507 267.694 179.499H267.722C272.457 179.499 276.317 183.454 276.333 188.328C276.339 189.882 275.118 191.145 273.608 191.15C273.605 191.15 273.602 191.15 273.599 191.15C272.093 191.15 270.87 189.897 270.864 188.346C270.859 186.567 269.449 185.124 267.721 185.124C267.718 185.124 267.714 185.124 267.71 185.124C266.87 185.127 266.084 185.466 265.492 186.078C264.9 186.69 264.575 187.504 264.579 188.368C264.584 189.921 263.363 191.185 261.853 191.189C261.851 191.189 261.848 191.189 261.844 191.189V191.189Z" fill="black"/>
<path d="M218.156 191.17C216.645 191.17 215.421 189.911 215.421 188.358C215.421 186.576 214.011 185.124 212.279 185.124C210.545 185.124 209.135 186.575 209.135 188.358C209.135 189.911 207.911 191.17 206.401 191.17C204.891 191.17 203.667 189.911 203.667 188.358C203.667 183.474 207.53 179.499 212.279 179.499C217.027 179.499 220.89 183.473 220.89 188.358C220.89 189.911 219.666 191.17 218.156 191.17Z" fill="black"/>
<path d="M230.03 229.22C227.265 229.22 224.537 228.268 222.267 226.413C221.086 225.447 220.889 223.677 221.83 222.461C222.77 221.246 224.488 221.043 225.673 222.011C227.841 223.784 230.641 224.097 233.158 222.848C235.731 221.572 237.267 219.066 237.267 216.144C237.267 214.59 238.491 213.331 240.001 213.331C241.512 213.331 242.735 214.59 242.735 216.144V216.838C242.735 217.039 242.715 217.235 242.675 217.424C242.252 221.952 239.597 225.899 235.534 227.915C233.769 228.79 231.891 229.22 230.03 229.22V229.22Z" fill="black"/>
<path d="M249.97 229.22C248.109 229.22 246.232 228.79 244.467 227.914C240.404 225.898 237.748 221.952 237.326 217.423C237.286 217.234 237.266 217.038 237.266 216.837V216.143C237.266 214.589 238.49 213.33 240 213.33C241.51 213.33 242.734 214.589 242.734 216.143C242.734 219.065 244.27 221.571 246.844 222.847C249.361 224.095 252.159 223.784 254.328 222.01C255.51 221.042 257.23 221.245 258.172 222.46C259.111 223.676 258.915 225.444 257.734 226.412C255.465 228.269 252.736 229.22 249.97 229.22Z" fill="black"/>
<path d="M329.719 340.044C324.73 340.044 319.579 338.929 314.423 336.665C313.282 336.165 312.613 334.937 312.791 333.675C313.86 326.098 311.921 318.21 307.029 310.23C306.637 309.59 306.511 308.815 306.683 308.078C306.852 307.342 307.304 306.708 307.935 306.318C313.435 302.921 319.317 294.839 316.097 275.632C313.36 259.301 315.589 242.227 322.214 228.784C329.763 213.466 342.045 203.907 357.732 201.139C360.378 200.67 362.968 201.796 364.496 204.072C366.03 206.358 366.133 209.26 364.766 211.65C359.417 220.995 352.226 240.456 364.17 265.795C373.737 286.092 369.995 312.354 355.275 328.242C348.05 336.036 339.176 340.044 329.719 340.044V340.044ZM318.445 332.26C334.825 338.493 346.007 330.088 351.314 324.361C364.307 310.34 367.717 286.217 359.247 268.249C346.192 240.552 354.148 219.112 360.052 208.795C360.454 208.093 360.145 207.494 359.994 207.269C359.845 207.047 359.413 206.547 358.655 206.683C341.077 209.785 331.787 221.798 327.091 231.328C320.987 243.713 318.945 259.513 321.485 274.675C324.829 294.614 319.204 304.579 313.005 309.55C317.192 317.167 319.018 324.785 318.445 332.26Z" fill="black"/>
<path d="M314.085 182.889C313.921 182.889 313.754 182.873 313.589 182.842C303.759 180.979 297.725 175.312 291.336 169.313C285.846 164.157 280.17 158.825 271.326 155.061C259.048 149.838 251.085 156.823 244.312 165.156C243.235 166.48 241.664 167.239 240 167.239C238.336 167.239 236.765 166.48 235.688 165.156C228.915 156.823 220.956 149.833 208.674 155.061C199.83 158.825 194.154 164.157 188.664 169.313C182.275 175.312 176.242 180.979 166.411 182.842C165.259 183.06 164.094 182.496 163.523 181.438C162.953 180.38 163.105 179.067 163.9 178.175C169.67 171.698 176.29 163.146 183.578 152.758C206.299 120.373 234.829 125.625 240 126.906C245.172 125.625 273.701 120.374 296.422 152.759C303.71 163.148 310.33 171.699 316.1 178.176C316.895 179.067 317.046 180.381 316.477 181.439C315.989 182.345 315.066 182.889 314.085 182.889V182.889ZM263.198 147.633C266.313 147.633 269.717 148.289 273.418 149.864C283.15 154.006 289.458 159.931 295.024 165.159C298.334 168.267 301.398 171.144 304.853 173.369C300.84 168.328 296.537 162.537 291.987 156.051C269.414 123.876 241.971 132.13 240.813 132.496C240.285 132.665 239.709 132.665 239.18 132.494C238.028 132.128 210.584 123.876 188.013 156.05C183.463 162.536 179.16 168.327 175.147 173.368C178.602 171.143 181.666 168.266 184.976 165.158C190.542 159.93 196.849 154.005 206.582 149.862C224.266 142.334 235.209 155.798 239.883 161.547C239.957 161.639 240.042 161.64 240.116 161.547C243.812 157.002 251.43 147.633 263.198 147.633V147.633Z" fill="black"/>
<path d="M181.239 163.575C180.682 163.575 180.119 163.401 179.633 163.037C172.343 157.583 166.887 150.445 163.419 141.821C163.253 141.405 163.184 140.953 163.221 140.506C163.895 132.438 165.968 126.048 167.588 122.109C168.358 120.239 169.953 118.93 171.856 118.605C173.839 118.267 175.852 119.018 177.237 120.613C179.768 123.527 186.876 131.236 198.169 139.853C198.832 140.359 199.239 141.146 199.273 141.995C199.307 142.845 198.967 143.662 198.347 144.224C194.646 147.572 191.169 151.551 188.012 156.051C187.068 157.396 186.156 158.678 185.257 159.931L183.426 162.453C182.891 163.187 182.071 163.575 181.239 163.575V163.575ZM168.732 140.301C171.459 146.811 175.482 152.343 180.715 156.786L180.858 156.59C181.746 155.352 182.647 154.087 183.578 152.758C186.275 148.915 189.195 145.419 192.288 142.327C182.103 134.237 175.601 127.17 173.161 124.361C173.007 124.183 172.855 124.138 172.752 124.155C172.722 124.159 172.682 124.167 172.626 124.301C171.206 127.754 169.399 133.293 168.732 140.301Z" fill="black"/>
<path d="M298.707 163.502C297.875 163.502 297.053 163.113 296.517 162.377L294.742 159.929C293.844 158.678 292.932 157.395 291.987 156.05C288.812 151.523 285.312 147.524 281.588 144.165C280.968 143.604 280.625 142.785 280.658 141.937C280.691 141.089 281.097 140.3 281.761 139.794C293.009 131.201 300.091 123.518 302.613 120.615C304 119.018 306.014 118.269 307.996 118.607C309.898 118.932 311.493 120.241 312.262 122.11C313.881 126.047 315.954 132.434 316.629 140.506C316.666 140.955 316.599 141.406 316.431 141.822C312.981 150.402 307.56 157.515 300.317 162.962C299.833 163.326 299.267 163.502 298.707 163.502V163.502ZM287.646 142.263C290.764 145.37 293.706 148.889 296.421 152.759C297.353 154.088 298.254 155.354 299.141 156.59L299.226 156.708C304.416 152.278 308.409 146.771 311.119 140.302C310.451 133.29 308.645 127.753 307.224 124.301C307.169 124.167 307.129 124.161 307.099 124.156C307.068 124.151 306.889 124.133 306.69 124.362C304.261 127.159 297.786 134.199 287.646 142.263V142.263Z" fill="black"/>
<path d="M240 218.921C235.09 218.921 230.467 212.702 230.467 207.882C230.467 201.399 237.393 201.399 240 201.399C242.608 201.399 249.533 201.399 249.533 207.882C249.533 212.702 244.91 218.921 240 218.921ZM240 207.024C236.816 207.024 236.113 207.422 235.959 207.594C235.962 207.596 235.936 207.694 235.936 207.882C235.936 209.957 238.443 213.296 240 213.296C241.558 213.296 244.064 209.957 244.064 207.882C244.064 207.694 244.039 207.596 244.029 207.575C243.887 207.422 243.184 207.024 240 207.024V207.024Z" fill="black"/>
<path d="M240 241.058C234.584 241.058 230.133 235.089 229.177 226.543C229.014 225.087 229.968 223.744 231.367 223.462C234.209 222.888 237.266 220.354 237.266 216.144C237.266 214.59 238.489 213.331 240 213.331C241.51 213.331 242.734 214.59 242.734 216.144C242.734 220.354 245.791 222.888 248.633 223.462C250.032 223.744 250.986 225.085 250.823 226.543C249.867 235.089 245.416 241.058 240 241.058ZM234.985 228.183C235.982 232.716 238.204 235.433 240 235.433C241.796 235.433 244.018 232.715 245.015 228.183C243.011 227.32 241.3 225.975 240 224.293C238.699 225.975 236.989 227.32 234.985 228.183Z" fill="black"/>
<path d="M298.815 238.213C297.969 238.213 297.133 237.809 296.599 237.05C287.486 224.107 272.882 206.767 255.063 197.666C244.966 192.509 244.19 182.152 247.743 174.714C252.165 165.45 263.357 158.847 275.393 164.863C284.383 169.357 299.569 180.037 320.855 205.396C321.709 206.413 321.744 207.908 320.939 208.966C318.726 211.877 316.375 214.392 313.923 216.479L315.352 217.513C316.504 218.348 316.851 219.948 316.151 221.208C315.965 221.543 311.47 229.508 300.408 237.685C299.927 238.042 299.369 238.213 298.815 238.213V238.213ZM266.153 168.227C260.121 168.227 255.044 172.182 252.65 177.194C250.245 182.231 250.255 188.93 257.496 192.628C275.259 201.701 289.836 218.299 299.383 231.45C304.893 227.031 308.288 222.905 310.01 220.524L307.687 218.842C306.947 218.306 306.514 217.43 306.526 216.499C306.54 215.569 307 214.706 307.754 214.194C310.339 212.439 312.839 210.122 315.208 207.288C295.331 183.939 281.322 174.08 273.002 169.922C270.648 168.747 268.338 168.227 266.153 168.227Z" fill="black"/>
<path d="M180.491 237.7C179.912 237.7 179.342 237.51 178.87 237.152C168.324 229.161 164.025 221.526 163.848 221.205C163.15 219.945 163.498 218.347 164.648 217.513L166.077 216.479C163.431 214.227 160.904 211.475 158.535 208.261C157.754 207.201 157.801 205.723 158.649 204.719C179.649 179.828 194.655 169.307 203.545 164.864C215.581 158.849 226.771 165.452 231.195 174.715C234.748 182.153 233.972 192.51 223.875 197.667C206.233 206.677 191.747 223.783 182.701 236.545C182.271 237.15 181.627 237.554 180.907 237.668C180.769 237.689 180.63 237.7 180.491 237.7ZM169.995 220.52C171.656 222.813 174.86 226.72 179.95 230.914C189.427 217.952 203.875 201.601 221.442 192.628C228.683 188.93 228.693 182.231 226.288 177.193C223.028 170.367 214.788 165.499 205.937 169.922C197.712 174.033 183.876 183.74 164.272 206.649C166.796 209.779 169.473 212.311 172.247 214.194C173.001 214.706 173.461 215.569 173.475 216.5C173.488 217.43 173.054 218.306 172.314 218.842L169.995 220.52Z" fill="black"/>
<path d="M335.739 339.451C335.021 339.451 334.322 339.159 333.803 338.625C333.156 337.958 332.876 337.002 333.058 336.078C337.212 315.043 324.139 305.945 315.976 302.396C315.29 302.097 314.753 301.525 314.488 300.809C314.222 300.095 314.25 299.298 314.567 298.607C316.234 294.966 317.048 290.414 316.982 285.076C316.974 284.325 317.258 283.6 317.772 283.065C318.286 282.529 318.986 282.229 319.717 282.229H319.718C330.6 282.233 356.549 285.602 362.461 316.698C362.586 317.357 362.479 318.04 362.157 318.624C355.977 329.842 346.785 337.219 336.278 339.396C336.099 339.433 335.919 339.451 335.739 339.451V339.451ZM320.557 298.382C328.49 302.484 341.241 312.351 339.094 332.764C346.142 330.159 352.341 324.606 356.89 316.754C351.989 293.484 334.27 288.528 322.406 287.924C322.235 291.776 321.616 295.277 320.557 298.382Z" fill="black"/>
<path d="M363.435 273.996C362.928 273.996 362.42 273.852 361.972 273.56C343.084 261.247 324.412 268.6 319.139 271.146C318.332 271.537 317.389 271.497 316.612 271.037C315.837 270.578 315.33 269.759 315.253 268.843C314.546 260.473 315.08 252.211 316.841 244.288C317.047 243.363 317.692 242.607 318.559 242.278C339.172 234.433 352.032 239.73 356.606 242.371C357.374 242.815 357.888 243.613 357.984 244.514C358.739 251.534 360.819 258.694 364.166 265.795C364.814 267.168 365.428 268.649 365.993 270.193C366.408 271.325 366.071 272.602 365.159 273.365C364.661 273.783 364.05 273.996 363.435 273.996V273.996ZM339.02 261.012C344.774 261.012 351.175 262.036 357.774 264.937C355.221 258.843 353.529 252.706 352.731 246.636C348.144 244.38 337.901 241.316 321.858 247.036C320.724 252.703 320.258 258.552 320.469 264.488C324.739 262.861 331.293 261.012 339.02 261.012V261.012Z" fill="black"/>
<path d="M356.06 229.921C355.26 229.921 354.487 229.56 353.96 228.91C351.759 226.197 345.259 220.038 332.423 221.487C331.299 221.608 330.213 221.014 329.695 219.979C329.176 218.944 329.331 217.687 330.083 216.819C337.414 208.359 346.716 203.084 357.73 201.14C360.377 200.667 362.964 201.796 364.494 204.072C366.027 206.358 366.131 209.261 364.764 211.65C361.916 216.623 359.889 222.018 358.736 227.683C358.522 228.738 357.739 229.575 356.722 229.836C356.503 229.894 356.28 229.921 356.06 229.921V229.921ZM339.023 215.756C346.236 216.342 351.301 219.118 354.562 221.746C355.875 217.218 357.714 212.879 360.052 208.797C360.454 208.095 360.145 207.494 359.994 207.269C359.845 207.047 359.413 206.549 358.655 206.683C351.184 208.001 344.606 211.044 339.023 215.756V215.756Z" fill="black"/>
<path d="M240 338.59C238.543 338.59 237.21 337.8 236.434 336.477C236.392 336.405 236.352 336.331 236.316 336.255C235.656 334.855 234.521 333.029 233.209 330.915C228.479 323.297 220.763 310.872 219.794 293.254L219.569 293.319C218.809 293.541 217.989 293.412 217.324 292.966C216.663 292.519 216.22 291.799 216.114 290.991C216.045 290.466 214.562 278.976 215.73 267.167H214.317C213.564 267.167 212.842 266.848 212.327 266.283C211.81 265.719 211.543 264.961 211.588 264.187C211.603 263.917 211.983 257.5 213.203 249.775C213.321 249.023 213.731 248.353 214.34 247.918C214.947 247.483 215.702 247.32 216.426 247.466C231.409 250.476 248.595 250.474 263.573 247.466C264.297 247.321 265.052 247.483 265.659 247.918C266.268 248.354 266.678 249.023 266.796 249.775C268.015 257.499 268.396 263.917 268.411 264.187C268.456 264.961 268.189 265.718 267.672 266.283C267.156 266.847 266.435 267.167 265.682 267.167H264.269C265.437 278.976 263.955 290.465 263.885 290.991C263.778 291.799 263.336 292.519 262.675 292.966C262.011 293.412 261.194 293.541 260.43 293.319L260.206 293.254C259.237 310.877 251.526 323.289 246.798 330.902C245.483 333.019 244.347 334.848 243.683 336.253C243.647 336.33 243.607 336.404 243.565 336.476C242.79 337.8 241.457 338.59 240 338.59V338.59ZM222.428 286.751C223.016 286.751 223.596 286.947 224.077 287.32C224.761 287.853 225.162 288.682 225.162 289.564C225.162 307.507 232.779 319.772 237.818 327.888C238.622 329.182 239.364 330.375 240 331.477C240.639 330.371 241.384 329.174 242.191 327.873C247.226 319.765 254.838 307.512 254.838 289.563C254.838 288.681 255.239 287.851 255.923 287.319C256.606 286.786 257.492 286.616 258.317 286.857L258.796 286.996C259.196 282.296 259.68 273.222 258.469 264.764C258.354 263.955 258.585 263.135 259.106 262.516C259.625 261.898 260.38 261.542 261.175 261.542H262.722C262.546 259.549 262.257 256.71 261.816 253.513C247.8 255.954 232.203 255.954 218.181 253.513C217.74 256.71 217.451 259.549 217.275 261.542H218.822C219.617 261.542 220.372 261.898 220.891 262.516C221.412 263.135 221.644 263.955 221.528 264.764C220.318 273.222 220.8 282.296 221.201 286.996L221.68 286.857C221.928 286.786 222.179 286.751 222.428 286.751V286.751Z" fill="black"/>
<path d="M300.438 387H271.464C269.953 387 268.729 385.741 268.729 384.187V383.98C268.729 382.52 269.817 381.302 271.231 381.178C277.296 380.646 279.242 378.893 279.242 373.965C279.242 370.404 278.099 367.047 275.936 364.254C275.306 363.438 275.164 362.331 275.57 361.376C275.974 360.421 276.862 359.775 277.871 359.696C289.879 358.767 298.437 360.819 303.315 365.787C306.624 369.157 308.122 373.728 307.764 379.373C307.493 383.65 304.276 387 300.438 387V387ZM271.464 383.98H271.475H271.464ZM282.883 381.375H300.438C301.386 381.375 302.223 380.314 302.305 379.009C302.558 375.006 301.631 371.989 299.466 369.785C296.435 366.698 290.868 365.106 283.222 365.106C283.093 365.106 282.964 365.106 282.834 365.107C284.07 367.859 284.71 370.855 284.71 373.965C284.71 377.175 284.011 379.575 282.883 381.375V381.375Z" fill="black"/>
<path d="M481.45 436.242V471.882C481.45 500.621 459.959 523.917 433.436 523.917H76.688C50.1656 523.917 28.6746 500.621 28.6746 471.882V436.242L83.8517 430.637L156.016 423.315L255.062 413.26L354.108 423.315L481.45 436.242Z" fill="#1D4781"/>
<path d="M481.45 436.242V455.639H83.8517V423.314H354.108L481.45 436.242Z" fill="#61A2F9"/>
<path d="M162.169 523.917H76.6831C50.1706 523.917 28.6796 500.621 28.6796 471.882V436.242L255.067 413.26L297.81 417.601L114.165 436.242V471.882C114.165 500.62 135.656 523.917 162.169 523.917Z" fill="#1D4781"/>
<path d="M428.935 67.7527H81.1895C49.0546 67.7527 22.9117 96.092 22.9117 130.925V401.077C22.9117 410.024 29.6031 417.277 37.8568 417.277C46.1105 417.277 52.8019 410.024 52.8019 401.077V264.115H108.156V419.035H138.046V264.115H196.13V419.035H226.02V264.115H284.104V419.035H313.995V264.115H372.078V419.035H401.968V264.115H457.323V401.076C457.323 410.023 464.014 417.276 472.268 417.276C480.521 417.276 487.213 410.023 487.213 401.076V130.924C487.213 96.0909 461.07 67.7527 428.935 67.7527V67.7527ZM52.8019 231.715V130.924C52.8019 113.956 65.537 100.152 81.1895 100.152H108.156V231.714H52.8019V231.715ZM138.046 231.715V100.153H196.13V231.715H138.046ZM226.02 231.715V100.153H284.104V231.715H226.02ZM313.995 231.715V100.153H372.078V231.715H313.995ZM401.968 231.715V100.153H428.935C444.587 100.153 457.323 113.957 457.323 130.925V231.716H401.968V231.715Z" fill="#7DF7FF"/>
<path d="M183.573 67.7527H81.1896C49.0577 67.7527 22.9138 96.0919 22.9138 130.922V401.073C22.9138 410.016 29.5992 417.273 37.8589 417.273C46.1085 417.273 52.8039 410.016 52.8039 401.073V264.108H108.16V419.033H138.051V417.1C130.827 415.956 125.287 409.206 125.287 401.073V130.922C125.287 96.0919 151.431 67.7527 183.573 67.7527V67.7527ZM108.16 231.708H52.8039V130.922C52.8039 113.955 65.5371 100.153 81.1896 100.153H108.16V231.708Z" fill="#7DF7FF"/>
<path d="M481.447 390.276H28.6776C16.9666 390.276 7.47253 400.568 7.47253 413.262C7.47253 425.956 16.9666 436.248 28.6776 436.248H481.448C493.159 436.248 502.653 425.956 502.653 413.262C502.652 400.568 493.158 390.276 481.447 390.276Z" fill="#1D4781"/>
<path d="M85.137 429.516C88.9729 433.674 94.2734 436.244 100.132 436.244H28.6746C22.8161 436.244 17.5156 433.674 13.6797 429.516C9.84382 425.358 7.47253 419.612 7.47253 413.262C7.47253 400.572 16.9676 390.28 28.6746 390.28H100.132C88.4149 390.28 78.9298 400.572 78.9298 413.262C78.9298 419.612 81.3011 425.358 85.137 429.516Z" fill="#1D4781"/>
<path d="M401.972 246.95H457.319C461.445 246.95 464.791 243.323 464.791 238.85V138.064C464.791 116.625 448.705 99.184 428.933 99.184H401.972C397.845 99.184 394.5 102.811 394.5 107.284V137.794C394.5 142.267 397.845 145.894 401.972 145.894C406.099 145.894 409.445 142.267 409.445 137.794V115.384H428.933C440.465 115.384 449.846 125.558 449.846 138.064V230.75H409.445V170.194C409.445 165.721 406.099 162.094 401.972 162.094C397.845 162.094 394.5 165.721 394.5 170.194V238.85C394.5 243.323 397.845 246.95 401.972 246.95Z" fill="black"/>
<path d="M313.995 246.951H372.078C376.205 246.951 379.551 243.324 379.551 238.851V107.287C379.551 102.814 376.205 99.1872 372.078 99.1872H313.995C309.868 99.1872 306.522 102.814 306.522 107.287V238.85C306.522 243.324 309.868 246.951 313.995 246.951ZM321.467 115.387H364.606V230.75H321.467V115.387Z" fill="black"/>
<path d="M226.02 246.951H284.104C288.231 246.951 291.577 243.324 291.577 238.851V107.287C291.577 102.814 288.231 99.1872 284.104 99.1872H226.02C221.893 99.1872 218.547 102.814 218.547 107.287V238.85C218.547 243.324 221.893 246.951 226.02 246.951ZM233.493 115.387H276.632V230.75H233.493V115.387Z" fill="black"/>
<path d="M52.8019 246.951H108.156C112.283 246.951 115.629 243.324 115.629 238.851V107.287C115.629 102.814 112.283 99.1872 108.156 99.1872H81.1895C61.4162 99.1872 45.3293 116.625 45.3293 138.06V238.851C45.3293 243.324 48.675 246.951 52.8019 246.951ZM60.2744 138.06C60.2744 125.559 69.6569 115.387 81.1895 115.387H100.684V230.75H60.2744V138.06Z" fill="black"/>
<path d="M138.047 246.951H196.13C200.257 246.951 203.602 243.324 203.602 238.851V107.287C203.602 102.814 200.257 99.1872 196.13 99.1872H138.047C133.92 99.1872 130.574 102.814 130.574 107.287V238.85C130.574 243.324 133.92 246.951 138.047 246.951ZM145.519 115.387H188.657V230.75H145.519V115.387Z" fill="black"/>
<path d="M510.125 420.398C510.125 412.106 507.145 404.302 501.728 398.416C499.624 396.135 497.247 394.258 494.681 392.809V138.062C494.681 98.7638 465.187 66.7926 428.933 66.7926H335.426V42.7151C335.426 19.1614 317.748 0 296.02 0H214.105C192.376 0 174.699 19.1624 174.699 42.7151V66.7915H81.1915C44.9378 66.7915 15.4432 98.7628 15.4432 138.061V392.836C6.27593 398.029 0 408.43 0 420.398C0 428.689 2.97905 436.492 8.39613 442.38C12.0029 446.288 16.4047 449.02 21.205 450.413V479.014C21.205 512.174 46.0925 539.151 76.6841 539.151H433.441C464.033 539.151 488.92 512.174 488.92 479.014V450.403C501.12 446.832 510.125 434.736 510.125 420.398ZM189.644 42.7151C189.644 28.094 200.617 16.2 214.105 16.2H296.02C309.508 16.2 320.481 28.0951 320.481 42.7151V66.7915H189.644V42.7151ZM81.1915 82.9915H428.933C456.946 82.9915 479.736 107.695 479.736 138.061V389.315H464.791V271.246C464.791 266.773 461.446 263.146 457.319 263.146H401.972C397.845 263.146 394.5 266.773 394.5 271.246V389.315H379.555V271.246C379.555 266.773 376.209 263.146 372.082 263.146H313.996C309.869 263.146 306.523 266.773 306.523 271.246V389.315H291.578V271.246C291.578 266.773 288.232 263.146 284.105 263.146H226.019C221.892 263.146 218.547 266.773 218.547 271.246V389.315H203.601V271.246C203.601 266.773 200.256 263.146 196.129 263.146H138.042C133.916 263.146 130.57 266.773 130.57 271.246V389.315H115.625V271.246C115.625 266.773 112.279 263.146 108.152 263.146H52.8059C48.679 263.146 45.3333 266.773 45.3333 271.246V389.315H30.3883V138.062C30.3883 107.695 53.1785 82.9915 81.1915 82.9915ZM449.846 389.315H409.445V279.346H449.846V389.315ZM364.61 389.315H321.468V279.346H364.61V389.315ZM276.633 389.315H233.492V279.346H276.633V389.315ZM188.656 389.315H145.515V279.346H188.656V389.315ZM100.68 389.315H60.2784V279.346H100.68V389.315ZM481.45 435.28H151.463C147.336 435.28 143.991 438.907 143.991 443.38C143.991 447.853 147.336 451.48 151.463 451.48H473.974V479.015C473.974 503.242 455.791 522.952 433.44 522.952H76.6831C54.3322 522.952 36.1491 503.242 36.1491 479.015V451.48H121.612C125.739 451.48 129.084 447.853 129.084 443.38C129.084 438.907 125.739 435.28 121.612 435.28H28.6746C25.0041 435.28 21.5548 433.732 18.9713 430.932C16.3748 428.111 14.9451 424.37 14.9451 420.398C14.9451 412.192 21.1044 405.515 28.6746 405.515H481.45C485.12 405.515 488.57 407.062 491.154 409.863C493.75 412.684 495.179 416.425 495.179 420.396C495.179 428.604 489.02 435.28 481.45 435.28Z" fill="black"/>
</svg>
