<svg width="60" height="60" viewBox="0 0 2023 696" fill="none" xmlns="http://www.w3.org/2000/svg">
<!-- <rect width="2023" height="696" fill="#E5E5E5"/> -->
<path d="M301.246 390.966C301.246 386.628 303.312 382.649 306.747 379.503C289.116 378.538 267.322 380.466 268.725 396.192C268.975 399.003 271.797 401.189 275.208 401.189H316.071V400.982C307.338 400.437 301.246 398.43 301.246 390.966V390.966Z" fill="#52565B"/>
<path d="M414.145 379.503C417.58 382.649 419.646 386.628 419.646 390.966C419.646 398.43 413.556 400.437 404.82 400.98V401.188H445.684C449.093 401.188 451.916 399.002 452.167 396.191C453.569 380.466 431.776 378.538 414.145 379.503V379.503Z" fill="#52565B"/>
<path d="M277.58 177.76C278.085 177.27 278.58 176.792 279.095 176.285C279.442 175.946 279.786 175.606 280.138 175.259C281.396 174.015 282.677 172.742 283.999 171.404C294.47 160.821 305.746 154.436 316.338 150.651C303.904 144.395 281.859 132.603 268.07 121.159C251.911 107.747 235.074 155.208 277.58 177.76V177.76Z" fill="#A8AEB2"/>
<path d="M419.646 390.966C419.646 401.128 408.377 401.188 394.479 401.188C380.581 401.188 369.312 401.128 369.312 390.966C369.312 380.804 380.581 372.566 394.479 372.566C408.377 372.566 419.646 380.804 419.646 390.966Z" fill="#52565B"/>
<path d="M351.581 390.966C351.581 401.128 340.312 401.188 326.414 401.188C312.516 401.188 301.248 401.128 301.248 390.966C301.248 380.804 312.516 372.566 326.414 372.566C340.312 372.566 351.581 380.804 351.581 390.966Z" fill="#52565B"/>
<path d="M443.919 312.929C440.643 332.254 429.256 349.17 418.458 361.42C418.449 361.43 418.439 361.44 418.43 361.451C414.453 365.96 410.083 370.373 405.547 374.462C408.902 375.667 411.837 377.39 414.146 379.506C422.084 379.072 430.861 379.222 437.993 380.958C453.703 372.972 492.059 348.012 443.919 312.929Z" fill="#A8AEB2"/>
<path d="M315.345 374.461C310.373 369.98 305.428 364.958 300.842 359.584C300.834 359.575 300.826 359.565 300.817 359.556C290.521 347.48 280.084 331.291 276.971 312.929C228.83 348.012 267.187 372.974 282.897 380.957C290.029 379.221 298.806 379.072 306.744 379.505C309.054 377.389 311.991 375.666 315.345 374.461V374.461Z" fill="#A8AEB2"/>
<path d="M292.304 258.908C252.69 308.908 295.457 356.536 315.345 374.461C332.075 368.451 351.581 377.385 351.581 390.966C351.581 392.083 351.422 393.059 351.161 393.946C357.058 394.581 363.469 394.621 369.729 393.946C369.468 393.059 369.309 392.083 369.309 390.966C369.309 380.804 380.578 372.566 394.476 372.566C398.454 372.566 402.201 373.259 405.545 374.461C425.435 356.536 468.202 308.908 428.588 258.908C389.77 273.106 331.182 273.128 292.304 258.908V258.908Z" fill="#A8AEB2"/>
<path d="M480.397 207.62C474.764 204.717 461.313 196.086 436.893 171.405C402.915 137.066 360.446 146.81 360.446 146.81C360.446 146.81 317.977 137.066 284 171.404C259.579 196.085 246.129 204.717 240.496 207.62C238.65 208.572 238.04 210.405 239.02 211.922C242.298 216.996 250.213 227.501 262.764 233.542L256.394 236.813C256.394 236.813 281.875 269.516 360.444 269.516C439.014 269.516 464.495 236.813 464.495 236.813L458.125 233.542C470.678 227.501 478.593 216.996 481.869 211.922C482.852 210.405 482.242 208.571 480.397 207.62V207.62Z" fill="#E3E4E5"/>
<path d="M436.891 171.405C438.215 172.742 439.494 174.016 440.752 175.26C441.104 175.608 441.449 175.947 441.795 176.286C442.286 176.768 442.756 177.222 443.237 177.689C485.574 155.108 468.756 107.762 452.613 121.159C438.856 132.576 416.883 144.339 404.433 150.606C415.061 154.386 426.382 160.782 436.891 171.405V171.405Z" fill="#A8AEB2"/>
<path d="M532.093 284.022C514.569 257.662 524.91 237.345 533.081 227.223C535.574 224.135 531.98 220.304 527.136 220.911C482.384 226.511 464.268 261.284 471.566 292.154C476.581 313.367 466.44 322.138 458.24 325.729C466.399 335.167 468.393 343.673 466.918 351.079C518.588 367.162 555.038 318.536 532.093 284.022V284.022Z" fill="#A8AEB2"/>
<path d="M436.891 171.405C402.915 137.066 360.446 146.81 360.446 146.81C360.446 146.81 317.976 137.066 284 171.404C272.217 183.313 262.992 191.481 255.963 197.075C280.099 193.832 286.956 177.861 314.791 169.461C336.094 163.032 349.372 173.415 357.324 180.35C358.966 181.783 361.925 181.783 363.568 180.35C371.52 173.415 384.798 163.032 406.101 169.461C433.936 177.861 440.792 193.832 464.929 197.075C457.901 191.482 448.676 183.314 436.891 171.405V171.405Z" fill="#A8AEB2"/>
<path d="M277.579 177.762C278.083 177.271 278.58 176.793 279.095 176.286C279.442 175.947 279.786 175.607 280.138 175.26C281.397 174.016 282.677 172.743 283.999 171.405C288.924 166.427 294.028 162.401 299.154 159.112C285.737 151.854 275.263 144.556 269.055 139.488C266.9 137.728 263.147 138.01 261.873 140.206C259.636 144.061 256.901 150.131 256.003 157.746C260.165 165.079 267.057 172.182 277.579 177.762V177.762Z" fill="#E3E4E5"/>
<path d="M436.891 171.405C438.215 172.742 439.494 174.016 440.752 175.261C441.104 175.608 441.45 175.947 441.795 176.287C442.286 176.768 442.756 177.223 443.237 177.689C453.684 172.12 460.536 165.048 464.677 157.745C463.781 150.13 461.046 144.06 458.808 140.204C457.535 138.01 453.782 137.728 451.627 139.487C445.436 144.54 435.006 151.811 421.642 159.05C426.8 162.35 431.937 166.397 436.891 171.405V171.405Z" fill="#E3E4E5"/>
<path d="M370.034 224.881C370.034 228.289 365.118 233.108 360.446 233.108C355.774 233.108 350.857 228.289 350.857 224.881C350.857 221.473 355.774 221.211 360.446 221.211C365.118 221.211 370.034 221.473 370.034 224.881Z" fill="#52565B"/>
<path d="M360.446 233.144C360.446 238.452 355.186 242.339 349.014 243.222C350.095 250.08 354.797 255.246 360.446 255.246C366.095 255.246 370.796 250.08 371.878 243.222C365.706 242.339 360.446 238.451 360.446 233.144Z" fill="#FD605B"/>
<path d="M458.127 233.542C463.434 230.989 467.912 227.636 471.561 224.234C442.282 199.503 421.424 188.911 408.677 184.393C381.282 174.686 357.897 202.91 383.407 212.148C408.72 221.316 429.478 238.386 443.393 252.402C458.49 244.488 464.498 236.814 464.498 236.814L458.127 233.542Z" fill="#52565B"/>
<path d="M310.719 184.393C298.085 188.871 277.492 199.305 248.627 223.561C252.4 227.191 257.109 230.82 262.764 233.542L256.393 236.813C256.393 236.813 262.133 244.159 276.519 251.888C290.43 237.971 310.979 221.204 335.987 212.148C361.498 202.91 338.113 174.686 310.719 184.393V184.393Z" fill="#52565B"/>
<path d="M495.471 353.639C502.053 329.999 479.856 320.123 469.101 316.806C471.452 313.166 472.982 308.356 472.874 302.041C489.923 302.046 521.793 305.97 529.372 334.236C521.684 344.132 509.868 351.524 495.471 353.639Z" fill="#52565B"/>
<path d="M470.42 285.6C469.47 277.623 470.185 269.549 472.58 261.916C500.006 254.516 516.821 259.288 523.013 261.824C524.039 268.592 526.78 276.027 532.094 284.022C533.003 285.388 533.806 286.778 534.531 288.184C506.142 275.062 478.048 282.988 470.42 285.6V285.6Z" fill="#52565B"/>
<path d="M490.371 235.69C499.511 228.211 511.748 222.837 527.136 220.911C531.98 220.304 535.574 224.134 533.081 227.223C529.796 231.292 526.164 237.013 524.128 244.108C520.471 240.911 510.196 234.107 490.371 235.69Z" fill="#52565B"/>
<path d="M394.431 267.228C372.965 270.285 347.937 270.287 326.459 267.228C324.751 274.901 324.224 281.356 324.224 281.356H330.579C328.037 293.959 330.579 307.613 330.579 307.613L335.663 306.563C335.663 330.396 353.875 344.753 358.72 352.024C359.551 353.027 361.342 353.027 362.173 352.024C367.029 344.735 385.23 330.41 385.23 306.563L390.313 307.613C390.313 307.613 392.855 293.959 390.313 281.356H396.668C396.666 281.356 396.139 274.901 394.431 267.228V267.228Z" fill="#E3E4E5"/>
<path d="M394.478 404C380.874 404 365.455 404 365.455 390.966C365.455 379.27 378.474 369.754 394.478 369.754C410.481 369.754 423.501 379.269 423.501 390.966C423.502 404 408.083 404 394.478 404ZM394.478 375.379C382.726 375.379 373.167 382.371 373.167 390.966C373.167 397.767 378.691 398.375 394.478 398.375C410.264 398.375 415.788 397.767 415.788 390.966C415.789 382.371 406.23 375.379 394.478 375.379Z" fill="black"/>
<path d="M326.413 404C312.809 404 297.39 404 297.39 390.966C297.39 379.27 310.409 369.754 326.413 369.754C342.417 369.754 355.437 379.269 355.437 390.966C355.439 404 340.018 404 326.413 404ZM326.413 375.379C314.662 375.379 305.102 382.371 305.102 390.966C305.102 397.767 310.626 398.375 326.413 398.375C342.201 398.375 347.725 397.767 347.725 390.966C347.726 382.371 338.165 375.379 326.413 375.379Z" fill="black"/>
<path d="M437.991 383.768C437.581 383.768 437.169 383.721 436.771 383.624C431.125 382.25 423.61 381.807 414.433 382.31C413.153 382.374 411.924 381.985 411.128 381.257C409.183 379.476 406.664 377.998 403.841 376.984C402.789 376.606 402.031 375.9 401.78 375.065C401.529 374.23 401.811 373.357 402.548 372.692C407.02 368.66 411.271 364.366 415.185 359.929C424.731 349.098 436.779 332.12 440.091 312.585C440.271 311.518 441.271 310.619 442.664 310.271C444.057 309.92 445.599 310.181 446.645 310.94C464.38 323.865 472.589 336.867 471.045 349.585C469.021 366.279 450.847 377.852 440.194 383.264C439.541 383.596 438.77 383.768 437.991 383.768V383.768ZM421.358 376.486C427.428 376.486 432.762 376.946 437.299 377.863C446.96 372.735 461.703 362.769 463.363 349.088C464.538 339.405 458.879 329.322 446.525 319.057C442.824 333.692 434.493 348.426 421.699 362.94C418.421 366.657 414.933 370.259 411.288 373.698C412.93 374.552 414.45 375.528 415.813 376.604C417.724 376.526 419.573 376.486 421.358 376.486Z" fill="black"/>
<path d="M282.9 383.768C282.121 383.768 281.35 383.596 280.696 383.263C270.043 377.85 251.871 366.278 249.845 349.584C248.303 336.866 256.512 323.864 274.247 310.938C275.291 310.177 276.834 309.918 278.228 310.268C279.621 310.618 280.621 311.516 280.801 312.582C283.349 327.629 291.187 342.933 304.094 358.07C304.121 358.1 304.146 358.13 304.168 358.157C308.457 363.185 313.244 368.094 318.342 372.691C319.081 373.356 319.363 374.229 319.112 375.065C318.86 375.9 318.101 376.606 317.049 376.984C314.228 377.998 311.708 379.475 309.762 381.257C308.966 381.985 307.74 382.374 306.457 382.31C297.28 381.809 289.762 382.25 284.119 383.624C283.723 383.721 283.309 383.768 282.9 383.768V383.768ZM274.369 319.057C262.013 329.322 256.352 339.406 257.527 349.089C259.187 362.77 273.932 372.735 283.592 377.863C289.464 376.677 296.674 376.255 305.078 376.605C306.44 375.528 307.961 374.552 309.602 373.699C305.328 369.668 301.289 365.432 297.567 361.069C297.559 361.059 297.55 361.05 297.542 361.041C285.68 347.128 277.904 333.033 274.369 319.057Z" fill="black"/>
<path d="M316.073 404H275.208C269.795 404 265.258 400.65 264.877 396.375C264.375 390.729 266.486 386.159 271.153 382.789C278.032 377.821 290.103 375.771 307.037 376.698C308.461 376.776 309.71 377.423 310.282 378.378C310.855 379.333 310.654 380.44 309.766 381.256C306.714 384.048 305.104 387.406 305.104 390.967C305.104 395.895 307.85 397.647 316.402 398.18C318.398 398.304 319.931 399.521 319.931 400.983V401.19C319.929 402.741 318.203 404 316.073 404V404ZM299.488 382.107C288.704 382.107 280.854 383.699 276.578 386.786C273.525 388.989 272.217 392.007 272.573 396.01C272.689 397.314 273.871 398.376 275.206 398.376H299.967C298.374 396.576 297.388 394.176 297.388 390.967C297.388 387.857 298.291 384.861 300.034 382.11C299.853 382.107 299.671 382.107 299.488 382.107V382.107Z" fill="black"/>
<path d="M360.446 397.25C357.132 397.25 353.819 397.076 350.597 396.729C349.543 396.616 348.601 396.189 347.993 395.55C347.385 394.911 347.169 394.118 347.391 393.358C347.617 392.591 347.726 391.81 347.726 390.967C347.726 385.543 343.958 380.596 337.645 377.731C331.372 374.884 323.67 374.606 317.048 376.984C315.428 377.565 313.478 377.251 312.346 376.231C291.744 357.662 248.223 308.924 288.963 257.501C289.985 256.213 292.205 255.728 294.032 256.394C331.892 270.243 388.998 270.243 426.859 256.394C428.687 255.728 430.905 256.213 431.927 257.501C472.669 308.925 429.146 357.664 408.544 376.232C407.413 377.252 405.46 377.567 403.842 376.985C400.878 375.921 397.726 375.381 394.477 375.381C382.726 375.381 373.166 382.373 373.166 390.968C373.166 391.811 373.275 392.593 373.5 393.359C373.724 394.118 373.507 394.912 372.899 395.551C372.29 396.19 371.347 396.617 370.293 396.73C367.073 397.076 363.758 397.25 360.446 397.25ZM355.429 391.474C358.749 391.675 362.136 391.676 365.462 391.474C365.456 391.307 365.453 391.137 365.453 390.966C365.453 379.27 378.474 369.754 394.477 369.754C397.873 369.754 401.186 370.184 404.359 371.033C424.225 352.564 461.23 308.717 426.993 262.588C388.327 275.6 332.563 275.599 293.897 262.588C259.662 308.716 296.666 352.564 316.533 371.033C324.853 368.811 334.065 369.479 341.719 372.953C350.308 376.852 355.439 383.585 355.439 390.965C355.439 391.137 355.436 391.306 355.429 391.474V391.474Z" fill="black"/>
<path d="M347.94 383.668C345.989 383.668 344.315 382.592 344.11 381.147C340.99 359.281 328.696 338.39 328.572 338.182C327.725 336.757 328.623 335.101 330.578 334.483C332.532 333.865 334.8 334.518 335.649 335.944C336.174 336.826 348.534 357.813 351.781 380.565C352.004 382.11 350.464 383.493 348.345 383.653C348.207 383.662 348.073 383.668 347.94 383.668V383.668Z" fill="black"/>
<path d="M372.951 383.668C372.817 383.668 372.683 383.663 372.547 383.652C370.429 383.491 368.89 382.109 369.11 380.564C372.357 357.812 384.718 336.826 385.242 335.943C386.091 334.518 388.361 333.864 390.314 334.482C392.269 335.099 393.166 336.755 392.32 338.181C392.196 338.389 379.902 359.28 376.781 381.146C376.576 382.592 374.903 383.668 372.951 383.668Z" fill="black"/>
<path d="M360.446 272.329C280.551 272.329 254.127 239.596 253.041 238.203C252.06 236.943 252.551 235.347 254.174 234.513L256.187 233.48C245.619 227.115 238.827 218.225 235.53 213.12C233.736 210.346 234.887 207.066 238.267 205.323C242.816 202.979 256.071 194.823 280.871 169.759C299.184 151.25 320.04 145.241 334.312 143.459C347.28 141.841 357.214 143.299 360.474 143.901C367.839 142.613 408.013 137.414 440.018 169.759C464.818 194.824 478.073 202.979 482.62 205.323H482.622C486.001 207.066 487.154 210.346 485.357 213.121C482.062 218.225 475.27 227.114 464.702 233.48L466.715 234.513C468.339 235.347 468.828 236.943 467.847 238.203C466.764 239.596 440.34 272.329 360.446 272.329V272.329ZM261.728 237.515C268.953 244.521 296.859 266.704 360.446 266.704C424.284 266.704 452.007 244.536 459.178 237.521L455.906 235.842C454.864 235.306 454.253 234.43 454.27 233.499C454.29 232.569 454.938 231.706 456.002 231.194C467.998 225.42 475.649 214.954 478.383 210.723C478.569 210.434 478.475 210.071 478.17 209.915C472.128 206.801 458.325 197.873 433.765 173.049C401.789 140.732 362.002 149.401 361.603 149.492C360.85 149.664 360.042 149.664 359.289 149.492C357.665 149.127 318.959 140.875 287.127 173.049C262.565 197.874 248.762 206.802 242.72 209.915C242.418 210.071 242.322 210.432 242.507 210.72C245.241 214.954 252.892 225.419 264.89 231.193C265.954 231.705 266.602 232.568 266.622 233.498C266.641 234.429 266.028 235.305 264.985 235.841L261.728 237.515Z" fill="black"/>
<path d="M443.242 180.501C442.068 180.501 440.91 180.112 440.154 179.376L437.65 176.929C436.384 175.678 435.097 174.395 433.765 173.05C424.765 163.955 414.327 157.254 402.744 153.134C401.511 152.696 400.692 151.814 400.589 150.818C400.487 149.821 401.117 148.859 402.244 148.291C414.151 142.297 436.151 130.56 449.716 119.302C454.183 115.594 458.579 115.792 460.808 116.242C466.517 117.395 470.895 122.464 472.82 130.149C476.695 145.626 469.755 167.03 445.514 179.959C444.829 180.324 444.032 180.501 443.242 180.501V180.501ZM411.755 150.298C422.242 154.85 431.728 161.378 440.02 169.758C441.334 171.087 442.605 172.352 443.856 173.589L443.975 173.707C465.762 160.535 467.693 140.985 465.232 131.159C463.648 124.832 460.488 122.014 458.749 121.663C457.626 121.436 456.235 122.414 455.508 123.016C443.197 133.234 424.44 143.712 411.755 150.298Z" fill="black"/>
<path d="M277.577 180.571C276.789 180.571 275.996 180.396 275.311 180.032C251.002 167.136 244.002 145.718 247.848 130.213C249.762 122.495 254.143 117.404 259.867 116.244C262.092 115.795 266.494 115.589 270.967 119.303C284.554 130.577 306.597 142.332 318.529 148.337C319.655 148.904 320.286 149.864 320.184 150.86C320.082 151.856 319.263 152.738 318.034 153.177C306.494 157.301 296.092 163.986 287.126 173.051C285.794 174.396 284.508 175.677 283.24 176.931L280.664 179.45C279.908 180.183 278.751 180.571 277.577 180.571V180.571ZM262.283 121.629C262.164 121.629 262.047 121.639 261.931 121.663C260.185 122.016 257.014 124.852 255.436 131.214C252.994 141.059 254.976 160.638 276.835 173.783L277.034 173.588C278.287 172.351 279.558 171.085 280.871 169.757C289.131 161.408 298.581 154.896 309.024 150.347C296.315 143.753 277.509 133.255 265.172 123.015C264.521 122.473 263.335 121.629 262.283 121.629V121.629Z" fill="black"/>
<path d="M391.253 208.189C389.129 208.189 387.405 206.936 387.397 205.386C387.386 203.02 388.64 200.792 390.925 199.114C393.211 197.435 396.257 196.507 399.503 196.499H399.543C406.221 196.499 411.664 200.454 411.688 205.328C411.695 206.882 409.974 208.145 407.844 208.15C407.84 208.15 407.836 208.15 407.831 208.15C405.707 208.15 403.983 206.897 403.975 205.346C403.967 203.567 401.979 202.124 399.542 202.124C399.537 202.124 399.532 202.124 399.526 202.124C398.341 202.127 397.232 202.466 396.398 203.078C395.563 203.69 395.105 204.504 395.11 205.368C395.118 206.921 393.396 208.185 391.266 208.189C391.263 208.189 391.258 208.189 391.253 208.189V208.189Z" fill="black"/>
<path d="M329.638 208.17C327.508 208.17 325.782 206.911 325.782 205.358C325.782 203.576 323.793 202.124 321.35 202.124C318.905 202.124 316.917 203.575 316.917 205.358C316.917 206.911 315.191 208.17 313.06 208.17C310.93 208.17 309.204 206.911 309.204 205.358C309.204 200.474 314.652 196.499 321.35 196.499C328.046 196.499 333.494 200.473 333.494 205.358C333.494 206.911 331.768 208.17 329.638 208.17Z" fill="black"/>
<path d="M346.386 246.22C342.486 246.22 338.637 245.268 335.437 243.413C333.771 242.447 333.493 240.677 334.82 239.461C336.146 238.246 338.569 238.043 340.24 239.011C343.297 240.784 347.246 241.097 350.796 239.848C354.425 238.572 356.591 236.066 356.591 233.144C356.591 231.59 358.317 230.331 360.447 230.331C362.578 230.331 364.304 231.59 364.304 233.144V233.838C364.304 234.039 364.274 234.235 364.219 234.424C363.622 238.952 359.878 242.899 354.148 244.915C351.658 245.79 349.009 246.22 346.386 246.22V246.22Z" fill="black"/>
<path d="M374.506 246.22C371.882 246.22 369.235 245.79 366.746 244.914C361.015 242.898 357.27 238.952 356.674 234.423C356.619 234.234 356.589 234.038 356.589 233.837V233.143C356.589 231.589 358.316 230.33 360.446 230.33C362.576 230.33 364.302 231.589 364.302 233.143C364.302 236.064 366.468 238.571 370.098 239.847C373.648 241.095 377.594 240.784 380.653 239.01C382.321 238.042 384.746 238.245 386.074 239.46C387.399 240.676 387.123 242.444 385.457 243.412C382.256 245.269 378.407 246.22 374.506 246.22Z" fill="black"/>
<path d="M486.979 357.044C479.942 357.044 472.678 355.929 465.407 353.665C463.798 353.165 462.854 351.937 463.105 350.675C464.612 343.098 461.877 335.21 454.979 327.23C454.425 326.59 454.248 325.815 454.49 325.078C454.729 324.342 455.366 323.708 456.256 323.318C464.014 319.921 472.308 311.839 467.767 292.632C463.907 276.301 467.051 259.227 476.394 245.784C487.041 230.466 504.362 220.907 526.487 218.139C530.218 217.67 533.871 218.796 536.026 221.072C538.189 223.358 538.335 226.26 536.407 228.65C528.862 237.995 518.722 257.456 535.566 282.795C549.059 303.092 543.782 329.354 523.021 345.242C512.832 353.036 500.316 357.044 486.979 357.044V357.044ZM471.079 349.26C494.18 355.493 509.951 347.088 517.435 341.361C535.759 327.34 540.569 303.217 528.623 285.249C510.211 257.552 521.432 236.112 529.759 225.795C530.325 225.093 529.89 224.494 529.677 224.269C529.467 224.047 528.858 223.547 527.789 223.683C502.997 226.785 489.896 238.798 483.272 248.328C474.664 260.713 471.784 276.513 475.367 291.675C480.083 311.614 472.149 321.579 463.406 326.55C469.312 334.167 471.887 341.785 471.079 349.26Z" fill="black"/>
<path d="M464.93 199.889C464.699 199.889 464.463 199.873 464.23 199.842C450.367 197.979 441.857 192.312 432.847 186.312C425.103 181.157 417.099 175.825 404.626 172.061C387.309 166.838 376.08 173.823 366.527 182.156C365.009 183.48 362.792 184.239 360.446 184.239C358.1 184.239 355.883 183.48 354.365 182.156C344.812 173.823 333.587 166.833 316.266 172.061C303.793 175.825 295.789 181.157 288.045 186.312C279.035 192.312 270.526 197.979 256.662 199.842C255.036 200.06 253.393 199.496 252.588 198.438C251.784 197.38 251.999 196.067 253.12 195.175C261.257 188.697 270.594 180.146 280.872 169.758C312.917 137.373 353.153 142.625 360.446 143.906C367.741 142.625 407.975 137.374 440.02 169.759C450.298 180.147 459.635 188.699 467.772 195.176C468.893 196.067 469.106 197.381 468.304 198.439C467.616 199.344 466.314 199.889 464.93 199.889V199.889ZM393.163 164.633C397.556 164.633 402.357 165.288 407.577 166.863C421.301 171.006 430.198 176.931 438.048 182.159C442.716 185.267 447.037 188.144 451.91 190.369C446.25 185.328 440.182 179.537 433.765 173.051C401.93 140.876 363.226 149.13 361.592 149.496C360.848 149.664 360.036 149.664 359.289 149.493C357.665 149.128 318.959 140.876 287.127 173.05C280.71 179.535 274.642 185.327 268.982 190.368C273.855 188.143 278.176 185.266 282.844 182.158C290.694 176.93 299.589 171.005 313.315 166.862C338.256 159.334 353.69 172.798 360.281 178.547C360.386 178.639 360.504 178.64 360.609 178.547C365.822 174.002 376.565 164.633 393.163 164.633V164.633Z" fill="black"/>
<path d="M277.574 180.575C276.787 180.575 275.994 180.401 275.308 180.037C265.027 174.583 257.333 167.445 252.441 158.821C252.207 158.405 252.11 157.954 252.162 157.506C253.112 149.438 256.037 143.048 258.322 139.109C259.407 137.239 261.657 135.931 264.341 135.605C267.137 135.267 269.975 136.018 271.93 137.614C275.499 140.527 285.524 148.236 301.451 156.853C302.386 157.36 302.96 158.146 303.008 158.995C303.055 159.845 302.576 160.663 301.701 161.224C296.483 164.572 291.579 168.551 287.125 173.051C285.794 174.397 284.508 175.678 283.24 176.931L280.658 179.453C279.903 180.187 278.746 180.575 277.574 180.575V180.575ZM259.935 157.301C263.781 163.811 269.454 169.343 276.835 173.786L277.036 173.59C278.288 172.352 279.559 171.087 280.872 169.758C284.676 165.915 288.795 162.419 293.157 159.327C278.793 151.237 269.622 144.17 266.181 141.361C265.963 141.183 265.749 141.138 265.604 141.155C265.562 141.16 265.505 141.167 265.426 141.301C263.424 144.754 260.876 150.293 259.935 157.301Z" fill="black"/>
<path d="M443.242 180.502C442.068 180.502 440.91 180.113 440.154 179.377L437.65 176.929C436.384 175.678 435.097 174.395 433.765 173.05C429.287 168.523 424.35 164.524 419.098 161.165C418.224 160.604 417.741 159.785 417.787 158.937C417.833 158.089 418.406 157.3 419.342 156.794C435.205 148.201 445.193 140.518 448.75 137.615C450.706 136.018 453.548 135.269 456.343 135.607C459.025 135.932 461.274 137.241 462.359 139.11C464.642 143.047 467.566 149.434 468.518 157.506C468.571 157.955 468.475 158.406 468.239 158.822C463.372 167.402 455.727 174.515 445.513 179.962C444.829 180.326 444.032 180.502 443.242 180.502V180.502ZM427.642 159.263C432.04 162.37 436.19 165.889 440.018 169.759C441.332 171.088 442.603 172.354 443.854 173.59L443.973 173.708C451.294 169.278 456.924 163.771 460.747 157.302C459.804 150.29 457.258 144.753 455.254 141.301C455.177 141.167 455.12 141.161 455.078 141.156C455.033 141.151 454.782 141.133 454.501 141.362C451.075 144.159 441.943 151.199 427.642 159.263V159.263Z" fill="black"/>
<path d="M360.446 235.921C353.521 235.921 347.001 229.702 347.001 224.882C347.001 218.399 356.768 218.399 360.446 218.399C364.123 218.399 373.891 218.399 373.891 224.882C373.891 229.702 367.37 235.921 360.446 235.921ZM360.446 224.024C355.956 224.024 354.964 224.422 354.746 224.594C354.751 224.596 354.714 224.694 354.714 224.882C354.714 226.957 358.249 230.296 360.446 230.296C362.642 230.296 366.178 226.957 366.178 224.882C366.178 224.694 366.143 224.596 366.129 224.575C365.928 224.422 364.936 224.024 360.446 224.024V224.024Z" fill="black"/>
<path d="M360.446 258.058C352.807 258.058 346.531 252.089 345.182 243.543C344.952 242.087 346.298 240.744 348.271 240.462C352.278 239.888 356.589 237.354 356.589 233.144C356.589 231.59 358.316 230.331 360.446 230.331C362.576 230.331 364.302 231.59 364.302 233.144C364.302 237.354 368.614 239.888 372.621 240.462C374.594 240.744 375.939 242.085 375.709 243.543C374.361 252.089 368.085 258.058 360.446 258.058ZM353.373 245.183C354.779 249.716 357.913 252.433 360.446 252.433C362.979 252.433 366.113 249.715 367.518 245.183C364.692 244.32 362.28 242.975 360.446 241.293C358.612 242.975 356.199 244.32 353.373 245.183Z" fill="black"/>
<path d="M443.395 255.213C442.201 255.213 441.022 254.809 440.269 254.05C427.417 241.107 406.821 223.767 381.69 214.666C367.449 209.509 366.355 199.152 371.365 191.714C377.602 182.45 393.387 175.847 410.361 181.863C423.041 186.357 444.457 197.037 474.479 222.396C475.682 223.413 475.731 224.908 474.596 225.966C471.475 228.877 468.16 231.392 464.702 233.479L466.716 234.513C468.342 235.348 468.831 236.948 467.844 238.208C467.582 238.543 461.242 246.508 445.641 254.685C444.962 255.042 444.175 255.213 443.395 255.213V255.213ZM397.33 185.227C388.822 185.227 381.664 189.182 378.287 194.194C374.895 199.231 374.909 205.93 385.12 209.628C410.173 218.701 430.73 235.299 444.195 248.45C451.967 244.031 456.755 239.905 459.183 237.524L455.906 235.842C454.863 235.306 454.253 234.43 454.27 233.499C454.29 232.569 454.938 231.706 456.002 231.194C459.647 229.439 463.173 227.122 466.514 224.288C438.48 200.939 418.723 191.08 406.989 186.922C403.669 185.747 400.412 185.227 397.33 185.227Z" fill="black"/>
<path d="M276.519 254.7C275.702 254.7 274.898 254.51 274.233 254.152C259.36 246.161 253.296 238.526 253.046 238.205C252.062 236.945 252.553 235.347 254.175 234.513L256.19 233.479C252.458 231.227 248.895 228.475 245.554 225.261C244.453 224.201 244.519 222.723 245.714 221.719C275.331 196.828 296.495 186.307 309.033 181.864C326.007 175.849 341.789 182.452 348.028 191.715C353.039 199.153 351.945 209.51 337.704 214.667C312.823 223.677 292.393 240.783 279.635 253.545C279.029 254.15 278.12 254.554 277.105 254.668C276.911 254.689 276.715 254.7 276.519 254.7ZM261.715 237.52C264.058 239.813 268.577 243.72 275.756 247.914C289.122 234.952 309.497 218.601 334.274 209.628C344.485 205.93 344.499 199.231 341.107 194.193C336.51 187.367 324.889 182.499 312.406 186.922C300.806 191.033 281.293 200.74 253.645 223.649C257.205 226.779 260.979 229.311 264.891 231.194C265.956 231.706 266.604 232.569 266.624 233.5C266.642 234.43 266.03 235.306 264.987 235.842L261.715 237.52Z" fill="black"/>
<path d="M495.469 356.451C494.456 356.451 493.47 356.159 492.739 355.625C491.826 354.958 491.431 354.002 491.689 353.078C497.547 332.043 479.109 322.945 467.597 319.396C466.63 319.097 465.873 318.525 465.498 317.809C465.123 317.095 465.163 316.298 465.61 315.607C467.961 311.966 469.109 307.414 469.016 302.076C469.004 301.325 469.405 300.6 470.13 300.065C470.855 299.529 471.842 299.229 472.873 299.229H472.874C488.221 299.233 524.818 302.602 533.155 333.698C533.333 334.357 533.182 335.04 532.726 335.624C524.011 346.842 511.048 354.219 496.23 356.396C495.977 356.433 495.722 356.451 495.469 356.451V356.451ZM474.057 315.382C485.245 319.484 503.228 329.351 500.2 349.764C510.141 347.159 518.884 341.606 525.299 333.754C518.387 310.484 493.398 305.528 476.666 304.924C476.424 308.776 475.55 312.277 474.057 315.382Z" fill="black"/>
<path d="M534.53 290.996C533.814 290.996 533.098 290.852 532.466 290.56C505.828 278.247 479.495 285.6 472.058 288.146C470.92 288.537 469.59 288.497 468.493 288.037C467.401 287.578 466.686 286.759 466.578 285.843C465.58 277.473 466.334 269.211 468.817 261.288C469.107 260.363 470.017 259.607 471.239 259.278C500.311 251.433 518.447 256.73 524.898 259.371C525.981 259.815 526.706 260.613 526.842 261.514C527.906 268.534 530.84 275.694 535.56 282.795C536.475 284.168 537.34 285.649 538.138 287.193C538.722 288.325 538.247 289.602 536.961 290.365C536.259 290.783 535.397 290.996 534.53 290.996V290.996ZM500.097 278.012C508.211 278.012 517.239 279.036 526.546 281.937C522.945 275.843 520.559 269.706 519.433 263.636C512.965 261.38 498.519 258.316 475.893 264.036C474.293 269.703 473.636 275.552 473.934 281.488C479.956 279.861 489.199 278.012 500.097 278.012V278.012Z" fill="black"/>
<path d="M524.128 246.921C523.001 246.921 521.91 246.56 521.167 245.91C518.063 243.197 508.896 237.038 490.793 238.487C489.207 238.608 487.675 238.014 486.945 236.979C486.213 235.944 486.432 234.687 487.493 233.819C497.831 225.359 510.951 220.084 526.484 218.14C530.217 217.667 533.865 218.796 536.023 221.072C538.186 223.358 538.332 226.261 536.404 228.65C532.387 233.623 529.529 239.018 527.903 244.683C527.601 245.738 526.496 246.575 525.062 246.836C524.753 246.894 524.439 246.921 524.128 246.921V246.921ZM500.1 232.756C510.273 233.342 517.417 236.118 522.015 238.746C523.868 234.218 526.461 229.879 529.759 225.797C530.325 225.095 529.89 224.494 529.677 224.269C529.467 224.047 528.858 223.549 527.789 223.683C517.252 225.001 507.975 228.044 500.1 232.756V232.756Z" fill="black"/>
<path d="M445.684 404H404.82C402.69 404 400.964 402.741 400.964 401.187V400.98C400.964 399.52 402.497 398.302 404.492 398.178C413.045 397.646 415.789 395.893 415.789 390.965C415.789 387.404 414.177 384.047 411.128 381.254C410.239 380.438 410.039 379.331 410.611 378.376C411.182 377.421 412.433 376.775 413.857 376.696C430.792 375.767 442.861 377.819 449.741 382.787C454.407 386.157 456.52 390.728 456.016 396.373C455.633 400.65 451.097 404 445.684 404V404ZM404.82 400.98H404.836H404.82ZM420.924 398.375H445.684C447.02 398.375 448.201 397.314 448.317 396.009C448.673 392.006 447.365 388.989 444.313 386.785C440.038 383.698 432.187 382.106 421.403 382.106C421.221 382.106 421.039 382.106 420.857 382.107C422.6 384.859 423.502 387.855 423.502 390.965C423.502 394.175 422.516 396.575 420.924 398.375V398.375Z" fill="black"/>
<path d="M347.078 357.176C345.023 357.176 343.143 356.386 342.049 355.063C341.989 354.991 341.933 354.917 341.882 354.841C340.951 353.441 339.351 351.615 337.5 349.501C330.828 341.883 319.947 329.458 318.581 311.84L318.263 311.905C317.191 312.127 316.035 311.998 315.097 311.552C314.164 311.105 313.54 310.385 313.39 309.577C313.293 309.052 311.201 297.562 312.848 285.753H310.855C309.794 285.753 308.776 285.434 308.05 284.869C307.32 284.305 306.944 283.547 307.007 282.773C307.028 282.503 307.564 276.086 309.285 268.361C309.452 267.609 310.03 266.939 310.888 266.505C311.744 266.069 312.81 265.906 313.831 266.052C334.961 269.062 359.199 269.061 380.322 266.052C381.344 265.907 382.41 266.069 383.266 266.505C384.123 266.94 384.702 267.609 384.868 268.361C386.588 276.085 387.125 282.503 387.147 282.773C387.21 283.547 386.834 284.304 386.104 284.869C385.376 285.433 384.359 285.753 383.298 285.753H381.305C382.953 297.562 380.862 309.051 380.764 309.577C380.612 310.385 379.989 311.105 379.056 311.552C378.12 311.998 376.967 312.127 375.891 311.905L375.575 311.84C374.208 329.463 363.333 341.875 356.664 349.488C354.81 351.605 353.208 353.434 352.271 354.84C352.22 354.916 352.165 354.99 352.105 355.062C351.013 356.386 349.132 357.176 347.078 357.176V357.176ZM322.295 305.337C323.125 305.337 323.942 305.533 324.621 305.907C325.585 306.439 326.151 307.268 326.151 308.15C326.151 326.094 336.894 338.358 344 346.474C345.134 347.768 346.18 348.961 347.078 350.063C347.978 348.957 349.029 347.76 350.167 346.459C357.269 338.352 368.004 326.098 368.004 308.149C368.004 307.267 368.57 306.438 369.534 305.905C370.498 305.372 371.747 305.202 372.911 305.443L373.586 305.583C374.151 300.882 374.833 291.808 373.125 283.35C372.963 282.541 373.288 281.721 374.023 281.103C374.755 280.484 375.82 280.128 376.941 280.128H379.122C378.874 278.135 378.467 275.296 377.845 272.099C358.077 274.54 336.081 274.54 316.305 272.099C315.684 275.296 315.276 278.135 315.028 280.128H317.209C318.331 280.128 319.395 280.484 320.128 281.103C320.862 281.721 321.189 282.541 321.026 283.35C319.319 291.808 320 300.882 320.564 305.583L321.24 305.443C321.59 305.372 321.943 305.337 322.295 305.337V305.337Z" fill="black"/>
<path d="M668.463 451.489V487.129C668.463 515.868 638.154 539.164 600.749 539.164H97.6166C60.2112 539.164 29.9018 515.868 29.9018 487.129V451.489L107.72 445.884L209.495 438.562L349.183 428.507L488.87 438.562L668.463 451.489Z" fill="#1D4781"/>
<path d="M668.463 451.49V470.886H107.72V438.561H488.87L668.463 451.49Z" fill="#61A2F9"/>
<path d="M218.172 539.164H97.6095C60.2182 539.164 29.9089 515.868 29.9089 487.129V451.489L349.19 428.507L409.471 432.849L150.472 451.489V487.129C150.472 515.867 180.781 539.164 218.172 539.164Z" fill="#1D4781"/>
<path d="M594.4 83H103.965C58.6444 83 21.7744 111.339 21.7744 146.172V416.325C21.7744 425.271 31.2114 432.525 42.8518 432.525C54.4921 432.525 63.9292 425.271 63.9292 416.325V279.362H141.997V434.282H184.152V279.362H266.069V434.282H308.224V279.362H390.142V434.282H432.296V279.362H514.213V434.282H556.368V279.362H634.436V416.324C634.436 425.27 643.873 432.524 655.513 432.524C667.154 432.524 676.591 425.27 676.591 416.324V146.171C676.591 111.338 639.721 83 594.4 83V83ZM63.9292 246.962V146.171C63.9292 129.203 81.89 115.399 103.965 115.399H141.997V246.961H63.9292V246.962ZM184.152 246.962V115.4H266.069V246.962H184.152ZM308.224 246.962V115.4H390.142V246.962H308.224ZM432.296 246.962V115.4H514.213V246.962H432.296ZM556.368 246.962V115.4H594.4C616.475 115.4 634.436 129.205 634.436 146.172V246.963H556.368V246.962Z" fill="#7DF7FF"/>
<path d="M248.36 83H103.965C58.6487 83 21.7773 111.339 21.7773 146.169V416.32C21.7773 425.263 31.2059 432.52 42.8547 432.52C54.4894 432.52 63.9321 425.263 63.9321 416.32V279.355H142.003V434.281H184.158V432.348C173.97 431.203 166.158 424.453 166.158 416.32V146.169C166.158 111.339 203.029 83 248.36 83V83ZM142.003 246.955H63.9321V146.169C63.9321 129.202 81.8901 115.4 103.965 115.4H142.003V246.955Z" fill="#7DF7FF"/>
<path d="M668.459 405.524H29.906C13.3898 405.524 0 415.815 0 428.509C0 441.204 13.3898 451.495 29.906 451.495H668.46C684.977 451.495 698.367 441.204 698.367 428.509C698.365 415.815 684.975 405.524 668.459 405.524Z" fill="#1D4781"/>
<path d="M109.532 444.763C114.942 448.921 122.418 451.492 130.68 451.492H29.9018C21.6395 451.492 14.164 448.921 8.75415 444.763C3.34428 440.605 0 434.86 0 428.509C0 415.819 13.3912 405.527 29.9018 405.527H130.68C114.155 405.527 100.778 415.819 100.778 428.509C100.778 434.86 104.122 440.605 109.532 444.763Z" fill="#1D4781"/>
<path d="M566.912 246.95H644.969C650.789 246.95 655.508 243.323 655.508 238.85V138.064C655.508 116.625 632.821 99.184 604.936 99.184H566.912C561.092 99.184 556.374 102.811 556.374 107.284V137.794C556.374 142.267 561.092 145.894 566.912 145.894C572.732 145.894 577.451 142.267 577.451 137.794V115.384H604.936C621.199 115.384 634.43 125.558 634.43 138.064V230.75H577.451V170.194C577.451 165.721 572.732 162.094 566.912 162.094C561.092 162.094 556.374 165.721 556.374 170.194V238.85C556.374 243.323 561.092 246.95 566.912 246.95Z" fill="black"/>
<path d="M442.835 246.951H524.752C530.572 246.951 535.291 243.324 535.291 238.851V107.287C535.291 102.814 530.572 99.1872 524.752 99.1872H442.835C437.015 99.1872 432.296 102.814 432.296 107.287V238.85C432.296 243.324 437.015 246.951 442.835 246.951ZM453.374 115.387H514.213V230.75H453.374V115.387Z" fill="black"/>
<path d="M318.762 246.951H400.68C406.5 246.951 411.219 243.324 411.219 238.851V107.287C411.219 102.814 406.5 99.1872 400.68 99.1872H318.762C312.942 99.1872 308.223 102.814 308.223 107.287V238.85C308.223 243.324 312.942 246.951 318.762 246.951ZM329.301 115.387H390.142V230.75H329.301V115.387Z" fill="black"/>
<path d="M74.4679 246.951H152.536C158.356 246.951 163.075 243.324 163.075 238.851V107.287C163.075 102.814 158.356 99.1872 152.536 99.1872H114.504C86.6169 99.1872 63.9292 116.625 63.9292 138.06V238.851C63.9292 243.324 68.6477 246.951 74.4679 246.951ZM85.0066 138.06C85.0066 125.559 98.239 115.387 114.504 115.387H141.997V230.75H85.0066V138.06Z" fill="black"/>
<path d="M194.691 246.951H276.607C282.428 246.951 287.146 243.324 287.146 238.851V107.287C287.146 102.814 282.428 99.1872 276.607 99.1872H194.691C188.871 99.1872 184.152 102.814 184.152 107.287V238.85C184.152 243.324 188.871 246.951 194.691 246.951ZM205.229 115.387H266.069V230.75H205.229V115.387Z" fill="black"/>
<path d="M719.443 420.398C719.443 412.106 715.241 404.302 707.601 398.416C704.634 396.135 701.281 394.258 697.663 392.809V138.062C697.663 98.7638 656.066 66.7926 604.936 66.7926H473.06V42.7151C473.06 19.1614 448.128 0 417.485 0H301.958C271.313 0 246.382 19.1624 246.382 42.7151V66.7915H114.507C63.377 66.7915 21.78 98.7628 21.78 138.061V392.836C8.85111 398.029 0 408.43 0 420.398C0 428.689 4.20143 436.492 11.8413 442.38C16.928 446.288 23.136 449.02 29.906 450.413V479.014C29.906 512.174 65.0056 539.151 108.15 539.151H611.294C654.438 539.151 689.538 512.174 689.538 479.014V450.403C706.743 446.832 719.443 434.736 719.443 420.398ZM267.46 42.7151C267.46 28.094 282.936 16.2 301.958 16.2H417.485C436.508 16.2 451.983 28.0951 451.983 42.7151V66.7915H267.46V42.7151ZM114.507 82.9915H604.936C644.444 82.9915 676.585 107.695 676.585 138.061V389.315H655.508V271.246C655.508 266.773 650.789 263.146 644.969 263.146H566.912C561.092 263.146 556.374 266.773 556.374 271.246V389.315H535.296V271.246C535.296 266.773 530.578 263.146 524.757 263.146H442.837C437.016 263.146 432.298 266.773 432.298 271.246V389.315H411.22V271.246C411.22 266.773 406.502 263.146 400.682 263.146H318.761C312.941 263.146 308.222 266.773 308.222 271.246V389.315H287.145V271.246C287.145 266.773 282.426 263.146 276.606 263.146H194.685C188.865 263.146 184.146 266.773 184.146 271.246V389.315H163.069V271.246C163.069 266.773 158.35 263.146 152.53 263.146H74.4736C68.6534 263.146 63.9348 266.773 63.9348 271.246V389.315H42.8574V138.062C42.8574 107.695 74.9991 82.9915 114.507 82.9915ZM634.43 389.315H577.451V279.346H634.43V389.315ZM514.219 389.315H453.375V279.346H514.219V389.315ZM390.143 389.315H329.3V279.346H390.143V389.315ZM266.067 389.315H205.224V279.346H266.067V389.315ZM141.992 389.315H85.0123V279.346H141.992V389.315ZM679.002 435.28H213.613C207.792 435.28 203.074 438.907 203.074 443.38C203.074 447.853 207.792 451.48 213.613 451.48H668.459V479.015C668.459 503.242 642.815 522.952 611.293 522.952H108.148C76.6263 522.952 50.9821 503.242 50.9821 479.015V451.48H171.513C177.333 451.48 182.051 447.853 182.051 443.38C182.051 438.907 177.333 435.28 171.513 435.28H40.4405C35.2639 435.28 30.3993 433.732 26.7557 430.932C23.0938 428.111 21.0774 424.37 21.0774 420.398C21.0774 412.192 29.7641 405.515 40.4405 405.515H679.002C684.179 405.515 689.043 407.062 692.688 409.863C696.349 412.684 698.365 416.425 698.365 420.396C698.365 428.604 689.678 435.28 679.002 435.28Z" fill="black"/>
</svg>
