<svg width="60" height="60" viewBox="0 0 200 600" fill="none" xmlns="http://www.w3.org/2000/svg">
<!-- <rect width="2169" height="1112" fill="#E5E5E5"/> -->
<g clip-path="url(#clip0)">
<path d="M198.024 377.966C198.024 373.628 199.489 369.649 201.924 366.503C189.423 365.538 173.97 367.466 174.965 383.192C175.142 386.003 177.143 388.189 179.562 388.189H208.536V387.982C202.343 387.437 198.024 385.43 198.024 377.966V377.966Z" fill="#52565B"/>
<path d="M278.076 366.503C280.511 369.649 281.976 373.628 281.976 377.966C281.976 385.43 277.658 387.437 271.464 387.98V388.188H300.438C302.856 388.188 304.857 386.002 305.036 383.191C306.03 367.466 290.577 365.538 278.076 366.503V366.503Z" fill="#52565B"/>
<path d="M181.244 164.76C181.601 164.27 181.952 163.792 182.318 163.285C182.564 162.946 182.808 162.606 183.057 162.259C183.95 161.015 184.857 159.742 185.795 158.404C193.219 147.821 201.214 141.436 208.725 137.651C199.909 131.395 184.278 119.603 174.501 108.159C163.043 94.747 151.104 142.208 181.244 164.76V164.76Z" fill="#A8AEB2"/>
<path d="M281.976 377.966C281.976 388.128 273.986 388.188 264.131 388.188C254.277 388.188 246.287 388.128 246.287 377.966C246.287 367.804 254.277 359.566 264.131 359.566C273.986 359.566 281.976 367.804 281.976 377.966Z" fill="#52565B"/>
<path d="M233.714 377.966C233.714 388.128 225.724 388.188 215.87 388.188C206.015 388.188 198.025 388.128 198.025 377.966C198.025 367.804 206.015 359.566 215.87 359.566C225.724 359.566 233.714 367.804 233.714 377.966Z" fill="#52565B"/>
<path d="M299.187 299.929C296.864 319.254 288.79 336.17 281.134 348.42C281.127 348.43 281.121 348.44 281.114 348.451C278.294 352.96 275.196 357.373 271.979 361.462C274.358 362.667 276.439 364.39 278.077 366.506C283.705 366.072 289.929 366.222 294.985 367.958C306.125 359.972 333.321 335.012 299.187 299.929Z" fill="#A8AEB2"/>
<path d="M208.021 361.461C204.496 356.98 200.989 351.958 197.737 346.584C197.732 346.575 197.727 346.565 197.72 346.556C190.419 334.48 183.019 318.291 180.812 299.929C146.677 335.012 173.874 359.974 185.014 367.957C190.07 366.221 196.294 366.072 201.922 366.505C203.561 364.389 205.643 362.666 208.021 361.461V361.461Z" fill="#A8AEB2"/>
<path d="M191.684 245.908C163.595 295.908 193.919 343.536 208.021 361.461C219.884 355.451 233.714 364.385 233.714 377.966C233.714 379.083 233.602 380.059 233.417 380.946C237.598 381.581 242.144 381.621 246.582 380.946C246.397 380.059 246.285 379.083 246.285 377.966C246.285 367.804 254.274 359.566 264.129 359.566C266.95 359.566 269.607 360.259 271.978 361.461C286.081 343.536 316.405 295.908 288.316 245.908C260.792 260.106 219.25 260.128 191.684 245.908V245.908Z" fill="#A8AEB2"/>
<path d="M325.052 194.62C321.058 191.717 311.52 183.086 294.205 158.405C270.113 124.066 240 133.81 240 133.81C240 133.81 209.887 124.066 185.796 158.404C168.48 183.085 158.943 191.717 154.949 194.62C153.64 195.572 153.208 197.405 153.902 198.922C156.226 203.996 161.838 214.501 170.738 220.542L166.221 223.813C166.221 223.813 184.289 256.516 239.999 256.516C295.709 256.516 313.777 223.813 313.777 223.813L309.26 220.542C318.161 214.501 323.773 203.996 326.096 198.922C326.792 197.405 326.36 195.571 325.052 194.62V194.62Z" fill="#E3E4E5"/>
<path d="M294.204 158.405C295.142 159.742 296.049 161.016 296.942 162.26C297.191 162.608 297.436 162.947 297.681 163.286C298.029 163.768 298.362 164.222 298.704 164.689C328.723 142.108 316.798 94.7616 305.352 108.159C295.597 119.576 280.017 131.339 271.189 137.606C278.725 141.386 286.752 147.782 294.204 158.405V158.405Z" fill="#A8AEB2"/>
<path d="M361.707 271.022C349.282 244.662 356.615 224.345 362.408 214.223C364.176 211.135 361.627 207.304 358.193 207.911C326.461 213.511 313.616 248.284 318.79 279.154C322.346 300.367 315.156 309.138 309.342 312.729C315.126 322.167 316.541 330.673 315.495 338.079C352.131 354.162 377.977 305.536 361.707 271.022V271.022Z" fill="#A8AEB2"/>
<path d="M294.204 158.405C270.113 124.066 240 133.81 240 133.81C240 133.81 209.887 124.066 185.796 158.404C177.441 170.313 170.9 178.481 165.916 184.075C183.03 180.832 187.892 164.861 207.628 156.461C222.733 150.032 232.148 160.415 237.786 167.35C238.951 168.783 241.049 168.783 242.214 167.35C247.852 160.415 257.267 150.032 272.372 156.461C292.108 164.861 296.97 180.832 314.084 184.075C309.101 178.482 302.56 170.314 294.204 158.405V158.405Z" fill="#A8AEB2"/>
<path d="M181.243 164.762C181.6 164.271 181.953 163.793 182.318 163.286C182.564 162.947 182.808 162.607 183.057 162.26C183.95 161.016 184.858 159.743 185.795 158.405C189.287 153.427 192.906 149.401 196.541 146.112C187.028 138.854 179.601 131.556 175.199 126.488C173.671 124.728 171.01 125.009 170.106 127.205C168.52 131.061 166.581 137.131 165.944 144.746C168.895 152.079 173.782 159.182 181.243 164.762V164.762Z" fill="#E3E4E5"/>
<path d="M294.204 158.405C295.143 159.742 296.049 161.016 296.942 162.26C297.191 162.608 297.436 162.947 297.681 163.286C298.029 163.768 298.363 164.222 298.704 164.689C306.111 159.119 310.969 152.048 313.906 144.745C313.27 137.13 311.331 131.06 309.744 127.204C308.842 125.009 306.181 124.728 304.653 126.487C300.262 131.54 292.868 138.811 283.391 146.05C287.049 149.35 290.691 153.397 294.204 158.405V158.405Z" fill="#E3E4E5"/>
<path d="M246.799 211.881C246.799 215.289 243.313 220.108 240 220.108C236.687 220.108 233.201 215.289 233.201 211.881C233.201 208.473 236.687 208.211 240 208.211C243.313 208.211 246.799 208.473 246.799 211.881Z" fill="#52565B"/>
<path d="M240 220.144C240 225.452 236.27 229.339 231.894 230.222C232.661 237.08 235.995 242.246 240 242.246C244.005 242.246 247.339 237.08 248.106 230.222C243.73 229.339 240 225.451 240 220.144Z" fill="#FD605B"/>
<path d="M309.262 220.542C313.024 217.989 316.199 214.636 318.787 211.234C298.027 186.503 283.237 175.911 274.198 171.393C254.774 161.686 238.193 189.91 256.28 199.148C274.229 208.316 288.947 225.386 298.814 239.402C309.519 231.488 313.779 223.814 313.779 223.814L309.262 220.542Z" fill="#52565B"/>
<path d="M204.741 171.393C195.783 175.871 181.181 186.305 160.714 210.561C163.389 214.191 166.729 217.82 170.738 220.542L166.221 223.813C166.221 223.813 170.291 231.159 180.491 238.888C190.355 224.971 204.926 208.204 222.658 199.148C240.746 189.91 224.165 161.686 204.741 171.393V171.393Z" fill="#52565B"/>
<path d="M335.74 340.639C340.407 316.999 324.668 307.123 317.043 303.806C318.71 300.166 319.795 295.356 319.718 289.041C331.806 289.046 354.404 292.97 359.778 321.236C354.326 331.132 345.948 338.524 335.74 340.639Z" fill="#52565B"/>
<path d="M317.978 272.6C317.304 264.623 317.812 256.549 319.509 248.916C338.956 241.516 350.879 246.288 355.269 248.824C355.997 255.592 357.94 263.027 361.708 271.022C362.352 272.388 362.922 273.778 363.436 275.184C343.307 262.062 323.386 269.988 317.978 272.6V272.6Z" fill="#52565B"/>
<path d="M332.124 222.69C338.605 215.211 347.282 209.837 358.193 207.911C361.627 207.304 364.176 211.134 362.408 214.223C360.078 218.292 357.504 224.013 356.06 231.108C353.467 227.911 346.181 221.107 332.124 222.69Z" fill="#52565B"/>
<path d="M264.097 254.228C248.877 257.285 231.131 257.287 215.901 254.228C214.691 261.901 214.317 268.356 214.317 268.356H218.823C217.02 280.959 218.823 294.613 218.823 294.613L222.428 293.563C222.428 317.396 235.341 331.753 238.776 339.024C239.366 340.027 240.635 340.027 241.225 339.024C244.668 331.735 257.573 317.41 257.573 293.563L261.177 294.613C261.177 294.613 262.98 280.959 261.177 268.356H265.683C265.682 268.356 265.308 261.901 264.097 254.228V254.228Z" fill="#E3E4E5"/>
<path d="M264.13 391C254.485 391 243.551 391 243.551 377.966C243.551 366.27 252.783 356.754 264.13 356.754C275.478 356.754 284.709 366.269 284.709 377.966C284.71 391 273.777 391 264.13 391ZM264.13 362.379C255.798 362.379 249.02 369.371 249.02 377.966C249.02 384.767 252.937 385.375 264.13 385.375C275.324 385.375 279.24 384.767 279.24 377.966C279.242 369.371 272.464 362.379 264.13 362.379Z" fill="black"/>
<path d="M215.869 391C206.223 391 195.29 391 195.29 377.966C195.29 366.27 204.521 356.754 215.869 356.754C227.216 356.754 236.449 366.269 236.449 377.966C236.45 391 225.515 391 215.869 391ZM215.869 362.379C207.536 362.379 200.758 369.371 200.758 377.966C200.758 384.767 204.675 385.375 215.869 385.375C227.063 385.375 230.98 384.767 230.98 377.966C230.981 369.371 224.202 362.379 215.869 362.379Z" fill="black"/>
<path d="M294.984 370.768C294.693 370.768 294.401 370.721 294.119 370.624C290.116 369.25 284.787 368.807 278.28 369.31C277.372 369.374 276.501 368.985 275.936 368.257C274.557 366.476 272.771 364.998 270.769 363.984C270.023 363.606 269.486 362.9 269.308 362.065C269.13 361.23 269.33 360.357 269.853 359.692C273.024 355.66 276.038 351.366 278.813 346.929C285.582 336.098 294.124 319.12 296.473 299.585C296.601 298.518 297.309 297.619 298.297 297.271C299.285 296.92 300.378 297.181 301.12 297.94C313.695 310.865 319.516 323.867 318.421 336.585C316.986 353.279 304.099 364.852 296.546 370.264C296.083 370.596 295.536 370.768 294.984 370.768V370.768ZM283.19 363.486C287.494 363.486 291.276 363.946 294.493 364.863C301.343 359.735 311.797 349.769 312.974 336.088C313.807 326.405 309.794 316.322 301.035 306.057C298.411 320.692 292.503 335.426 283.432 349.94C281.108 353.657 278.635 357.259 276.05 360.698C277.214 361.552 278.292 362.528 279.258 363.604C280.613 363.526 281.925 363.486 283.19 363.486Z" fill="black"/>
<path d="M185.016 370.768C184.464 370.768 183.917 370.596 183.453 370.263C175.9 364.85 163.014 353.278 161.578 336.584C160.484 323.866 166.305 310.864 178.88 297.938C179.621 297.177 180.714 296.918 181.703 297.268C182.691 297.618 183.399 298.516 183.527 299.582C185.334 314.629 190.892 329.933 200.043 345.07C200.063 345.1 200.08 345.13 200.096 345.157C203.137 350.185 206.531 355.094 210.146 359.691C210.67 360.356 210.87 361.229 210.692 362.065C210.514 362.9 209.975 363.606 209.229 363.984C207.229 364.998 205.442 366.475 204.063 368.257C203.498 368.985 202.629 369.374 201.719 369.31C195.212 368.809 189.881 369.25 185.88 370.624C185.599 370.721 185.306 370.768 185.016 370.768V370.768ZM178.967 306.057C170.206 316.322 166.192 326.406 167.025 336.089C168.202 349.77 178.657 359.735 185.506 364.863C189.67 363.677 194.782 363.255 200.741 363.605C201.707 362.528 202.785 361.552 203.949 360.699C200.918 356.668 198.055 352.432 195.415 348.069C195.41 348.059 195.403 348.05 195.398 348.041C186.987 334.128 181.473 320.033 178.967 306.057Z" fill="black"/>
<path d="M208.537 391H179.562C175.724 391 172.507 387.65 172.237 383.375C171.88 377.729 173.378 373.159 176.686 369.789C181.564 364.821 190.123 362.771 202.13 363.698C203.14 363.776 204.025 364.423 204.431 365.378C204.837 366.333 204.695 367.44 204.065 368.256C201.901 371.048 200.76 374.406 200.76 377.967C200.76 382.895 202.706 384.647 208.77 385.18C210.185 385.304 211.273 386.521 211.273 387.983V388.19C211.272 389.741 210.048 391 208.537 391V391ZM196.777 369.107C189.131 369.107 183.565 370.699 180.533 373.786C178.368 375.989 177.441 379.007 177.693 383.01C177.775 384.314 178.613 385.376 179.56 385.376H197.117C195.988 383.576 195.289 381.176 195.289 377.967C195.289 374.857 195.928 371.861 197.164 369.11C197.036 369.107 196.907 369.107 196.777 369.107V369.107Z" fill="black"/>
<path d="M240 384.25C237.651 384.25 235.301 384.076 233.016 383.729C232.269 383.615 231.601 383.189 231.17 382.55C230.739 381.911 230.586 381.118 230.744 380.357C230.903 379.591 230.981 378.809 230.981 377.967C230.981 372.543 228.309 367.595 223.833 364.731C219.385 361.884 213.924 361.606 209.228 363.984C208.08 364.565 206.698 364.251 205.895 363.23C191.287 344.662 160.428 295.924 189.315 244.501C190.04 243.213 191.614 242.728 192.909 243.394C219.754 257.243 260.245 257.243 287.09 243.394C288.386 242.728 289.959 243.213 290.684 244.501C319.572 295.925 288.712 344.663 274.104 363.232C273.303 364.252 271.918 364.567 270.77 363.985C268.668 362.921 266.434 362.381 264.13 362.381C255.798 362.381 249.019 369.373 249.019 377.968C249.019 378.811 249.097 379.592 249.256 380.359C249.415 381.118 249.261 381.912 248.83 382.551C248.398 383.19 247.73 383.617 246.983 383.73C244.699 384.076 242.348 384.25 240 384.25ZM236.443 378.474C238.797 378.674 241.199 378.676 243.557 378.474C243.553 378.307 243.55 378.137 243.55 377.966C243.55 366.27 252.783 356.754 264.13 356.754C266.538 356.754 268.887 357.184 271.137 358.033C285.223 339.564 311.461 295.717 287.185 249.587C259.77 262.6 220.229 262.599 192.813 249.587C168.539 295.716 194.777 339.564 208.863 358.033C214.763 355.811 221.295 356.479 226.722 359.953C232.812 363.851 236.45 370.585 236.45 377.965C236.45 378.137 236.448 378.305 236.443 378.474V378.474Z" fill="black"/>
<path d="M231.133 370.668C229.749 370.668 228.563 369.592 228.417 368.147C226.205 346.281 217.487 325.39 217.4 325.182C216.799 323.756 217.436 322.1 218.822 321.483C220.208 320.865 221.815 321.518 222.418 322.944C222.79 323.826 231.554 344.813 233.856 367.565C234.014 369.11 232.922 370.493 231.42 370.653C231.322 370.662 231.227 370.668 231.133 370.668V370.668Z" fill="black"/>
<path d="M248.867 370.668C248.772 370.668 248.677 370.663 248.581 370.652C247.079 370.491 245.987 369.109 246.144 367.564C248.446 344.812 257.21 323.826 257.582 322.943C258.184 321.518 259.794 320.864 261.178 321.482C262.564 322.099 263.201 323.755 262.6 325.181C262.513 325.389 253.796 346.28 251.583 368.146C251.437 369.592 250.251 370.668 248.867 370.668Z" fill="black"/>
<path d="M240 259.329C183.35 259.329 164.614 226.596 163.844 225.203C163.149 223.943 163.497 222.347 164.647 221.513L166.075 220.48C158.581 214.115 153.765 205.225 151.428 200.12C150.156 197.346 150.972 194.066 153.368 192.323C156.594 189.979 165.992 181.823 183.577 156.759C196.562 138.25 211.35 132.241 221.47 130.459C230.665 128.841 237.709 130.299 240.02 130.901C245.242 129.613 273.728 124.414 296.421 156.759C314.005 181.824 323.404 189.979 326.628 192.323H326.629C329.026 194.066 329.843 197.346 328.569 200.121C326.232 205.225 321.417 214.114 313.923 220.48L315.351 221.513C316.502 222.347 316.849 223.943 316.153 225.203C315.386 226.596 296.65 259.329 240 259.329V259.329ZM170.003 224.515C175.126 231.521 194.913 253.704 240 253.704C285.265 253.704 304.922 231.536 310.007 224.521L307.687 222.842C306.947 222.306 306.514 221.43 306.526 220.499C306.54 219.569 307 218.706 307.755 218.194C316.261 212.42 321.686 201.954 323.624 197.723C323.756 197.434 323.689 197.071 323.473 196.915C319.189 193.801 309.402 184.873 291.987 160.049C269.315 127.732 241.104 136.401 240.82 136.492C240.287 136.664 239.713 136.664 239.18 136.492C238.028 136.127 210.584 127.875 188.013 160.049C170.597 184.874 160.81 193.802 156.526 196.915C156.312 197.071 156.244 197.432 156.375 197.72C158.313 201.954 163.738 212.419 172.245 218.193C173 218.705 173.46 219.568 173.474 220.498C173.487 221.429 173.053 222.305 172.313 222.841L170.003 224.515Z" fill="black"/>
<path d="M298.707 167.501C297.875 167.501 297.053 167.112 296.517 166.376L294.742 163.929C293.844 162.678 292.932 161.395 291.987 160.05C285.606 150.955 278.205 144.254 269.992 140.134C269.118 139.696 268.537 138.814 268.464 137.818C268.392 136.821 268.838 135.859 269.637 135.291C278.08 129.297 293.679 117.56 303.297 106.302C306.465 102.594 309.582 102.792 311.163 103.242C315.211 104.395 318.315 109.464 319.68 117.149C322.427 132.626 317.506 154.03 300.318 166.959C299.832 167.324 299.267 167.501 298.707 167.501V167.501ZM276.381 137.298C283.817 141.85 290.543 148.378 296.422 156.758C297.354 158.087 298.255 159.352 299.142 160.589L299.227 160.707C314.675 147.535 316.044 127.985 314.3 118.159C313.176 111.832 310.935 109.014 309.702 108.663C308.906 108.436 307.92 109.414 307.405 110.016C298.675 120.234 285.375 130.712 276.381 137.298Z" fill="black"/>
<path d="M181.242 167.571C180.683 167.571 180.121 167.396 179.635 167.032C162.398 154.136 157.435 132.718 160.162 117.213C161.519 109.495 164.625 104.404 168.684 103.244C170.261 102.795 173.383 102.589 176.555 106.303C186.189 117.577 201.818 129.332 210.278 135.337C211.077 135.904 211.524 136.864 211.452 137.86C211.38 138.856 210.799 139.738 209.927 140.177C201.745 144.301 194.37 150.986 188.012 160.051C187.068 161.396 186.156 162.677 185.257 163.931L183.43 166.45C182.894 167.183 182.074 167.571 181.242 167.571V167.571ZM170.397 108.629C170.313 108.629 170.23 108.639 170.148 108.663C168.91 109.016 166.661 111.852 165.542 118.214C163.811 128.059 165.216 147.638 180.716 160.783L180.857 160.588C181.745 159.351 182.646 158.085 183.577 156.757C189.434 148.408 196.134 141.896 203.539 137.347C194.527 130.753 181.193 120.255 172.446 110.015C171.984 109.473 171.143 108.629 170.397 108.629V108.629Z" fill="black"/>
<path d="M261.844 195.189C260.338 195.189 259.115 193.936 259.11 192.386C259.102 190.02 259.992 187.792 261.611 186.114C263.232 184.435 265.392 183.507 267.694 183.499H267.722C272.457 183.499 276.317 187.454 276.333 192.328C276.339 193.882 275.118 195.145 273.608 195.15C273.605 195.15 273.602 195.15 273.599 195.15C272.093 195.15 270.87 193.897 270.864 192.346C270.859 190.567 269.449 189.124 267.721 189.124C267.718 189.124 267.715 189.124 267.71 189.124C266.87 189.127 266.084 189.466 265.492 190.078C264.9 190.69 264.575 191.504 264.579 192.368C264.584 193.921 263.364 195.185 261.853 195.189C261.851 195.189 261.848 195.189 261.844 195.189V195.189Z" fill="black"/>
<path d="M218.156 195.17C216.645 195.17 215.421 193.911 215.421 192.358C215.421 190.576 214.011 189.124 212.279 189.124C210.545 189.124 209.135 190.574 209.135 192.358C209.135 193.911 207.911 195.17 206.401 195.17C204.891 195.17 203.667 193.911 203.667 192.358C203.667 187.474 207.53 183.499 212.279 183.499C217.027 183.499 220.89 187.473 220.89 192.358C220.89 193.911 219.666 195.17 218.156 195.17Z" fill="black"/>
<path d="M230.03 233.22C227.265 233.22 224.537 232.268 222.267 230.413C221.086 229.447 220.889 227.677 221.83 226.461C222.77 225.246 224.488 225.043 225.673 226.011C227.841 227.784 230.641 228.097 233.157 226.848C235.731 225.572 237.267 223.066 237.267 220.144C237.267 218.59 238.491 217.331 240.001 217.331C241.512 217.331 242.735 218.59 242.735 220.144V220.838C242.735 221.039 242.715 221.235 242.675 221.424C242.252 225.952 239.597 229.899 235.534 231.915C233.769 232.79 231.891 233.22 230.03 233.22V233.22Z" fill="black"/>
<path d="M249.97 233.22C248.109 233.22 246.232 232.79 244.467 231.914C240.404 229.898 237.748 225.952 237.326 221.423C237.286 221.234 237.266 221.038 237.266 220.837V220.143C237.266 218.589 238.49 217.33 240 217.33C241.51 217.33 242.734 218.589 242.734 220.143C242.734 223.064 244.27 225.571 246.844 226.847C249.361 228.095 252.159 227.784 254.328 226.01C255.51 225.042 257.23 225.245 258.172 226.46C259.111 227.676 258.915 229.444 257.734 230.412C255.465 232.269 252.736 233.22 249.97 233.22Z" fill="black"/>
<path d="M329.719 344.044C324.729 344.044 319.579 342.929 314.423 340.665C313.282 340.165 312.613 338.937 312.791 337.675C313.86 330.098 311.921 322.21 307.029 314.23C306.637 313.59 306.511 312.815 306.683 312.078C306.852 311.342 307.304 310.708 307.935 310.318C313.435 306.921 319.316 298.839 316.096 279.632C313.36 263.301 315.589 246.227 322.214 232.784C329.763 217.466 342.045 207.907 357.732 205.139C360.378 204.67 362.968 205.796 364.496 208.072C366.029 210.358 366.133 213.26 364.766 215.65C359.417 224.995 352.226 244.456 364.17 269.795C373.737 290.092 369.995 316.354 355.275 332.242C348.05 340.036 339.176 344.044 329.719 344.044V344.044ZM318.445 336.26C334.825 342.493 346.007 334.088 351.314 328.361C364.307 314.34 367.717 290.217 359.247 272.249C346.192 244.552 354.148 223.112 360.052 212.795C360.454 212.093 360.145 211.494 359.994 211.269C359.845 211.047 359.413 210.547 358.655 210.683C341.077 213.785 331.787 225.798 327.091 235.328C320.987 247.713 318.945 263.513 321.485 278.675C324.829 298.614 319.204 308.579 313.004 313.55C317.192 321.167 319.018 328.785 318.445 336.26Z" fill="black"/>
<path d="M314.085 186.889C313.921 186.889 313.754 186.873 313.589 186.842C303.759 184.979 297.725 179.312 291.336 173.312C285.846 168.157 280.17 162.825 271.326 159.061C259.048 153.838 251.085 160.823 244.312 169.156C243.235 170.48 241.664 171.239 240 171.239C238.336 171.239 236.765 170.48 235.688 169.156C228.915 160.823 220.956 153.833 208.674 159.061C199.83 162.825 194.154 168.157 188.664 173.312C182.275 179.312 176.242 184.979 166.411 186.842C165.259 187.06 164.094 186.496 163.523 185.438C162.953 184.38 163.105 183.067 163.9 182.175C169.67 175.697 176.29 167.146 183.578 156.758C206.299 124.373 234.829 129.625 240 130.906C245.172 129.625 273.701 124.374 296.422 156.759C303.71 167.147 310.33 175.699 316.1 182.176C316.895 183.067 317.046 184.381 316.477 185.439C315.989 186.344 315.066 186.889 314.085 186.889V186.889ZM263.198 151.633C266.313 151.633 269.717 152.288 273.418 153.863C283.15 158.006 289.458 163.931 295.024 169.159C298.334 172.267 301.398 175.144 304.853 177.369C300.84 172.328 296.537 166.537 291.987 160.051C269.414 127.876 241.971 136.13 240.813 136.496C240.286 136.664 239.709 136.664 239.18 136.493C238.028 136.128 210.584 127.876 188.013 160.05C183.463 166.535 179.16 172.327 175.147 177.368C178.602 175.143 181.666 172.266 184.976 169.158C190.542 163.93 196.849 158.005 206.582 153.862C224.266 146.334 235.209 159.798 239.883 165.547C239.957 165.639 240.042 165.64 240.116 165.547C243.812 161.002 251.43 151.633 263.198 151.633V151.633Z" fill="black"/>
<path d="M181.239 167.575C180.682 167.575 180.119 167.401 179.633 167.037C172.343 161.583 166.887 154.445 163.419 145.821C163.253 145.405 163.184 144.953 163.221 144.506C163.895 136.438 165.968 130.048 167.588 126.109C168.358 124.239 169.953 122.93 171.856 122.605C173.839 122.267 175.852 123.018 177.237 124.613C179.768 127.527 186.876 135.236 198.169 143.853C198.832 144.359 199.239 145.146 199.273 145.995C199.307 146.845 198.967 147.662 198.347 148.224C194.646 151.572 191.169 155.551 188.012 160.051C187.068 161.397 186.156 162.678 185.257 163.931L183.426 166.453C182.891 167.187 182.071 167.575 181.239 167.575V167.575ZM168.732 144.301C171.459 150.811 175.482 156.343 180.715 160.786L180.858 160.59C181.746 159.352 182.647 158.087 183.578 156.758C186.275 152.915 189.195 149.419 192.288 146.327C182.103 138.237 175.601 131.17 173.161 128.361C173.007 128.183 172.855 128.138 172.752 128.155C172.722 128.159 172.682 128.167 172.626 128.301C171.206 131.754 169.399 137.293 168.732 144.301Z" fill="black"/>
<path d="M298.707 167.502C297.875 167.502 297.053 167.113 296.517 166.377L294.742 163.929C293.844 162.678 292.932 161.395 291.987 160.05C288.812 155.523 285.312 151.523 281.588 148.165C280.968 147.604 280.625 146.785 280.658 145.937C280.691 145.088 281.097 144.3 281.761 143.794C293.009 135.201 300.091 127.518 302.613 124.615C304 123.018 306.014 122.269 307.996 122.606C309.898 122.932 311.493 124.241 312.262 126.11C313.881 130.047 315.954 136.434 316.629 144.506C316.666 144.955 316.599 145.406 316.431 145.822C312.981 154.402 307.56 161.515 300.317 166.962C299.833 167.326 299.267 167.502 298.707 167.502V167.502ZM287.646 146.263C290.764 149.37 293.706 152.889 296.421 156.759C297.353 158.088 298.254 159.353 299.141 160.59L299.226 160.708C304.416 156.278 308.409 150.771 311.119 144.302C310.451 137.29 308.645 131.753 307.224 128.301C307.169 128.167 307.129 128.161 307.099 128.156C307.068 128.15 306.889 128.132 306.69 128.362C304.261 131.159 297.786 138.199 287.646 146.263V146.263Z" fill="black"/>
<path d="M240 222.921C235.09 222.921 230.467 216.702 230.467 211.882C230.467 205.399 237.393 205.399 240 205.399C242.608 205.399 249.533 205.399 249.533 211.882C249.533 216.702 244.91 222.921 240 222.921ZM240 211.024C236.816 211.024 236.113 211.422 235.959 211.594C235.962 211.596 235.936 211.694 235.936 211.882C235.936 213.957 238.443 217.296 240 217.296C241.558 217.296 244.064 213.957 244.064 211.882C244.064 211.694 244.039 211.596 244.029 211.575C243.887 211.422 243.184 211.024 240 211.024V211.024Z" fill="black"/>
<path d="M240 245.058C234.584 245.058 230.133 239.089 229.177 230.543C229.014 229.087 229.968 227.744 231.367 227.462C234.209 226.888 237.266 224.354 237.266 220.144C237.266 218.59 238.49 217.331 240 217.331C241.51 217.331 242.734 218.59 242.734 220.144C242.734 224.354 245.791 226.888 248.633 227.462C250.032 227.744 250.986 229.085 250.823 230.543C249.867 239.089 245.416 245.058 240 245.058ZM234.985 232.183C235.982 236.716 238.204 239.433 240 239.433C241.796 239.433 244.018 236.715 245.015 232.183C243.011 231.32 241.3 229.975 240 228.293C238.7 229.975 236.989 231.32 234.985 232.183Z" fill="black"/>
<path d="M298.815 242.213C297.969 242.213 297.133 241.809 296.599 241.05C287.486 228.107 272.882 210.767 255.063 201.666C244.966 196.509 244.19 186.152 247.743 178.714C252.165 169.45 263.357 162.847 275.393 168.863C284.383 173.357 299.569 184.037 320.855 209.396C321.709 210.413 321.744 211.908 320.939 212.966C318.726 215.877 316.375 218.392 313.923 220.479L315.352 221.513C316.505 222.348 316.851 223.948 316.151 225.208C315.965 225.543 311.47 233.508 300.408 241.685C299.927 242.042 299.369 242.213 298.815 242.213V242.213ZM266.153 172.227C260.121 172.227 255.045 176.182 252.65 181.194C250.245 186.231 250.255 192.93 257.496 196.628C275.259 205.701 289.836 222.299 299.383 235.45C304.893 231.031 308.288 226.905 310.01 224.524L307.687 222.842C306.947 222.306 306.514 221.43 306.526 220.499C306.54 219.569 307 218.706 307.755 218.194C310.339 216.439 312.839 214.122 315.208 211.288C295.331 187.939 281.322 178.08 273.002 173.922C270.648 172.747 268.338 172.227 266.153 172.227Z" fill="black"/>
<path d="M180.491 241.7C179.912 241.7 179.342 241.51 178.87 241.152C168.324 233.161 164.025 225.526 163.848 225.205C163.15 223.945 163.498 222.347 164.648 221.513L166.077 220.479C163.431 218.227 160.904 215.475 158.535 212.261C157.754 211.201 157.801 209.723 158.649 208.718C179.649 183.828 194.655 173.307 203.545 168.864C215.581 162.849 226.771 169.451 231.195 178.715C234.748 186.153 233.972 196.51 223.875 201.667C206.233 210.677 191.747 227.783 182.701 240.545C182.271 241.15 181.627 241.554 180.907 241.668C180.769 241.689 180.63 241.7 180.491 241.7ZM169.995 224.52C171.656 226.813 174.86 230.72 179.95 234.914C189.427 221.952 203.875 205.601 221.442 196.628C228.683 192.93 228.693 186.231 226.288 181.193C223.028 174.367 214.788 169.499 205.937 173.922C197.712 178.033 183.876 187.739 164.272 210.649C166.796 213.779 169.473 216.311 172.247 218.194C173.001 218.706 173.461 219.569 173.475 220.499C173.488 221.43 173.054 222.306 172.314 222.842L169.995 224.52Z" fill="black"/>
<path d="M335.739 343.451C335.021 343.451 334.322 343.159 333.803 342.625C333.156 341.958 332.876 341.002 333.058 340.078C337.212 319.043 324.139 309.945 315.976 306.395C315.29 306.097 314.753 305.525 314.488 304.809C314.222 304.095 314.25 303.298 314.567 302.606C316.234 298.966 317.048 294.414 316.982 289.076C316.974 288.325 317.258 287.6 317.772 287.065C318.286 286.529 318.986 286.229 319.717 286.229H319.718C330.6 286.233 356.549 289.601 362.461 320.698C362.586 321.357 362.479 322.04 362.156 322.624C355.977 333.842 346.785 341.219 336.278 343.396C336.099 343.433 335.919 343.451 335.739 343.451V343.451ZM320.557 302.381C328.49 306.484 341.241 316.351 339.094 336.764C346.142 334.159 352.341 328.606 356.89 320.754C351.989 297.484 334.27 292.528 322.406 291.923C322.235 295.775 321.616 299.276 320.557 302.381Z" fill="black"/>
<path d="M363.435 277.996C362.928 277.996 362.42 277.852 361.972 277.559C343.084 265.247 324.412 272.6 319.139 275.146C318.332 275.537 317.389 275.497 316.612 275.037C315.837 274.578 315.33 273.759 315.253 272.843C314.546 264.473 315.08 256.211 316.841 248.288C317.047 247.363 317.692 246.607 318.559 246.278C339.172 238.433 352.032 243.73 356.606 246.371C357.374 246.815 357.888 247.613 357.984 248.514C358.739 255.534 360.819 262.694 364.166 269.795C364.814 271.168 365.428 272.649 365.993 274.193C366.408 275.325 366.071 276.602 365.159 277.365C364.661 277.783 364.05 277.996 363.435 277.996V277.996ZM339.02 265.012C344.774 265.012 351.175 266.036 357.774 268.937C355.221 262.843 353.529 256.706 352.731 250.636C348.144 248.38 337.901 245.316 321.858 251.036C320.724 256.703 320.258 262.552 320.469 268.487C324.739 266.861 331.293 265.012 339.02 265.012V265.012Z" fill="black"/>
<path d="M356.06 233.921C355.261 233.921 354.487 233.56 353.96 232.91C351.759 230.197 345.259 224.038 332.423 225.487C331.299 225.608 330.213 225.014 329.695 223.979C329.176 222.944 329.331 221.687 330.083 220.819C337.414 212.359 346.716 207.084 357.73 205.14C360.377 204.667 362.964 205.796 364.494 208.072C366.027 210.358 366.131 213.261 364.764 215.65C361.916 220.623 359.889 226.018 358.736 231.683C358.522 232.738 357.739 233.575 356.722 233.836C356.503 233.894 356.28 233.921 356.06 233.921V233.921ZM339.023 219.756C346.236 220.342 351.301 223.118 354.562 225.746C355.875 221.218 357.714 216.879 360.052 212.797C360.454 212.095 360.145 211.494 359.994 211.269C359.846 211.047 359.413 210.549 358.656 210.683C351.184 212.001 344.606 215.044 339.023 219.756V219.756Z" fill="black"/>
<path d="M240 342.59C238.543 342.59 237.21 341.8 236.434 340.477C236.392 340.405 236.352 340.331 236.316 340.255C235.656 338.855 234.521 337.029 233.209 334.915C228.478 327.297 220.763 314.872 219.794 297.254L219.569 297.319C218.809 297.541 217.989 297.412 217.324 296.966C216.663 296.519 216.22 295.799 216.114 294.991C216.045 294.466 214.562 282.976 215.73 271.167H214.317C213.564 271.167 212.842 270.848 212.327 270.283C211.81 269.719 211.543 268.961 211.588 268.187C211.603 267.917 211.983 261.5 213.203 253.775C213.321 253.023 213.731 252.353 214.34 251.918C214.947 251.483 215.702 251.32 216.426 251.466C231.409 254.476 248.595 254.474 263.573 251.466C264.297 251.321 265.052 251.483 265.659 251.918C266.268 252.354 266.678 253.023 266.796 253.775C268.015 261.499 268.396 267.917 268.411 268.187C268.456 268.961 268.189 269.718 267.672 270.283C267.156 270.847 266.435 271.167 265.682 271.167H264.269C265.437 282.976 263.955 294.465 263.885 294.991C263.778 295.799 263.336 296.519 262.675 296.966C262.011 297.412 261.194 297.541 260.43 297.319L260.206 297.254C259.237 314.877 251.526 327.289 246.798 334.902C245.483 337.019 244.347 338.848 243.683 340.253C243.647 340.33 243.607 340.404 243.565 340.476C242.79 341.8 241.457 342.59 240 342.59V342.59ZM222.428 290.751C223.016 290.751 223.596 290.947 224.077 291.32C224.761 291.853 225.162 292.682 225.162 293.564C225.162 311.507 232.779 323.772 237.818 331.888C238.622 333.182 239.363 334.375 240 335.477C240.639 334.371 241.384 333.174 242.191 331.873C247.226 323.765 254.838 311.512 254.838 293.563C254.838 292.681 255.239 291.851 255.923 291.319C256.606 290.786 257.492 290.616 258.317 290.857L258.796 290.996C259.196 286.296 259.68 277.222 258.469 268.764C258.354 267.955 258.585 267.135 259.106 266.516C259.625 265.898 260.38 265.542 261.175 265.542H262.722C262.546 263.549 262.257 260.71 261.816 257.513C247.8 259.954 232.203 259.954 218.181 257.513C217.74 260.71 217.451 263.549 217.275 265.542H218.822C219.617 265.542 220.372 265.898 220.891 266.516C221.412 267.135 221.644 267.955 221.528 268.764C220.318 277.222 220.8 286.296 221.201 290.996L221.68 290.857C221.928 290.786 222.178 290.751 222.428 290.751V290.751Z" fill="black"/>
<path d="M300.438 391H271.464C269.953 391 268.73 389.741 268.73 388.187V387.98C268.73 386.52 269.817 385.302 271.231 385.178C277.296 384.646 279.242 382.893 279.242 377.965C279.242 374.404 278.099 371.047 275.936 368.254C275.306 367.438 275.164 366.331 275.57 365.376C275.975 364.421 276.862 363.775 277.871 363.696C289.879 362.767 298.437 364.819 303.315 369.787C306.624 373.157 308.122 377.728 307.764 383.373C307.493 387.65 304.276 391 300.438 391V391ZM271.464 387.98H271.475H271.464ZM282.883 385.375H300.438C301.386 385.375 302.223 384.314 302.305 383.009C302.558 379.006 301.631 375.989 299.466 373.785C296.435 370.698 290.868 369.106 283.222 369.106C283.093 369.106 282.964 369.106 282.835 369.107C284.07 371.859 284.71 374.855 284.71 377.965C284.71 381.175 284.011 383.575 282.883 385.375V385.375Z" fill="black"/>
</g>
<path d="M481.45 440.242V475.882C481.45 504.621 459.959 527.917 433.436 527.917H76.6881C50.1656 527.917 28.6746 504.621 28.6746 475.882V440.242L83.8517 434.637L156.016 427.315L255.062 417.26L354.108 427.315L481.45 440.242Z" fill="#1D4781"/>
<path d="M481.45 440.242V459.639H83.8517V427.314H354.108L481.45 440.242Z" fill="#61A2F9"/>
<path d="M162.169 527.917H76.6831C50.1705 527.917 28.6796 504.621 28.6796 475.882V440.242L255.067 417.26L297.81 421.601L114.165 440.242V475.882C114.165 504.62 135.656 527.917 162.169 527.917Z" fill="#1D4781"/>
<path d="M428.935 71.7527H81.1895C49.0547 71.7527 22.9118 100.092 22.9118 134.925V405.077C22.9118 414.024 29.6032 421.277 37.8568 421.277C46.1105 421.277 52.8019 414.024 52.8019 405.077V268.115H108.156V423.035H138.046V268.115H196.13V423.035H226.02V268.115H284.104V423.035H313.995V268.115H372.078V423.035H401.968V268.115H457.323V405.076C457.323 414.023 464.014 421.276 472.268 421.276C480.521 421.276 487.213 414.023 487.213 405.076V134.924C487.213 100.091 461.07 71.7527 428.935 71.7527V71.7527ZM52.8019 235.715V134.924C52.8019 117.956 65.5371 104.152 81.1895 104.152H108.156V235.714H52.8019V235.715ZM138.046 235.715V104.153H196.13V235.715H138.046ZM226.02 235.715V104.153H284.104V235.715H226.02ZM313.995 235.715V104.153H372.078V235.715H313.995ZM401.968 235.715V104.153H428.935C444.587 104.153 457.323 117.957 457.323 134.925V235.716H401.968V235.715Z" fill="#7DF7FF"/>
<path d="M183.573 71.7527H81.1895C49.0576 71.7527 22.9138 100.092 22.9138 134.922V405.073C22.9138 414.016 29.5992 421.273 37.8588 421.273C46.1085 421.273 52.8039 414.016 52.8039 405.073V268.108H108.16V423.033H138.05V421.1C130.827 419.956 125.287 413.206 125.287 405.073V134.922C125.287 100.092 151.431 71.7527 183.573 71.7527V71.7527ZM108.16 235.708H52.8039V134.922C52.8039 117.955 65.537 104.153 81.1895 104.153H108.16V235.708Z" fill="#7DF7FF"/>
<path d="M481.447 394.276H28.6776C16.9666 394.276 7.47253 404.568 7.47253 417.262C7.47253 429.956 16.9666 440.248 28.6776 440.248H481.448C493.159 440.248 502.653 429.956 502.653 417.262C502.652 404.568 493.158 394.276 481.447 394.276Z" fill="#1D4781"/>
<path d="M85.137 433.516C88.9729 437.674 94.2734 440.244 100.132 440.244H28.6746C22.8161 440.244 17.5156 437.674 13.6797 433.516C9.84381 429.358 7.47253 423.612 7.47253 417.262C7.47253 404.572 16.9676 394.28 28.6746 394.28H100.132C88.4149 394.28 78.9298 404.572 78.9298 417.262C78.9298 423.612 81.3011 429.358 85.137 433.516Z" fill="#1D4781"/>
<path d="M401.972 250.95H457.319C461.446 250.95 464.791 247.323 464.791 242.85V142.064C464.791 120.625 448.705 103.184 428.933 103.184H401.972C397.845 103.184 394.5 106.811 394.5 111.284V141.794C394.5 146.267 397.845 149.894 401.972 149.894C406.099 149.894 409.445 146.267 409.445 141.794V119.384H428.933C440.465 119.384 449.846 129.558 449.846 142.064V234.75H409.445V174.194C409.445 169.721 406.099 166.094 401.972 166.094C397.845 166.094 394.5 169.721 394.5 174.194V242.85C394.5 247.323 397.845 250.95 401.972 250.95Z" fill="black"/>
<path d="M313.995 250.951H372.078C376.205 250.951 379.551 247.324 379.551 242.851V111.287C379.551 106.814 376.205 103.187 372.078 103.187H313.995C309.868 103.187 306.522 106.814 306.522 111.287V242.85C306.522 247.324 309.868 250.951 313.995 250.951ZM321.467 119.387H364.606V234.75H321.467V119.387Z" fill="black"/>
<path d="M226.02 250.951H284.104C288.231 250.951 291.577 247.324 291.577 242.851V111.287C291.577 106.814 288.231 103.187 284.104 103.187H226.02C221.893 103.187 218.548 106.814 218.548 111.287V242.85C218.548 247.324 221.893 250.951 226.02 250.951ZM233.493 119.387H276.632V234.75H233.493V119.387Z" fill="black"/>
<path d="M52.8019 250.951H108.156C112.283 250.951 115.629 247.324 115.629 242.851V111.287C115.629 106.814 112.283 103.187 108.156 103.187H81.1895C61.4162 103.187 45.3293 120.625 45.3293 142.06V242.851C45.3293 247.324 48.675 250.951 52.8019 250.951ZM60.2744 142.06C60.2744 129.559 69.6569 119.387 81.1895 119.387H100.684V234.75H60.2744V142.06Z" fill="black"/>
<path d="M138.046 250.951H196.13C200.257 250.951 203.602 247.324 203.602 242.851V111.287C203.602 106.814 200.257 103.187 196.13 103.187H138.046C133.92 103.187 130.574 106.814 130.574 111.287V242.85C130.574 247.324 133.92 250.951 138.046 250.951ZM145.519 119.387H188.657V234.75H145.519V119.387Z" fill="black"/>
<path d="M510.125 420.398C510.125 412.106 507.145 404.302 501.728 398.416C499.624 396.135 497.247 394.258 494.681 392.809V138.062C494.681 98.7638 465.187 66.7926 428.933 66.7926H335.426V42.7151C335.426 19.1614 317.748 0 296.02 0H214.105C192.376 0 174.699 19.1624 174.699 42.7151V66.7915H81.1915C44.9378 66.7915 15.4432 98.7628 15.4432 138.061V392.836C6.27593 398.029 0 408.43 0 420.398C0 428.689 2.97905 436.492 8.39613 442.38C12.0029 446.288 16.4047 449.02 21.205 450.413V479.014C21.205 512.174 46.0925 539.151 76.6841 539.151H433.441C464.033 539.151 488.92 512.174 488.92 479.014V450.403C501.12 446.832 510.125 434.736 510.125 420.398ZM189.644 42.7151C189.644 28.094 200.617 16.2 214.105 16.2H296.02C309.508 16.2 320.481 28.0951 320.481 42.7151V66.7915H189.644V42.7151ZM81.1915 82.9915H428.933C456.946 82.9915 479.736 107.695 479.736 138.061V389.315H464.791V271.246C464.791 266.773 461.446 263.146 457.319 263.146H401.972C397.845 263.146 394.5 266.773 394.5 271.246V389.315H379.555V271.246C379.555 266.773 376.209 263.146 372.082 263.146H313.996C309.869 263.146 306.523 266.773 306.523 271.246V389.315H291.578V271.246C291.578 266.773 288.232 263.146 284.105 263.146H226.019C221.892 263.146 218.547 266.773 218.547 271.246V389.315H203.601V271.246C203.601 266.773 200.256 263.146 196.129 263.146H138.042C133.916 263.146 130.57 266.773 130.57 271.246V389.315H115.625V271.246C115.625 266.773 112.279 263.146 108.152 263.146H52.8059C48.679 263.146 45.3333 266.773 45.3333 271.246V389.315H30.3883V138.062C30.3883 107.695 53.1785 82.9915 81.1915 82.9915ZM449.846 389.315H409.445V279.346H449.846V389.315ZM364.61 389.315H321.468V279.346H364.61V389.315ZM276.633 389.315H233.492V279.346H276.633V389.315ZM188.656 389.315H145.515V279.346H188.656V389.315ZM100.68 389.315H60.2784V279.346H100.68V389.315ZM481.45 435.28H151.463C147.336 435.28 143.991 438.907 143.991 443.38C143.991 447.853 147.336 451.48 151.463 451.48H473.974V479.015C473.974 503.242 455.791 522.952 433.44 522.952H76.6831C54.3322 522.952 36.1491 503.242 36.1491 479.015V451.48H121.612C125.739 451.48 129.084 447.853 129.084 443.38C129.084 438.907 125.739 435.28 121.612 435.28H28.6746C25.0041 435.28 21.5548 433.732 18.9713 430.932C16.3748 428.111 14.9451 424.37 14.9451 420.398C14.9451 412.192 21.1044 405.515 28.6746 405.515H481.45C485.12 405.515 488.57 407.062 491.154 409.863C493.75 412.684 495.179 416.425 495.179 420.396C495.179 428.604 489.02 435.28 481.45 435.28Z" fill="black"/>
<defs>
<clipPath id="clip0">
<!-- <rect width="280" height="288" fill="white" transform="translate(100 103)"/> -->
</clipPath>
</defs>
</svg>
