<svg width="60" height="60" viewBox="0 0 230 695" fill="none" xmlns="http://www.w3.org/2000/svg">

<path d="M273.246 389.966C273.246 385.628 275.312 381.649 278.747 378.503C261.116 377.538 239.322 379.466 240.725 395.192C240.975 398.003 243.797 400.189 247.208 400.189H288.071V399.982C279.338 399.437 273.246 397.43 273.246 389.966V389.966Z" fill="#52565B"/>
<path d="M386.145 378.503C389.58 381.649 391.646 385.628 391.646 389.966C391.646 397.43 385.556 399.437 376.82 399.98V400.188H417.684C421.093 400.188 423.916 398.002 424.167 395.191C425.569 379.466 403.776 377.538 386.145 378.503V378.503Z" fill="#52565B"/>
<path d="M249.58 176.76C250.085 176.27 250.58 175.792 251.095 175.285C251.442 174.946 251.786 174.606 252.138 174.259C253.396 173.015 254.677 171.742 255.999 170.404C266.47 159.821 277.746 153.436 288.338 149.651C275.904 143.395 253.859 131.603 240.07 120.159C223.911 106.747 207.074 154.208 249.58 176.76V176.76Z" fill="#A8AEB2"/>
<path d="M391.646 389.966C391.646 400.128 380.377 400.188 366.479 400.188C352.581 400.188 341.312 400.128 341.312 389.966C341.312 379.804 352.581 371.566 366.479 371.566C380.377 371.566 391.646 379.804 391.646 389.966Z" fill="#52565B"/>
<path d="M323.581 389.966C323.581 400.128 312.313 400.188 298.414 400.188C284.516 400.188 273.248 400.128 273.248 389.966C273.248 379.804 284.516 371.566 298.414 371.566C312.313 371.566 323.581 379.804 323.581 389.966Z" fill="#52565B"/>
<path d="M415.919 311.929C412.643 331.254 401.256 348.17 390.458 360.42C390.449 360.43 390.439 360.44 390.43 360.451C386.453 364.96 382.083 369.373 377.547 373.462C380.902 374.667 383.837 376.39 386.146 378.507C394.084 378.072 402.861 378.222 409.993 379.958C425.703 371.973 464.059 347.012 415.919 311.929Z" fill="#A8AEB2"/>
<path d="M287.345 373.461C282.373 368.98 277.428 363.958 272.842 358.584C272.834 358.575 272.826 358.565 272.817 358.556C262.521 346.48 252.084 330.291 248.971 311.929C200.83 347.012 239.187 371.974 254.897 379.957C262.029 378.221 270.806 378.072 278.744 378.505C281.054 376.389 283.991 374.666 287.345 373.461V373.461Z" fill="#A8AEB2"/>
<path d="M264.304 257.908C224.69 307.908 267.457 355.536 287.345 373.461C304.075 367.451 323.581 376.385 323.581 389.966C323.581 391.083 323.422 392.059 323.161 392.946C329.058 393.581 335.469 393.621 341.729 392.946C341.468 392.059 341.309 391.083 341.309 389.966C341.309 379.804 352.578 371.566 366.476 371.566C370.454 371.566 374.201 372.259 377.545 373.461C397.435 355.536 440.202 307.908 400.588 257.908C361.77 272.106 303.182 272.128 264.304 257.908V257.908Z" fill="#A8AEB2"/>
<path d="M452.397 206.62C446.764 203.718 433.313 195.087 408.893 170.405C374.915 136.066 332.446 145.81 332.446 145.81C332.446 145.81 289.977 136.066 256 170.404C231.579 195.085 218.129 203.718 212.496 206.62C210.65 207.572 210.04 209.406 211.02 210.922C214.298 215.996 222.213 226.501 234.764 232.542L228.393 235.813C228.393 235.813 253.875 268.516 332.444 268.516C411.014 268.516 436.495 235.813 436.495 235.813L430.125 232.542C442.678 226.501 450.593 215.996 453.869 210.922C454.852 209.406 454.242 207.571 452.397 206.62V206.62Z" fill="#E3E4E5"/>
<path d="M408.891 170.405C410.215 171.742 411.494 173.016 412.752 174.26C413.104 174.608 413.449 174.947 413.795 175.286C414.286 175.768 414.756 176.222 415.237 176.689C457.574 154.108 440.756 106.762 424.613 120.159C410.856 131.576 388.883 143.339 376.433 149.606C387.061 153.386 398.382 159.782 408.891 170.405V170.405Z" fill="#A8AEB2"/>
<path d="M504.093 283.022C486.569 256.662 496.91 236.345 505.081 226.223C507.574 223.135 503.98 219.304 499.136 219.911C454.384 225.511 436.268 260.284 443.566 291.154C448.581 312.367 438.44 321.138 430.24 324.729C438.399 334.167 440.393 342.673 438.918 350.079C490.588 366.162 527.038 317.536 504.093 283.022V283.022Z" fill="#A8AEB2"/>
<path d="M408.891 170.405C374.915 136.066 332.446 145.81 332.446 145.81C332.446 145.81 289.976 136.066 256 170.404C244.217 182.313 234.992 190.481 227.963 196.075C252.099 192.832 258.956 176.862 286.791 168.461C308.094 162.032 321.372 172.416 329.324 179.35C330.967 180.783 333.925 180.783 335.568 179.35C343.52 172.416 356.798 162.032 378.101 168.461C405.936 176.862 412.792 192.832 436.929 196.075C429.901 190.482 420.676 182.314 408.891 170.405V170.405Z" fill="#A8AEB2"/>
<path d="M249.579 176.762C250.083 176.271 250.58 175.793 251.095 175.286C251.442 174.947 251.786 174.607 252.138 174.26C253.397 173.016 254.677 171.743 255.999 170.405C260.924 165.427 266.028 161.401 271.154 158.112C257.737 150.854 247.263 143.556 241.055 138.488C238.9 136.728 235.147 137.01 233.873 139.206C231.636 143.061 228.901 149.131 228.003 156.746C232.165 164.079 239.057 171.182 249.579 176.762V176.762Z" fill="#E3E4E5"/>
<path d="M408.891 170.405C410.215 171.742 411.494 173.016 412.752 174.261C413.104 174.608 413.45 174.947 413.795 175.287C414.286 175.768 414.756 176.223 415.237 176.689C425.684 171.12 432.536 164.048 436.677 156.745C435.781 149.13 433.046 143.06 430.808 139.204C429.535 137.01 425.782 136.728 423.627 138.487C417.436 143.54 407.006 150.811 393.642 158.05C398.8 161.35 403.937 165.397 408.891 170.405V170.405Z" fill="#E3E4E5"/>
<path d="M342.034 223.881C342.034 227.289 337.118 232.108 332.446 232.108C327.774 232.108 322.857 227.289 322.857 223.881C322.857 220.473 327.774 220.211 332.446 220.211C337.118 220.211 342.034 220.473 342.034 223.881Z" fill="#52565B"/>
<path d="M332.446 232.144C332.446 237.452 327.186 241.339 321.014 242.222C322.095 249.08 326.797 254.246 332.446 254.246C338.095 254.246 342.796 249.08 343.878 242.222C337.706 241.339 332.446 237.451 332.446 232.144Z" fill="#FD605B"/>
<path d="M430.128 232.542C435.434 229.989 439.912 226.636 443.562 223.234C414.282 198.503 393.424 187.911 380.677 183.393C353.283 173.686 329.898 201.91 355.407 211.148C380.72 220.316 401.478 237.387 415.393 251.402C430.49 243.489 436.498 235.814 436.498 235.814L430.128 232.542Z" fill="#52565B"/>
<path d="M282.719 183.393C270.085 187.871 249.492 198.305 220.627 222.561C224.4 226.191 229.109 229.82 234.764 232.542L228.393 235.813C228.393 235.813 234.133 243.159 248.519 250.888C262.43 236.971 282.979 220.204 307.987 211.148C333.498 201.91 310.113 173.686 282.719 183.393V183.393Z" fill="#52565B"/>
<path d="M467.471 352.639C474.053 328.999 451.856 319.123 441.101 315.806C443.452 312.166 444.982 307.356 444.874 301.041C461.923 301.046 493.793 304.97 501.372 333.237C493.684 343.132 481.868 350.524 467.471 352.639Z" fill="#52565B"/>
<path d="M442.42 284.601C441.47 276.623 442.186 268.549 444.58 260.916C472.006 253.516 488.821 258.288 495.013 260.824C496.039 267.592 498.78 275.027 504.094 283.022C505.003 284.388 505.806 285.778 506.531 287.184C478.142 274.062 450.048 281.988 442.42 284.601V284.601Z" fill="#52565B"/>
<path d="M462.371 234.69C471.511 227.211 483.748 221.837 499.136 219.911C503.98 219.304 507.574 223.134 505.081 226.223C501.796 230.292 498.164 236.013 496.128 243.108C492.471 239.911 482.196 233.107 462.371 234.69Z" fill="#52565B"/>
<path d="M366.431 266.228C344.965 269.285 319.937 269.287 298.459 266.228C296.751 273.901 296.224 280.356 296.224 280.356H302.579C300.037 292.959 302.579 306.613 302.579 306.613L307.663 305.563C307.663 329.396 325.875 343.753 330.72 351.024C331.551 352.027 333.342 352.027 334.173 351.024C339.029 343.735 357.23 329.41 357.23 305.563L362.313 306.613C362.313 306.613 364.855 292.959 362.313 280.356H368.668C368.666 280.356 368.139 273.901 366.431 266.228V266.228Z" fill="#E3E4E5"/>
<path d="M366.478 403C352.874 403 337.455 403 337.455 389.966C337.455 378.27 350.474 368.754 366.478 368.754C382.481 368.754 395.501 378.269 395.501 389.966C395.502 403 380.083 403 366.478 403ZM366.478 374.379C354.726 374.379 345.167 381.371 345.167 389.966C345.167 396.767 350.691 397.375 366.478 397.375C382.264 397.375 387.788 396.767 387.788 389.966C387.789 381.371 378.23 374.379 366.478 374.379Z" fill="black"/>
<path d="M298.413 403C284.809 403 269.39 403 269.39 389.966C269.39 378.27 282.409 368.754 298.413 368.754C314.417 368.754 327.437 378.269 327.437 389.966C327.439 403 312.018 403 298.413 403ZM298.413 374.379C286.662 374.379 277.102 381.371 277.102 389.966C277.102 396.767 282.626 397.375 298.413 397.375C314.201 397.375 319.724 396.767 319.724 389.966C319.726 381.371 310.165 374.379 298.413 374.379Z" fill="black"/>
<path d="M409.991 382.768C409.581 382.768 409.169 382.721 408.771 382.624C403.125 381.25 395.61 380.807 386.433 381.31C385.153 381.374 383.924 380.985 383.128 380.257C381.183 378.476 378.664 376.998 375.841 375.984C374.789 375.606 374.031 374.9 373.78 374.065C373.529 373.23 373.811 372.357 374.548 371.692C379.02 367.66 383.271 363.366 387.185 358.929C396.731 348.098 408.779 331.12 412.091 311.585C412.271 310.518 413.271 309.619 414.664 309.271C416.057 308.92 417.599 309.181 418.645 309.94C436.38 322.865 444.589 335.867 443.045 348.585C441.021 365.279 422.847 376.852 412.194 382.264C411.541 382.596 410.77 382.768 409.991 382.768V382.768ZM393.358 375.486C399.428 375.486 404.762 375.946 409.299 376.863C418.96 371.735 433.703 361.769 435.363 348.088C436.538 338.405 430.879 328.322 418.525 318.057C414.824 332.692 406.493 347.426 393.699 361.94C390.421 365.657 386.933 369.259 383.288 372.698C384.93 373.552 386.45 374.528 387.813 375.604C389.724 375.526 391.573 375.486 393.358 375.486Z" fill="black"/>
<path d="M254.9 382.768C254.121 382.768 253.35 382.596 252.696 382.263C242.043 376.85 223.871 365.278 221.845 348.584C220.303 335.866 228.512 322.864 246.247 309.938C247.291 309.177 248.834 308.918 250.228 309.268C251.621 309.618 252.621 310.516 252.801 311.582C255.349 326.629 263.187 341.933 276.094 357.07C276.121 357.1 276.146 357.13 276.168 357.157C280.457 362.185 285.244 367.094 290.342 371.691C291.081 372.356 291.363 373.229 291.112 374.065C290.86 374.9 290.101 375.606 289.049 375.984C286.228 376.998 283.708 378.475 281.762 380.257C280.966 380.985 279.74 381.374 278.457 381.31C269.28 380.809 261.762 381.25 256.119 382.624C255.723 382.721 255.309 382.768 254.9 382.768V382.768ZM246.369 318.057C234.013 328.322 228.352 338.406 229.527 348.089C231.187 361.77 245.932 371.735 255.592 376.863C261.464 375.677 268.674 375.255 277.078 375.605C278.44 374.528 279.961 373.552 281.602 372.699C277.328 368.668 273.289 364.432 269.567 360.069C269.559 360.059 269.55 360.05 269.542 360.041C257.68 346.128 249.904 332.033 246.369 318.057Z" fill="black"/>
<path d="M288.073 403H247.208C241.795 403 237.258 399.65 236.877 395.375C236.375 389.729 238.486 385.159 243.153 381.789C250.032 376.821 262.103 374.771 279.037 375.698C280.461 375.776 281.71 376.423 282.282 377.378C282.855 378.333 282.654 379.44 281.766 380.256C278.714 383.048 277.104 386.406 277.104 389.967C277.104 394.895 279.85 396.647 288.402 397.18C290.398 397.304 291.931 398.521 291.931 399.983V400.19C291.929 401.741 290.203 403 288.073 403V403ZM271.488 381.107C260.704 381.107 252.854 382.699 248.578 385.786C245.525 387.989 244.217 391.007 244.573 395.01C244.689 396.314 245.871 397.376 247.206 397.376H271.967C270.374 395.576 269.388 393.176 269.388 389.967C269.388 386.857 270.291 383.861 272.034 381.11C271.853 381.107 271.671 381.107 271.488 381.107V381.107Z" fill="black"/>
<path d="M332.446 396.25C329.132 396.25 325.819 396.076 322.597 395.729C321.543 395.616 320.601 395.189 319.993 394.55C319.385 393.911 319.169 393.118 319.391 392.357C319.617 391.591 319.726 390.809 319.726 389.967C319.726 384.543 315.958 379.595 309.646 376.731C303.372 373.884 295.67 373.606 289.048 375.984C287.428 376.565 285.478 376.251 284.346 375.231C263.744 356.662 220.223 307.924 260.963 256.501C261.985 255.213 264.205 254.728 266.032 255.394C303.892 269.243 360.998 269.243 398.859 255.394C400.687 254.728 402.905 255.213 403.927 256.501C444.669 307.925 401.146 356.664 380.544 375.232C379.413 376.252 377.46 376.567 375.842 375.985C372.878 374.921 369.726 374.381 366.478 374.381C354.726 374.381 345.166 381.373 345.166 389.968C345.166 390.811 345.275 391.593 345.5 392.359C345.724 393.118 345.507 393.912 344.899 394.551C344.29 395.19 343.347 395.617 342.294 395.73C339.073 396.076 335.758 396.25 332.446 396.25ZM327.43 390.474C330.749 390.675 334.137 390.676 337.462 390.474C337.456 390.307 337.453 390.137 337.453 389.966C337.453 378.27 350.474 368.754 366.478 368.754C369.873 368.754 373.186 369.184 376.359 370.033C396.226 351.564 433.23 307.717 398.993 261.588C360.327 274.6 304.563 274.599 265.897 261.588C231.662 307.716 268.666 351.564 288.533 370.033C296.853 367.811 306.065 368.479 313.719 371.953C322.308 375.852 327.439 382.585 327.439 389.965C327.439 390.137 327.436 390.306 327.43 390.474V390.474Z" fill="black"/>
<path d="M319.94 382.668C317.989 382.668 316.315 381.592 316.11 380.147C312.99 358.281 300.696 337.39 300.572 337.182C299.725 335.756 300.623 334.1 302.578 333.483C304.532 332.865 306.8 333.518 307.649 334.944C308.174 335.826 320.534 356.813 323.781 379.565C324.004 381.11 322.464 382.493 320.345 382.653C320.207 382.662 320.073 382.668 319.94 382.668V382.668Z" fill="black"/>
<path d="M344.951 382.668C344.817 382.668 344.683 382.663 344.547 382.652C342.429 382.491 340.89 381.109 341.11 379.564C344.357 356.812 356.718 335.826 357.242 334.943C358.091 333.518 360.361 332.864 362.314 333.482C364.269 334.099 365.166 335.755 364.32 337.181C364.196 337.389 351.902 358.28 348.781 380.146C348.576 381.592 346.903 382.668 344.951 382.668Z" fill="black"/>
<path d="M332.446 271.329C252.551 271.329 226.127 238.596 225.041 237.203C224.06 235.943 224.551 234.347 226.174 233.513L228.187 232.48C217.619 226.115 210.827 217.225 207.53 212.12C205.736 209.346 206.887 206.066 210.267 204.323C214.816 201.979 228.071 193.823 252.871 168.759C271.184 150.25 292.04 144.241 306.312 142.459C319.28 140.841 329.214 142.299 332.474 142.901C339.839 141.613 380.013 136.414 412.018 168.759C436.818 193.824 450.073 201.979 454.62 204.323H454.622C458.001 206.066 459.154 209.346 457.357 212.121C454.062 217.225 447.27 226.114 436.702 232.48L438.715 233.513C440.339 234.347 440.828 235.943 439.847 237.203C438.764 238.596 412.34 271.329 332.446 271.329V271.329ZM233.728 236.515C240.953 243.521 268.859 265.704 332.446 265.704C396.284 265.704 424.007 243.536 431.178 236.521L427.906 234.842C426.864 234.306 426.253 233.43 426.27 232.499C426.29 231.569 426.938 230.706 428.002 230.194C439.998 224.42 447.649 213.954 450.383 209.723C450.569 209.434 450.475 209.071 450.17 208.915C444.128 205.801 430.325 196.873 405.765 172.049C373.789 139.732 334.002 148.401 333.603 148.492C332.85 148.664 332.042 148.664 331.289 148.492C329.665 148.127 290.959 139.875 259.127 172.049C234.565 196.874 220.762 205.802 214.72 208.915C214.418 209.071 214.322 209.432 214.507 209.72C217.241 213.954 224.892 224.419 236.89 230.193C237.954 230.705 238.602 231.568 238.622 232.498C238.641 233.429 238.028 234.305 236.985 234.841L233.728 236.515Z" fill="black"/>
<path d="M415.242 179.501C414.068 179.501 412.91 179.112 412.154 178.376L409.65 175.929C408.384 174.678 407.097 173.395 405.765 172.05C396.765 162.955 386.327 156.254 374.744 152.134C373.511 151.696 372.692 150.814 372.589 149.818C372.487 148.821 373.117 147.859 374.244 147.291C386.151 141.297 408.151 129.56 421.716 118.302C426.183 114.594 430.579 114.792 432.808 115.242C438.517 116.395 442.895 121.464 444.82 129.149C448.695 144.626 441.755 166.03 417.514 178.959C416.829 179.324 416.032 179.501 415.242 179.501V179.501ZM383.755 149.298C394.242 153.85 403.728 160.378 412.02 168.758C413.334 170.087 414.605 171.352 415.856 172.589L415.975 172.707C437.762 159.535 439.693 139.985 437.232 130.159C435.648 123.832 432.488 121.014 430.749 120.663C429.626 120.436 428.235 121.414 427.508 122.016C415.197 132.234 396.44 142.712 383.755 149.298Z" fill="black"/>
<path d="M249.577 179.571C248.789 179.571 247.996 179.396 247.311 179.032C223.002 166.136 216.002 144.718 219.848 129.213C221.762 121.495 226.143 116.404 231.867 115.244C234.092 114.795 238.494 114.589 242.967 118.303C256.554 129.577 278.597 141.332 290.529 147.337C291.655 147.904 292.286 148.864 292.184 149.86C292.082 150.856 291.263 151.738 290.034 152.177C278.494 156.301 268.092 162.986 259.126 172.051C257.794 173.396 256.508 174.677 255.24 175.931L252.664 178.45C251.908 179.183 250.751 179.571 249.577 179.571V179.571ZM234.283 120.629C234.164 120.629 234.047 120.639 233.931 120.663C232.185 121.016 229.014 123.852 227.436 130.214C224.994 140.059 226.976 159.638 248.835 172.783L249.034 172.588C250.287 171.351 251.558 170.085 252.871 168.757C261.131 160.408 270.581 153.896 281.024 149.347C268.315 142.753 249.509 132.255 237.172 122.015C236.521 121.473 235.335 120.629 234.283 120.629V120.629Z" fill="black"/>
<path d="M363.253 207.189C361.129 207.189 359.405 205.936 359.397 204.386C359.386 202.02 360.64 199.792 362.925 198.114C365.211 196.435 368.257 195.507 371.503 195.499H371.543C378.221 195.499 383.664 199.454 383.688 204.328C383.695 205.882 381.974 207.145 379.844 207.15C379.84 207.15 379.836 207.15 379.831 207.15C377.707 207.15 375.983 205.897 375.975 204.346C375.967 202.567 373.979 201.124 371.542 201.124C371.537 201.124 371.532 201.124 371.526 201.124C370.341 201.127 369.232 201.466 368.398 202.078C367.563 202.69 367.105 203.504 367.11 204.368C367.118 205.921 365.396 207.185 363.266 207.189C363.263 207.189 363.258 207.189 363.253 207.189V207.189Z" fill="black"/>
<path d="M301.638 207.17C299.508 207.17 297.782 205.911 297.782 204.358C297.782 202.576 295.793 201.124 293.35 201.124C290.905 201.124 288.917 202.574 288.917 204.358C288.917 205.911 287.191 207.17 285.06 207.17C282.93 207.17 281.204 205.911 281.204 204.358C281.204 199.474 286.652 195.499 293.35 195.499C300.046 195.499 305.494 199.473 305.494 204.358C305.494 205.911 303.768 207.17 301.638 207.17Z" fill="black"/>
<path d="M318.386 245.22C314.486 245.22 310.637 244.268 307.437 242.413C305.771 241.447 305.493 239.677 306.82 238.461C308.146 237.246 310.569 237.043 312.24 238.011C315.297 239.784 319.246 240.097 322.796 238.848C326.425 237.572 328.591 235.066 328.591 232.144C328.591 230.59 330.317 229.331 332.447 229.331C334.578 229.331 336.304 230.59 336.304 232.144V232.838C336.304 233.04 336.274 233.235 336.219 233.424C335.622 237.952 331.878 241.899 326.148 243.915C323.658 244.79 321.009 245.22 318.386 245.22V245.22Z" fill="black"/>
<path d="M346.506 245.22C343.882 245.22 341.235 244.79 338.746 243.914C333.015 241.898 329.27 237.952 328.674 233.423C328.619 233.234 328.589 233.038 328.589 232.837V232.143C328.589 230.589 330.316 229.33 332.446 229.33C334.576 229.33 336.302 230.589 336.302 232.143C336.302 235.064 338.468 237.571 342.098 238.847C345.648 240.095 349.594 239.784 352.653 238.01C354.321 237.042 356.746 237.245 358.074 238.46C359.399 239.676 359.123 241.444 357.457 242.412C354.256 244.269 350.407 245.22 346.506 245.22Z" fill="black"/>
<path d="M458.979 356.044C451.942 356.044 444.678 354.929 437.407 352.665C435.798 352.165 434.854 350.937 435.105 349.675C436.612 342.098 433.877 334.21 426.979 326.23C426.425 325.59 426.248 324.815 426.49 324.078C426.729 323.342 427.366 322.708 428.256 322.318C436.014 318.921 444.308 310.839 439.767 291.632C435.907 275.301 439.051 258.227 448.394 244.784C459.041 229.466 476.362 219.907 498.487 217.139C502.218 216.67 505.871 217.796 508.026 220.072C510.189 222.358 510.335 225.26 508.407 227.65C500.862 236.995 490.722 256.456 507.566 281.795C521.059 302.092 515.782 328.354 495.021 344.242C484.832 352.036 472.316 356.044 458.979 356.044V356.044ZM443.079 348.26C466.18 354.493 481.951 346.088 489.435 340.361C507.759 326.34 512.569 302.217 500.623 284.249C482.211 256.552 493.432 235.112 501.759 224.795C502.325 224.093 501.89 223.494 501.677 223.269C501.467 223.047 500.858 222.547 499.789 222.683C474.997 225.785 461.896 237.798 455.272 247.328C446.664 259.713 443.784 275.513 447.367 290.675C452.083 310.614 444.149 320.579 435.406 325.55C441.312 333.167 443.887 340.785 443.079 348.26Z" fill="black"/>
<path d="M436.93 198.889C436.699 198.889 436.463 198.873 436.23 198.842C422.367 196.979 413.857 191.312 404.847 185.312C397.103 180.157 389.099 174.825 376.626 171.061C359.309 165.838 348.08 172.823 338.527 181.156C337.009 182.48 334.792 183.239 332.446 183.239C330.1 183.239 327.883 182.48 326.365 181.156C316.812 172.823 305.587 165.833 288.266 171.061C275.793 174.825 267.789 180.157 260.045 185.312C251.035 191.312 242.526 196.979 228.662 198.842C227.036 199.06 225.393 198.496 224.588 197.438C223.784 196.38 223.999 195.067 225.12 194.175C233.257 187.697 242.594 179.146 252.872 168.758C284.917 136.373 325.153 141.625 332.446 142.906C339.741 141.625 379.975 136.374 412.02 168.759C422.298 179.147 431.635 187.699 439.772 194.176C440.893 195.067 441.106 196.381 440.304 197.439C439.616 198.344 438.314 198.889 436.93 198.889V198.889ZM365.163 163.633C369.556 163.633 374.357 164.288 379.577 165.863C393.301 170.006 402.198 175.931 410.048 181.159C414.716 184.267 419.037 187.144 423.91 189.369C418.25 184.328 412.182 178.537 405.765 172.051C373.93 139.876 335.226 148.13 333.592 148.496C332.848 148.664 332.036 148.664 331.289 148.493C329.665 148.128 290.959 139.876 259.127 172.05C252.71 178.535 246.642 184.327 240.982 189.368C245.855 187.143 250.176 184.266 254.844 181.158C262.694 175.93 271.589 170.005 285.315 165.862C310.256 158.334 325.69 171.798 332.281 177.547C332.386 177.639 332.505 177.64 332.609 177.547C337.822 173.002 348.566 163.633 365.163 163.633V163.633Z" fill="black"/>
<path d="M249.574 179.575C248.787 179.575 247.995 179.401 247.308 179.037C237.027 173.583 229.333 166.445 224.441 157.821C224.207 157.405 224.11 156.954 224.162 156.506C225.112 148.438 228.037 142.048 230.322 138.109C231.408 136.239 233.657 134.931 236.341 134.605C239.137 134.267 241.975 135.018 243.93 136.614C247.499 139.527 257.524 147.236 273.451 155.853C274.386 156.36 274.96 157.146 275.008 157.995C275.055 158.845 274.576 159.663 273.701 160.224C268.483 163.572 263.579 167.551 259.126 172.051C257.794 173.397 256.508 174.678 255.24 175.931L252.658 178.453C251.903 179.187 250.746 179.575 249.574 179.575V179.575ZM231.935 156.301C235.781 162.811 241.454 168.343 248.835 172.786L249.036 172.59C250.288 171.352 251.559 170.087 252.872 168.758C256.676 164.915 260.795 161.419 265.157 158.327C250.793 150.237 241.622 143.17 238.181 140.361C237.963 140.183 237.749 140.138 237.604 140.155C237.562 140.16 237.505 140.167 237.427 140.301C235.424 143.754 232.876 149.293 231.935 156.301Z" fill="black"/>
<path d="M415.242 179.502C414.068 179.502 412.91 179.113 412.154 178.377L409.65 175.929C408.384 174.678 407.097 173.395 405.765 172.05C401.287 167.523 396.35 163.524 391.098 160.165C390.224 159.604 389.741 158.785 389.787 157.937C389.833 157.089 390.406 156.3 391.342 155.794C407.205 147.201 417.193 139.518 420.75 136.615C422.706 135.018 425.548 134.269 428.343 134.607C431.025 134.932 433.274 136.241 434.359 138.11C436.642 142.047 439.566 148.434 440.518 156.506C440.571 156.955 440.475 157.406 440.239 157.822C435.372 166.402 427.727 173.515 417.513 178.962C416.829 179.326 416.032 179.502 415.242 179.502V179.502ZM399.642 158.263C404.04 161.37 408.19 164.889 412.018 168.759C413.332 170.088 414.603 171.354 415.854 172.59L415.973 172.708C423.294 168.278 428.924 162.771 432.747 156.302C431.804 149.29 429.258 143.753 427.254 140.301C427.177 140.167 427.12 140.161 427.078 140.156C427.033 140.151 426.782 140.133 426.501 140.362C423.075 143.159 413.943 150.199 399.642 158.263V158.263Z" fill="black"/>
<path d="M332.446 234.921C325.521 234.921 319.001 228.702 319.001 223.882C319.001 217.399 328.768 217.399 332.446 217.399C336.123 217.399 345.891 217.399 345.891 223.882C345.891 228.702 339.37 234.921 332.446 234.921ZM332.446 223.024C327.956 223.024 326.964 223.422 326.746 223.594C326.751 223.596 326.714 223.694 326.714 223.882C326.714 225.957 330.249 229.296 332.446 229.296C334.643 229.296 338.178 225.957 338.178 223.882C338.178 223.694 338.143 223.596 338.129 223.575C337.928 223.422 336.936 223.024 332.446 223.024V223.024Z" fill="black"/>
<path d="M332.446 257.058C324.807 257.058 318.531 251.089 317.182 242.544C316.952 241.087 318.298 239.745 320.271 239.462C324.278 238.888 328.589 236.354 328.589 232.144C328.589 230.59 330.316 229.331 332.446 229.331C334.576 229.331 336.302 230.59 336.302 232.144C336.302 236.354 340.614 238.888 344.621 239.462C346.594 239.745 347.939 241.086 347.709 242.544C346.361 251.089 340.085 257.058 332.446 257.058ZM325.373 244.183C326.779 248.716 329.913 251.433 332.446 251.433C334.979 251.433 338.113 248.715 339.518 244.183C336.692 243.32 334.28 241.975 332.446 240.294C330.612 241.975 328.199 243.32 325.373 244.183Z" fill="black"/>
<path d="M415.395 254.213C414.201 254.213 413.022 253.809 412.269 253.05C399.417 240.107 378.821 222.767 353.69 213.666C339.449 208.509 338.355 198.152 343.365 190.714C349.602 181.45 365.387 174.847 382.361 180.863C395.041 185.358 416.457 196.037 446.479 221.396C447.682 222.413 447.731 223.908 446.596 224.967C443.475 227.877 440.16 230.392 436.702 232.479L438.716 233.513C440.342 234.348 440.831 235.948 439.844 237.208C439.582 237.543 433.242 245.508 417.641 253.686C416.962 254.042 416.175 254.213 415.395 254.213V254.213ZM369.33 184.227C360.822 184.227 353.664 188.182 350.287 193.194C346.895 198.231 346.909 204.93 357.12 208.628C382.173 217.701 402.73 234.3 416.195 247.45C423.967 243.031 428.755 238.905 431.183 236.524L427.906 234.842C426.863 234.306 426.253 233.43 426.27 232.5C426.29 231.569 426.938 230.706 428.002 230.194C431.647 228.439 435.173 226.122 438.514 223.288C410.48 199.939 390.723 190.08 378.989 185.922C375.669 184.747 372.412 184.227 369.33 184.227Z" fill="black"/>
<path d="M248.519 253.7C247.702 253.7 246.898 253.51 246.233 253.152C231.36 245.161 225.296 237.526 225.046 237.205C224.062 235.945 224.553 234.347 226.175 233.513L228.19 232.479C224.458 230.227 220.895 227.475 217.554 224.261C216.453 223.201 216.519 221.723 217.714 220.719C247.331 195.828 268.495 185.307 281.033 180.864C298.007 174.849 313.789 181.452 320.028 190.715C325.039 198.153 323.945 208.51 309.704 213.667C284.823 222.677 264.393 239.783 251.635 252.545C251.029 253.15 250.12 253.554 249.105 253.668C248.911 253.689 248.715 253.7 248.519 253.7ZM233.715 236.52C236.058 238.813 240.577 242.72 247.756 246.914C261.122 233.952 281.497 217.601 306.274 208.628C316.485 204.93 316.499 198.231 313.107 193.193C308.51 186.367 296.889 181.499 284.406 185.922C272.806 190.033 253.293 199.74 225.645 222.649C229.205 225.779 232.979 228.311 236.891 230.194C237.956 230.706 238.604 231.569 238.624 232.5C238.642 233.43 238.03 234.306 236.987 234.842L233.715 236.52Z" fill="black"/>
<path d="M467.469 355.451C466.456 355.451 465.47 355.159 464.739 354.625C463.826 353.958 463.431 353.002 463.689 352.078C469.547 331.043 451.109 321.945 439.597 318.396C438.63 318.097 437.873 317.525 437.498 316.809C437.123 316.095 437.163 315.298 437.61 314.606C439.961 310.966 441.109 306.414 441.016 301.076C441.004 300.325 441.405 299.6 442.13 299.065C442.855 298.529 443.842 298.229 444.873 298.229H444.874C460.221 298.233 496.818 301.602 505.155 332.698C505.333 333.357 505.182 334.04 504.726 334.624C496.011 345.842 483.048 353.219 468.23 355.396C467.977 355.433 467.722 355.451 467.469 355.451V355.451ZM446.057 314.382C457.245 318.484 475.228 328.351 472.2 348.764C482.141 346.159 490.884 340.606 497.299 332.754C490.387 309.484 465.398 304.528 448.666 303.924C448.424 307.776 447.55 311.277 446.057 314.382Z" fill="black"/>
<path d="M506.53 289.996C505.814 289.996 505.098 289.852 504.466 289.559C477.828 277.247 451.495 284.6 444.058 287.146C442.92 287.537 441.59 287.497 440.493 287.037C439.401 286.578 438.686 285.759 438.578 284.843C437.58 276.473 438.334 268.211 440.817 260.288C441.107 259.363 442.017 258.607 443.239 258.278C472.311 250.433 490.447 255.73 496.898 258.371C497.981 258.815 498.706 259.613 498.842 260.514C499.906 267.534 502.84 274.694 507.56 281.795C508.475 283.168 509.34 284.649 510.138 286.193C510.722 287.325 510.247 288.602 508.961 289.365C508.259 289.783 507.397 289.996 506.53 289.996V289.996ZM472.097 277.012C480.211 277.012 489.239 278.036 498.546 280.937C494.945 274.843 492.559 268.706 491.433 262.636C484.965 260.38 470.519 257.316 447.893 263.036C446.293 268.703 445.636 274.552 445.934 280.487C451.956 278.861 461.199 277.012 472.097 277.012V277.012Z" fill="black"/>
<path d="M496.128 245.921C495.001 245.921 493.91 245.56 493.167 244.91C490.063 242.197 480.896 236.038 462.793 237.487C461.207 237.608 459.675 237.014 458.945 235.979C458.213 234.944 458.432 233.687 459.493 232.819C469.831 224.359 482.951 219.084 498.484 217.14C502.217 216.667 505.865 217.796 508.023 220.072C510.186 222.358 510.332 225.261 508.404 227.65C504.387 232.623 501.529 238.018 499.903 243.683C499.601 244.738 498.496 245.575 497.062 245.836C496.753 245.894 496.439 245.921 496.128 245.921V245.921ZM472.1 231.756C482.273 232.342 489.417 235.118 494.015 237.746C495.868 233.218 498.461 228.879 501.759 224.797C502.325 224.095 501.89 223.494 501.677 223.269C501.467 223.047 500.858 222.549 499.789 222.683C489.252 224.001 479.975 227.044 472.1 231.756V231.756Z" fill="black"/>
<path d="M417.684 403H376.82C374.69 403 372.964 401.741 372.964 400.187V399.98C372.964 398.52 374.497 397.302 376.492 397.178C385.045 396.646 387.789 394.893 387.789 389.965C387.789 386.404 386.177 383.047 383.128 380.254C382.239 379.438 382.039 378.331 382.611 377.376C383.182 376.421 384.433 375.775 385.857 375.696C402.792 374.767 414.861 376.819 421.741 381.787C426.407 385.157 428.52 389.728 428.016 395.373C427.633 399.65 423.097 403 417.684 403V403ZM376.82 399.98H376.836H376.82ZM392.924 397.375H417.684C419.02 397.375 420.201 396.314 420.317 395.009C420.673 391.006 419.365 387.989 416.313 385.785C412.038 382.698 404.187 381.106 393.403 381.106C393.221 381.106 393.039 381.106 392.857 381.107C394.6 383.859 395.502 386.855 395.502 389.965C395.502 393.175 394.516 395.575 392.924 397.375V397.375Z" fill="black"/>
<path d="M203.078 315.176C201.023 315.176 199.143 314.386 198.049 313.063C197.989 312.991 197.933 312.917 197.882 312.841C196.951 311.441 195.351 309.615 193.5 307.501C186.828 299.883 175.947 287.458 174.581 269.84L174.263 269.905C173.191 270.127 172.035 269.998 171.097 269.552C170.164 269.105 169.54 268.385 169.39 267.577C169.293 267.052 167.201 255.562 168.848 243.753H166.855C165.794 243.753 164.776 243.434 164.05 242.869C163.32 242.305 162.944 241.547 163.007 240.773C163.028 240.503 163.564 234.086 165.285 226.361C165.452 225.609 166.03 224.939 166.888 224.505C167.744 224.069 168.81 223.906 169.831 224.052C190.961 227.062 215.199 227.061 236.322 224.052C237.344 223.907 238.41 224.069 239.266 224.505C240.123 224.94 240.702 225.609 240.868 226.361C242.588 234.085 243.125 240.503 243.147 240.773C243.21 241.547 242.834 242.304 242.104 242.869C241.376 243.433 240.359 243.753 239.298 243.753H237.305C238.953 255.562 236.862 267.051 236.764 267.577C236.612 268.385 235.989 269.105 235.056 269.552C234.12 269.998 232.967 270.127 231.891 269.905L231.575 269.84C230.208 287.463 219.333 299.875 212.664 307.488C210.81 309.605 209.208 311.434 208.271 312.84C208.22 312.916 208.165 312.99 208.105 313.062C207.013 314.386 205.132 315.176 203.078 315.176V315.176ZM178.295 263.337C179.125 263.337 179.942 263.533 180.621 263.907C181.585 264.439 182.151 265.268 182.151 266.15C182.151 284.094 192.894 296.358 200 304.474C201.134 305.768 202.18 306.961 203.078 308.063C203.978 306.957 205.029 305.76 206.167 304.459C213.269 296.352 224.004 284.098 224.004 266.149C224.004 265.267 224.57 264.438 225.534 263.905C226.498 263.372 227.747 263.202 228.911 263.443L229.586 263.583C230.151 258.882 230.833 249.808 229.125 241.35C228.963 240.541 229.288 239.721 230.023 239.103C230.755 238.484 231.82 238.128 232.941 238.128H235.122C234.874 236.135 234.467 233.296 233.845 230.099C214.077 232.54 192.081 232.54 172.305 230.099C171.684 233.296 171.276 236.135 171.028 238.128H173.209C174.331 238.128 175.395 238.484 176.128 239.103C176.862 239.721 177.189 240.541 177.026 241.35C175.319 249.808 176 258.882 176.564 263.583L177.24 263.443C177.59 263.372 177.943 263.337 178.295 263.337V263.337Z" fill="black"/>
<path d="M668.463 451.49V487.13C668.463 515.868 638.154 539.164 600.749 539.164H97.6165C60.2111 539.164 29.9018 515.868 29.9018 487.13V451.49L107.72 445.884L209.495 438.562L349.183 428.507L488.87 438.562L668.463 451.49Z" fill="#1D4781"/>
<path d="M668.463 451.49V470.886H107.72V438.561H488.87L668.463 451.49Z" fill="#61A2F9"/>
<path d="M218.172 539.164H97.6095C60.2182 539.164 29.9089 515.868 29.9089 487.13V451.49L349.19 428.507L409.471 432.849L150.472 451.49V487.13C150.472 515.867 180.781 539.164 218.172 539.164Z" fill="#1D4781"/>
<path d="M594.4 83H103.965C58.6444 83 21.7744 111.339 21.7744 146.172V416.325C21.7744 425.271 31.2114 432.525 42.8518 432.525C54.4921 432.525 63.9292 425.271 63.9292 416.325V279.362H141.997V434.282H184.152V279.362H266.069V434.282H308.223V279.362H390.142V434.282H432.296V279.362H514.213V434.282H556.368V279.362H634.436V416.324C634.436 425.27 643.873 432.524 655.513 432.524C667.154 432.524 676.591 425.27 676.591 416.324V146.171C676.591 111.338 639.721 83 594.4 83V83ZM63.9292 246.962V146.171C63.9292 129.203 81.89 115.399 103.965 115.399H141.997V246.961H63.9292V246.962ZM184.152 246.962V115.4H266.069V246.962H184.152ZM308.223 246.962V115.4H390.142V246.962H308.223ZM432.296 246.962V115.4H514.213V246.962H432.296ZM556.368 246.962V115.4H594.4C616.475 115.4 634.436 129.205 634.436 146.172V246.963H556.368V246.962Z" fill="#7DF7FF"/>
<path d="M248.36 83H103.965C58.6487 83 21.7773 111.339 21.7773 146.169V416.32C21.7773 425.263 31.2059 432.52 42.8547 432.52C54.4894 432.52 63.9321 425.263 63.9321 416.32V279.355H142.003V434.281H184.158V432.348C173.97 431.203 166.158 424.453 166.158 416.32V146.169C166.158 111.339 203.029 83 248.36 83V83ZM142.003 246.955H63.9321V146.169C63.9321 129.202 81.8901 115.4 103.965 115.4H142.003V246.955Z" fill="#7DF7FF"/>
<path d="M668.459 405.524H29.906C13.3898 405.524 0 415.815 0 428.509C0 441.204 13.3898 451.495 29.906 451.495H668.46C684.977 451.495 698.367 441.204 698.367 428.509C698.365 415.815 684.975 405.524 668.459 405.524Z" fill="#1D4781"/>
<path d="M109.532 444.763C114.942 448.921 122.418 451.492 130.68 451.492H29.9018C21.6395 451.492 14.164 448.921 8.75415 444.763C3.34428 440.605 0 434.86 0 428.509C0 415.819 13.3912 405.527 29.9018 405.527H130.68C114.155 405.527 100.778 415.819 100.778 428.509C100.778 434.86 104.122 440.605 109.532 444.763Z" fill="#1D4781"/>
<path d="M566.912 246.95H644.969C650.789 246.95 655.508 243.323 655.508 238.85V138.064C655.508 116.625 632.821 99.184 604.936 99.184H566.912C561.092 99.184 556.374 102.811 556.374 107.284V137.794C556.374 142.267 561.092 145.894 566.912 145.894C572.732 145.894 577.451 142.267 577.451 137.794V115.384H604.936C621.199 115.384 634.43 125.558 634.43 138.064V230.75H577.451V170.194C577.451 165.721 572.732 162.094 566.912 162.094C561.092 162.094 556.374 165.721 556.374 170.194V238.85C556.374 243.323 561.092 246.95 566.912 246.95Z" fill="black"/>
<path d="M442.835 246.951H524.752C530.572 246.951 535.291 243.324 535.291 238.851V107.287C535.291 102.814 530.572 99.1872 524.752 99.1872H442.835C437.015 99.1872 432.296 102.814 432.296 107.287V238.85C432.296 243.324 437.015 246.951 442.835 246.951ZM453.374 115.387H514.213V230.75H453.374V115.387Z" fill="black"/>
<path d="M318.762 246.951H400.68C406.5 246.951 411.219 243.324 411.219 238.851V107.287C411.219 102.814 406.5 99.1872 400.68 99.1872H318.762C312.942 99.1872 308.224 102.814 308.224 107.287V238.85C308.224 243.324 312.942 246.951 318.762 246.951ZM329.301 115.387H390.142V230.75H329.301V115.387Z" fill="black"/>
<path d="M74.4679 246.951H152.536C158.356 246.951 163.075 243.324 163.075 238.851V107.287C163.075 102.814 158.356 99.1872 152.536 99.1872H114.504C86.6169 99.1872 63.9292 116.625 63.9292 138.06V238.851C63.9292 243.324 68.6477 246.951 74.4679 246.951ZM85.0066 138.06C85.0066 125.559 98.239 115.387 114.504 115.387H141.997V230.75H85.0066V138.06Z" fill="black"/>
<path d="M194.691 246.951H276.607C282.428 246.951 287.146 243.324 287.146 238.851V107.287C287.146 102.814 282.428 99.1872 276.607 99.1872H194.691C188.871 99.1872 184.152 102.814 184.152 107.287V238.85C184.152 243.324 188.871 246.951 194.691 246.951ZM205.229 115.387H266.069V230.75H205.229V115.387Z" fill="black"/>
<path d="M719.443 420.398C719.443 412.106 715.241 404.302 707.601 398.416C704.634 396.135 701.281 394.258 697.663 392.809V138.062C697.663 98.7638 656.066 66.7926 604.936 66.7926H473.06V42.7151C473.06 19.1614 448.128 0 417.485 0H301.958C271.313 0 246.382 19.1624 246.382 42.7151V66.7915H114.507C63.377 66.7915 21.78 98.7628 21.78 138.061V392.836C8.85111 398.029 0 408.43 0 420.398C0 428.689 4.20143 436.492 11.8413 442.38C16.928 446.288 23.136 449.02 29.906 450.413V479.014C29.906 512.174 65.0056 539.151 108.15 539.151H611.294C654.438 539.151 689.538 512.174 689.538 479.014V450.403C706.743 446.832 719.443 434.736 719.443 420.398ZM267.46 42.7151C267.46 28.094 282.936 16.2 301.958 16.2H417.485C436.508 16.2 451.983 28.0951 451.983 42.7151V66.7915H267.46V42.7151ZM114.507 82.9915H604.936C644.444 82.9915 676.585 107.695 676.585 138.061V389.315H655.508V271.246C655.508 266.773 650.789 263.146 644.969 263.146H566.912C561.092 263.146 556.374 266.773 556.374 271.246V389.315H535.296V271.246C535.296 266.773 530.578 263.146 524.757 263.146H442.837C437.016 263.146 432.298 266.773 432.298 271.246V389.315H411.22V271.246C411.22 266.773 406.502 263.146 400.682 263.146H318.761C312.941 263.146 308.222 266.773 308.222 271.246V389.315H287.145V271.246C287.145 266.773 282.426 263.146 276.606 263.146H194.685C188.865 263.146 184.146 266.773 184.146 271.246V389.315H163.069V271.246C163.069 266.773 158.35 263.146 152.53 263.146H74.4736C68.6534 263.146 63.9348 266.773 63.9348 271.246V389.315H42.8574V138.062C42.8574 107.695 74.9991 82.9915 114.507 82.9915ZM634.43 389.315H577.451V279.346H634.43V389.315ZM514.219 389.315H453.375V279.346H514.219V389.315ZM390.143 389.315H329.3V279.346H390.143V389.315ZM266.067 389.315H205.224V279.346H266.067V389.315ZM141.992 389.315H85.0123V279.346H141.992V389.315ZM679.002 435.28H213.613C207.792 435.28 203.074 438.907 203.074 443.38C203.074 447.853 207.792 451.48 213.613 451.48H668.459V479.015C668.459 503.242 642.815 522.952 611.293 522.952H108.148C76.6263 522.952 50.9821 503.242 50.9821 479.015V451.48H171.513C177.333 451.48 182.051 447.853 182.051 443.38C182.051 438.907 177.333 435.28 171.513 435.28H40.4405C35.2639 435.28 30.3993 433.732 26.7557 430.932C23.0938 428.111 21.0774 424.37 21.0774 420.398C21.0774 412.192 29.7641 405.515 40.4405 405.515H679.002C684.179 405.515 689.043 407.062 692.688 409.863C696.349 412.684 698.365 416.425 698.365 420.396C698.365 428.604 689.678 435.28 679.002 435.28Z" fill="black"/>
</svg>
