<?xml version="1.0" standalone="no"?>
<!DOCTYPE svg PUBLIC "-//W3C//DTD SVG 20010904//EN"
 "http://www.w3.org/TR/2001/REC-SVG-20010904/DTD/svg10.dtd">
<svg version="1.0" xmlns="http://www.w3.org/2000/svg"
 width="1166.000000pt" height="1280.000000pt" viewBox="0 0 1166.000000 1280.000000"
 preserveAspectRatio="xMidYMid meet">
<g transform="translate(0.000000,1280.000000) scale(0.100000,-0.100000)"
fill="#000000" stroke="none">
<path d="M9185 12790 c-11 -4 -42 -16 -70 -26 -64 -23 -138 -92 -172 -163 -27
-54 -28 -62 -30 -231 -2 -176 -22 -407 -44 -510 -21 -102 -63 -158 -134 -183
-64 -22 -58 -63 25 -162 62 -74 73 -101 81 -202 7 -82 5 -104 -16 -185 -23
-90 -24 -109 -29 -533 -2 -243 -10 -500 -17 -575 -16 -169 -18 -771 -2 -855 9
-47 7 -107 -7 -285 -61 -738 -70 -1259 -30 -1690 10 -113 9 -153 -14 -405 -41
-449 -52 -720 -35 -942 18 -259 17 -298 -19 -461 -17 -79 -36 -199 -43 -265
-13 -131 -17 -414 -9 -592 5 -104 3 -113 -21 -160 -32 -61 -92 -109 -162 -130
-31 -10 -128 -20 -237 -27 -102 -5 -191 -12 -197 -14 -16 -4 -17 -50 -2 -60
20 -12 299 -3 388 12 91 16 181 57 224 102 14 15 41 54 59 87 34 60 51 71 92
61 16 -4 27 -20 39 -60 34 -105 90 -165 332 -348 135 -103 147 -117 143 -164
l-3 -39 -105 -7 c-58 -3 -153 -13 -211 -22 -81 -11 -197 -15 -490 -15 -444 -1
-391 -13 -535 120 -50 46 -113 95 -140 109 -56 30 -54 25 -72 230 -16 183 -66
282 -166 329 l-46 21 -52 -20 c-30 -11 -78 -34 -108 -52 l-55 -33 -16 -140
c-22 -197 -26 -207 -102 -243 -34 -16 -111 -66 -172 -111 -60 -45 -141 -97
-180 -116 -203 -102 -285 -148 -330 -186 l-50 -42 -119 6 c-158 8 -209 -3
-260 -56 -53 -56 -96 -65 -383 -82 -258 -15 -294 -21 -382 -64 -79 -38 -120
-66 -251 -167 -210 -164 -260 -191 -455 -252 -73 -23 -151 -55 -178 -72 -57
-38 -139 -127 -255 -275 -190 -244 -299 -358 -422 -443 -56 -39 -72 -73 -38
-80 25 -5 129 69 221 157 44 42 141 153 215 246 182 228 253 307 310 345 26
17 104 49 177 72 157 49 252 97 365 183 214 165 259 197 325 229 91 45 151 55
396 66 142 7 227 15 279 29 l75 19 56 -53 c105 -100 220 -138 462 -155 208
-14 252 -20 325 -42 71 -22 92 -19 92 12 0 43 -123 72 -385 90 -251 18 -365
53 -450 140 -67 69 -33 84 179 76 109 -4 132 -8 150 -24 40 -37 70 -45 183
-50 101 -4 116 -7 131 -26 55 -69 168 -116 278 -116 39 0 87 -8 121 -20 32
-11 64 -20 71 -20 8 0 39 -16 70 -35 72 -44 140 -60 322 -79 80 -9 168 -22
195 -31 55 -16 115 -50 115 -64 0 -16 -82 -83 -128 -103 -68 -31 -125 -21
-243 41 -95 49 -139 60 -168 42 -11 -7 -7 -12 15 -24 16 -8 38 -25 49 -37 16
-18 17 -23 5 -30 -8 -6 -21 -10 -29 -10 -30 0 -115 -57 -146 -97 -18 -23 -43
-70 -55 -104 -26 -67 -76 -124 -119 -134 -20 -4 -50 7 -122 44 -52 28 -106 62
-119 76 -45 48 -76 23 -36 -29 14 -19 58 -51 106 -75 45 -24 84 -49 87 -57 7
-20 -49 -104 -107 -158 -38 -35 -55 -45 -72 -41 -90 21 -148 27 -333 31 -115
3 -235 2 -265 -3 -50 -7 -55 -11 -55 -33 l0 -25 185 4 c182 3 311 -6 440 -33
36 -8 71 -10 79 -6 32 17 125 119 158 171 28 47 43 60 81 75 29 11 67 38 97
69 49 51 51 52 155 73 129 26 232 59 358 115 53 24 108 49 122 55 14 6 40 21
58 32 l32 22 0 -117 0 -117 -107 -136 c-341 -435 -521 -634 -725 -800 -84 -68
-235 -170 -317 -214 -35 -19 -51 -34 -51 -48 0 -31 24 -24 128 37 304 177 516
382 907 873 102 129 220 272 261 316 41 45 93 105 115 132 22 28 48 53 57 56
9 3 36 10 60 16 32 8 42 15 42 32 0 22 -15 22 -122 2 -34 -6 -38 -4 -38 14 0
36 19 72 42 81 13 5 48 16 79 25 63 18 89 40 71 58 -9 9 -25 8 -65 -5 -82 -26
-87 -24 -87 27 l0 45 103 39 c172 67 236 83 303 76 43 -4 71 -1 104 11 25 9
65 21 90 26 25 5 92 32 150 59 115 54 163 62 226 35 33 -14 35 -13 43 8 29 75
56 119 87 138 l35 21 82 -41 c96 -49 190 -71 304 -71 87 0 265 27 384 59 41
11 121 32 179 46 58 15 113 31 123 37 21 11 22 51 1 69 -14 12 -47 6 -223 -39
-249 -64 -351 -82 -457 -82 -109 0 -181 16 -267 59 l-72 36 0 60 0 59 130 38
c72 20 139 37 151 38 40 0 167 50 359 139 106 50 233 102 280 116 99 28 271
47 330 36 22 -4 78 -33 125 -63 87 -57 235 -135 350 -183 103 -44 302 -115
321 -115 25 0 43 89 37 188 -6 98 -38 170 -156 350 -44 67 -93 152 -108 187
l-28 65 -62 0 c-93 0 -172 44 -312 175 -63 58 -134 117 -158 131 -88 52 -215
41 -319 -28 -28 -18 -102 -84 -166 -145 -64 -62 -121 -113 -128 -113 -6 0 -11
11 -11 24 0 29 -16 36 -49 24 -14 -5 -28 -5 -33 0 -31 31 -80 715 -118 1642
-6 135 -19 436 -30 670 -11 234 -24 562 -30 730 -9 296 -24 450 -56 574 -14
53 -14 68 2 153 20 113 15 253 -12 328 -16 45 -17 84 -15 361 2 325 -7 477
-51 799 -18 139 -21 200 -19 461 2 190 -1 304 -7 308 -6 3 -10 68 -10 154 -1
81 -7 190 -14 242 -7 52 -13 145 -13 205 1 106 2 112 34 170 106 189 106 195
1 244 -57 27 -68 44 -76 128 -5 56 -13 79 -46 130 -38 59 -39 63 -24 85 13 19
16 56 16 221 0 112 5 217 11 242 15 58 8 82 -41 144 -75 94 -247 164 -325 131z
m-96 -484 c7 -8 11 -29 9 -47 -3 -28 -9 -34 -46 -48 -43 -16 -44 -15 -63 8
-21 26 -24 53 -9 82 13 24 91 27 109 5z m201 -61 c19 -12 -10 -25 -40 -19 -62
14 -90 31 -74 46 6 6 94 -15 114 -27z m96 -265 l94 0 30 -42 c33 -45 38 -79
15 -98 -8 -7 -15 -27 -15 -46 0 -46 -15 -50 -56 -14 -91 79 -155 106 -313 129
-63 10 -116 22 -118 28 -10 29 92 54 196 48 41 -3 116 -5 167 -5z m29 -749
l130 -6 12 -60 c15 -73 31 -323 25 -383 -7 -73 -48 -66 -83 15 -14 34 -24 43
-42 43 -14 0 -29 -6 -34 -12 -30 -38 -44 -217 -22 -275 19 -51 48 -73 96 -73
l43 0 0 -47 c-1 -30 -13 -80 -34 -133 -37 -94 -35 -110 18 -110 17 0 37 -4 44
-8 12 -8 42 -215 78 -547 17 -164 25 -576 11 -626 -6 -23 -13 -27 -67 -32 -33
-4 -74 -14 -90 -22 l-30 -16 0 -184 c0 -184 0 -185 24 -200 31 -21 60 -7 74
35 6 16 16 30 21 30 7 0 11 24 11 59 0 42 5 65 18 81 17 21 19 21 35 6 9 -9
21 -33 27 -54 13 -49 13 -189 -1 -269 -10 -59 -16 -69 -70 -124 -47 -48 -74
-90 -144 -229 -47 -94 -83 -175 -80 -180 3 -6 15 -10 25 -10 14 0 40 42 104
168 84 165 144 248 165 226 17 -16 50 -230 60 -387 6 -83 12 -263 15 -398 l5
-246 -37 -24 c-28 -18 -48 -46 -84 -117 -26 -52 -54 -104 -62 -117 -20 -30
-21 -55 -3 -55 22 0 42 29 87 120 22 47 49 96 59 109 26 35 51 22 51 -26 0
-21 4 -110 10 -198 5 -88 16 -329 25 -535 35 -870 68 -1398 105 -1685 5 -38
10 -108 10 -155 0 -49 9 -120 20 -168 11 -46 20 -112 20 -146 0 -80 -23 -113
-153 -225 -52 -44 -100 -89 -108 -100 -10 -14 -54 -31 -144 -56 l-130 -36 -14
20 c-9 14 -24 21 -43 21 -23 0 -45 14 -89 55 -33 30 -103 87 -157 126 -181
135 -250 214 -272 314 -13 58 -21 65 -80 65 -25 0 -51 4 -59 9 -35 22 -33 515
3 757 36 235 57 306 106 359 83 89 100 134 61 155 -27 14 -29 13 -57 -17 -47
-51 -49 -35 -49 370 1 325 4 408 28 656 15 157 27 290 27 296 0 6 19 32 43 56
88 93 107 118 107 138 0 39 -45 26 -87 -24 -66 -79 -66 -76 -84 240 -19 339
-3 827 46 1425 l16 185 54 48 c37 32 71 78 105 138 57 102 63 144 20 144 -21
0 -32 -13 -70 -83 -58 -106 -94 -151 -110 -136 -31 31 -38 395 -14 774 8 135
18 336 22 447 7 187 9 203 29 225 11 13 33 58 48 101 15 43 32 80 36 83 19 11
7 25 -41 49 -77 39 -90 56 -90 117 0 70 37 205 68 246 l24 32 167 -1 c91 -1
225 -4 296 -8z m-1860 -6824 c44 -44 63 -111 75 -276 6 -75 13 -142 15 -149 3
-8 -5 -35 -17 -60 -16 -37 -22 -71 -25 -157 -2 -60 -11 -134 -19 -162 -17 -57
-13 -96 16 -153 32 -62 120 -130 168 -130 64 0 106 179 66 279 -17 44 -51 71
-87 71 -37 0 -47 19 -47 90 0 77 15 106 49 95 13 -4 62 -44 110 -88 48 -45
105 -96 126 -113 39 -30 40 -33 40 -90 -2 -156 -17 -320 -33 -347 -19 -31 -22
-31 -127 -4 -33 9 -126 23 -207 32 -143 15 -194 27 -256 59 -26 13 -30 22 -37
72 -4 31 -13 74 -20 94 -27 76 -28 123 -5 196 27 87 28 201 4 294 -17 67 -17
70 4 157 11 48 23 122 27 163 9 104 11 107 63 135 62 32 78 31 117 -8z m-284
-489 c15 -57 6 -192 -16 -245 -15 -39 -21 -43 -51 -43 -45 0 -54 -20 -54 -127
0 -120 -6 -127 -96 -121 -75 5 -152 38 -192 81 -21 22 -23 31 -20 137 l3 113
53 28 c29 15 85 51 125 80 126 93 198 139 217 139 14 0 22 -12 31 -42z m1342
-249 c20 -5 37 -15 37 -22 0 -7 -9 -44 -20 -82 -11 -38 -20 -93 -20 -121 0
-58 -7 -67 -68 -84 -24 -6 -103 -33 -177 -60 -74 -28 -141 -47 -149 -44 -8 3
-37 -4 -65 -16 -70 -31 -81 -24 -81 47 0 99 -1 97 150 173 147 75 232 135 255
180 19 38 70 48 138 29z m247 -118 c5 -11 10 -42 10 -70 l0 -50 -42 -12 c-39
-10 -44 -9 -60 11 -25 31 -23 41 20 94 41 50 56 56 72 27z"/>
<path d="M9527 6648 c-23 -17 -30 -226 -8 -251 16 -20 52 -22 69 -5 19 19 16
232 -4 252 -19 19 -35 20 -57 4z"/>
<path d="M9638 4823 c-14 -16 -42 -54 -62 -85 -20 -31 -40 -59 -46 -63 -15 -9
-12 -45 3 -45 17 0 56 43 95 106 18 28 41 59 52 69 11 10 20 24 20 32 0 22
-35 14 -62 -14z"/>
<path d="M7122 7778 c-22 -22 -13 -57 26 -96 46 -49 88 -57 195 -39 57 11 89
11 122 4 66 -15 99 18 56 57 -34 31 -88 37 -184 20 -96 -16 -105 -14 -151 35
-32 34 -45 38 -64 19z"/>
<path d="M7270 7459 c0 -41 29 -78 70 -90 67 -20 212 23 170 50 -17 12 -148
47 -202 54 -33 5 -38 3 -38 -14z"/>
<path d="M7472 7253 c-17 -3 -22 -10 -20 -26 3 -20 10 -22 71 -25 61 -3 67 -1
67 17 0 35 -46 48 -118 34z"/>
<path d="M6780 7208 c-36 -19 -37 -52 -3 -75 42 -29 58 -33 97 -22 30 8 36 14
36 38 0 15 -8 36 -19 45 -25 23 -80 30 -111 14z"/>
<path d="M5651 6690 c-5 -17 -40 -59 -76 -94 -59 -57 -65 -66 -65 -104 0 -32
4 -42 20 -47 48 -15 127 39 164 112 20 41 21 112 0 141 -20 30 -30 28 -43 -8z"/>
<path d="M6114 6505 c-18 -46 12 -62 119 -64 76 -1 107 10 107 39 0 28 -12 32
-121 36 -79 2 -101 0 -105 -11z"/>
<path d="M5557 5089 c-56 -29 -61 -30 -110 -19 -70 16 -137 10 -151 -12 -20
-32 5 -52 80 -66 38 -6 84 -17 101 -23 29 -9 39 -7 90 22 32 19 82 38 112 44
101 21 98 78 -5 82 -49 2 -69 -3 -117 -28z"/>
<path d="M6115 4863 c-45 -11 -59 -47 -29 -77 21 -22 156 -23 173 -2 21 25 9
69 -19 77 -29 8 -96 9 -125 2z"/>
<path d="M5620 4616 c0 -46 50 -76 126 -76 48 0 84 25 84 58 0 34 -21 42 -117
42 -92 0 -93 0 -93 -24z"/>
<path d="M5554 4406 c-45 -20 -51 -46 -19 -73 32 -28 85 -30 109 -4 9 10 20
35 23 55 l6 36 -44 0 c-24 -1 -58 -7 -75 -14z"/>
<path d="M4825 4395 c-16 -8 -45 -14 -63 -15 -18 0 -42 -5 -53 -10 -27 -15
-24 -56 6 -76 55 -36 215 21 215 76 0 39 -48 51 -105 25z"/>
<path d="M5856 3240 c-305 -48 -633 -223 -991 -529 -149 -127 -455 -432 -455
-453 0 -49 34 -26 202 137 362 351 597 530 868 659 208 99 359 136 549 136
131 0 210 -13 324 -51 49 -16 95 -29 103 -29 20 0 29 27 14 45 -12 15 -102 47
-198 72 -69 17 -334 25 -416 13z"/>
<path d="M10910 2633 c-268 -42 -320 -53 -742 -159 -363 -90 -568 -132 -888
-179 -340 -51 -484 -80 -635 -129 -229 -76 -372 -160 -549 -325 -165 -153
-233 -190 -548 -297 -336 -114 -406 -148 -624 -309 -161 -119 -257 -165 -365
-174 -66 -6 -84 -4 -93 8 -6 8 -29 33 -52 55 -51 51 -64 75 -64 120 0 40 8 44
99 48 39 2 57 8 65 21 18 29 -18 50 -75 42 -25 -4 -110 -10 -190 -14 -132 -6
-149 -9 -210 -37 -36 -17 -114 -64 -174 -104 -148 -100 -201 -121 -286 -113
-62 5 -67 4 -74 -16 -4 -14 3 -40 22 -76 36 -72 28 -87 -50 -91 -34 -2 -88
-16 -134 -34 -43 -18 -101 -34 -129 -37 -46 -5 -53 -3 -58 15 -4 12 0 34 8 51
9 17 16 32 16 36 0 13 -58 3 -114 -19 -117 -47 -202 -57 -516 -66 -314 -9
-400 -20 -516 -66 -79 -31 -90 -31 -127 11 -50 56 -96 48 -171 -31 -53 -55
-97 -61 -120 -15 -18 33 -34 41 -83 41 -22 0 -54 11 -82 29 -112 69 -236 106
-408 122 -115 10 -153 4 -153 -24 0 -25 25 -37 76 -37 135 0 322 -46 426 -105
79 -44 76 -58 -19 -82 -46 -12 -126 -14 -382 -13 l-324 1 -121 31 c-92 23
-148 31 -234 33 -120 3 -146 12 -187 62 -33 40 -93 41 -200 4 -127 -44 -142
-42 -129 24 8 44 33 62 105 75 51 10 79 29 79 55 0 10 -26 28 -151 103 -25 15
-30 13 -113 -29 -99 -50 -156 -107 -186 -187 -28 -73 -43 -71 -335 35 -253 93
-334 114 -435 116 -142 2 -236 -47 -307 -158 -19 -30 -37 -46 -56 -51 -35 -7
-54 -43 -38 -73 11 -20 19 -21 154 -19 136 1 147 -1 261 -35 86 -26 146 -38
220 -43 55 -3 110 -12 121 -19 11 -6 52 -21 90 -33 85 -26 115 -46 115 -76 0
-38 -43 -69 -102 -74 -48 -3 -59 0 -115 37 -121 78 -108 76 -223 30 -56 -22
-150 -52 -208 -67 -94 -23 -127 -26 -267 -27 -149 0 -165 2 -239 28 -93 33
-96 31 -138 -60 -27 -60 -34 -105 -22 -137 22 -58 278 -61 553 -6 125 24 169
29 187 22 12 -6 37 -39 56 -74 l33 -63 75 2 c41 2 442 5 890 8 950 5 1125 15
1426 75 l100 21 60 -28 c94 -43 229 -44 514 -3 262 39 414 44 473 17 45 -19
44 -34 -4 -62 -29 -17 -52 -20 -148 -20 -125 0 -140 -7 -127 -58 8 -32 63 -51
151 -51 115 0 215 46 255 116 27 49 31 51 74 33 141 -59 374 -79 714 -60 255
14 415 12 527 -4 95 -14 205 -13 234 2 37 19 63 60 68 111 5 42 4 46 -21 56
-15 5 -69 9 -119 8 -129 -3 -166 21 -113 71 22 21 32 22 152 22 132 -1 320
-33 345 -58 9 -9 6 -25 -10 -63 -12 -28 -19 -55 -15 -61 10 -17 69 -1 141 37
73 39 141 46 164 17 8 -9 32 -24 54 -34 58 -27 155 -23 330 11 83 17 197 34
255 40 351 33 1177 39 2045 15 286 -8 694 -15 907 -15 l386 0 30 -25 c96 -81
202 -87 512 -30 169 31 220 36 292 32 l88 -4 -3 266 -2 266 -192 48 c-106 27
-221 51 -255 53 -78 6 -123 27 -139 66 -6 16 -21 35 -33 43 -23 17 -82 20 -90
6 -7 -10 59 -65 108 -92 31 -17 48 -49 25 -49 -7 0 -20 -7 -30 -16 -15 -13
-52 -15 -253 -14 -202 1 -245 3 -297 20 -122 38 -131 88 -20 121 23 7 50 23
58 36 9 13 37 30 69 40 51 16 56 16 89 0 42 -20 84 -22 120 -5 21 10 25 18 25
57 0 56 -19 86 -58 94 -23 5 -32 15 -46 52 -22 55 -38 65 -114 65 -45 0 -73
-7 -116 -29 -33 -16 -66 -26 -80 -24 -13 3 -49 -2 -79 -11 -30 -9 -85 -16
-121 -16 l-66 0 0 29 c0 16 11 68 25 116 83 284 234 484 470 621 66 38 84 53
82 69 -3 32 -37 24 -128 -31 -100 -59 -266 -219 -328 -314 -80 -124 -135 -262
-173 -435 -9 -41 -18 -60 -28 -60 -20 0 -92 -25 -107 -38 -21 -16 -15 -44 10
-49 12 -2 69 -1 127 2 114 6 187 -2 208 -24 20 -20 10 -31 -56 -61 -31 -14
-129 -66 -217 -115 -88 -48 -177 -94 -198 -101 -35 -12 -42 -12 -77 9 -33 18
-54 22 -134 22 -52 0 -125 -7 -163 -16 -43 -10 -89 -14 -128 -10 -33 3 -170
10 -305 15 -226 8 -389 26 -465 52 -36 12 -269 24 -455 24 -146 -1 -215 -13
-293 -52 l-48 -24 -492 0 c-400 1 -505 -2 -562 -14 -136 -29 -177 -13 -179 69
-1 42 3 51 31 76 22 20 47 30 80 35 179 22 229 46 501 244 132 96 248 150 517
241 334 113 413 156 587 318 183 170 365 270 609 336 131 35 222 52 453 87
469 69 519 79 1001 199 396 98 558 132 713 151 102 12 130 25 118 54 -5 15
-61 18 -126 8z m-4660 -1358 c9 -11 11 -35 7 -76 -4 -47 -18 -86 -63 -175
l-58 -114 -40 0 c-23 1 -52 7 -66 15 -18 10 -62 14 -162 15 -140 0 -172 6
-201 35 -30 29 -19 44 59 80 42 19 127 68 188 109 61 40 125 81 143 90 69 35
172 46 193 21z m4302 -80 c20 -44 0 -68 -71 -84 -71 -16 -91 -7 -91 41 0 24 7
32 43 48 61 28 105 26 119 -5z m-8862 -334 c0 -38 -19 -68 -61 -100 -24 -17
-47 -31 -52 -31 -13 0 -3 66 16 113 15 34 19 37 56 37 34 0 41 -3 41 -19z
m4450 -31 c26 -48 -21 -96 -69 -70 -26 14 -29 65 -3 79 28 17 60 13 72 -9z
m2048 -21 c151 -12 191 -24 192 -60 0 -9 -12 -24 -26 -34 -25 -16 -28 -16 -67
2 -46 20 -207 24 -392 9 -105 -9 -155 0 -155 28 0 17 65 44 135 55 73 13 149
12 313 0z m-6089 -83 l33 -34 -39 -21 c-80 -40 -356 -94 -399 -77 -8 3 -14 17
-14 31 0 39 70 85 130 85 25 0 77 11 116 24 100 35 133 34 173 -8z m7009 28
c14 -4 22 -14 22 -28 0 -33 -19 -46 -65 -46 -44 0 -65 13 -65 42 0 31 52 47
108 32z m-7960 -30 c39 -27 11 -44 -73 -44 -103 0 -123 10 -89 44 21 22 131
22 162 0z m1377 -116 c72 -17 153 -41 180 -54 28 -13 81 -31 118 -40 38 -9 75
-24 84 -32 34 -35 -4 -37 -687 -37 -498 -1 -692 -4 -773 -14 -59 -8 -110 -12
-113 -9 -2 3 1 17 7 31 19 42 65 57 171 57 122 0 365 25 453 45 39 9 104 30
145 47 131 54 203 55 415 6z m5685 9 c27 -14 38 -50 20 -71 -8 -11 -21 -11
-53 -4 -58 13 -92 4 -151 -41 l-51 -38 -205 -7 c-113 -4 -308 -13 -435 -21
-310 -20 -485 -20 -485 -1 0 21 54 56 113 73 41 12 122 16 382 17 351 2 389 7
486 56 74 38 328 63 379 37z m-4028 -35 c26 -26 -136 -85 -297 -107 -121 -18
-505 -21 -505 -4 0 29 216 100 363 119 88 11 426 5 439 -8z m738 -21 c246 -50
297 -53 436 -30 249 42 472 35 547 -15 71 -48 29 -71 -110 -59 -58 5 -77 3
-91 -9 -13 -11 -56 -17 -167 -23 -347 -17 -576 -1 -975 71 -203 37 -216 47
-108 86 80 28 266 20 468 -21z m3990 24 c158 -1 190 -4 218 -19 29 -16 62 -19
225 -20 164 -1 197 -4 227 -20 40 -21 69 -54 70 -78 0 -26 -10 -28 -75 -13
-126 29 -240 35 -640 35 -396 0 -568 9 -589 30 -19 19 50 73 119 91 17 5 82 5
145 1 63 -3 198 -7 300 -7z m-2508 -26 c37 -8 63 -22 85 -44 38 -38 39 -45 16
-74 -15 -18 -30 -22 -93 -23 -79 -2 -215 25 -239 47 -19 18 -7 61 22 77 50 27
131 33 209 17z m-740 -246 c21 -19 24 -56 5 -71 -7 -6 -42 -17 -79 -26 -37 -9
-84 -25 -105 -36 -21 -11 -57 -20 -81 -20 -39 0 -50 6 -89 45 -37 36 -44 47
-34 59 19 22 109 48 196 56 137 12 167 11 187 -7z"/>
<path d="M11300 2610 c-24 -24 -20 -61 16 -137 18 -37 52 -77 121 -140 70 -65
103 -103 122 -143 29 -61 55 -74 84 -42 17 19 17 22 -10 78 -27 57 -52 86
-181 208 -53 50 -65 68 -79 118 -20 70 -43 88 -73 58z"/>
<path d="M5690 2456 c-58 -46 -69 -69 -34 -74 28 -4 124 72 124 98 0 31 -30
23 -90 -24z"/>
<path d="M5850 2423 c-50 -18 -82 -95 -45 -109 43 -17 73 13 89 89 7 28 -6 34
-44 20z"/>
<path d="M1905 2364 c-112 -19 -217 -60 -287 -115 -20 -16 -54 -36 -76 -43
-151 -54 -214 -119 -353 -365 -114 -202 -211 -275 -440 -327 -305 -69 -355
-84 -446 -129 -103 -52 -213 -146 -213 -182 0 -20 25 -43 48 -43 4 0 37 25 73
56 66 58 158 109 244 137 28 9 129 34 225 56 96 21 204 50 240 63 139 51 248
150 334 305 158 283 254 366 395 344 58 -9 91 -1 91 23 0 17 -19 33 -45 38
-58 10 9 62 130 100 56 18 95 22 190 22 140 0 201 -14 313 -75 59 -32 76 -38
88 -28 8 6 14 15 14 20 0 29 -119 97 -216 124 -59 16 -253 28 -309 19z"/>
<path d="M5092 2344 c-55 -38 6 -86 62 -48 33 21 33 42 0 54 -33 13 -36 13
-62 -6z"/>
<path d="M2560 2246 c0 -13 25 -68 57 -125 31 -55 37 -61 46 -46 5 10 10 43
11 73 0 47 -3 57 -27 78 -24 20 -87 34 -87 20z"/>
<path d="M3872 1916 c-108 -47 -158 -88 -167 -133 -5 -24 -1 -37 15 -53 26
-26 53 -14 69 30 8 23 22 36 58 51 181 79 195 89 173 129 -15 28 -41 24 -148
-24z"/>
<path d="M3370 1939 c-59 -25 -169 -39 -370 -49 -356 -18 -453 -39 -672 -144
-153 -74 -253 -133 -513 -301 -256 -166 -391 -245 -419 -245 -36 0 -145 -69
-152 -96 -7 -29 35 -165 54 -172 6 -2 36 21 65 50 39 38 60 68 73 106 16 45
26 58 64 80 87 49 217 130 375 234 213 139 305 193 455 268 227 114 322 136
650 150 224 10 356 29 426 60 47 20 57 31 48 54 -7 18 -46 20 -84 5z"/>
<path d="M1492 1810 c-30 -25 -27 -64 5 -68 26 -4 45 32 36 67 -7 26 -12 26
-41 1z"/>
<path d="M5784 1758 c-115 -231 -353 -402 -809 -582 -111 -43 -141 -59 -143
-75 -5 -31 14 -27 167 33 472 186 710 360 832 607 17 33 28 67 25 75 -12 31
-37 11 -72 -58z"/>
<path d="M11170 1778 c-45 -23 -73 -59 -85 -110 -7 -26 -5 -28 21 -28 43 0
111 45 139 94 14 23 25 48 25 54 0 19 -53 14 -100 -10z"/>
<path d="M9180 1527 c1 -35 32 -134 47 -156 25 -32 62 -46 70 -25 9 24 -15
119 -38 147 -22 29 -79 53 -79 34z"/>
<path d="M9013 1444 c-3 -9 6 -28 24 -47 16 -18 40 -47 52 -64 24 -35 48 -43
57 -18 8 19 -49 108 -81 129 -31 20 -44 20 -52 0z"/>
<path d="M9573 1338 c-20 -9 -23 -19 -23 -65 l0 -53 100 0 c112 0 118 5 80 67
-33 55 -103 77 -157 51z"/>
<path d="M2606 884 c-40 -39 7 -48 51 -9 l28 24 -32 1 c-17 0 -39 -7 -47 -16z"/>
<path d="M3540 887 c0 -27 120 -61 134 -38 5 7 -2 11 -16 11 -13 0 -36 9 -53
20 -35 23 -65 26 -65 7z"/>
<path d="M372 558 c-11 -14 1 -20 87 -48 79 -26 104 -31 127 -23 27 9 55 55
42 68 -3 3 -59 9 -124 12 -100 5 -121 3 -132 -9z"/>
</g>
</svg>
