<svg width="60" height="60" viewBox="0 0 512 525" fill="none" xmlns="http://www.w3.org/2000/svg">
<!-- <rect width="512" height="525" fill="#E5E5E5"/> -->
<g clip-path="url(#clip0)">
<path d="M139.042 170.59C116.845 187.374 104.231 176.386 98.2091 198.606C97.3903 201.625 95.6969 204.49 93.115 206.876C89.0017 210.676 83.9164 217.239 89.9117 222.754L89.7484 223.049C82.8179 233.53 100.09 241.195 108.81 242.959C111.792 243.562 114.752 244.244 117.554 245.223C137.819 252.303 156.553 250.74 171.123 250.042C188.004 249.234 201.113 238.6 201.113 225.809V172.577C201.113 163.085 190.014 155.759 177.585 157.1C165.295 158.426 150.474 161.946 139.042 170.59V170.59Z" fill="#7CCC4E"/>
<path d="M303.844 156.856C244.245 155.123 213.203 172.335 201.113 181.367V225.809C201.113 230.587 199.281 235.063 196.109 238.839C197.844 243.005 202.08 247.541 212.32 247.541H243.989C244.46 247.138 244.942 246.738 245.458 246.347C245.458 246.347 223.367 240.381 218.632 232.028C213.897 223.675 229.678 215.323 239.145 222.483C248.613 229.642 269.127 234.415 264.393 245.154C264.393 245.154 263.436 246.059 262.053 247.541H316.924C310.739 235.949 307.137 221.313 324.356 216.517C354.337 208.164 374.852 237.995 374.852 237.995C374.852 237.995 379.585 245.155 370.975 250.605C367.108 253.053 361.531 253.234 356.841 251.828C350.684 249.982 342.105 246.428 338.194 240.317C339.346 242.6 341.131 246.345 342.714 250.554C358.492 255.814 369.781 267.448 370.567 281.253C371.215 292.633 367.897 306.09 355.916 320.328C329.138 352.147 285.841 349.923 270.677 345.337C258.021 341.509 248.612 334.868 248.612 324.616C248.612 311.491 264.392 303.138 277.017 303.138C286.485 303.138 295.064 307.836 301.425 313.709C303.106 315.26 306.418 313.984 305.801 312.033C303.181 303.744 294.93 292.031 269.125 293.592C220.363 296.542 210.74 361.606 288.062 361.606C365.384 361.606 404.836 303.624 404.836 261.861C404.836 220.098 385.9 159.242 303.844 156.856V156.856Z" fill="#7CCC4E"/>
<path d="M137.721 171.548C151.703 169.82 183.559 168.625 201.115 189.82V172.574C201.115 163.082 190.015 155.756 177.587 157.097C165.294 158.423 150.473 161.944 139.042 170.588C138.595 170.924 138.16 171.233 137.721 171.548V171.548Z" fill="#3AA03A"/>
<path d="M151.973 219.559C165.487 219.559 176.443 211.275 176.443 201.056C176.443 190.837 165.487 182.553 151.973 182.553C138.459 182.553 127.503 190.837 127.503 201.056C127.503 211.275 138.459 219.559 151.973 219.559Z" fill="#3AA03A"/>
<path d="M303.844 173.404C383.014 175.499 403.422 227.129 404.76 264.896C404.806 263.875 404.835 262.861 404.835 261.861C404.835 220.098 385.898 159.243 303.843 156.856C244.243 155.123 213.201 172.335 201.112 181.367V195.711C213.204 187.491 244.246 171.826 303.844 173.404V173.404Z" fill="#3AA03A"/>
<path d="M374.855 237.995C374.855 237.995 379.588 245.155 370.978 250.605C367.11 253.054 361.534 253.234 356.843 251.828C349.942 249.759 339.98 245.553 336.982 237.995C336.982 237.995 346.1 254.435 346.1 265.395C346.1 271.084 338.394 275.013 331.372 272.975C325.646 271.313 316.437 269.706 308.065 272.954C304.748 274.241 300.686 272.99 299.378 270.351C298.215 268.007 299.63 265.373 302.643 264.339C307.644 262.622 316.161 260.907 327.515 263.053C327.515 263.053 294.377 224.87 324.359 216.518C354.34 208.166 374.855 237.995 374.855 237.995V237.995Z" fill="#3AA03A"/>
<path d="M239.147 222.484C229.679 215.324 213.899 223.677 218.633 232.029C223.368 240.381 245.46 246.348 245.46 246.348C235.991 253.508 234.413 263.053 234.413 263.053C223.31 260.955 214.92 262.548 209.878 264.225C207.061 265.163 205.333 267.456 206.025 269.724C206.959 272.785 211.393 274.34 214.963 272.955C225.15 269.001 235.227 272.372 239.262 273.224C245.519 274.541 251.652 270.725 251.764 265.814L251.773 265.44C251.773 257.087 264.396 245.155 264.396 245.155C269.129 234.416 248.615 229.643 239.147 222.484V222.484Z" fill="#3AA03A"/>
<path d="M133.566 232.345H116.07C109.326 232.345 103.044 231.4 97.3979 229.537C93.0454 228.102 89.7042 226.33 87.4678 224.274C86.3591 223.253 86.5528 221.745 87.9032 220.906C89.2536 220.068 91.2457 220.215 92.3582 221.235C93.9529 222.702 96.4993 224.02 99.9291 225.152C104.771 226.749 110.202 227.56 116.07 227.56H133.566C135.313 227.56 136.73 228.631 136.73 229.952C136.73 231.274 135.313 232.345 133.566 232.345V232.345Z" fill="black"/>
<path d="M152.948 253.087C141.824 253.087 129.392 251.992 116.228 247.394C113.488 246.437 110.528 245.783 107.994 245.27C101.508 243.958 90.4211 239.594 86.466 232.948C84.5638 229.751 84.5068 226.348 86.2837 223.041C82.1047 218.087 83.6209 211.87 90.6691 205.359C92.8359 203.358 94.3711 200.856 95.1115 198.124C98.7894 184.552 105.054 182.118 114.97 179.273C121.1 177.514 128.048 175.519 136.806 168.897C146.853 161.301 160.424 156.535 177.142 154.732C183.957 153.996 190.848 155.533 196.055 158.948C201.282 162.376 204.28 167.343 204.28 172.577V225.809C204.28 239.851 189.804 251.545 171.326 252.429L168.242 252.583C163.502 252.826 158.38 253.087 152.948 253.087ZM180.494 159.336C179.677 159.336 178.855 159.38 178.036 159.468C162.705 161.123 150.338 165.433 141.281 172.282C131.564 179.631 123.608 181.913 117.217 183.748C109.003 186.106 104.477 187.404 101.312 199.086C100.366 202.574 98.3806 205.79 95.5671 208.391C91.6589 212.001 87.9303 217.161 92.3587 221.234C93.1042 221.919 93.2864 222.858 92.8346 223.676L92.6714 223.972C92.6448 224.022 92.6144 224.072 92.5828 224.119C91.0134 226.492 90.9007 228.738 92.2385 230.985C95.1064 235.804 104.135 239.537 109.631 240.648C112.425 241.214 115.71 241.942 118.885 243.051C137.007 249.382 154.092 248.509 167.818 247.812C168.873 247.757 169.91 247.704 170.927 247.656C186.083 246.93 197.954 237.334 197.954 225.81V172.577C197.954 168.731 195.751 165.082 191.91 162.562C188.716 160.468 184.658 159.336 180.494 159.336V159.336Z" fill="black"/>
<path d="M107.093 219.229H105.268C103.52 219.229 102.104 218.158 102.104 216.836C102.104 215.515 103.52 214.444 105.268 214.444H107.093C108.84 214.444 110.257 215.515 110.257 216.836C110.257 218.158 108.84 219.229 107.093 219.229Z" fill="black"/>
<path d="M201.115 192.216C200.045 192.216 199.023 191.804 198.433 191.093C181.737 170.933 150.769 172.364 138.232 173.913C136.87 174.082 135.507 173.557 134.888 172.617C134.269 171.676 134.534 170.542 135.54 169.818L135.816 169.62C136.144 169.385 136.473 169.15 136.806 168.898C146.854 161.3 160.425 156.533 177.141 154.731C183.953 153.993 190.845 155.532 196.052 158.946C201.28 162.375 204.279 167.343 204.279 172.576V189.822C204.279 190.889 203.345 191.827 201.988 192.121C201.699 192.186 201.406 192.216 201.115 192.216ZM151.42 168.318C165.527 168.318 184.205 170.965 197.952 182.639V172.577C197.952 168.731 195.75 165.081 191.908 162.561C188.086 160.056 183.03 158.932 178.036 159.468C165.845 160.782 155.529 163.778 147.261 168.393C148.591 168.345 149.982 168.318 151.42 168.318Z" fill="black"/>
<path d="M143.022 203.682C141.28 203.682 139.865 202.616 139.858 201.297C139.848 198.85 141.097 196.546 143.379 194.811C145.66 193.075 148.699 192.115 151.935 192.108H151.975C158.638 192.108 164.067 196.197 164.089 201.24C164.095 202.561 162.683 203.635 160.935 203.64C160.932 203.64 160.928 203.64 160.925 203.64C159.182 203.64 157.767 202.574 157.761 201.255C157.75 198.847 155.156 196.893 151.974 196.893C151.968 196.893 151.962 196.893 151.954 196.893C150.407 196.897 148.957 197.354 147.867 198.185C146.778 199.014 146.18 200.114 146.185 201.283C146.192 202.604 144.779 203.678 143.031 203.683C143.03 203.682 143.026 203.682 143.022 203.682V203.682Z" fill="black"/>
<path d="M151.973 221.951C136.736 221.951 124.34 212.577 124.34 201.055C124.34 189.533 136.736 180.16 151.973 180.16C167.21 180.16 179.607 189.533 179.607 201.055C179.607 212.577 167.21 221.951 151.973 221.951V221.951ZM151.973 184.945C140.225 184.945 130.669 192.172 130.669 201.055C130.669 209.938 140.225 217.166 151.973 217.166C163.72 217.166 173.278 209.938 173.278 201.055C173.278 192.172 163.72 184.945 151.973 184.945V184.945Z" fill="black"/>
<path d="M404.76 267.287C404.756 267.287 404.752 267.287 404.749 267.287C403.037 267.282 401.643 266.252 401.597 264.959C398.828 186.746 332.235 176.549 303.733 175.794C246.286 174.283 216.108 188.734 203.231 197.489C202.3 198.122 200.965 198.278 199.827 197.895C198.687 197.511 197.952 196.654 197.952 195.71V181.367C197.952 180.728 198.291 180.114 198.892 179.665C212.486 169.509 244.227 152.737 303.966 154.466C341.746 155.563 369.979 168.679 387.888 193.445C405.388 217.646 408 246.698 408 261.86C408 262.887 407.971 263.928 407.923 264.976C407.866 266.265 406.466 267.287 404.76 267.287V267.287ZM303.955 171.014C340.492 171.98 368.148 183.241 386.153 204.482C388.025 206.69 389.74 208.942 391.311 211.229C388.903 205.963 385.948 200.738 382.334 195.741C365.569 172.555 339.12 160.276 303.723 159.247C247.695 157.612 217.644 172.716 204.279 182.378V190.622C220.062 181.477 250.985 169.619 303.955 171.014V171.014Z" fill="black"/>
<path d="M335.227 275.908C333.542 275.908 331.851 275.678 330.239 275.21C324.742 273.615 316.683 272.298 309.509 275.084C307.156 275.996 304.378 276.102 301.893 275.378C299.363 274.638 297.365 273.113 296.414 271.193C294.671 267.674 296.833 263.708 301.334 262.16C305.788 260.631 312.543 259.174 321.253 259.808C315.396 251.929 305.02 235.594 309.943 224.303C312.025 219.53 316.507 216.154 323.264 214.272C355.494 205.294 377.443 236.575 377.659 236.893C377.668 236.904 377.676 236.915 377.683 236.926C379.707 239.987 381.335 247.169 373.008 252.441C368.506 255.291 361.863 255.906 355.678 254.054C352.567 253.121 349.124 251.863 345.878 250.194C347.716 255.141 349.264 260.701 349.264 265.397C349.264 268.834 347.003 272.06 343.218 274.029C340.826 275.269 338.034 275.908 335.227 275.908V275.908ZM318.804 268.673C323.931 268.673 328.73 269.648 332.504 270.743C334.896 271.438 337.491 271.196 339.632 270.084C341.731 268.993 342.934 267.284 342.934 265.397C342.934 257.508 337.827 246.348 335.363 241.422C334.809 240.557 334.333 239.646 333.952 238.684C333.469 237.466 334.332 236.175 335.915 235.745C337.5 235.317 339.25 235.898 339.901 237.073C339.983 237.223 340.475 238.117 341.194 239.539C344.639 244.672 352.035 247.815 358.009 249.607C361.973 250.797 366.267 250.468 368.947 248.773C375.441 244.662 372.294 239.488 372.035 239.086C371.445 238.25 352.164 211.32 325.451 218.765C320.525 220.137 317.418 222.44 315.951 225.805C313.679 231.014 315.365 238.828 320.826 248.403C325.079 255.861 330.108 261.685 330.158 261.742C330.873 262.566 330.848 263.637 330.092 264.44C329.338 265.243 328.009 265.612 326.744 265.377C316.365 263.413 308.618 264.916 303.949 266.519C302.465 267.028 301.757 268.344 302.337 269.514C302.656 270.156 303.325 270.667 304.173 270.915C304.991 271.155 305.857 271.122 306.617 270.827C310.661 269.259 314.831 268.673 318.804 268.673V268.673Z" fill="black"/>
<path d="M241.78 275.878C240.655 275.878 239.525 275.763 238.414 275.528C237.873 275.415 237.236 275.26 236.51 275.083C231.891 273.96 224.155 272.077 216.407 275.084C213.837 276.079 210.851 276.119 208.211 275.19C205.53 274.249 203.609 272.452 202.942 270.263C201.923 266.926 204.304 263.465 208.603 262.035C213.624 260.365 221.584 258.796 231.939 260.205C232.912 257.216 235.173 252.078 240.122 247.304C237.972 246.6 235.207 245.626 232.298 244.419C223.549 240.791 217.973 236.94 215.724 232.972C212.989 228.146 215.344 222.756 221.587 219.56C226.98 216.8 235.192 216.11 241.383 220.792C243.99 222.762 247.576 224.573 251.371 226.49C260.796 231.25 271.481 236.646 267.397 245.911C267.278 246.178 267.099 246.429 266.866 246.649C263.548 249.791 254.934 259.291 254.934 265.44L254.925 265.857C254.853 269.013 252.808 272.027 249.453 273.922C247.174 275.208 244.495 275.878 241.78 275.878V275.878ZM225.466 268.693C230.909 268.693 235.593 269.833 238.449 270.529C239.083 270.683 239.641 270.82 240.111 270.918C242.026 271.321 244 271.026 245.667 270.087C247.464 269.071 248.56 267.459 248.597 265.774L248.606 265.397C248.606 257.109 259.332 246.19 261.546 244.026C263.501 238.826 257.637 235.408 247.857 230.469C243.974 228.507 239.957 226.479 236.91 224.175C233.022 221.237 228.139 221.987 225.136 223.522C222.096 225.078 219.805 228.021 221.542 231.087C224.972 237.137 240.739 242.528 246.524 244.095C247.545 244.371 248.307 245.024 248.545 245.824C248.783 246.624 248.463 247.46 247.696 248.039C239.096 254.543 237.567 263.262 237.552 263.35C237.439 264.029 236.947 264.64 236.202 265.027C235.454 265.412 234.521 265.538 233.645 265.374C223.439 263.442 215.779 264.875 211.152 266.413C209.656 266.912 208.778 268.103 209.108 269.185C209.336 269.928 209.98 270.534 210.879 270.85C211.737 271.151 212.698 271.144 213.519 270.825C217.626 269.233 221.725 268.693 225.466 268.693V268.693ZM264.395 245.155H264.407H264.395Z" fill="black"/>
<path d="M288.064 364C269.369 364 253.877 360.2 243.268 353.009C234.012 346.737 228.634 337.98 228.126 328.351C227.227 311.358 242.225 292.821 268.875 291.207C297.551 289.477 306.253 303.162 308.88 311.478C309.499 313.441 308.256 315.439 305.858 316.338C303.443 317.243 300.678 316.796 298.978 315.226C295.054 311.605 286.987 305.531 277.015 305.531C266.701 305.531 251.776 312.328 251.776 324.616C251.776 334.887 262.694 340.346 271.852 343.116C284.49 346.939 326.582 350.726 353.245 319.044C363.379 307.003 368.143 294.323 367.405 281.357C366.693 268.81 356.742 257.846 341.437 252.743C340.575 252.456 339.928 251.893 339.67 251.209C338.132 247.125 336.411 243.495 335.237 241.171C334.632 239.974 335.382 238.629 336.939 238.121C338.493 237.609 340.303 238.12 341.041 239.275C344.475 244.638 352.162 247.852 358.005 249.603C361.968 250.792 366.261 250.465 368.943 248.771C375.561 244.582 372.169 239.289 372.021 239.065C371.853 238.821 352.437 211.242 325.45 218.761C321.06 219.984 318.133 221.932 316.502 224.718C313.644 229.594 314.804 237.176 319.857 246.645C320.25 247.383 320.134 248.22 319.545 248.879C318.957 249.537 317.975 249.933 316.923 249.933H262.053C260.87 249.933 259.788 249.435 259.244 248.64C258.699 247.847 258.787 246.89 259.469 246.16C260.386 245.178 261.124 244.438 261.543 244.027C263.502 238.826 257.639 235.409 247.855 230.468C243.973 228.506 239.955 226.478 236.909 224.174C233.021 221.236 228.138 221.986 225.135 223.521C222.095 225.077 219.804 228.02 221.541 231.086C224.97 237.136 240.738 242.527 246.523 244.095C247.544 244.37 248.306 245.023 248.544 245.823C248.782 246.623 248.462 247.459 247.695 248.038C247.225 248.394 246.785 248.76 246.356 249.127C245.755 249.639 244.894 249.932 243.988 249.932H212.322C202.708 249.932 195.88 246.248 193.093 239.557C192.812 238.884 192.94 238.151 193.44 237.556C196.391 234.041 197.951 229.978 197.951 225.808V181.367C197.951 180.728 198.29 180.114 198.891 179.665C212.485 169.509 244.226 152.737 303.964 154.466C341.745 155.563 369.978 168.679 387.887 193.445C405.388 217.646 408 246.698 408 261.86C408 284.813 396.778 309.849 377.978 328.829C362.088 344.875 333.589 364 288.064 364V364ZM273.627 295.845C272.272 295.845 270.858 295.888 269.381 295.978C246.524 297.361 233.672 313.426 234.45 328.159C235.242 343.172 249.744 359.215 288.064 359.215C330.97 359.215 357.888 341.131 372.913 325.961C390.922 307.779 401.672 283.817 401.672 261.86C401.672 247.154 399.16 219.009 382.336 195.74C365.57 172.554 339.121 160.275 303.724 159.246C247.696 157.611 217.645 172.715 204.28 182.377V225.809C204.28 230.494 202.665 235.067 199.593 239.107C201.736 243.169 205.914 245.148 212.323 245.148H234.027C227.06 242.42 218.702 238.22 215.726 232.971C212.991 228.145 215.347 222.755 221.59 219.559C226.983 216.799 235.194 216.109 241.386 220.791C243.993 222.761 247.578 224.572 251.374 226.489C260.084 230.888 270.865 236.333 267.704 245.147H312.35C308.027 235.83 307.475 228.315 310.72 222.779C313.05 218.804 317.271 215.941 323.266 214.271C336.738 210.516 350.49 213.327 363.037 222.393C372.187 229.004 377.444 236.571 377.663 236.89C379.71 239.984 381.337 247.167 373.009 252.438C368.695 255.169 362.413 255.851 356.455 254.269C366.776 260.931 373.13 270.546 373.732 281.149C374.527 295.114 369.431 308.727 358.589 321.61C329.629 356.024 283.414 351.763 269.505 347.556C253.77 342.796 245.452 334.863 245.452 324.613C245.452 310.546 262.089 300.743 277.019 300.743C285.61 300.743 294.385 304.195 301.966 310.515C298.922 303.292 291.454 295.845 273.627 295.845V295.845Z" fill="black"/>
<path d="M346.448 197.432C345.802 197.432 345.152 197.283 344.588 196.973C344.429 196.886 327.482 187.885 294.376 187.885C261.156 187.885 245.652 194.641 245.5 194.709C244 195.376 242.059 195.007 241.167 193.874C240.276 192.742 240.758 191.28 242.252 190.601C242.927 190.295 259.188 183.1 294.376 183.1C329.715 183.1 347.568 192.695 348.311 193.104C349.723 193.881 350.036 195.377 349.008 196.446C348.389 197.091 347.426 197.432 346.448 197.432V197.432Z" fill="black"/>
</g>
<path d="M482.72 406.194V439.194C482.72 465.804 461.15 487.374 434.53 487.374H76.47C49.85 487.374 28.28 465.804 28.28 439.194V406.194L83.66 401.004L156.09 394.224L255.5 384.914L354.91 394.224L482.72 406.194Z" fill="#1D4781"/>
<path d="M482.72 406.194V424.154H83.66V394.223H354.91L482.72 406.194Z" fill="#61A2F9"/>
<path d="M162.265 487.374H76.465C49.855 487.374 28.285 465.804 28.285 439.194V406.194L255.505 384.914L298.405 388.934L114.085 406.194V439.194C114.085 465.803 135.655 487.374 162.265 487.374Z" fill="#1D4781"/>
<path d="M430.012 65H80.988C48.735 65 22.496 91.24 22.496 123.493V373.634C22.496 381.918 29.212 388.634 37.496 388.634C45.78 388.634 52.496 381.918 52.496 373.634V246.817H108.054V390.261H138.054V246.817H196.351V390.261H226.351V246.817H284.649V390.261H314.649V246.817H372.946V390.261H402.946V246.817H458.504V373.633C458.504 381.917 465.22 388.633 473.504 388.633C481.788 388.633 488.504 381.917 488.504 373.633V123.492C488.504 91.239 462.265 65 430.012 65V65ZM52.496 216.817V123.492C52.496 107.781 65.278 94.999 80.988 94.999H108.054V216.816H52.496V216.817ZM138.054 216.817V95H196.351V216.817H138.054ZM226.351 216.817V95H284.649V216.817H226.351ZM314.649 216.817V95H372.946V216.817H314.649ZM402.946 216.817V95H430.012C445.722 95 458.504 107.782 458.504 123.493V216.818H402.946V216.817Z" fill="#7DF7FF"/>
<path d="M183.748 65H80.988C48.738 65 22.498 91.24 22.498 123.49V373.63C22.498 381.91 29.208 388.63 37.498 388.63C45.778 388.63 52.498 381.91 52.498 373.63V246.81H108.058V390.26H138.058V388.47C130.808 387.41 125.248 381.16 125.248 373.63V123.49C125.248 91.24 151.488 65 183.748 65ZM108.058 216.81H52.498V123.49C52.498 107.78 65.278 95 80.988 95H108.058V216.81Z" fill="#7DF7FF"/>
<path d="M482.717 363.633H28.283C16.529 363.633 7 373.162 7 384.916C7 396.67 16.529 406.199 28.283 406.199H482.718C494.472 406.199 504.001 396.67 504.001 384.916C504 373.162 494.471 363.633 482.717 363.633Z" fill="#1D4781"/>
<path d="M84.95 399.966C88.8 403.816 94.12 406.196 100 406.196H28.28C22.4 406.196 17.08 403.816 13.23 399.966C9.38 396.116 7 390.796 7 384.916C7 373.166 16.53 363.636 28.28 363.636H100C88.24 363.636 78.72 373.166 78.72 384.916C78.72 390.796 81.1 396.116 84.95 399.966Z" fill="#1D4781"/>
<path d="M402.95 224.316H458.5C462.642 224.316 466 220.958 466 216.816V123.496C466 103.645 449.855 87.496 430.01 87.496H402.95C398.808 87.496 395.45 90.854 395.45 94.996V123.246C395.45 127.388 398.808 130.746 402.95 130.746C407.092 130.746 410.45 127.388 410.45 123.246V102.496H430.01C441.584 102.496 451 111.916 451 123.496V209.316H410.45V153.246C410.45 149.104 407.092 145.746 402.95 145.746C398.808 145.746 395.45 149.104 395.45 153.246V216.816C395.45 220.958 398.808 224.316 402.95 224.316Z" fill="black"/>
<path d="M314.649 224.317H372.946C377.088 224.317 380.446 220.959 380.446 216.817V94.999C380.446 90.857 377.088 87.499 372.946 87.499H314.649C310.507 87.499 307.149 90.857 307.149 94.999V216.816C307.149 220.959 310.507 224.317 314.649 224.317ZM322.149 102.499H365.446V209.316H322.149V102.499Z" fill="black"/>
<path d="M226.351 224.317H284.649C288.791 224.317 292.149 220.959 292.149 216.817V94.999C292.149 90.857 288.791 87.499 284.649 87.499H226.351C222.209 87.499 218.851 90.857 218.851 94.999V216.816C218.851 220.959 222.209 224.317 226.351 224.317ZM233.851 102.499H277.149V209.316H233.851V102.499Z" fill="black"/>
<path d="M52.496 224.317H108.054C112.196 224.317 115.554 220.959 115.554 216.817V94.999C115.554 90.857 112.196 87.499 108.054 87.499H80.988C61.142 87.499 44.996 103.645 44.996 123.492V216.817C44.996 220.959 48.354 224.317 52.496 224.317ZM59.996 123.492C59.996 111.917 69.413 102.499 80.988 102.499H100.554V209.316H59.996V123.492Z" fill="black"/>
<path d="M138.054 224.317H196.351C200.493 224.317 203.851 220.959 203.851 216.817V94.999C203.851 90.857 200.493 87.499 196.351 87.499H138.054C133.912 87.499 130.554 90.857 130.554 94.999V216.816C130.554 220.959 133.912 224.317 138.054 224.317ZM145.554 102.499H188.851V209.316H145.554V102.499Z" fill="black"/>
<path d="M512 389.257C512 381.58 509.01 374.354 503.573 368.904C501.461 366.792 499.075 365.054 496.5 363.712V127.835C496.5 91.448 466.897 61.845 430.51 61.845H336.659V39.551C336.659 17.742 318.916 0 297.108 0H214.892C193.083 0 175.341 17.743 175.341 39.551V61.844H81.49C45.103 61.844 15.5 91.447 15.5 127.834V363.737C6.299 368.545 0 378.176 0 389.257C0 396.934 2.99 404.159 8.427 409.611C12.047 413.23 16.465 415.759 21.283 417.049V443.531C21.283 474.235 46.262 499.214 76.966 499.214H435.035C465.739 499.214 490.718 474.235 490.718 443.531V417.04C502.962 413.733 512 402.533 512 389.257ZM190.341 39.551C190.341 26.013 201.355 15 214.892 15H297.108C310.646 15 321.659 26.014 321.659 39.551V61.844H190.341V39.551ZM81.49 76.844H430.51C458.626 76.844 481.5 99.718 481.5 127.834V360.477H466.5V251.154C466.5 247.012 463.142 243.654 459 243.654H403.45C399.308 243.654 395.95 247.012 395.95 251.154V360.477H380.95V251.154C380.95 247.012 377.592 243.654 373.45 243.654H315.15C311.008 243.654 307.65 247.012 307.65 251.154V360.477H292.65V251.154C292.65 247.012 289.292 243.654 285.15 243.654H226.85C222.708 243.654 219.35 247.012 219.35 251.154V360.477H204.35V251.154C204.35 247.012 200.992 243.654 196.85 243.654H138.55C134.408 243.654 131.05 247.012 131.05 251.154V360.477H116.05V251.154C116.05 247.012 112.692 243.654 108.55 243.654H53C48.858 243.654 45.5 247.012 45.5 251.154V360.477H30.5V127.835C30.5 99.718 53.374 76.844 81.49 76.844V76.844ZM451.5 360.477H410.95V258.654H451.5V360.477ZM365.95 360.477H322.65V258.654H365.95V360.477ZM277.65 360.477H234.35V258.654H277.65V360.477ZM189.35 360.477H146.05V258.654H189.35V360.477ZM101.05 360.477H60.5V258.654H101.05V360.477ZM483.22 403.037H152.02C147.878 403.037 144.52 406.395 144.52 410.537C144.52 414.679 147.878 418.037 152.02 418.037H475.717V443.532C475.717 465.965 457.467 484.215 435.034 484.215H76.965C54.532 484.215 36.282 465.965 36.282 443.532V418.037H122.059C126.201 418.037 129.559 414.679 129.559 410.537C129.559 406.395 126.201 403.037 122.059 403.037H28.78C25.096 403.037 21.634 401.604 19.041 399.011C16.435 396.399 15 392.935 15 389.257C15 381.659 21.182 375.477 28.78 375.477H483.22C486.904 375.477 490.366 376.909 492.96 379.503C495.565 382.115 497 385.579 497 389.256C497 396.856 490.818 403.037 483.22 403.037V403.037Z" fill="black"/>
<defs>
<clipPath id="clip0">
<rect width="324" height="245" fill="white" transform="translate(84 119)"/>
</clipPath>
</defs>
</svg>
