<svg width="60" height="60" viewBox="0 0 512 500" fill="none" xmlns="http://www.w3.org/2000/svg">
<!-- <rect width="512" height="500" fill="#E5E5E5"/> -->
<path d="M348.599 221.118C348.238 220.437 348.867 219.665 349.632 219.85L351.472 220.299C352.104 220.452 352.701 219.941 352.606 219.314C352.088 215.898 349.442 206.237 335.915 196.72C333.458 194.991 331.57 192.605 330.471 189.855C325.382 177.135 307.607 140.59 269.918 135.86C268.514 135.684 267.307 134.785 266.733 133.527C262.879 125.094 257.606 119.35 254.505 116.45C253.749 115.742 252.513 116.412 252.713 117.414C253.533 121.52 253.43 124.823 253.158 127.002C253.036 127.979 251.727 128.286 251.186 127.453C247.205 121.311 240.554 117.625 236.555 115.848C235.586 115.417 234.652 116.472 235.206 117.358C239.016 123.458 238.637 128.255 238.093 130.531C237.923 131.24 237.081 131.582 236.458 131.178C230.804 127.521 225.934 127.824 223.559 128.317C222.797 128.475 222.485 129.347 222.934 129.968C222.957 129.999 222.979 130.031 223.002 130.062C224.729 132.471 223.19 135.783 220.218 136.296C184.491 142.462 167.488 177.464 162.529 189.857C161.426 192.613 159.529 194.999 157.068 196.732C143.555 206.246 140.911 215.901 140.393 219.316C140.298 219.942 140.895 220.455 141.527 220.3L143.367 219.852C144.131 219.666 144.762 220.438 144.4 221.119C140.375 228.714 140.085 238.312 140.173 242.446C140.19 243.235 141.168 243.616 141.741 243.059L145.249 239.644C145.801 239.107 146.743 239.446 146.804 240.202C149.859 278.284 240.466 282.36 246.499 282.213C252.532 282.36 343.139 278.285 346.194 240.202C346.255 239.446 347.196 239.107 347.748 239.644L351.256 243.059C351.83 243.617 352.807 243.235 352.824 242.446C352.914 238.311 352.624 228.713 348.599 221.118Z" fill="#F4DBCE"/>
<path d="M266.052 248.647H262.206C253.532 248.647 246.5 241.801 246.5 233.356V234.162C246.5 242.606 239.467 249.453 230.792 249.453H226.947C225.628 249.453 224.34 249.322 223.096 249.076C227.251 260.635 237.06 272.007 246.5 272.007C256.179 272.007 266.251 260.051 270.214 248.197C268.873 248.484 267.482 248.647 266.052 248.647Z" fill="#FD605B"/>
<path d="M246.5 233.359V256.6C246.5 258.235 247.873 259.572 249.552 259.572H256.33C258.009 259.572 259.382 258.235 259.382 256.6V248.388C252.059 247.091 246.501 240.862 246.5 233.359Z" fill="#E3E4E5"/>
<path d="M246.5 233.357V234.163C246.5 241.668 240.942 247.897 233.617 249.193V256.6C233.617 258.235 234.99 259.572 236.669 259.572H243.446C245.125 259.572 246.5 258.235 246.5 256.6V233.359C246.5 233.357 246.5 233.357 246.5 233.357Z" fill="#E3E4E5"/>
<path d="M180.117 160.414C185.432 154.171 191.981 148.203 199.906 143.655C194.477 137.96 187.448 128.083 183.585 112.625C177.626 88.7773 133.265 113.914 150.48 140.984C160.059 156.048 171.684 159.931 180.117 160.414Z" fill="#F98080"/>
<path d="M312.869 160.416C321.301 159.935 332.934 156.057 342.52 140.984C359.735 113.914 315.374 88.7773 309.415 112.625C305.551 128.091 298.515 137.971 293.086 143.664C301.01 148.211 307.552 154.177 312.869 160.416Z" fill="#F98080"/>
<path d="M303.984 151.405C313.116 145.669 319.692 133.67 325.306 121.648C330.861 109.753 342.702 124.939 346.374 130.143C348.348 107.973 314.562 92.0284 309.415 112.625C305.552 128.083 298.522 137.962 293.094 143.655C297.061 145.933 300.69 148.559 303.984 151.405Z" fill="#F89422"/>
<path d="M167.694 121.648C173.31 133.675 179.888 145.677 189.025 151.41C192.32 148.564 195.939 145.932 199.905 143.655C194.477 137.96 187.448 128.083 183.585 112.625C178.438 92.0284 144.652 107.973 146.626 130.143C150.298 124.941 162.139 109.753 167.694 121.648Z" fill="#F89422"/>
<path d="M348.599 221.118C348.238 220.437 348.867 219.665 349.631 219.851L351.472 220.299C352.102 220.453 352.701 219.939 352.606 219.314C352.088 215.897 349.441 206.23 335.902 196.711C333.447 194.983 331.568 192.595 330.467 189.846C325.87 178.357 310.927 147.497 280.355 138.114C270.875 151.78 245.844 191.915 264.094 211.165C271.713 210.389 278.929 214.115 282.684 220.26C310.752 226.136 330.124 220.656 343.217 249.948C344.871 246.975 345.912 243.734 346.195 240.2C346.256 239.444 347.199 239.107 347.75 239.643L351.258 243.058C351.831 243.616 352.808 243.234 352.825 242.445C352.914 238.311 352.624 228.713 348.599 221.118Z" fill="#F89422"/>
<path d="M228.164 211.902C247.803 192.959 222.242 151.949 212.641 138.108C182.067 147.49 167.13 178.357 162.533 189.846C161.434 192.595 159.553 194.983 157.098 196.711C143.559 206.23 140.912 215.898 140.394 219.314C140.299 219.941 140.898 220.454 141.528 220.299L143.369 219.85C144.133 219.665 144.762 220.437 144.401 221.118C140.376 228.713 140.086 238.311 140.174 242.446C140.192 243.235 141.169 243.616 141.742 243.059L145.25 239.644C145.801 239.108 146.744 239.444 146.805 240.201C147.088 243.736 148.129 246.976 149.783 249.949C162.972 220.441 182.531 226.224 210.935 220.134C214.695 214.739 221.214 211.46 228.164 211.902Z" fill="#F89422"/>
<path d="M310.331 374.031C311.523 364.307 324.461 360.401 333.403 364.888C338.356 367.373 341.415 371.907 342.265 376.326C353.629 347.02 329.438 296.238 315.068 270.204C287.228 280.739 250.279 282.306 246.5 282.213C242.722 282.304 205.774 280.739 177.932 270.204C163.562 296.238 139.371 347.02 150.735 376.325C151.584 371.906 154.643 367.373 159.597 364.888C168.539 360.401 181.478 364.307 182.669 374.031C184.529 389.215 192.979 400.884 194.298 409.225C219.722 418.971 242.388 418.779 246.499 418.779C250.609 418.779 273.276 418.971 298.699 409.225C300.021 400.884 308.471 389.215 310.331 374.031Z" fill="#F89422"/>
<path d="M263.004 211.277C263.282 211.795 263.437 212.382 263.437 213.051C263.437 218.142 254.811 225.303 246.5 225.479V233.357C246.5 241.802 253.533 248.648 262.208 248.648H266.053C276.728 248.648 285.382 240.224 285.382 229.833C285.38 218.029 274.467 209.459 263.004 211.277Z" fill="#F4DBCE"/>
<path d="M246.19 225.495C237.785 225.495 228.942 218.206 228.942 213.052C228.942 212.658 229.011 212.299 229.11 211.959C217.976 210.707 207.62 219.139 207.62 230.637C207.62 241.029 216.273 249.453 226.948 249.453H230.794C239.468 249.453 246.501 242.606 246.501 234.162V225.479C246.397 225.481 246.294 225.495 246.19 225.495Z" fill="#F4DBCE"/>
<path d="M288.883 332.063C286.269 323.076 278.934 320.97 278.934 320.97C283.553 310.332 290.657 302.818 296.57 297.979C294.455 290.463 292.192 283.372 290.077 277.183C268.894 281.495 249.203 282.279 246.5 282.213C243.796 282.279 224.105 281.493 202.923 277.183C200.808 283.372 198.545 290.463 196.43 297.979C202.341 302.818 209.446 310.332 214.066 320.97C214.066 320.97 206.731 323.076 204.117 332.063C204.117 332.063 197.789 332.372 189.498 329.199C186.627 348.263 187.006 366.216 194.975 376.368C216.255 403.48 242.962 403.108 246.501 403.108C250.041 403.108 276.748 403.48 298.028 376.368C305.997 366.216 306.376 348.263 303.505 329.199C295.211 332.372 288.883 332.063 288.883 332.063Z" fill="#F4DBCE"/>
<path d="M263.437 213.051C263.437 218.206 254.594 225.494 246.189 225.494C237.784 225.494 228.941 218.204 228.941 213.051C228.941 207.897 237.784 207.499 246.189 207.499C254.595 207.5 263.437 207.897 263.437 213.051Z" fill="#F98080"/>
<path d="M278.935 320.97C278.935 320.97 263.929 318.6 258.889 329.639C254.963 338.238 263.273 339.393 267.135 339.485C268.058 339.506 268.736 340.315 268.609 341.204C268.249 343.715 268.281 348.035 272.749 348.035C279.048 348.035 286.364 345.553 288.884 332.063C286.27 323.076 278.935 320.97 278.935 320.97Z" fill="#FFC097"/>
<path d="M214.065 320.97C214.065 320.97 229.071 318.6 234.111 329.639C238.037 338.238 229.727 339.393 225.865 339.485C224.942 339.506 224.264 340.315 224.391 341.204C224.751 343.715 224.719 348.035 220.251 348.035C213.952 348.035 206.636 345.553 204.116 332.063C206.73 323.076 214.065 320.97 214.065 320.97Z" fill="#FFC097"/>
<path d="M333.403 364.888C324.461 360.401 311.522 364.307 310.331 374.031C307.67 395.761 291.49 410.299 302.068 418.174C309.366 423.607 342.515 390.916 342.515 378.801C342.515 373.691 339.291 367.843 333.403 364.888Z" fill="#FFC097"/>
<path d="M159.597 364.888C168.539 360.401 181.478 364.307 182.669 374.031C185.33 395.761 201.51 410.299 190.932 418.174C183.634 423.607 150.485 390.916 150.485 378.801C150.485 373.691 153.709 367.843 159.597 364.888Z" fill="#FFC097"/>
<path d="M246.564 285.435C246.536 285.435 246.466 285.435 246.436 285.435C246.427 285.435 246.422 285.435 246.417 285.435V285.434C241.996 285.348 154.088 282.259 144.298 245.13L144.084 245.338C142.886 246.506 141.095 246.864 139.518 246.249C137.944 245.634 136.902 244.17 136.865 242.519C136.771 238.169 137.084 230.444 139.814 223.287C139.322 223.107 138.86 222.836 138.458 222.48C137.413 221.557 136.914 220.197 137.121 218.84C137.734 214.79 140.719 204.266 155.13 194.12C157.081 192.745 158.573 190.867 159.445 188.686C165.282 174.095 182.832 139.474 219.641 133.121C220.106 133.041 220.292 132.709 220.352 132.571C220.506 132.208 220.341 131.98 220.287 131.904C219.367 130.631 219.177 129.113 219.722 127.764C220.257 126.433 221.435 125.46 222.871 125.164C225.299 124.66 229.8 124.317 235.101 126.739C234.971 124.743 234.305 122.12 232.376 119.032C231.364 117.413 231.552 115.375 232.843 113.959C234.126 112.553 236.172 112.133 237.93 112.915C240.916 114.241 245.748 116.787 249.889 120.798C249.797 119.933 249.66 119.007 249.465 118.029C249.098 116.191 249.985 114.352 251.675 113.456C253.357 112.566 255.415 112.833 256.8 114.125C259.86 116.987 265.611 123.144 269.757 132.217C269.867 132.459 270.098 132.634 270.341 132.665C310.2 137.666 328.803 176.809 333.555 188.686C334.429 190.869 335.915 192.744 337.855 194.109C352.28 204.258 355.266 214.788 355.88 218.845C356.086 220.197 355.586 221.559 354.542 222.481C354.139 222.837 353.678 223.108 353.186 223.288C355.915 230.445 356.229 238.171 356.135 242.516C356.098 244.171 355.057 245.636 353.482 246.249C351.906 246.864 350.116 246.507 348.916 245.338L348.702 245.13C338.912 282.255 251.013 285.346 246.583 285.434V285.435C246.579 285.435 246.573 285.435 246.564 285.435ZM246.5 278.99C246.528 278.99 246.556 278.99 246.582 278.991C258.148 279.28 340.24 273.053 342.894 239.951C343.022 238.356 344.099 236.968 345.64 236.414C346.878 235.969 348.248 236.122 349.343 236.786C348.996 232.543 348.054 227.121 345.655 222.595C344.896 221.163 345.07 219.421 346.096 218.159C346.718 217.396 347.584 216.888 348.528 216.692C347.117 212.67 343.453 206 333.975 199.331C331.001 197.238 328.722 194.366 327.386 191.024C309.912 147.352 278.655 140.207 269.492 139.057C266.968 138.74 264.752 137.124 263.706 134.838C261.583 130.194 258.994 126.415 256.663 123.56C256.671 125.083 256.571 126.374 256.444 127.39C256.218 129.187 254.85 130.658 253.04 131.053C251.217 131.453 249.387 130.716 248.387 129.174C246.393 126.098 243.581 123.695 240.896 121.908C242.133 126.061 241.771 129.351 241.314 131.26C240.989 132.626 239.994 133.751 238.654 134.268C237.322 134.784 235.816 134.631 234.624 133.861C231.638 131.929 228.975 131.331 226.954 131.253C227.145 132.51 226.985 133.816 226.465 135.039C225.471 137.371 223.351 139.026 220.794 139.467C186.351 145.412 169.849 180.432 165.611 191.024C164.278 194.362 161.995 197.238 159.009 199.342C149.542 206.007 145.881 212.676 144.47 216.692C145.413 216.888 146.28 217.396 146.902 218.159C147.929 219.421 148.103 221.163 147.344 222.596C144.944 227.122 144.003 232.543 143.657 236.788C144.75 236.124 146.119 235.97 147.358 236.415C148.9 236.969 149.978 238.356 150.105 239.952C152.76 273.053 234.877 279.261 246.417 278.993C246.444 278.991 246.472 278.99 246.5 278.99ZM348.829 222.978H348.834H348.829ZM144.175 222.976L144.17 222.978C144.171 222.978 144.174 222.978 144.175 222.976ZM349.33 219.783C349.33 219.785 349.331 219.786 349.331 219.787C349.331 219.786 349.33 219.785 349.33 219.783ZM143.67 219.78V219.783C143.67 219.782 143.67 219.781 143.67 219.78Z" fill="black"/>
<path d="M345.936 253.279C345.889 253.279 345.841 253.277 345.794 253.276C344.528 253.223 343.405 252.472 342.9 251.343C333.484 230.273 321.167 228.7 302.524 226.318C297.176 225.635 291.117 224.861 284.709 223.521C283.808 223.332 283.03 222.787 282.56 222.018C279.376 216.809 273.347 213.851 267.156 214.478C266.117 214.586 265.088 214.206 264.38 213.458C244.838 192.846 269.025 152.715 280.33 136.419C281.152 135.237 282.675 134.721 284.069 135.149C294.605 138.383 320.785 150.083 336.27 188.786C337.145 190.974 338.628 192.849 340.559 194.207C354.996 204.359 357.985 214.894 358.599 218.954C358.804 220.306 358.305 221.666 357.26 222.589C356.858 222.943 356.397 223.215 355.904 223.396C358.633 230.551 358.947 238.277 358.853 242.623C358.816 244.278 357.775 245.742 356.201 246.356C354.626 246.973 352.833 246.612 351.635 245.445L351.419 245.235C350.84 247.428 349.981 249.555 348.847 251.593C348.266 252.634 347.146 253.279 345.936 253.279ZM287.44 217.492C293.07 218.611 298.307 219.28 303.384 219.928C320.728 222.143 334.807 223.941 345.397 241.81C345.493 241.231 345.566 240.647 345.614 240.059C345.742 238.465 346.819 237.079 348.359 236.525C349.597 236.08 350.968 236.233 352.063 236.899C351.716 232.654 350.774 227.232 348.375 222.706C347.616 221.274 347.789 219.532 348.816 218.27C349.438 217.507 350.304 216.999 351.248 216.803C349.837 212.78 346.17 206.104 336.682 199.433C333.716 197.345 331.441 194.473 330.101 191.127C316.713 157.666 295.162 145.967 284.416 142.08C275.373 155.519 254.278 190.714 268.253 207.958C275.819 207.759 283.111 211.376 287.44 217.492ZM351.548 223.086H351.553H351.548ZM352.048 219.891C352.048 219.892 352.049 219.895 352.049 219.896C352.049 219.895 352.048 219.893 352.048 219.891Z" fill="black"/>
<path d="M149.783 253.17C148.571 253.17 147.452 252.526 146.872 251.482C145.739 249.442 144.878 247.318 144.302 245.125L144.085 245.335C142.888 246.503 141.096 246.862 139.519 246.247C137.946 245.632 136.904 244.167 136.867 242.516C136.773 238.167 137.086 230.44 139.816 223.285C139.323 223.104 138.861 222.833 138.46 222.478C137.415 221.555 136.916 220.195 137.122 218.837C137.735 214.783 140.724 204.248 155.162 194.095C157.091 192.738 158.575 190.863 159.449 188.675C174.939 149.964 201.112 138.266 211.647 135.033C213.046 134.605 214.565 135.122 215.386 136.302C226.94 152.957 251.54 193.889 230.494 214.188C229.822 214.836 228.904 215.171 227.948 215.114C222.333 214.763 216.86 217.372 213.675 221.94C213.201 222.622 212.476 223.1 211.649 223.278C204.995 224.704 198.724 225.506 193.192 226.211C174.551 228.59 162.237 230.163 152.821 251.231C152.316 252.361 151.193 253.112 149.927 253.165C149.877 253.169 149.829 253.17 149.783 253.17ZM145.903 236.162C146.392 236.162 146.886 236.245 147.36 236.415C148.9 236.969 149.978 238.355 150.105 239.948C150.153 240.537 150.225 241.121 150.322 241.7C160.909 223.834 174.988 222.037 192.329 219.822C197.628 219.147 203.097 218.448 209.001 217.241C213.253 211.878 219.853 208.689 226.774 208.641C242.085 191.703 220.524 155.673 211.298 141.964C200.554 145.849 179.009 157.55 165.617 191.015C164.278 194.363 162.003 197.235 159.038 199.321C149.547 205.993 145.882 212.67 144.47 216.692C145.413 216.888 146.281 217.396 146.903 218.159C147.929 219.421 148.103 221.164 147.344 222.595C144.944 227.121 144.003 232.541 143.656 236.786C144.333 236.378 145.114 236.162 145.903 236.162ZM144.175 222.976L144.17 222.978C144.171 222.978 144.174 222.978 144.175 222.976ZM143.67 219.778V219.782C143.67 219.782 143.67 219.78 143.67 219.778Z" fill="black"/>
<path d="M256.331 262.794H249.554C246.046 262.794 243.189 260.015 243.189 256.6V233.359C243.189 231.578 244.671 230.136 246.5 230.136C248.329 230.136 249.811 231.578 249.811 233.359C249.812 239.188 254.086 244.175 259.975 245.218C261.548 245.496 262.694 246.831 262.694 248.388V256.6C262.694 260.015 259.839 262.794 256.331 262.794ZM249.811 256.349H256.073V250.873C253.737 250.102 251.622 248.91 249.811 247.395V256.349Z" fill="black"/>
<path d="M243.446 262.794H236.669C233.161 262.794 230.306 260.015 230.306 256.6V249.193C230.306 247.636 231.45 246.301 233.025 246.024C238.914 244.981 243.189 239.993 243.189 234.163V233.357C243.189 231.577 244.671 230.135 246.5 230.135C248.321 230.135 249.799 231.565 249.811 233.337V233.357V256.6C249.811 260.015 246.955 262.794 243.446 262.794ZM236.927 256.349H243.189V248.201C241.379 249.715 239.263 250.908 236.927 251.679V256.349Z" fill="black"/>
<path d="M266.053 251.87H262.208C251.721 251.87 243.191 243.565 243.191 233.357V225.479C243.191 223.725 244.63 222.295 246.43 222.256C253.505 222.108 260.127 215.836 260.127 213.051C260.127 212.875 260.089 212.803 260.069 212.768C259.578 211.851 259.569 210.76 260.044 209.835C260.519 208.909 261.423 208.263 262.473 208.097C269.002 207.059 275.67 208.879 280.754 213.088C285.799 217.265 288.692 223.367 288.692 229.832C288.691 241.984 278.535 251.87 266.053 251.87ZM249.811 228.347V233.357C249.811 240.011 255.371 245.424 262.207 245.424H266.052C274.885 245.424 282.07 238.43 282.07 229.832C282.07 225.194 280.078 220.991 276.463 217.998C273.673 215.688 270.214 214.394 266.652 214.268C265.704 220.374 257.875 226.786 249.811 228.347Z" fill="black"/>
<path d="M230.794 252.675H226.948C214.465 252.675 204.309 242.789 204.309 230.637C204.309 224.275 206.987 218.447 211.849 214.229C216.683 210.036 223.113 208.036 229.49 208.757C230.456 208.865 231.322 209.381 231.862 210.167C232.401 210.952 232.56 211.929 232.295 212.839C232.253 212.984 232.253 213.035 232.253 213.052C232.253 215.924 238.951 222.235 246.124 222.273C246.237 222.265 246.327 222.26 246.418 222.257C247.292 222.228 248.174 222.565 248.812 223.171C249.45 223.777 249.812 224.61 249.812 225.479V234.162C249.811 244.37 241.28 252.675 230.794 252.675ZM225.889 215.091C222.362 215.318 218.96 216.694 216.256 219.04C212.821 222.019 210.932 226.137 210.932 230.637C210.932 239.235 218.117 246.23 226.949 246.23H230.795C237.63 246.23 243.191 240.816 243.191 234.162V228.473C235.212 227.203 227.385 221.173 225.889 215.091Z" fill="black"/>
<path d="M246.5 275.231C235.129 275.231 224.346 262.305 219.972 250.142C219.579 249.048 219.818 247.833 220.601 246.961C221.382 246.088 222.582 245.69 223.753 245.918C224.805 246.125 225.879 246.23 226.948 246.23H230.794C237.629 246.23 243.19 240.816 243.19 234.162V233.356C243.19 231.576 244.671 230.133 246.5 230.133C248.329 230.133 249.811 231.576 249.811 233.356C249.811 240.01 255.371 245.423 262.207 245.423H266.052C267.183 245.423 268.343 245.297 269.503 245.049C270.655 244.802 271.868 245.177 272.667 246.033C273.464 246.89 273.729 248.095 273.361 249.195C269.143 261.817 258.294 275.231 246.5 275.231ZM228.222 252.675C232.845 261.891 240.425 268.786 246.5 268.786C252.749 268.786 260.624 261.416 265.177 251.87H262.208C255.868 251.87 250.241 248.833 246.785 244.175C243.395 249.285 237.493 252.675 230.795 252.675H228.222Z" fill="black"/>
<path d="M246.19 228.718C236.392 228.718 225.633 220.518 225.633 213.052C225.633 204.277 238.502 204.277 246.19 204.277C253.879 204.277 266.747 204.277 266.747 213.052C266.747 220.518 255.988 228.718 246.19 228.718ZM246.19 210.723C233.611 210.723 232.254 212.352 232.254 213.052C232.254 215.932 238.992 222.273 246.19 222.273C253.389 222.273 260.126 215.932 260.126 213.052C260.126 212.351 258.769 210.723 246.19 210.723Z" fill="black"/>
<path d="M272.24 201.551C270.417 201.551 268.936 200.115 268.93 198.339C268.902 189.985 275.861 183.166 284.443 183.139H284.492C293.052 183.139 300.026 189.903 300.055 198.239C300.062 200.02 298.584 201.467 296.755 201.472C296.753 201.472 296.749 201.472 296.745 201.472C294.921 201.472 293.441 200.036 293.434 198.26C293.418 193.47 289.41 189.583 284.492 189.583C284.483 189.583 284.473 189.583 284.464 189.583C279.533 189.599 275.536 193.516 275.552 198.315C275.559 200.096 274.081 201.543 272.252 201.548C272.247 201.551 272.243 201.551 272.24 201.551Z" fill="black"/>
<path d="M220.76 201.512C218.931 201.512 217.449 200.07 217.449 198.29C217.449 193.49 213.438 189.586 208.507 189.586C203.577 189.586 199.566 193.49 199.566 198.29C199.566 200.07 198.084 201.512 196.255 201.512C194.426 201.512 192.945 200.07 192.945 198.29C192.945 189.937 199.925 183.141 208.507 183.141C217.089 183.141 224.07 189.937 224.07 198.29C224.07 200.07 222.589 201.512 220.76 201.512Z" fill="black"/>
<path d="M180.117 163.637C180.052 163.637 179.987 163.636 179.922 163.632C170.957 163.118 158.085 159.065 147.666 142.681C141.585 133.12 141.774 122.383 148.183 113.227C154.611 104.044 165.809 98.5381 174.807 100.128C180.922 101.209 185.182 105.377 186.803 111.863C190.527 126.767 197.305 136.186 202.335 141.464C203.017 142.179 203.328 143.156 203.183 144.122C203.039 145.087 202.453 145.937 201.589 146.432C194.761 150.349 188.395 155.747 182.669 162.47C182.034 163.213 181.1 163.637 180.117 163.637ZM171.622 106.3C165.544 106.3 158.021 110.617 153.654 116.856C150.792 120.943 146.941 129.294 153.295 139.287C161.588 152.328 171.409 156.231 178.695 157.058C183.672 151.43 189.096 146.692 194.879 142.927C189.759 136.783 183.823 127.213 180.37 113.386C179.377 109.411 177.107 107.085 173.623 106.468C172.978 106.355 172.311 106.3 171.622 106.3Z" fill="black"/>
<path d="M303.984 154.628C303.192 154.628 302.408 154.353 301.785 153.816C298.518 150.993 295.027 148.509 291.412 146.433C290.549 145.938 289.962 145.089 289.818 144.123C289.673 143.158 289.985 142.181 290.667 141.465C295.697 136.189 302.473 126.771 306.198 111.864C308.375 103.154 315.477 98.6593 324.707 100.134C337.608 102.194 351.034 115.139 349.672 130.422C349.552 131.778 348.571 132.914 347.217 133.26C345.868 133.607 344.437 133.09 343.646 131.969C337.867 123.778 332.934 120.274 330.716 120.437C329.677 120.526 328.839 121.87 328.319 122.984C322.496 135.457 315.733 147.862 305.779 154.115C305.229 154.458 304.605 154.628 303.984 154.628ZM298.121 142.927C300.189 144.273 302.21 145.738 304.163 147.311C311.731 141.451 317.547 130.472 322.289 120.314C324.552 115.469 327.804 114.214 330.135 114.015C333.565 113.718 337.059 115.547 340.306 118.296C336.47 111.858 329.445 107.42 323.634 106.493C319.562 105.842 314.348 106.512 312.629 113.386C309.175 127.215 303.243 136.785 298.121 142.927Z" fill="black"/>
<path d="M312.869 163.638C311.887 163.638 310.951 163.213 310.321 162.473C304.59 155.747 298.225 150.353 291.404 146.44C290.541 145.945 289.954 145.095 289.81 144.13C289.666 143.164 289.977 142.187 290.66 141.472C295.692 136.196 302.472 126.776 306.198 111.863C307.819 105.377 312.078 101.209 318.195 100.128C327.186 98.5394 338.39 104.044 344.818 113.227C351.227 122.383 351.415 133.119 345.336 142.681C334.913 159.071 322.032 163.121 313.063 163.633C312.998 163.637 312.933 163.638 312.869 163.638ZM298.114 142.937C303.889 146.699 309.313 151.435 314.292 157.062C321.582 156.237 331.409 152.335 339.705 139.288C346.06 129.295 342.209 120.945 339.346 116.857C334.485 109.91 325.712 105.35 319.377 106.47C315.893 107.086 313.623 109.413 312.63 113.387C309.174 127.222 303.237 136.795 298.114 142.937Z" fill="black"/>
<path d="M189.024 154.633C188.402 154.633 187.78 154.464 187.231 154.119C177.271 147.867 170.506 135.458 164.68 122.981C164.161 121.869 163.324 120.524 162.284 120.435C160.067 120.267 155.133 123.782 149.354 131.969C148.562 133.09 147.135 133.606 145.781 133.259C144.429 132.912 143.448 131.777 143.327 130.421C141.967 115.139 155.392 102.193 168.293 100.134C177.525 98.658 184.625 103.153 186.802 111.864C190.525 126.769 197.304 136.188 202.333 141.465C203.015 142.181 203.326 143.158 203.182 144.123C203.038 145.089 202.451 145.938 201.588 146.433C198.01 148.487 194.523 150.972 191.223 153.822C190.599 154.358 189.813 154.633 189.024 154.633ZM162.138 113.985C162.38 113.985 162.621 113.995 162.864 114.016C165.194 114.216 168.447 115.47 170.71 120.316C175.453 130.476 181.273 141.459 188.842 147.319C190.803 145.737 192.821 144.27 194.879 142.93C189.758 136.786 183.825 127.216 180.37 113.388C178.651 106.514 173.439 105.843 169.364 106.496C163.552 107.424 156.527 111.863 152.691 118.302C155.709 115.742 158.947 113.985 162.138 113.985Z" fill="black"/>
<path d="M272.747 351.259C269.802 351.259 268.06 349.999 267.115 348.944C265.75 347.417 265.089 345.245 265.166 342.596C261.722 342.265 257.834 341.138 255.796 338.005C254.101 335.397 254.122 332.142 255.864 328.332C261.869 315.177 278.747 317.679 279.465 317.79C279.603 317.812 279.738 317.841 279.873 317.88C280.242 317.987 288.993 320.611 292.069 331.187C292.207 331.66 292.232 332.158 292.142 332.641C289.834 344.994 283.308 351.259 272.747 351.259ZM275.414 323.96C271.451 323.96 264.674 324.904 261.914 330.947C261.163 332.595 260.972 333.909 261.392 334.556C262.021 335.525 264.307 336.195 267.215 336.262C268.588 336.295 269.886 336.899 270.774 337.917C271.672 338.946 272.076 340.306 271.887 341.646C271.602 343.628 271.961 344.545 272.109 344.71C272.133 344.737 272.329 344.812 272.746 344.812C277.477 344.812 283.165 343.362 285.476 332.241C283.487 326.392 279.063 324.457 278.159 324.118C277.707 324.061 276.711 323.96 275.414 323.96Z" fill="black"/>
<path d="M220.253 351.259C209.692 351.259 203.168 344.995 200.858 332.641C200.768 332.158 200.792 331.66 200.931 331.187C204.007 320.611 212.758 317.987 213.127 317.88C213.262 317.841 213.397 317.812 213.535 317.79C214.254 317.677 231.131 315.174 237.137 328.332C238.877 332.142 238.899 335.396 237.204 338.005C235.166 341.138 231.278 342.265 227.834 342.596C227.912 345.245 227.251 347.417 225.885 348.944C224.94 349.999 223.196 351.259 220.253 351.259ZM207.522 332.241C209.831 343.363 215.519 344.812 220.251 344.812C220.669 344.812 220.866 344.737 220.888 344.71C221.037 344.545 221.396 343.628 221.111 341.649C220.92 340.306 221.325 338.946 222.223 337.917C223.113 336.897 224.409 336.295 225.783 336.262C228.692 336.194 230.979 335.523 231.607 334.555C232.026 333.909 231.837 332.593 231.085 330.946C227.437 322.957 216.615 323.904 214.838 324.116C213.853 324.486 209.504 326.403 207.522 332.241Z" fill="black"/>
<path d="M289.407 335.296C289.026 335.296 288.789 335.286 288.717 335.282C287.3 335.213 286.086 334.272 285.7 332.943C283.639 325.863 278.056 324.078 277.999 324.061C277.095 323.801 276.348 323.178 275.944 322.348C275.54 321.518 275.52 320.56 275.887 319.715C285.429 297.738 304.804 288.519 305.624 288.137C307.271 287.366 309.248 288.048 310.039 289.655C310.827 291.259 310.13 293.181 308.483 293.951C308.238 294.067 292.17 301.816 283.279 319.465C285.803 320.994 289.145 323.824 291.215 328.763C295.868 328.387 307.237 326.412 317.548 316.36C318.838 315.101 320.936 315.099 322.229 316.357C323.523 317.616 323.526 319.656 322.232 320.916C308.307 334.489 292.873 335.296 289.407 335.296Z" fill="black"/>
<path d="M203.593 335.296C200.13 335.296 184.695 334.491 170.769 320.914C169.475 319.655 169.478 317.614 170.772 316.356C172.066 315.098 174.161 315.099 175.453 316.359C185.839 326.482 197.144 328.418 201.781 328.774C203.851 323.828 207.197 320.994 209.722 319.463C200.78 301.684 184.692 294.031 184.523 293.951C182.873 293.183 182.176 291.259 182.963 289.653C183.753 288.047 185.729 287.366 187.378 288.136C188.197 288.518 207.572 297.737 217.114 319.714C217.481 320.56 217.461 321.518 217.057 322.346C216.653 323.175 215.907 323.799 215.002 324.06C214.806 324.121 209.352 325.893 207.302 332.941C206.915 334.27 205.701 335.213 204.284 335.281C204.21 335.286 203.974 335.296 203.593 335.296Z" fill="black"/>
<path d="M246.699 406.33C246.677 406.33 246.659 406.33 246.638 406.33H246.361C246.341 406.33 246.32 406.33 246.3 406.33C236.635 406.33 212.168 403.584 192.342 378.325C184.776 368.684 182.715 352 186.22 328.731C186.366 327.759 186.962 326.905 187.836 326.411C188.711 325.917 189.767 325.84 190.708 326.199C195.412 327.999 199.441 328.582 201.784 328.766C203.852 323.825 207.197 320.994 209.721 319.464C205.232 310.555 198.967 304.267 194.299 300.447C193.31 299.637 192.894 298.342 193.236 297.129C195.143 290.347 197.346 283.293 199.78 276.166C200.309 274.612 201.957 273.696 203.599 274.029C224.709 278.325 244.412 279.031 246.417 278.993C246.474 278.991 246.525 278.991 246.582 278.993C248.591 279.044 268.289 278.326 289.399 274.029C291.041 273.696 292.686 274.611 293.218 276.166C295.647 283.269 297.848 290.321 299.763 297.129C300.104 298.342 299.689 299.637 298.701 300.447C294.032 304.269 287.764 310.558 283.278 319.465C285.802 320.996 289.146 323.826 291.215 328.767C293.559 328.583 297.587 328.002 302.291 326.201C303.23 325.841 304.289 325.918 305.163 326.412C306.037 326.906 306.631 327.761 306.778 328.732C310.282 352.001 308.223 368.687 300.657 378.327C280.833 403.582 256.365 406.33 246.699 406.33ZM246.5 399.885H246.646C255.307 399.85 277.324 397.434 295.395 374.412C301.445 366.704 303.247 352.959 300.764 333.521C293.894 335.505 288.96 335.291 288.717 335.282C287.299 335.213 286.085 334.272 285.698 332.941C283.638 325.862 278.055 324.076 277.998 324.061C277.093 323.801 276.347 323.178 275.943 322.348C275.539 321.518 275.519 320.56 275.886 319.715C280.445 309.215 287.332 301.667 292.823 296.88C291.322 291.662 289.655 286.308 287.851 280.91C267.225 284.835 249.047 285.465 246.499 285.437C243.967 285.469 225.775 284.835 205.146 280.91C203.337 286.325 201.671 291.677 200.175 296.88C205.665 301.667 212.552 309.215 217.112 319.715C217.478 320.561 217.459 321.519 217.055 322.348C216.651 323.177 215.904 323.801 215 324.061C214.804 324.123 209.349 325.894 207.299 332.941C206.913 334.272 205.698 335.213 204.28 335.282C204.038 335.292 199.102 335.503 192.234 333.521C189.751 352.96 191.552 366.706 197.602 374.413C215.672 397.433 237.693 399.849 246.352 399.886H246.5V399.885Z" fill="black"/>
<path d="M304.105 421.999C302.542 421.999 301.19 421.577 300.057 420.734C291.788 414.579 295.746 405.543 299.939 395.976C302.781 389.487 306.004 382.133 307.042 373.65C307.647 368.715 310.637 364.625 315.463 362.132C321.349 359.09 328.986 359.046 334.918 362.024C341.441 365.297 345.823 372.04 345.823 378.801C345.823 385.987 337.663 396.206 332.799 401.657C325.229 410.143 316.648 417.279 310.404 420.284C308.031 421.426 305.926 421.999 304.105 421.999ZM303.988 415.546C304.352 415.575 306.903 415.6 313.444 410.768C325.964 401.522 339.205 385.09 339.205 378.801C339.205 375.248 336.915 370.275 331.887 367.752C327.886 365.745 322.535 365.775 318.569 367.825C316.551 368.867 314.054 370.858 313.618 374.413C312.467 383.813 308.898 391.958 306.03 398.504C301.614 408.581 300.278 412.703 303.988 415.546Z" fill="black"/>
<path d="M188.895 421.999C187.074 421.999 184.969 421.428 182.593 420.284C176.349 417.279 167.769 410.143 160.198 401.657C155.334 396.206 147.174 385.987 147.174 378.801C147.174 372.038 151.557 365.297 158.079 362.024C164.013 359.046 171.65 359.091 177.535 362.132C182.361 364.625 185.35 368.715 185.955 373.65C186.994 382.134 190.217 389.489 193.058 395.978C197.251 405.544 201.209 414.58 192.941 420.735C191.81 421.577 190.458 421.999 188.895 421.999ZM161.114 367.752C156.086 370.275 153.797 375.248 153.797 378.801C153.797 385.09 167.038 401.522 179.557 410.768C186.097 415.598 188.651 415.579 189.013 415.546C192.723 412.703 191.387 408.582 186.972 398.506C184.104 391.96 180.535 383.814 179.385 374.413C178.949 370.858 176.451 368.867 174.433 367.825C170.466 365.775 165.113 365.744 161.114 367.752Z" fill="black"/>
<path d="M246.835 422C246.801 422 246.766 422 246.732 422H246.268C246.235 422 246.198 422 246.165 422C228.383 422 209.54 418.53 193.085 412.224C191.99 411.804 191.205 410.848 191.026 409.715C190.548 406.686 188.887 402.894 186.963 398.5C184.099 391.956 180.534 383.812 179.382 374.413C178.946 370.858 176.449 368.867 174.431 367.825C170.466 365.775 165.113 365.745 161.113 367.752C157.453 369.588 154.724 373.101 153.989 376.918C153.716 378.338 152.504 379.408 151.026 379.534C149.547 379.668 148.163 378.814 147.638 377.463C135.908 347.214 159.756 296.323 175.016 268.678C175.807 267.244 177.569 266.607 179.132 267.2C205.845 277.309 242.191 279.089 246.417 278.991C246.471 278.99 246.528 278.99 246.582 278.991C250.825 279.096 287.151 277.309 313.867 267.2C315.428 266.609 317.192 267.245 317.983 268.678C333.242 296.322 357.091 347.214 345.361 377.463C344.836 378.815 343.463 379.67 341.972 379.534C340.494 379.407 339.283 378.338 339.01 376.918C338.275 373.101 335.546 369.588 331.886 367.752C327.885 365.745 322.533 365.775 318.568 367.825C316.55 368.867 314.052 370.858 313.617 374.413C312.466 383.813 308.9 391.958 306.034 398.503C304.111 402.895 302.451 406.689 301.972 409.717C301.793 410.85 301.007 411.805 299.912 412.225C283.462 418.53 264.615 422 246.835 422ZM246.5 415.555H246.737H246.836C263.205 415.555 280.518 412.474 295.811 406.855C296.626 403.552 298.184 399.993 299.943 395.975C302.785 389.487 306.002 382.134 307.042 373.65C307.647 368.717 310.637 364.626 315.463 362.132C321.349 359.09 328.986 359.046 334.918 362.024C337.393 363.265 339.555 364.981 341.289 367.021C345.656 338.375 324.755 294.972 313.508 274.213C285.934 283.903 251.329 285.537 246.499 285.437C241.689 285.533 207.066 283.905 179.489 274.213C168.243 294.972 147.341 338.375 151.708 367.021C153.442 364.981 155.603 363.265 158.079 362.024C164.012 359.047 171.649 359.091 177.535 362.132C182.361 364.625 185.35 368.715 185.955 373.65C186.994 382.134 190.214 389.487 193.053 395.974C194.812 399.993 196.37 403.552 197.185 406.856C212.479 412.474 229.794 415.556 246.161 415.556H246.26H246.5V415.555ZM298.701 409.224H298.714H298.701Z" fill="black"/>
<path d="M332.141 379.862C331.455 379.862 330.765 379.656 330.173 379.229C328.705 378.169 328.395 376.151 329.483 374.721L335.446 366.885C336.535 365.455 338.611 365.155 340.077 366.213C341.546 367.273 341.856 369.29 340.767 370.721L334.804 378.557C334.154 379.409 333.154 379.862 332.141 379.862Z" fill="black"/>
<path d="M322.355 376.586C322.078 376.586 321.799 376.553 321.518 376.482C319.749 376.033 318.687 374.275 319.148 372.552L321.796 362.641C322.257 360.918 324.062 359.885 325.835 360.334C327.604 360.782 328.666 362.541 328.206 364.264L325.557 374.175C325.169 375.623 323.826 376.586 322.355 376.586Z" fill="black"/>
<path d="M160.859 379.862C159.844 379.862 158.845 379.411 158.196 378.557L152.233 370.721C151.144 369.29 151.453 367.273 152.923 366.213C154.39 365.154 156.466 365.454 157.554 366.885L163.516 374.721C164.605 376.151 164.296 378.169 162.827 379.229C162.235 379.656 161.545 379.862 160.859 379.862Z" fill="black"/>
<path d="M170.645 376.586C169.175 376.586 167.831 375.625 167.443 374.174L164.794 364.264C164.334 362.542 165.396 360.782 167.165 360.334C168.937 359.89 170.743 360.918 171.204 362.641L173.852 372.552C174.313 374.274 173.251 376.033 171.482 376.482C171.201 376.551 170.922 376.586 170.645 376.586Z" fill="black"/>
<path d="M403.45 228.657H459C463.142 228.657 466.5 225.299 466.5 221.157V127.837C466.5 107.986 450.355 91.837 430.51 91.837H403.45C399.308 91.837 395.95 95.195 395.95 99.337V127.587C395.95 131.729 399.308 135.087 403.45 135.087C407.592 135.087 410.95 131.729 410.95 127.587V106.837H430.51C442.084 106.837 451.5 116.257 451.5 127.837V213.657H410.95V157.587C410.95 153.445 407.592 150.087 403.45 150.087C399.308 150.087 395.95 153.445 395.95 157.587V221.157C395.95 225.299 399.308 228.657 403.45 228.657Z" fill="black"/>
<path d="M315.149 228.658H373.446C377.588 228.658 380.946 225.3 380.946 221.158V99.34C380.946 95.198 377.588 91.84 373.446 91.84H315.149C311.007 91.84 307.649 95.198 307.649 99.34V221.157C307.649 225.3 311.007 228.658 315.149 228.658ZM322.649 106.84H365.946V213.657H322.649V106.84Z" fill="black"/>
<path d="M226.851 228.658H285.149C289.291 228.658 292.649 225.3 292.649 221.158V99.34C292.649 95.198 289.291 91.84 285.149 91.84H226.851C222.709 91.84 219.351 95.198 219.351 99.34V221.157C219.351 225.3 222.709 228.658 226.851 228.658ZM234.351 106.84H277.649V213.657H234.351V106.84Z" fill="black"/>
<path d="M52.996 228.658H108.554C112.696 228.658 116.054 225.3 116.054 221.158V99.34C116.054 95.198 112.696 91.84 108.554 91.84H81.488C61.642 91.84 45.496 107.986 45.496 127.833V221.158C45.496 225.3 48.854 228.658 52.996 228.658ZM60.496 127.833C60.496 116.258 69.913 106.84 81.488 106.84H101.054V213.657H60.496V127.833Z" fill="black"/>
<path d="M138.554 228.658H196.851C200.993 228.658 204.351 225.3 204.351 221.158V99.34C204.351 95.198 200.993 91.84 196.851 91.84H138.554C134.412 91.84 131.054 95.198 131.054 99.34V221.157C131.054 225.3 134.412 228.658 138.554 228.658ZM146.054 106.84H189.351V213.657H146.054V106.84Z" fill="black"/>
<path d="M512 389.257C512 381.58 509.01 374.354 503.573 368.904C501.461 366.792 499.075 365.054 496.5 363.712V127.835C496.5 91.448 466.897 61.845 430.51 61.845H336.659V39.551C336.659 17.742 318.916 0 297.108 0H214.892C193.083 0 175.341 17.743 175.341 39.551V61.844H81.49C45.103 61.844 15.5 91.447 15.5 127.834V363.737C6.299 368.545 0 378.176 0 389.257C0 396.934 2.99 404.159 8.427 409.611C12.047 413.23 16.465 415.759 21.283 417.049V443.531C21.283 474.235 46.262 499.214 76.966 499.214H435.035C465.739 499.214 490.718 474.235 490.718 443.531V417.04C502.962 413.733 512 402.533 512 389.257ZM190.341 39.551C190.341 26.013 201.355 15 214.892 15H297.108C310.646 15 321.659 26.014 321.659 39.551V61.844H190.341V39.551ZM81.49 76.844H430.51C458.626 76.844 481.5 99.718 481.5 127.834V360.477H466.5V251.154C466.5 247.012 463.142 243.654 459 243.654H403.45C399.308 243.654 395.95 247.012 395.95 251.154V360.477H380.95V251.154C380.95 247.012 377.592 243.654 373.45 243.654H315.15C311.008 243.654 307.65 247.012 307.65 251.154V360.477H292.65V251.154C292.65 247.012 289.292 243.654 285.15 243.654H226.85C222.708 243.654 219.35 247.012 219.35 251.154V360.477H204.35V251.154C204.35 247.012 200.992 243.654 196.85 243.654H138.55C134.408 243.654 131.05 247.012 131.05 251.154V360.477H116.05V251.154C116.05 247.012 112.692 243.654 108.55 243.654H53C48.858 243.654 45.5 247.012 45.5 251.154V360.477H30.5V127.835C30.5 99.718 53.374 76.844 81.49 76.844ZM451.5 360.477H410.95V258.654H451.5V360.477ZM365.95 360.477H322.65V258.654H365.95V360.477ZM277.65 360.477H234.35V258.654H277.65V360.477ZM189.35 360.477H146.05V258.654H189.35V360.477ZM101.05 360.477H60.5V258.654H101.05V360.477ZM483.22 403.037H152.02C147.878 403.037 144.52 406.395 144.52 410.537C144.52 414.679 147.878 418.037 152.02 418.037H475.717V443.532C475.717 465.965 457.467 484.215 435.034 484.215H76.965C54.532 484.215 36.282 465.965 36.282 443.532V418.037H122.059C126.201 418.037 129.559 414.679 129.559 410.537C129.559 406.395 126.201 403.037 122.059 403.037H28.78C25.096 403.037 21.634 401.604 19.041 399.011C16.435 396.399 15 392.935 15 389.257C15 381.659 21.182 375.477 28.78 375.477H483.22C486.904 375.477 490.366 376.909 492.96 379.503C495.565 382.115 497 385.579 497 389.256C497 396.856 490.818 403.037 483.22 403.037Z" fill="black"/>
<path d="M482.72 411.194V444.194C482.72 470.804 461.15 492.374 434.53 492.374H76.47C49.85 492.374 28.28 470.804 28.28 444.194V411.194L83.66 406.004L156.09 399.224L255.5 389.914L354.91 399.224L482.72 411.194Z" fill="#1D4781"/>
<path d="M482.72 411.194V429.154H83.66V399.223H354.91L482.72 411.194Z" fill="#61A2F9"/>
<path d="M162.265 492.374H76.465C49.855 492.374 28.285 470.804 28.285 444.194V411.194L255.505 389.914L298.405 393.934L114.085 411.194V444.194C114.085 470.803 135.655 492.374 162.265 492.374Z" fill="#1D4781"/>
<path d="M430.012 70H80.988C48.735 70 22.496 96.24 22.496 128.493V378.634C22.496 386.918 29.212 393.634 37.496 393.634C45.78 393.634 52.496 386.918 52.496 378.634V251.817H108.054V395.261H138.054V251.817H196.351V395.261H226.351V251.817H284.649V395.261H314.649V251.817H372.946V395.261H402.946V251.817H458.504V378.633C458.504 386.917 465.22 393.633 473.504 393.633C481.788 393.633 488.504 386.917 488.504 378.633V128.492C488.504 96.239 462.265 70 430.012 70ZM52.496 221.817V128.492C52.496 112.781 65.278 99.999 80.988 99.999H108.054V221.816L52.496 221.817ZM138.054 221.817V100H196.351V221.817H138.054ZM226.351 221.817V100H284.649V221.817H226.351ZM314.649 221.817V100H372.946V221.817H314.649ZM402.946 221.817V100H430.012C445.722 100 458.504 112.782 458.504 128.493V221.818H402.946V221.817Z" fill="#7DF7FF"/>
<path d="M183.748 70H80.988C48.738 70 22.498 96.24 22.498 128.49V378.63C22.498 386.91 29.208 393.63 37.498 393.63C45.778 393.63 52.498 386.91 52.498 378.63V251.81H108.058V395.26H138.058V393.47C130.808 392.41 125.248 386.16 125.248 378.63V128.49C125.248 96.24 151.488 70 183.748 70ZM108.058 221.81H52.498V128.49C52.498 112.78 65.278 100 80.988 100H108.058V221.81Z" fill="#7DF7FF"/>
<path d="M482.717 368.633H28.283C16.529 368.633 7 378.162 7 389.916C7 401.67 16.529 411.199 28.283 411.199H482.718C494.472 411.199 504.001 401.67 504.001 389.916C504 378.162 494.471 368.633 482.717 368.633Z" fill="#1D4781"/>
<path d="M84.95 404.966C88.8 408.816 94.12 411.196 100 411.196H28.28C22.4 411.196 17.08 408.816 13.23 404.966C9.38 401.116 7 395.796 7 389.916C7 378.166 16.53 368.636 28.28 368.636H100C88.24 368.636 78.72 378.166 78.72 389.916C78.72 395.796 81.1 401.116 84.95 404.966Z" fill="#1D4781"/>
</svg>
