<svg id="Capa_1" enable-background="new 0 0 512.026 512.026" height="512" viewBox="0 0 512.026 512.026" width="512" xmlns="http://www.w3.org/2000/svg"><g><g><g><ellipse cx="256.013" cy="78.513" fill="#91deb6" rx="56.257" ry="71.013"/><path d="m260.853 7.779c13.039 13.005 21.417 33.129 21.417 55.734 0 39.22-25.187 71.013-56.257 71.013-1.632 0-3.244-.107-4.841-.279 9.583 9.558 21.679 15.279 34.841 15.279 31.07 0 56.257-31.794 56.257-71.013 0-37.159-22.615-67.633-51.417-70.734z" fill="#6ed5a1"/><g><g fill="#91deb6"><path d="m146.439 172.403c-11.574-.452-41.653-.175-71.196 17.806-4.892 2.977-46.749 29.346-51.657 76.122-4.267 40.664 21.364 77.952 30.338 76.273 8.31-1.555-2.448-35.62 19.302-57.19 15.097-14.972 38.931-17.057 55.856-16.677 5.786-32.111 11.571-64.222 17.357-96.334z"/><path d="m365.587 172.403c11.574-.452 41.653-.175 71.196 17.806 4.892 2.977 46.749 29.346 51.657 76.122 4.267 40.664-21.364 77.952-30.338 76.273-8.31-1.555 2.448-35.62-19.302-57.19-15.097-14.972-38.931-17.057-55.856-16.677-5.786-32.111-11.572-64.222-17.357-96.334z"/></g><path d="m94.76 180.68c-23.538 35.233-36.243 77.267-36.243 121.329 0 5.078.173 10.128.507 15.144 1.388-10.457 4.68-22.295 14.202-31.739 15.097-14.972 38.931-17.057 55.856-16.677 5.785-32.111 11.571-64.222 17.356-96.333-9.008-.352-29.227-.259-51.678 8.276z" fill="#6ed5a1"/><path d="m365.587 172.403c5.785 32.111 11.571 64.222 17.356 96.333 16.925-.38 40.759 1.705 55.856 16.677 9.523 9.443 12.814 21.282 14.202 31.739.334-5.016.507-10.066.507-15.144 0-44.062-12.705-86.096-36.243-121.329-22.45-8.534-42.67-8.627-51.678-8.276z" fill="#6ed5a1"/><g><path d="m327.022 441.156c-9.203 28.422 19.694 65.813 36.205 63.215 11.964-1.883 19.76-25.131 18.39-43.101-1.487-19.504-14.582-43.449-30.458-43.101-11.197.245-20.743 12.506-24.137 22.987z" fill="#91deb6"/><path d="m381.617 461.27c-1.487-19.504-14.582-43.449-30.458-43.101-11.197.245-20.743 12.506-24.137 22.987-5.566 17.19 2.806 37.657 13.944 50.577 14.51-7.357 28.197-16.642 40.783-27.731-.024-.92-.064-1.834-.132-2.732z" fill="#6ed5a1"/><path d="m185.004 441.156c9.203 28.422-19.694 65.813-36.205 63.215-11.964-1.883-19.76-25.131-18.39-43.101 1.487-19.504 14.582-43.449 30.458-43.101 11.197.245 20.743 12.506 24.137 22.987z" fill="#91deb6"/><path d="m160.867 418.169c-15.876-.347-28.972 23.597-30.458 43.101-.068.898-.108 1.812-.131 2.733 12.586 11.088 26.272 20.374 40.783 27.731 11.138-12.92 19.51-33.387 13.944-50.577-3.395-10.482-12.941-22.743-24.138-22.988z" fill="#6ed5a1"/></g><path d="m423.509 302.009c0 31.644-7.598 61.381-20.941 87.219-1.995 3.862-11.118 7.638-13.363 11.319-3.109 5.097.549 10.015-3.012 14.735-27.755 36.792-68.743 61.586-115.179 66.015-4.942.471-9.945-6.288-15.001-6.288s-10.06 6.759-15.001 6.288c-46.065-4.394-86.769-28.829-114.511-65.137-2.44-3.193-4.78-13.478-7.014-16.85-3.628-5.475-6.978-4.177-10.028-10.083-13.343-25.838-20.941-55.574-20.941-87.219 0-31.644 7.598-61.381 20.941-87.219 1.969-3.813 11.063-7.541 13.276-11.177 3.133-5.148-.495-10.113 3.098-14.876 27.755-36.792 68.743-61.586 115.179-66.015 4.942-.471 9.945 6.288 15.001 6.288s10.059-6.759 15.001-6.288c46.436 4.429 87.424 29.223 115.179 66.015 3.606 4.78-.012 9.762 3.13 14.928 2.202 3.62 11.285 7.331 13.245 11.125 13.342 25.839 20.941 55.575 20.941 87.22z" fill="#d78878"/><path d="m282.701 124.293c56.638 28.869 95.808 90.873 95.808 162.716 0 99.411-74.991 180-167.496 180-9.084 0-17.996-.788-26.688-2.284 17.45 8.894 36.555 14.648 56.687 16.571 4.942.472 9.945-6.287 15.001-6.287s10.059 6.759 15.001 6.288c46.436-4.429 87.424-29.223 115.179-66.015 3.357-4.45-.479-9.076 2.477-13.863 2.443-3.957 11.745-8.023 13.898-12.191 13.343-25.838 20.941-55.575 20.941-87.219 0-31.645-7.599-61.381-20.944-87.218-2.812-5.444-12.879-3.715-16.183-8.794-2.286-3.513 2.315-13.935-.193-17.258-25.402-33.668-61.888-57.287-103.488-64.446z" fill="#c96e59"/><path d="m402.557 389.222-41.356-41.356v-91.715l41.356-41.356c-4.756-9.21-10.241-17.923-16.374-26.052l-42.45 42.45-72.721-41.985v-66.473c-4.943-.472-9.943-.727-15-.727s-10.057.255-15 .727v66.473l-72.721 41.985-42.45-42.45c-6.132 8.129-11.617 16.842-16.374 26.052l41.356 41.356v91.715l-41.356 41.356c4.756 9.21 10.241 17.923 16.374 26.052l42.45-42.45 72.721 41.985v66.473c4.943.472 9.943.727 15 .727s10.057-.255 15-.727v-66.473l72.721-41.985 42.45 42.45c6.133-8.129 11.618-16.842 16.374-26.052zm-71.356-43.803-75.188 43.41-75.188-43.41v-86.82l75.188-43.41 75.188 43.41z" fill="#e5c7be"/><g fill="#d9b3a6"><path d="m366.741 353.405c-3.731 10.096-8.293 19.739-13.585 28.841l33.028 33.028c6.131-8.128 11.616-16.839 16.371-26.048.001-.001.002-.003.002-.004z"/><path d="m271.013 455.102c-9.607 3.963-19.636 7.009-30 9.023v17.157c1.031-.026 12.548 1.642 30 0z"/><path d="m363.198 211.729c4.371 10.187 7.879 20.889 10.43 31.995l28.929-28.929c-4.152-8.007-9.522-16.993-16.375-26.051z"/></g></g></g></g><path d="m495.902 265.547c-5.134-48.903-46.896-76.671-55.22-81.744-23.871-14.527-48.278-18.398-65.466-18.93-18.845-18.818-41.56-33.235-66.707-41.726 7.311-13.033 11.263-28.529 11.263-44.637 0-43.291-28.603-78.51-63.76-78.51s-63.76 35.219-63.76 78.51c0 16.087 3.943 31.562 11.235 44.584-8.395 2.834-16.618 6.351-24.634 10.576-3.665 1.932-5.069 6.468-3.138 10.132 1.932 3.664 6.468 5.07 10.132 3.138 15.119-7.955 30.955-13.215 47.665-15.753v53.692l-63.987 36.943-33.663-33.663c8.187-10.061 17.501-19.167 27.84-27.056 3.293-2.513 3.926-7.219 1.413-10.512s-7.219-3.925-10.512-1.413c-6.33 4.83-12.295 10.088-17.901 15.699-17.181.544-41.538 4.431-65.363 18.929-8.32 5.07-50.082 32.838-55.216 81.743-3.655 34.894 12.725 67.212 25.524 79.016 4.033 3.719 7.944 5.593 11.653 5.593 10.394 0 11.551-11.091 12.181-20.961.802-12.571 2.614-30.608 16.042-41.141-3.893 53.856 14.222 106.288 49.538 145.084-4.467 8.46-7.435 18.394-8.128 27.56-1.453 19.063 6.508 48.223 24.702 51.079 16.984 2.667 33.775-16.689 41.936-36.321 20.736 9.208 43.571 13.822 66.415 13.827s45.696-4.599 66.466-13.827c7.964 19.51 25.467 38.908 41.933 36.322 18.197-2.857 26.158-32.017 24.705-51.08-.315-4.13-3.914-7.222-8.049-6.908-4.13.315-7.223 3.919-6.908 8.049 1.333 17.486-6.583 34.259-12.079 35.122-5.654.865-19.695-11.042-26.138-28.169 21.46-11.851 40.349-28.32 55.522-48.171 23.099-30.221 41.944-92.502 39.086-132.546 13.115 10.307 15.217 28.564 16.018 41.121.599 9.393 1.219 19.104 10.178 20.775 4.922.918 8.964-1.08 13.657-5.407 12.8-11.805 29.18-44.124 25.525-79.019zm-119.772-77.356-33.63 33.63-63.987-36.943v-53.655c38.683 5.896 72.961 26.758 97.617 56.968zm-157.715-69.355c-7.22-11.36-11.162-25.482-11.162-40.327 0-35.02 21.874-63.51 48.76-63.51s48.76 28.49 48.76 63.51c0 14.863-3.952 29-11.188 40.367-24.454-5.763-50.802-5.756-75.17-.04zm-150.474 161.249c-16.039 15.913-16.582 37.345-17.695 52.002-8.196-8.963-22.342-35.022-19.205-64.974 4.49-42.765 43.653-67.787 48.1-70.497 14.883-9.057 30.056-13.431 43.08-15.391-19.943 26.542-32.957 55.153-38.48 87.968-6.075 2.868-11.384 6.511-15.8 10.892zm28.076 21.924c0-26.071 5.51-51.439 15.686-74.373l31.622 31.622v85.502l-31.646 31.646c-10.035-22.538-15.662-47.772-15.662-74.397zm53.949 194.952c-5.492-.862-13.409-17.635-12.075-35.126.426-5.629 2.025-11.8 4.413-17.424 10.304 9.46 21.64 17.664 33.804 24.382-6.447 17.131-20.503 29.055-26.142 28.168zm83.547-24.166c-38.684-5.896-72.961-26.758-97.617-56.968l33.63-33.63 63.987 36.942zm45 0v-53.655l63.987-36.942 33.63 33.63c-24.656 30.209-58.934 51.071-97.617 56.967zm106.673-69.125-36.149-36.149c-2.4-2.399-6.113-2.888-9.053-1.191l-72.721 41.985c-2.32 1.34-3.75 3.815-3.75 6.495v59.504c-4.968.252-10.032.251-15 0v-59.504c0-2.68-1.43-5.155-3.75-6.495l-72.721-41.985c-2.94-1.697-6.654-1.208-9.053 1.191l-36.149 36.149c-2.874-4.233-5.576-8.61-8.089-13.123l37.377-37.377c1.407-1.407 2.197-3.314 2.197-5.304v-91.715c0-1.989-.79-3.897-2.197-5.303l-37.375-37.375c2.5-4.507 5.195-8.891 8.07-13.143l36.166 36.166c1.445 1.445 3.365 2.197 5.306 2.197 1.284 0 2.577-.329 3.748-1.005l72.721-41.985c2.32-1.34 3.75-3.815 3.75-6.495v-59.5c4.968-.247 10.032-.255 15-.004v59.504c0 2.68 1.43 5.155 3.75 6.495l72.721 41.985c1.17.676 2.463 1.005 3.748 1.005 1.941 0 3.861-.752 5.306-2.197l36.149-36.149c2.874 4.234 5.576 8.61 8.089 13.123l-37.377 37.377c-1.407 1.406-2.197 3.314-2.197 5.303v91.715c0 1.989.79 3.896 2.197 5.304l37.377 37.377c-2.515 4.514-5.217 8.89-8.091 13.124zm15.162-27.265-31.646-31.646v-85.502l31.646-31.646c10.034 22.538 15.662 47.772 15.662 74.397-.001 26.626-5.628 51.86-15.662 74.397zm61.431-44.318c-1.806-24.412-4.47-49.175-33.454-62.875-5.341-32.33-18.621-62.669-38.586-87.997 13.037 1.956 28.235 6.329 43.14 15.399 4.451 2.712 43.614 27.733 48.104 70.497 3.138 29.952-11.007 56.013-19.204 64.976zm-126.828-79.983-75.188-43.41c-2.32-1.34-5.18-1.34-7.5 0l-75.188 43.41c-2.32 1.34-3.75 3.815-3.75 6.495v86.82c0 2.68 1.43 5.155 3.75 6.495l75.188 43.41c2.32 1.34 5.18 1.34 7.5 0l75.188-43.41c2.32-1.34 3.75-3.815 3.75-6.495v-86.82c0-2.68-1.429-5.156-3.75-6.495zm-11.25 88.985-67.688 39.08-67.688-39.08v-78.16l67.688-39.08 67.688 39.08zm-47.664-285.488c4.142 0 7.5-3.358 7.5-7.5s-3.358-7.5-7.5-7.5-7.5 3.358-7.5 7.5 3.357 7.5 7.5 7.5zm-40.048-15c-4.142 0-7.5 3.358-7.5 7.5s3.358 7.5 7.5 7.5 7.5-3.358 7.5-7.5-3.358-7.5-7.5-7.5z"/></g></svg>